<svg width="40" height="40" viewBox="0 0 40 40" fill="none" xmlns="http://www.w3.org/2000/svg">
<g clip-path="url(#clip0_7460_89537)">
<path d="M24.8516 32.0832H30.2475C30.9363 32.0832 31.5767 31.7288 31.9424 31.145L34.7425 26.675C35.1577 26.0121 35.1485 25.1681 34.7188 24.5146L31.5947 19.7626C31.2249 19.2001 30.5968 18.8613 29.9236 18.8613H26.1485C25.4343 18.8613 24.7743 19.2422 24.4169 19.8606L20.9406 25.8763C20.5565 26.5408 20.5867 27.3665 21.0182 28.0013L23.1976 31.2076C23.5699 31.7553 24.1893 32.0832 24.8516 32.0832Z" fill="white"/>
<path d="M5.67179 27.0292C5.22561 26.373 5.20958 25.5151 5.63092 24.8427L15.8884 8.47318C16.2541 7.88955 16.8944 7.53516 17.5831 7.53516H23.2253C23.914 7.53516 24.5543 7.88955 24.9201 8.47318L27.6112 12.7679C28.0182 13.4174 28.0182 14.2424 27.6112 14.8919L17.424 31.1493C17.0583 31.7329 16.418 32.0873 15.7292 32.0873H10.1697C9.50746 32.0873 8.88817 31.7595 8.5158 31.2119L5.67179 27.0292Z" fill="white"/>
<path d="M27.5 26L20.5 26" stroke="#969BA4" stroke-width="0.7"/>
<path d="M31.5527 32.0836L27.8241 27.0807C27.328 26.415 27.2947 25.512 27.7405 24.8116L31.2385 19.3164" stroke="#969BA4" stroke-width="0.7"/>
<path d="M20.3125 26.9632L23.1976 31.2076C23.5699 31.7553 24.1893 32.0832 24.8516 32.0832H30.2475C30.9363 32.0832 31.5767 31.7288 31.9424 31.145L34.7425 26.675C35.1577 26.0121 35.1485 25.1681 34.7188 24.5146L31.5947 19.7626C31.2249 19.2001 30.5968 18.8613 29.9236 18.8613H24.9944" stroke="#505967" stroke-width="1.1"/>
<path d="M24.6175 7.97656C20.4296 14.6164 17.9822 18.4967 13.9825 24.8382C13.5574 25.5123 13.5719 26.376 14.0212 27.0342L17.21 31.7067" stroke="#969BA4" stroke-width="0.7"/>
<path d="M13.5 26H5.5" stroke="#969BA4" stroke-width="0.7"/>
<path d="M5.67179 27.0292C5.22561 26.373 5.20958 25.5151 5.63092 24.8427L15.8884 8.47318C16.2541 7.88955 16.8944 7.53516 17.5831 7.53516H23.2253C23.914 7.53516 24.5543 7.88955 24.9201 8.47318L27.6112 12.7679C28.0182 13.4174 28.0182 14.2424 27.6112 14.8919L17.424 31.1493C17.0583 31.7329 16.418 32.0873 15.7292 32.0873H10.1697C9.50746 32.0873 8.88817 31.7595 8.5158 31.2119L5.67179 27.0292Z" stroke="#505967" stroke-width="1.1"/>
</g>
<defs>
<clipPath id="clip0_7460_89537">
<rect width="32" height="27" fill="white" transform="translate(4.5 6.5)"/>
</clipPath>
</defs>
</svg>
