<?xml version="1.0" encoding="UTF-8"?>
<svg version="1.1" xmlns="http://www.w3.org/2000/svg" width="400" height="400">
<path d="M0 0 C0.99011513 -0.00226556 1.98023025 -0.00453111 3.00034887 -0.00686532 C6.2978775 -0.01316455 9.5953646 -0.01237859 12.89289856 -0.0115509 C15.26556959 -0.01454496 17.63824013 -0.01794806 20.01091003 -0.02172852 C26.44293276 -0.03054811 32.87494217 -0.03290579 39.30697036 -0.0335443 C43.32987497 -0.03403953 47.35277727 -0.03632894 51.37568092 -0.03904152 C64.69860941 -0.04784095 78.02152987 -0.05246207 91.34446128 -0.05171105 C92.06153445 -0.05167109 92.77860762 -0.05163113 93.51741028 -0.05158997 C94.59434657 -0.05152864 94.59434657 -0.05152864 95.69303916 -0.05146609 C107.31953736 -0.05105993 118.94600314 -0.06062363 130.57249197 -0.07472833 C142.53515807 -0.08912533 154.49780839 -0.09599668 166.46048337 -0.09513456 C173.16665592 -0.09480371 179.87278938 -0.09769841 186.5789547 -0.10831261 C192.89008595 -0.11802914 199.20114566 -0.11804843 205.51227951 -0.11079597 C207.82042737 -0.10975451 210.12857978 -0.11208679 212.43671989 -0.11815643 C240.63709088 -0.1874742 265.36073622 3.7713533 286.13825989 24.32511902 C301.50515067 40.62127605 308.94764172 61.12757856 308.92713928 83.32756042 C308.93159597 84.84586346 308.93159597 84.84586346 308.93614268 86.39483929 C308.94479896 89.77915972 308.94633534 93.16344465 308.9478302 96.54777527 C308.95246062 98.97764155 308.95748558 101.40750711 308.96287537 103.83737183 C308.97598145 110.43486067 308.98247829 117.03234217 308.98688602 123.62984085 C308.98965492 127.75559364 308.99389349 131.88134412 308.9983902 136.00709534 C309.01057946 147.44744723 309.02087872 158.88779727 309.02426529 170.32815552 C309.02448486 171.05957144 309.02470442 171.79098736 309.02493064 172.54456741 C309.02514892 173.27766087 309.0253672 174.01075432 309.02559209 174.76606274 C309.02603554 176.25140572 309.02648211 177.7367487 309.02693176 179.22209167 C309.02715319 179.95886159 309.02737462 180.6956315 309.02760276 181.45472777 C309.03154609 193.37815215 309.04898742 205.30151525 309.07229128 217.22491598 C309.09606637 229.48923703 309.10846997 241.75352741 309.10963321 254.01787186 C309.11054664 260.89459321 309.11621449 267.77123473 309.13445282 274.64793396 C309.15156465 281.12238423 309.15306063 287.59672388 309.14431381 294.07119179 C309.14354651 296.43858559 309.1478453 298.80598771 309.15777206 301.17336082 C309.26546333 328.47195298 304.46287861 352.14527575 284.63044739 372.41496277 C268.08057885 388.23736456 247.16830042 395.29535776 224.59994507 395.27415466 C223.10085308 395.27861135 223.10085308 395.27861135 221.5714764 395.28315806 C218.23638847 395.29180101 214.90133663 395.29334959 211.5662384 395.29484558 C209.16902592 395.29947696 206.77181417 395.30450205 204.37460327 395.30989075 C197.87001206 395.32298796 191.36542773 395.32949217 184.86082578 395.33390141 C180.79150275 395.33667209 176.72218208 395.34091098 172.65286064 395.34540558 C161.36430924 395.35759375 150.07575971 395.36789309 138.78720188 395.37128067 C138.06572704 395.37150024 137.34425219 395.3717198 136.60091447 395.37194602 C135.87780488 395.3721643 135.15469528 395.37238258 134.40967327 395.37260747 C132.94460905 395.37305092 131.47954482 395.37349748 130.01448059 395.37394714 C129.28777265 395.37416857 128.5610647 395.37439 127.8123353 395.37461814 C116.05522164 395.37856037 104.29817016 395.3959988 92.54108048 395.41930667 C80.4416999 395.44309744 68.34235041 395.45548607 56.24294609 395.45664859 C49.46119065 395.45756116 42.67951622 395.4632071 35.89778328 395.4814682 C29.51112118 395.49803146 23.12461203 395.50006447 16.73793602 395.49132919 C14.40524509 395.49056316 12.07254565 395.49484364 9.73987579 395.50478745 C-15.07563058 395.60429297 -36.12210658 392.64126162 -56.21330261 377.13371277 C-56.95064636 376.58070496 -57.68799011 376.02769714 -58.44767761 375.45793152 C-73.48659606 363.33656325 -83.22616189 343.76263723 -85.50001049 324.73446465 C-86.51392677 313.27593795 -86.33347173 301.8070145 -86.29850769 290.31388855 C-86.29490663 287.91269484 -86.29170287 285.51150051 -86.28886414 283.11030579 C-86.27856667 275.94315859 -86.25944004 268.77604815 -86.23860338 261.60892564 C-86.22897633 258.2218231 -86.22042371 254.83471786 -86.21175194 251.44761276 C-86.18248994 240.17170677 -86.15077251 228.89581206 -86.11153126 217.61993599 C-86.10141359 214.70476919 -86.0913016 211.78960236 -86.08122253 208.87443542 C-86.07871566 208.15003037 -86.07620879 207.42562531 -86.07362594 206.67926858 C-86.03346358 194.94055794 -86.0102891 183.20187863 -85.9942439 171.46311273 C-85.97745266 159.37482336 -85.94569323 147.28664567 -85.89935988 135.1984328 C-85.87376047 128.42577053 -85.85449993 121.65322601 -85.85198402 114.88051224 C-85.84881829 108.50928371 -85.82670543 102.13839247 -85.79042816 95.76726913 C-85.78036789 93.43859534 -85.77696204 91.10988107 -85.78095818 88.78118896 C-85.80276034 73.05590357 -84.95663297 58.92471023 -77.40080261 44.75871277 C-77.05315857 44.09009216 -76.70551453 43.42147156 -76.34733582 42.73258972 C-73.49449125 37.38374991 -70.31845499 32.61428664 -66.21330261 28.13371277 C-65.38959167 27.23007996 -64.56588074 26.32644714 -63.71720886 25.39543152 C-46.45805254 7.30391872 -24.55536868 -0.04179952 0 0 Z " fill="#42CE9F" transform="translate(87.21330261230469,2.8662872314453125)"/>
<path d="M0 0 C12.87 0 25.74 0 39 0 C39 10.23 39 20.46 39 31 C42.135 31.391875 45.27 31.78375 48.5 32.1875 C76.88235942 36.09070663 106.01611654 48.85292903 123.93359375 71.91796875 C127.97680052 77.94838489 131.13346332 84.34004398 134 91 C134.38414062 91.88945312 134.76828125 92.77890625 135.1640625 93.6953125 C139.69717266 106.87098783 138.51144082 124.40729621 133 137 C132.55269531 138.03382813 132.10539063 139.06765625 131.64453125 140.1328125 C122.15312127 160.43883171 104.7833188 175.10929338 84 183 C66.65500266 189.14875567 49.03991062 191.22945706 30.69830322 191.47177124 C29.33046524 191.49039484 27.96270445 191.51629999 26.59515381 191.54995728 C18.50458899 191.72535271 12.21202174 191.58792641 6 186 C0.91346199 180.64574946 -0.25090556 176.01025301 -0.24050903 168.71708679 C-0.24221788 167.99410945 -0.24392673 167.27113211 -0.24568737 166.52624637 C-0.24897539 164.109437 -0.23799003 161.69290674 -0.22705078 159.27612305 C-0.22648652 157.54141751 -0.22680352 155.80671149 -0.22793579 154.07200623 C-0.22850972 149.36579897 -0.21674893 144.65969362 -0.20278788 139.95351005 C-0.19028718 135.03410086 -0.18911054 130.11468934 -0.18673706 125.19526672 C-0.18052035 115.8810113 -0.16410694 106.56680282 -0.14403808 97.25256807 C-0.12168503 86.64806554 -0.11068714 76.04356077 -0.10064721 65.43904054 C-0.07974089 43.62599501 -0.04306224 21.81301382 0 0 Z " fill="#FDFEFE" transform="translate(130,104)"/>
<path d="M0 0 C9.01908843 0 9.01908843 0 12.6640625 1.06640625 C13.46924316 1.30077393 14.27442383 1.5351416 15.10400391 1.77661133 C15.93593262 2.03595459 16.76786133 2.29529785 17.625 2.5625 C18.49946777 2.83280029 19.37393555 3.10310059 20.27490234 3.3815918 C32.6309184 7.33900644 42.87504475 12.56218915 52 22 C52.52207031 22.52464844 53.04414063 23.04929688 53.58203125 23.58984375 C58.50978619 28.964223 61.20282217 35.18226192 61.5 42.4375 C60.99641836 53.39421576 55.83535321 60.64739367 48 68 C34.29342882 79.88056929 17.53307785 82 0 82 C0 54.94 0 27.88 0 0 Z " fill="#43CE9F" transform="translate(168,174)"/>
</svg>
