<?xml version="1.0" encoding="UTF-8"?>
<svg version="1.1" xmlns="http://www.w3.org/2000/svg" width="256" height="256">
<path d="M0 0 C0.81339844 -0.01933594 1.62679687 -0.03867188 2.46484375 -0.05859375 C7.3154088 0.86775476 9.92812766 2.81404886 12.70239258 6.78442383 C14.54548353 9.83877202 16.28326225 12.93538145 18 16.0625 C18.65546574 17.23075134 19.31247837 18.39813597 19.97094727 19.56469727 C21.33571182 21.98556278 22.69378677 24.4099923 24.046875 26.83740234 C27.14300257 32.38141042 30.32280856 37.87717985 33.5 43.375 C34.11617187 44.44459961 34.73234375 45.51419922 35.3671875 46.61621094 C39.85039597 54.38509034 44.41176165 62.1052875 49 69.8125 C55.18149112 80.19794646 61.22103085 90.65510802 67.19848633 101.15869141 C73.17274791 111.65415164 79.24742884 122.08897527 85.34912109 132.51074219 C93.80052043 146.94724479 102.24988594 161.38597088 110.56445312 175.90185547 C113.54460994 181.10299849 116.55579178 186.27583849 119.67578125 191.39453125 C120.23765137 192.33208252 120.79952148 193.26963379 121.37841797 194.2355957 C122.42097498 195.97271984 123.47996727 197.70014139 124.55908203 199.41479492 C127.94828563 205.12017013 128.97180201 209.81636154 128.0625 216.4375 C126.32738352 220.72963023 124.21834493 222.49977512 120.0625 224.4375 C116.83586258 224.87606617 113.63573867 224.84221481 110.38354492 224.81845093 C109.40274806 224.8231309 108.4219512 224.82781087 107.41143322 224.83263266 C104.12180791 224.84460778 100.83259723 224.83511539 97.54296875 224.82568359 C95.1858394 224.82974816 92.82871196 224.8350894 90.47158813 224.84161377 C84.06674669 224.85530669 77.66204999 224.84998048 71.25720596 224.84047651 C67.25784284 224.83514615 63.25848965 224.83614786 59.25912476 224.8389473 C58.26317631 224.83963684 58.26317631 224.83963684 57.24710768 224.84034032 C55.898264 224.8412995 54.54942033 224.84227214 53.20057666 224.8432581 C40.55317529 224.85181224 27.90583916 224.8419775 15.25844848 224.825857 C4.40696684 224.81245378 -6.44441853 224.81478186 -17.29589844 224.82861328 C-29.89811507 224.84466869 -42.50027453 224.85098826 -55.10249996 224.84177649 C-56.44637488 224.84082085 -57.79024982 224.83987773 -59.13412476 224.8389473 C-59.79533272 224.83848447 -60.45654069 224.83802164 -61.13778526 224.83754479 C-65.79676281 224.83495478 -70.45568415 224.83947264 -75.11465454 224.84638596 C-81.38553099 224.85504086 -87.65622532 224.84906053 -93.92708206 224.83170319 C-96.23093996 224.82773047 -98.53481315 224.82888573 -100.83866501 224.83549118 C-103.97883314 224.84366556 -107.11841437 224.83343438 -110.25854492 224.81845093 C-111.17439771 224.82514309 -112.09025049 224.83183526 -113.03385639 224.83873022 C-117.83387415 224.79417891 -121.03813444 224.55392392 -124.9375 221.4375 C-128.32515543 217.58258175 -128.30162183 213.96600302 -128.23022461 209.06176758 C-127.76167507 204.86123462 -126.01172059 201.85922476 -123.8125 198.3125 C-123.36874023 197.55662598 -122.92498047 196.80075195 -122.46777344 196.02197266 C-121.49428108 194.36743489 -120.51145462 192.718362 -119.52050781 191.07421875 C-117.86980515 188.32474484 -116.25540581 185.55649463 -114.6484375 182.78125 C-111.69712538 177.68670807 -108.72565431 172.60431355 -105.74755859 167.52539062 C-102.82589826 162.54115 -99.91215488 157.55229897 -97 152.5625 C-96.42540039 151.57813965 -95.85080078 150.5937793 -95.25878906 149.57958984 C-90.96228956 142.21194197 -86.69513801 134.82766085 -82.4375 127.4375 C-74.74621162 114.08740822 -66.9826709 100.78016958 -59.20800781 87.47851562 C-52.58728099 76.14896956 -45.98836245 64.80761133 -39.4375 53.4375 C-32.80443533 41.92875356 -26.15943048 30.42740735 -19.42675781 18.9765625 C-18.0961609 16.70800383 -16.77765788 14.43287376 -15.4609375 12.15625 C-14.76662652 10.97857564 -14.07141567 9.80143099 -13.375 8.625 C-12.81683594 7.66980469 -12.25867188 6.71460938 -11.68359375 5.73046875 C-8.52424074 1.58160921 -5.16751622 0.00816353 0 0 Z " fill="#2671CC" transform="translate(127.9375,15.5625)"/>
<path d="M0 0 C4.21256051 0.56443817 7.66317834 1.54318642 11.5234375 3.30859375 C12.60625 3.79908203 13.6890625 4.28957031 14.8046875 4.79492188 C15.98289063 5.33697266 17.16109375 5.87902344 18.375 6.4375 C19.64028213 7.01312404 20.90591781 7.58797149 22.171875 8.16210938 C24.94376319 9.42000637 27.71402408 10.681403 30.48339844 11.94482422 C37.78453707 15.27173523 45.10611361 18.55341454 52.42446899 21.84222412 C55.86798957 23.39018648 59.31064169 24.94007512 62.75331116 26.4899292 C71.89463644 30.60506144 81.03926124 34.71276178 90.1875 38.8125 C91.34556152 39.33158936 92.50362305 39.85067871 93.69677734 40.38549805 C99.46165318 42.96884188 105.22796517 45.54892702 110.99609375 48.125 C124.93637566 54.35551318 138.84234675 60.65506116 152.72219849 67.01885986 C160.57400841 70.61855776 168.43048768 74.20599689 176.31640625 77.73046875 C176.97720184 78.02583527 177.63799744 78.32120178 178.31881714 78.6255188 C181.40744164 80.00491709 184.4976744 81.38050925 187.58984375 82.75195312 C194.14823935 85.67236811 200.61272859 88.72131468 207 92 C207 92.99 207 93.98 207 95 C202.60677423 98.85684242 197.84327518 98.42130204 192.32104492 98.38095093 C191.34024806 98.3856309 190.3594512 98.39031087 189.34893322 98.39513266 C186.05930791 98.40710778 182.77009723 98.39761539 179.48046875 98.38818359 C177.1233394 98.39224816 174.76621196 98.3975894 172.40908813 98.40411377 C166.00424669 98.41780669 159.59954999 98.41248048 153.19470596 98.40297651 C149.19534284 98.39764615 145.19598965 98.39864786 141.19662476 98.4014473 C140.20067631 98.40213684 140.20067631 98.40213684 139.18460768 98.40284032 C137.835764 98.4037995 136.48692033 98.40477214 135.13807666 98.4057581 C122.49067529 98.41431224 109.84333916 98.4044775 97.19594848 98.388357 C86.34446684 98.37495378 75.49308147 98.37728186 64.64160156 98.39111328 C52.03938493 98.40716869 39.43722547 98.41348826 26.83500004 98.40427649 C25.49112512 98.40332085 24.14725018 98.40237773 22.80337524 98.4014473 C22.14216728 98.40098447 21.48095931 98.40052164 20.79971474 98.40004479 C16.14073719 98.39745478 11.48181585 98.40197264 6.82284546 98.40888596 C0.55196901 98.41754086 -5.71872532 98.41156053 -11.98958206 98.39420319 C-14.29343996 98.39023047 -16.59731315 98.39138573 -18.90116501 98.39799118 C-22.04133314 98.40616556 -25.18091437 98.39593438 -28.32104492 98.38095093 C-29.23689771 98.38764309 -30.15275049 98.39433526 -31.09635639 98.40123022 C-35.89637415 98.35667891 -39.10063444 98.11642392 -43 95 C-46.38765543 91.14508175 -46.36412183 87.52850302 -46.29272461 82.62426758 C-45.82417507 78.42373462 -44.07422059 75.42172476 -41.875 71.875 C-41.43124023 71.11912598 -40.98748047 70.36325195 -40.53027344 69.58447266 C-39.55678108 67.92993489 -38.57395462 66.280862 -37.58300781 64.63671875 C-35.93230515 61.88724484 -34.31790581 59.11899463 -32.7109375 56.34375 C-29.7698106 51.26682472 -26.80864452 46.20198133 -23.84082031 41.140625 C-20.76269283 35.88902925 -17.69324993 30.63237128 -14.625 25.375 C-14.04250488 24.37710449 -13.46000977 23.37920898 -12.85986328 22.35107422 C-8.52953011 14.92534095 -4.23933102 7.4780746 0 0 Z " fill="#2057B5" transform="translate(46,142)"/>
<path d="M0 0 C0.81339844 -0.01933594 1.62679687 -0.03867188 2.46484375 -0.05859375 C7.3154088 0.86775476 9.92812766 2.81404886 12.70239258 6.78442383 C14.54548353 9.83877202 16.28326225 12.93538145 18 16.0625 C18.65546574 17.23075134 19.31247837 18.39813597 19.97094727 19.56469727 C21.33571182 21.98556278 22.69378677 24.4099923 24.046875 26.83740234 C27.14300411 32.38141318 30.32298197 37.87707694 33.5 43.375 C34.10529541 44.42647217 34.71059082 45.47794434 35.33422852 46.5612793 C38.69410239 52.38662128 42.08951635 58.18918661 45.52734375 63.96875 C45.89719894 64.59076797 46.26705414 65.21278595 46.64811707 65.85365295 C48.44341074 68.87078587 50.24299107 71.88525985 52.04858398 74.89624023 C52.68997314 75.97075439 53.3313623 77.04526855 53.9921875 78.15234375 C54.56179199 79.10230225 55.13139648 80.05226074 55.71826172 81.03100586 C57.0625 83.4375 57.0625 83.4375 58.0625 86.4375 C44.32075467 90.6677613 30.55319088 94.77654684 16.71679688 98.68603516 C12.03776022 100.01072931 7.36291285 101.3500839 2.6875 102.6875 C0.20145859 103.39789714 -2.28461965 104.10815915 -4.77099609 104.81738281 C-6.64042254 105.35246769 -8.50790252 105.89434437 -10.375 106.4375 C-14.12578581 107.49035216 -17.89058746 108.47107625 -21.66333008 109.44165039 C-30.39093312 111.68694111 -39.08974286 114.00700615 -47.75 116.5 C-48.60279541 116.74468018 -49.45559082 116.98936035 -50.33422852 117.24145508 C-53.73645023 118.21978471 -57.1373823 119.20179941 -60.53320312 120.20214844 C-63.01984647 120.93456765 -65.50961046 121.65544125 -68 122.375 C-68.74419189 122.59873291 -69.48838379 122.82246582 -70.25512695 123.05297852 C-73.91463204 124.10117417 -76.30741197 124.56001725 -79.9375 123.4375 C-79.01953125 121.84635417 -78.1015625 120.25520833 -77.18359375 118.6640625 C-76.58409912 117.62491699 -75.98460449 116.58577148 -75.36694336 115.51513672 C-74.02017577 113.18078358 -72.67334393 110.84646765 -71.32641602 108.51220703 C-67.91372702 102.59771511 -64.50210594 96.68261559 -61.09375 90.765625 C-53.33136652 77.29321598 -45.52596993 63.84684369 -37.68017578 50.42285156 C-35.90709885 47.38542025 -34.13850172 44.34542052 -32.37109375 41.3046875 C-29.46815156 36.31068999 -26.55301605 31.32396606 -23.63232422 26.34033203 C-21.93290047 23.4296221 -20.24937053 20.51009388 -18.56640625 17.58984375 C-17.50321743 15.76787117 -16.43944321 13.94624002 -15.375 12.125 C-14.89853027 11.2887207 -14.42206055 10.45244141 -13.93115234 9.59082031 C-10.419562 3.63198505 -7.35984099 0.01162692 0 0 Z " fill="#7CBDF3" transform="translate(127.9375,15.5625)"/>
</svg>
