<svg version="1.1" id="Layer_1" xmlns="http://www.w3.org/2000/svg" xmlns:xlink="http://www.w3.org/1999/xlink" x="0px" y="0px"
	 width="100%" viewBox="0 0 460 460" enable-background="new 0 0 460 460" xml:space="preserve">
<path fill="#050505" opacity="1.000000" stroke="none" 
	d="
M315.000000,461.000000 
	C210.000000,461.000000 105.500000,461.000000 1.000000,461.000000 
	C1.000000,307.666656 1.000000,154.333328 1.000000,1.000000 
	C154.333328,1.000000 307.666656,1.000000 461.000000,1.000000 
	C461.000000,154.333328 461.000000,307.666656 461.000000,461.000000 
	C412.500000,461.000000 364.000000,461.000000 315.000000,461.000000 
M230.752563,230.779922 
	C230.324570,230.271759 229.891571,229.767700 229.469254,229.254868 
	C212.189087,208.272354 226.453796,178.450119 249.661316,175.617889 
	C260.806976,174.257675 269.795654,177.742767 278.286896,185.308868 
	C278.818420,185.949615 279.323822,186.614288 279.885284,187.227631 
	C300.595490,209.851990 309.745270,236.376831 306.039398,266.905273 
	C303.327209,289.247650 293.630066,308.609344 277.814819,324.431824 
	C264.681793,337.570862 248.835876,346.344238 230.403976,350.486694 
	C204.816391,356.237366 180.809341,352.393311 158.273956,339.519592 
	C151.139328,335.443787 144.833115,329.917786 138.432709,325.262695 
	C130.921341,332.802643 123.477196,340.275146 116.028603,347.752106 
	C157.295609,392.375488 243.164948,404.655182 300.915710,347.713928 
	C349.979736,299.337646 354.679688,215.515945 300.819214,161.197235 
	C296.825043,158.266739 293.004669,155.056412 288.808624,152.451065 
	C260.944275,135.150131 234.391174,140.653397 213.946899,156.556198 
	C193.542633,172.427856 185.595459,194.552032 190.173019,220.321106 
	C192.498306,233.411148 197.811478,245.257248 208.529465,254.404312 
	C216.165878,246.682388 223.645020,239.119492 231.758026,231.870850 
	C241.221298,242.033508 243.512665,254.183578 238.621506,266.605438 
	C233.838562,278.752472 224.290390,286.335632 210.570953,287.434235 
	C200.464386,288.243530 192.139343,284.315277 184.392044,277.406250 
	C171.637787,264.044434 162.751297,248.595230 158.624100,230.461884 
	C151.095291,197.383209 159.105408,168.088943 180.942017,142.742142 
	C194.824493,126.628075 212.548920,116.248024 233.694061,111.955063 
	C258.517395,106.915344 282.003357,110.242813 303.893433,122.930199 
	C311.177643,127.152077 317.722015,132.650391 323.902710,137.063965 
	C331.460663,129.725494 339.121582,122.287056 346.845978,114.786972 
	C335.054688,102.153130 320.542633,93.604073 304.987762,86.661110 
	C281.391693,76.128929 256.582245,75.331207 231.553009,78.633865 
	C215.592499,80.739883 201.079025,87.365944 187.162262,95.434891 
	C167.880966,106.614189 152.772690,122.028992 141.589722,141.006363 
	C127.106956,165.583374 120.962990,192.279144 123.903511,220.905899 
	C127.110359,252.125427 139.663208,278.847382 162.106018,301.694275 
	C165.686111,304.353668 169.176971,307.144165 172.860733,309.651245 
	C197.432297,326.373840 230.142059,323.401093 252.311340,302.991913 
	C269.655914,287.024384 276.482666,267.149719 272.848755,244.007675 
	C270.705627,230.359299 265.399078,217.974808 253.743286,207.944214 
	C246.093567,215.883087 238.607147,223.652466 230.752563,230.779922 
z"/>
<path fill="#CAF9EB" opacity="1.000000" stroke="none" 
	d="
M161.796509,301.081665 
	C139.663208,278.847382 127.110359,252.125427 123.903511,220.905899 
	C120.962990,192.279144 127.106956,165.583374 141.589722,141.006363 
	C152.772690,122.028992 167.880966,106.614189 187.162262,95.434891 
	C201.079025,87.365944 215.592499,80.739883 231.553009,78.633865 
	C256.582245,75.331207 281.391693,76.128929 304.987762,86.661110 
	C320.542633,93.604073 335.054688,102.153130 346.845978,114.786972 
	C339.121582,122.287056 331.460663,129.725494 323.902710,137.063965 
	C317.722015,132.650391 311.177643,127.152077 303.893433,122.930199 
	C282.003357,110.242813 258.517395,106.915344 233.694061,111.955063 
	C212.548920,116.248024 194.824493,126.628075 180.942017,142.742142 
	C159.105408,168.088943 151.095291,197.383209 158.624100,230.461884 
	C162.751297,248.595230 171.637787,264.044434 184.301132,277.910706 
	C176.738983,285.970642 169.267731,293.526154 161.796509,301.081665 
z"/>
<path fill="#00E7A2" opacity="1.000000" stroke="none" 
	d="
M301.074371,161.800323 
	C354.679688,215.515945 349.979736,299.337646 300.915710,347.713928 
	C243.164948,404.655182 157.295609,392.375488 116.028603,347.752106 
	C123.477196,340.275146 130.921341,332.802643 138.432709,325.262695 
	C144.833115,329.917786 151.139328,335.443787 158.273956,339.519592 
	C180.809341,352.393311 204.816391,356.237366 230.403976,350.486694 
	C248.835876,346.344238 264.681793,337.570862 277.814819,324.431824 
	C293.630066,308.609344 303.327209,289.247650 306.039398,266.905273 
	C309.745270,236.376831 300.595490,209.851990 279.885284,187.227631 
	C279.323822,186.614288 278.818420,185.949615 278.349121,184.762955 
	C285.965698,176.744797 293.520020,169.272552 301.074371,161.800323 
z"/>
<path fill="#00E7A2" opacity="1.000000" stroke="none" 
	d="
M161.951263,301.387970 
	C169.267731,293.526154 176.738983,285.970642 184.439529,278.196167 
	C192.139343,284.315277 200.464386,288.243530 210.570953,287.434235 
	C224.290390,286.335632 233.838562,278.752472 238.621506,266.605438 
	C243.512665,254.183578 241.221298,242.033508 231.381439,231.681427 
	C231.004852,231.492004 231.120697,231.421814 231.120728,231.421844 
	C238.607147,223.652466 246.093567,215.883087 253.743286,207.944214 
	C265.399078,217.974808 270.705627,230.359299 272.848755,244.007675 
	C276.482666,267.149719 269.655914,287.024384 252.311340,302.991913 
	C230.142059,323.401093 197.432297,326.373840 172.860733,309.651245 
	C169.176971,307.144165 165.686111,304.353668 161.951263,301.387970 
z"/>
<path fill="#CAF9EB" opacity="1.000000" stroke="none" 
	d="
M230.936630,231.100861 
	C231.120697,231.421814 231.004852,231.492004 231.064514,231.524307 
	C223.645020,239.119492 216.165878,246.682388 208.529465,254.404312 
	C197.811478,245.257248 192.498306,233.411148 190.173019,220.321106 
	C185.595459,194.552032 193.542633,172.427856 213.946899,156.556198 
	C234.391174,140.653397 260.944275,135.150131 288.808624,152.451065 
	C293.004669,155.056412 296.825043,158.266739 300.946777,161.498779 
	C293.520020,169.272552 285.965698,176.744797 278.195038,184.449936 
	C269.795654,177.742767 260.806976,174.257675 249.661316,175.617889 
	C226.453796,178.450119 212.189087,208.272354 229.469254,229.254868 
	C229.891571,229.767700 230.324570,230.271759 230.936630,231.100861 
z"/>
</svg>