<?xml version="1.0" encoding="UTF-8"?>
<svg version="1.1" xmlns="http://www.w3.org/2000/svg" width="148" height="148">
<path d="M0 0 C48.84 0 97.68 0 148 0 C148 48.84 148 97.68 148 148 C99.16 148 50.32 148 0 148 C0 99.16 0 50.32 0 0 Z " fill="#FF4D01" transform="translate(0,0)"/>
<path d="M0 0 C20.46 0 40.92 0 62 0 C59.94554501 14.38118492 50.99183112 24.67833567 41.625 35.3125 C25.1580197 54.12782729 18.35992178 69.47565201 17.4375 94.5625 C17.39431641 95.66658203 17.35113281 96.77066406 17.30664062 97.90820312 C17.20155613 100.60537185 17.09940587 103.30261703 17 106 C13.34302822 104.62681252 11.18219031 103.5426197 8.6875 100.5 C8.17574219 99.8915625 7.66398438 99.283125 7.13671875 98.65625 C6 97 6 97 6 95 C4.515 95.495 4.515 95.495 3 96 C2.34 100.62 1.68 105.24 1 110 C0.67 110 0.34 110 0 110 C0 73.7 0 37.4 0 0 Z " fill="#FFFDFC" transform="translate(0,0)"/>
<path d="M0 0 C16.17 0 32.34 0 49 0 C49 36.3 49 72.6 49 110 C48.67 110 48.34 110 48 110 C47.82984375 108.88882813 47.6596875 107.77765625 47.484375 106.6328125 C45.32903534 93.1322999 41.24786925 83.10564268 34.12109375 71.4921875 C28.66885997 62.58157122 25.64083733 54.57280123 25.875 44.0625 C25.88402344 43.28326172 25.89304687 42.50402344 25.90234375 41.70117188 C25.92566309 39.80064553 25.96152414 37.90027992 26 36 C17.33153281 38.78629303 11.65845826 42.87453404 6 50 C5.01 50 4.02 50 3 50 C3.14295891 48.60386935 3.28951558 47.20810692 3.4375 45.8125 C3.51871094 45.03519531 3.59992188 44.25789063 3.68359375 43.45703125 C4 41 4 41 4.515625 38.6875 C6.91384946 25.38122236 4.20374931 12.61124792 0 0 Z " fill="#FFFDFC" transform="translate(99,0)"/>
<path d="M0 0 C6.87315085 2.91495237 12.20337315 9.99409652 15.11987305 16.7434082 C18.44047627 25.25723223 19.41500649 33.09307385 19.1875 42.1875 C19.16719727 43.75854492 19.16719727 43.75854492 19.14648438 45.36132812 C19.1115968 47.90812124 19.0625887 50.45376325 19 53 C19.51949219 52.50628906 20.03898437 52.01257813 20.57421875 51.50390625 C21.27160156 50.86324219 21.96898437 50.22257812 22.6875 49.5625 C23.37199219 48.92441406 24.05648437 48.28632813 24.76171875 47.62890625 C27.22289422 45.83778902 29.00816574 45.37201442 32 45 C33.17407021 47.26727333 34.33939739 49.53834624 35.5 51.8125 C35.83386719 52.45509766 36.16773437 53.09769531 36.51171875 53.75976562 C38.00239084 56.69547699 39 58.66126517 39 62 C15.24 62 -8.52 62 -33 62 C-31.0421665 54.16866598 -24.97472044 47.94622831 -19.5625 42.125 C-8.34971118 29.88582464 -0.33133791 16.98859839 0 0 Z " fill="#FFFCFB" transform="translate(71,86)"/>
<path d="M0 0 C0.33 0 0.66 0 1 0 C1 8.91 1 17.82 1 27 C-1.31 27 -3.62 27 -6 27 C-5.4916213 23.84805207 -4.65162798 20.98685098 -3.5625 18 C-1.54307431 12.14960499 -0.80345069 6.11567762 0 0 Z " fill="#FFEDE9" transform="translate(147,121)"/>
<path d="M0 0 C0.33 0 0.66 0 1 0 C1.18175781 1.14597656 1.36351563 2.29195313 1.55078125 3.47265625 C1.80422102 5.00268151 2.05815357 6.5326252 2.3125 8.0625 C2.43044922 8.81466797 2.54839844 9.56683594 2.66992188 10.34179688 C3.29942263 14.07037825 4.05664886 17.41015054 5.60546875 20.87109375 C7 24 7 24 7 27 C4.69 27 2.38 27 0 27 C0 18.09 0 9.18 0 0 Z " fill="#FFEDE9" transform="translate(0,121)"/>
</svg>
