<?xml version="1.0" encoding="UTF-8"?>
<svg version="1.1" xmlns="http://www.w3.org/2000/svg" width="612" height="612">
<path d="M0 0 C201.96 0 403.92 0 612 0 C612 201.96 612 403.92 612 612 C410.04 612 208.08 612 0 612 C0 410.04 0 208.08 0 0 Z " fill="#FEFEFE" transform="translate(0,0)"/>
<path d="M0 0 C1.60273443 4.8082033 -0.40602702 8.93571051 -1.8125 13.6875 C-2.12654785 14.75170166 -2.4405957 15.81590332 -2.76416016 16.91235352 C-14.23465504 54.52175687 -34.62826134 87.92698381 -62 116 C-62.61278809 116.63856934 -63.22557617 117.27713867 -63.85693359 117.93505859 C-71.84267327 126.25379758 -80.02665263 133.89777574 -89.31005859 140.75 C-90.93444397 141.95151013 -92.53995997 143.17840415 -94.14453125 144.40625 C-105.09747361 152.64311687 -117.10611057 159.23657803 -129 166 C-128.23236328 166.12769775 -127.46472656 166.25539551 -126.67382812 166.38696289 C-125.63677734 166.5596167 -124.59972656 166.73227051 -123.53125 166.91015625 C-122.43039062 167.09336426 -121.32953125 167.27657227 -120.1953125 167.46533203 C-117.68113444 167.88602656 -115.16845263 168.31385425 -112.65625 168.74609375 C-89.55136114 172.64246996 -66.61721419 174.4890502 -43.18676758 174.33618164 C-39.27599869 174.31227688 -35.36590329 174.31569608 -31.45507812 174.32226562 C-18.47763969 174.30791583 -5.83634524 173.97185632 7 172 C9.09871793 171.71437381 11.19765853 171.43037631 13.296875 171.1484375 C16.05538672 170.75991472 18.81303292 170.36592047 21.5703125 169.96875 C22.47007812 169.84242188 23.36984375 169.71609375 24.296875 169.5859375 C25.08416992 169.4729834 25.87146484 169.3600293 26.68261719 169.24365234 C29.13785949 168.98550529 31.53303885 168.95904779 34 169 C33.5 171.75 33.5 171.75 32 175 C29.27250074 176.73091299 26.97851564 177.8452524 24 179 C23.10023438 179.36609375 22.20046875 179.7321875 21.2734375 180.109375 C11.13981734 183.98177576 0.65268149 186.60313237 -9.828125 189.3515625 C-11.88574914 189.89979533 -13.9430569 190.44921744 -16 191 C-16.93473145 191.24331055 -17.86946289 191.48662109 -18.83251953 191.73730469 C-23.80638783 193.10666616 -27.42455001 194.5351535 -31.375 198 C-32.16648437 198.680625 -32.95796875 199.36125 -33.7734375 200.0625 C-34.50820313 200.701875 -35.24296875 201.34125 -36 202 C-37.32405798 203.0122491 -38.65423555 204.01679309 -40 205 C-33.06596948 206.6588137 -26.17555131 207.72855172 -19.10546875 208.62109375 C-16.82871341 208.91944431 -14.55202249 209.21828682 -12.27539062 209.51757812 C-8.71654617 209.98132502 -5.15734425 210.44132406 -1.59692383 210.89282227 C1.86006584 211.33310485 5.31480593 211.78842864 8.76953125 212.24609375 C9.83621536 212.37745224 10.90289948 212.50881073 12.00190735 212.64414978 C13.48946785 212.84434471 13.48946785 212.84434471 15.00708008 213.04858398 C16.31205193 213.21607399 16.31205193 213.21607399 17.64338684 213.38694763 C20.41920616 214.10905283 21.97277338 214.96965799 24 217 C24 218.32 24 219.64 24 221 C22.45596497 221.00546844 22.45596497 221.00546844 20.8807373 221.01104736 C11.11401764 221.04821182 1.34760704 221.10621506 -8.41887665 221.18390274 C-13.43828008 221.22317938 -18.45751326 221.25546401 -23.47705078 221.27099609 C-28.33375808 221.28629449 -33.18999669 221.32096894 -38.04649353 221.36830902 C-39.88650913 221.38298831 -41.72659169 221.39103315 -43.56666565 221.39188385 C-55.3498199 221.40279599 -65.69754182 222.5382041 -77 226 C-78.18541382 226.36289124 -79.37082764 226.72578247 -80.59216309 227.09967041 C-82.6856901 227.75087892 -84.77865289 228.40390366 -86.87109375 229.05859375 C-97.78557814 232.34247732 -108.70314467 233.85002072 -120 235 C-119.65332275 235.43642822 -119.30664551 235.87285645 -118.94946289 236.32250977 C-107.33170032 251.02477005 -97.98828023 266.06345589 -90 283 C-89.46503906 284.12792969 -88.93007813 285.25585938 -88.37890625 286.41796875 C-79.14774737 306.8703805 -72.7551969 330.57353419 -72.90234375 353.09375 C-72.90446617 354.34194519 -72.90446617 354.34194519 -72.90663147 355.61535645 C-72.91217833 358.2436093 -72.92472055 360.87177338 -72.9375 363.5 C-72.94252188 365.29426959 -72.94708358 367.08854054 -72.95117188 368.8828125 C-72.96213028 373.25524195 -72.97935752 377.62760598 -73 382 C-76.47089046 378.57647901 -79.55723489 375.14009361 -82.5 371.25 C-82.92087891 370.69634766 -83.34175781 370.14269531 -83.77539062 369.57226562 C-84.69411473 368.36369803 -85.61137666 367.15401783 -86.52734375 365.94335938 C-89.17247902 362.4527631 -91.83814703 358.97785275 -94.5 355.5 C-95.61070895 354.04689936 -96.72138638 352.59377462 -97.83203125 351.140625 C-102.20872865 345.41735273 -106.60358348 339.70813424 -111 334 C-117.07622653 326.11086654 -123.13653234 318.20991997 -129.18286133 310.29785156 C-132.44798403 306.02626667 -135.71979133 301.76001126 -139 297.5 C-142.84384601 292.5079922 -146.67443778 287.50603093 -150.5 282.5 C-155.98559397 275.32216937 -161.48751244 268.15719696 -167 261 C-173.07622653 253.11086654 -179.13653234 245.20991997 -185.18286133 237.29785156 C-189.24354797 231.98547304 -193.31769362 226.6837104 -197.3984375 221.38671875 C-199.91545732 218.11498657 -202.41737325 214.83183293 -204.91870117 211.5480957 C-206.59561878 209.35099533 -208.27963598 207.15949513 -209.96484375 204.96875 C-211.75971303 202.63381688 -213.51930772 200.28718941 -215.25390625 197.90625 C-227.79435742 181.08431146 -250.72075974 178.94048615 -270 175 C-270 174.34 -270 173.68 -270 173 C-268.98679687 172.75765625 -267.97359375 172.5153125 -266.9296875 172.265625 C-265.57797167 171.92769604 -264.22641757 171.58911976 -262.875 171.25 C-262.20984375 171.09273437 -261.5446875 170.93546875 -260.859375 170.7734375 C-254.29683809 169.10063397 -249.70629038 165.84261296 -244.875 161.125 C-232.67906163 150.1179094 -218.48289301 147.60983622 -202.65820312 147.47265625 C-192.77740178 147.25935641 -186.79879288 144.21775082 -179.1875 138.1875 C-178.45756836 137.61926514 -177.72763672 137.05103027 -176.97558594 136.46557617 C-175.43156712 135.26249802 -173.89010837 134.05612792 -172.35107422 132.84667969 C-170.02250373 131.01767583 -167.68653749 129.19860711 -165.34765625 127.3828125 C-162.30381094 125.01970863 -159.26213711 122.65387112 -156.22265625 120.28515625 C-149.48943458 115.04181318 -142.71596391 109.85112321 -135.9453125 104.65625 C-129.61309636 99.79260269 -123.30009723 94.90519801 -117 90 C-108.67443295 83.51778974 -100.31663482 77.07925945 -91.9453125 70.65625 C-85.61309636 65.79260269 -79.30009723 60.90519801 -73 56 C-64.67443295 49.51778974 -56.31663482 43.07925945 -47.9453125 36.65625 C-41.61309539 31.79260194 -35.30020265 26.90506363 -29 22 C-7.07297765 4.93463557 -7.07297765 4.93463557 0 0 Z " fill="#2965F0" transform="translate(414,113)"/>
<path d="M0 0 C17.80662151 2.45830526 35.54034534 4.04646447 53.49975586 4.82641602 C48.22001913 10.42584323 42.10921037 14.04512487 35.49975586 17.82641602 C34.45948242 18.4284082 33.41920898 19.03040039 32.34741211 19.65063477 C25.05713532 23.58296588 17.64801129 26.25773945 9.74975586 28.70141602 C8.79149902 28.99991455 7.83324219 29.29841309 6.84594727 29.60595703 C-4.04587166 32.82916134 -14.56859233 33.00806371 -25.87524414 33.01391602 C-27.11274414 33.02616211 -28.35024414 33.0384082 -29.62524414 33.05102539 C-40.60413553 33.06836048 -50.85224928 31.76778492 -61.25024414 28.20141602 C-62.38731812 27.81554321 -62.38731812 27.81554321 -63.54736328 27.421875 C-79.82203783 21.69569466 -94.28682929 12.86148048 -107.50024414 1.82641602 C-107.17024414 0.83641602 -106.84024414 -0.15358398 -106.50024414 -1.17358398 C-72.75164704 -11.12053892 -34.17077302 -4.72733151 0 0 Z " fill="#FCFDFE" transform="translate(315.500244140625,302.173583984375)"/>
<path d="M0 0 C2.09375 0.40625 2.09375 0.40625 4.65625 1.84375 C6.81275637 5.687957 7.10153483 9.11552973 6.09375 13.40625 C3.81542306 16.79253046 1.02747707 18.21569345 -2.96875 19.03125 C-6.88438037 18.19813716 -8.38047371 16.43718154 -10.90625 13.40625 C-12.35055855 10.51763291 -12.28313506 8.60977299 -11.90625 5.40625 C-8.62357743 0.53518748 -5.60267815 -0.37351188 0 0 Z " fill="#F8FAFE" transform="translate(203.90625,273.59375)"/>
</svg>
