<svg xmlns="http://www.w3.org/2000/svg" viewBox="0 0 128 128">
  <path d="M64 116.4L86.2 47.6H41.8z" fill="#E24329"/>
  <path d="M64 116.4L41.8 47.6H9.6z" fill="#FC6D26"/>
  <path d="M9.6 47.6L2.4 69.8c-.6 2 .2 4.2 2 5.4L64 116.4z" fill="#FCA326"/>
  <path d="M9.6 47.6h32.2L29 11.6c-.8-2.4-4.2-2.4-5 0z" fill="#E24329"/>
  <path d="M64 116.4l22.2-68.8h32.2z" fill="#FC6D26"/>
  <path d="M118.4 47.6l7.2 22.2c.6 2-.2 4.2-2 5.4L64 116.4z" fill="#FCA326"/>
  <path d="M118.4 47.6H86.2L99 11.6c.8-2.4 4.2-2.4 5 0z" fill="#E24329"/>
</svg>