<svg version="1.1" id="Layer_1" xmlns="http://www.w3.org/2000/svg" xmlns:xlink="http://www.w3.org/1999/xlink" x="0px" y="0px"
	 width="100%" viewBox="0 0 521 521" enable-background="new 0 0 521 521" xml:space="preserve">
<path fill="#F3773A" opacity="1.000000" stroke="none" 
	d="
M230.000000,0.999999 
	C250.687561,1.000000 271.375122,1.000000 292.255890,1.370534 
	C292.963226,2.135783 293.434265,2.792598 293.998016,2.885207 
	C300.599854,3.969724 307.235138,4.857779 313.824310,6.010837 
	C343.195343,11.150585 370.343445,22.418694 395.765076,37.536034 
	C417.055786,50.196877 436.130005,65.804596 452.977539,84.230995 
	C467.293304,99.888336 479.842346,116.686371 489.980042,135.226486 
	C505.821198,164.197281 516.540833,194.911255 520.081909,227.927094 
	C520.162476,228.677994 521.336182,229.311646 522.000000,230.000000 
	C522.000000,250.687561 522.000000,271.375122 521.629456,292.255859 
	C520.864197,292.963013 520.207397,293.433899 520.114807,293.997498 
	C519.030334,300.598907 518.140198,307.233307 516.989502,313.822510 
	C511.859528,343.200104 500.570923,370.343475 485.459808,395.769287 
	C472.805359,417.061523 457.197693,436.135712 438.767395,452.976624 
	C423.105530,467.287842 406.307343,479.832214 387.763763,489.976257 
	C358.793243,505.824158 328.082458,516.529175 295.072662,520.081970 
	C294.321655,520.162781 293.688263,521.336182 293.000000,522.000000 
	C272.312439,522.000000 251.624878,522.000000 230.744110,521.629456 
	C230.036758,520.864197 229.565689,520.207458 229.001953,520.114807 
	C222.400101,519.030334 215.764725,518.142639 209.175598,516.989258 
	C179.805023,511.848175 152.655869,500.582672 127.234764,485.463898 
	C105.944023,472.801605 86.871452,457.191406 70.019447,438.768066 
	C55.699749,423.113190 43.159397,406.310486 33.019901,387.772461 
	C17.175011,358.803314 6.462052,328.087494 2.918062,295.072937 
	C2.837449,294.321991 1.663797,293.688354 1.000000,293.000000 
	C1.000000,272.312439 1.000000,251.624878 1.370526,230.744110 
	C2.135766,230.036835 2.792589,229.565811 2.885190,229.002090 
	C3.969665,222.400284 4.857427,215.764954 6.010727,209.175858 
	C11.151476,179.805496 22.416960,152.656586 37.535530,127.235718 
	C50.197723,105.945099 65.804268,86.868996 84.231934,70.021584 
	C99.889725,55.706516 116.687698,43.157696 135.227631,33.019451 
	C164.197968,17.177544 194.912094,6.460269 227.927109,2.918053 
	C228.678024,2.837487 229.311661,1.663796 230.000000,0.999999 
M279.066315,208.456467 
	C244.504135,183.181046 209.950912,157.893341 175.360489,132.656616 
	C172.935120,130.887100 171.376572,129.355270 172.075836,125.787498 
	C174.771240,112.035141 168.180862,97.909912 155.968033,90.300087 
	C142.591827,81.965370 125.864853,82.551064 113.191589,91.797905 
	C101.425240,100.383034 96.110893,115.037453 99.719284,128.948074 
	C105.361137,150.697891 129.666168,161.823578 151.238220,152.413498 
	C153.591797,151.386841 155.234589,151.110703 157.552048,152.732269 
	C193.997406,178.233765 230.526077,203.616165 267.024750,229.041550 
	C268.053772,229.758392 268.963043,230.647110 269.957550,231.480286 
	C233.891113,264.794556 234.716766,318.365540 262.299835,350.957153 
	C248.957306,362.970886 235.645370,375.042084 222.174393,386.933105 
	C221.036423,387.937592 218.840088,387.770081 217.124557,388.088287 
	C211.624344,389.108398 205.716690,389.156097 200.696350,391.293640 
	C188.930435,396.303406 183.582214,408.399933 187.158722,419.611359 
	C191.383240,432.854156 207.517883,440.612579 222.426331,436.470428 
	C235.832748,432.745605 246.183807,419.859406 240.849457,404.605774 
	C240.437988,403.429138 241.407974,401.193756 242.448029,400.184113 
	C247.107788,395.660736 252.020920,391.398010 256.851074,387.050598 
	C264.623688,380.054840 272.403015,373.066467 280.081482,366.163055 
	C300.638336,378.882507 322.500031,383.590912 346.004303,381.051086 
	C385.823456,376.748291 419.083008,343.476501 422.946259,304.018768 
	C427.291779,259.635712 397.222229,219.819916 351.960663,210.365402 
	C348.094055,209.557739 346.772491,208.354752 346.860748,204.356339 
	C347.125397,192.364624 347.070557,180.361481 346.879883,168.366959 
	C346.828094,165.107758 347.831238,163.380173 350.742767,161.752441 
	C360.191010,156.470261 366.039764,148.398071 366.947540,137.447235 
	C368.263702,121.571091 357.536133,107.802269 341.345795,104.055077 
	C324.251770,100.098717 306.880066,108.470200 300.787750,123.600136 
	C295.019104,137.926163 300.773926,153.477585 314.713226,161.871765 
	C316.412079,162.894821 318.526154,165.045029 318.566254,166.717957 
	C318.881592,179.874329 318.832275,193.043442 318.586761,206.202866 
	C318.563171,207.467148 316.660309,209.329102 315.251465,209.813812 
	C311.332703,211.162033 306.691498,211.055099 303.275299,213.095901 
	C293.860809,218.720093 286.543976,215.714767 279.066315,208.456467 
z"/>
<path fill="#000000" opacity="1.000000" stroke="none" 
	d="
M229.531342,0.999999 
	C229.311661,1.663796 228.678024,2.837487 227.927109,2.918053 
	C194.912094,6.460269 164.197968,17.177544 135.227631,33.019451 
	C116.687698,43.157696 99.889725,55.706516 84.231934,70.021584 
	C65.804268,86.868996 50.197723,105.945099 37.535530,127.235718 
	C22.416960,152.656586 11.151476,179.805496 6.010727,209.175858 
	C4.857427,215.764954 3.969665,222.400284 2.885190,229.002090 
	C2.792589,229.565811 2.135766,230.036835 1.370526,230.275452 
	C1.000000,153.739624 1.000000,77.479248 1.000000,1.000000 
	C77.020752,1.000000 153.041718,1.000000 229.531342,0.999999 
z"/>
<path fill="#000000" opacity="1.000000" stroke="none" 
	d="
M522.000000,229.531342 
	C521.336182,229.311646 520.162476,228.677994 520.081909,227.927094 
	C516.540833,194.911255 505.821198,164.197281 489.980042,135.226486 
	C479.842346,116.686371 467.293304,99.888336 452.977539,84.230995 
	C436.130005,65.804596 417.055786,50.196877 395.765076,37.536034 
	C370.343445,22.418694 343.195343,11.150585 313.824310,6.010837 
	C307.235138,4.857779 300.599854,3.969724 293.998016,2.885207 
	C293.434265,2.792598 292.963226,2.135783 292.724548,1.370534 
	C369.260376,1.000000 445.520752,1.000000 522.000000,1.000000 
	C522.000000,77.020752 522.000000,153.041718 522.000000,229.531342 
z"/>
<path fill="#000000" opacity="1.000000" stroke="none" 
	d="
M1.000000,293.468658 
	C1.663797,293.688354 2.837449,294.321991 2.918062,295.072937 
	C6.462052,328.087494 17.175011,358.803314 33.019901,387.772461 
	C43.159397,406.310486 55.699749,423.113190 70.019447,438.768066 
	C86.871452,457.191406 105.944023,472.801605 127.234764,485.463898 
	C152.655869,500.582672 179.805023,511.848175 209.175598,516.989258 
	C215.764725,518.142639 222.400101,519.030334 229.001953,520.114807 
	C229.565689,520.207458 230.036758,520.864197 230.275452,521.629456 
	C153.739639,522.000000 77.479263,522.000000 1.000000,522.000000 
	C1.000000,445.979248 1.000000,369.958282 1.000000,293.468658 
z"/>
<path fill="#000000" opacity="1.000000" stroke="none" 
	d="
M293.468658,522.000000 
	C293.688263,521.336182 294.321655,520.162781 295.072662,520.081970 
	C328.082458,516.529175 358.793243,505.824158 387.763763,489.976257 
	C406.307343,479.832214 423.105530,467.287842 438.767395,452.976624 
	C457.197693,436.135712 472.805359,417.061523 485.459808,395.769287 
	C500.570923,370.343475 511.859528,343.200104 516.989502,313.822510 
	C518.140198,307.233307 519.030334,300.598907 520.114807,293.997498 
	C520.207397,293.433899 520.864197,292.963013 521.629456,292.724548 
	C522.000000,369.260376 522.000000,445.520752 522.000000,522.000000 
	C445.979248,522.000000 369.958282,522.000000 293.468658,522.000000 
z"/>
<path fill="#FFFEFD" opacity="1.000000" stroke="none" 
	d="
M279.352051,208.673782 
	C286.543976,215.714767 293.860809,218.720093 303.275299,213.095901 
	C306.691498,211.055099 311.332703,211.162033 315.251465,209.813812 
	C316.660309,209.329102 318.563171,207.467148 318.586761,206.202866 
	C318.832275,193.043442 318.881592,179.874329 318.566254,166.717957 
	C318.526154,165.045029 316.412079,162.894821 314.713226,161.871765 
	C300.773926,153.477585 295.019104,137.926163 300.787750,123.600136 
	C306.880066,108.470200 324.251770,100.098717 341.345795,104.055077 
	C357.536133,107.802269 368.263702,121.571091 366.947540,137.447235 
	C366.039764,148.398071 360.191010,156.470261 350.742767,161.752441 
	C347.831238,163.380173 346.828094,165.107758 346.879883,168.366959 
	C347.070557,180.361481 347.125397,192.364624 346.860748,204.356339 
	C346.772491,208.354752 348.094055,209.557739 351.960663,210.365402 
	C397.222229,219.819916 427.291779,259.635712 422.946259,304.018768 
	C419.083008,343.476501 385.823456,376.748291 346.004303,381.051086 
	C322.500031,383.590912 300.638336,378.882507 280.081482,366.163055 
	C272.403015,373.066467 264.623688,380.054840 256.851074,387.050598 
	C252.020920,391.398010 247.107788,395.660736 242.448029,400.184113 
	C241.407974,401.193756 240.437988,403.429138 240.849457,404.605774 
	C246.183807,419.859406 235.832748,432.745605 222.426331,436.470428 
	C207.517883,440.612579 191.383240,432.854156 187.158722,419.611359 
	C183.582214,408.399933 188.930435,396.303406 200.696350,391.293640 
	C205.716690,389.156097 211.624344,389.108398 217.124557,388.088287 
	C218.840088,387.770081 221.036423,387.937592 222.174393,386.933105 
	C235.645370,375.042084 248.957306,362.970886 262.299835,350.957153 
	C234.716766,318.365540 233.891113,264.794556 269.957550,231.480286 
	C268.963043,230.647110 268.053772,229.758392 267.024750,229.041550 
	C230.526077,203.616165 193.997406,178.233765 157.552048,152.732269 
	C155.234589,151.110703 153.591797,151.386841 151.238220,152.413498 
	C129.666168,161.823578 105.361137,150.697891 99.719284,128.948074 
	C96.110893,115.037453 101.425240,100.383034 113.191589,91.797905 
	C125.864853,82.551064 142.591827,81.965370 155.968033,90.300087 
	C168.180862,97.909912 174.771240,112.035141 172.075836,125.787498 
	C171.376572,129.355270 172.935120,130.887100 175.360489,132.656616 
	C209.950912,157.893341 244.504135,183.181046 279.352051,208.673782 
M299.354858,261.855438 
	C279.772827,281.661865 279.348236,309.243042 298.331940,328.303741 
	C317.764282,347.814911 345.783722,348.084045 365.319397,328.947144 
	C384.882782,309.783203 385.804810,281.869171 367.504242,262.801788 
	C348.826508,243.341431 319.655975,242.719925 299.354858,261.855438 
z"/>
<path fill="#F3783B" opacity="1.000000" stroke="none" 
	d="
M299.611389,261.608093 
	C319.655975,242.719925 348.826508,243.341431 367.504242,262.801788 
	C385.804810,281.869171 384.882782,309.783203 365.319397,328.947144 
	C345.783722,348.084045 317.764282,347.814911 298.331940,328.303741 
	C279.348236,309.243042 279.772827,281.661865 299.611389,261.608093 
z"/>
</svg>