<?xml version="1.0" encoding="UTF-8"?>
<svg version="1.1" xmlns="http://www.w3.org/2000/svg" width="48" height="48">
<path d="M0 0 C15.84 0 31.68 0 48 0 C48 15.84 48 31.68 48 48 C32.16 48 16.32 48 0 48 C0 32.16 0 16.32 0 0 Z " fill="#FDFDFC" transform="translate(0,0)"/>
<path d="M0 0 C0 0.66 0 1.32 0 2 C0.33 2.33 0.66 2.66 1 3 C1.45459858 5.65463121 1.70243238 8.32189138 2 11 C2.53625 10.649375 3.0725 10.29875 3.625 9.9375 C6.81689475 8.67754155 8.72424145 9.09393913 12 10 C13.9375 11.1875 13.9375 11.1875 15 13 C14.6875 16.1875 14.6875 16.1875 14 19 C13.01 19.33 12.02 19.66 11 20 C10.31060191 22.32671854 9.64533078 24.66067594 9 27 C7.23182482 29.52596454 6.32885503 29.91587429 3.3125 30.6875 C2.1678125 30.8421875 2.1678125 30.8421875 1 31 C1 31.66 1 32.32 1 33 C-0.98 33 -2.96 33 -5 33 C-5.33 32.34 -5.66 31.68 -6 31 C-8.75641416 31.49756092 -8.75641416 31.49756092 -11 33 C-12.66617115 33.04063832 -14.33388095 33.042721 -16 33 C-15.67 32.01 -15.34 31.02 -15 30 C-20.94 29.01 -20.94 29.01 -27 28 C-27 23.71 -27 19.42 -27 15 C-25.02 15 -23.04 15 -21 15 C-17.8466667 11.41172418 -17.45605524 7.65176347 -17 3 C-15.68 2.67 -14.36 2.34 -13 2 C-13.66 2 -14.32 2 -15 2 C-15 1.34 -15 0.68 -15 0 C-10.11787308 -2.59362992 -5.00033374 -2.50016687 0 0 Z " fill="#C68B3D" transform="translate(31,8)"/>
<path d="M0 0 C1.875 0.125 1.875 0.125 4 1 C5.25 4.0625 5.25 4.0625 6 7 C5.67 7.33 5.34 7.66 5 8 C5.99 8 6.98 8 8 8 C7.67 7.34 7.34 6.68 7 6 C7.6875 3.4375 7.6875 3.4375 9 1 C11.125 0.1875 11.125 0.1875 13 0 C13.33 1.32 13.66 2.64 14 4 C14.66 4 15.32 4 16 4 C15.75 6.375 15.75 6.375 15 9 C12.05248618 10.94746449 9.73464831 11.22748966 6.25 11.125 C5.45078125 11.10695313 4.6515625 11.08890625 3.828125 11.0703125 C3.22484375 11.04710937 2.6215625 11.02390625 2 11 C2 11.66 2 12.32 2 13 C2.969375 13.268125 3.93875 13.53625 4.9375 13.8125 C5.948125 14.204375 6.95875 14.59625 8 15 C8.33 15.99 8.66 16.98 9 18 C11.01508358 18.73323796 11.01508358 18.73323796 13 19 C12.67 20.65 12.34 22.3 12 24 C11.01 24.33 10.02 24.66 9 25 C8.67 24.34 8.34 23.68 8 23 C5.24358584 23.49756092 5.24358584 23.49756092 3 25 C1.33382885 25.04063832 -0.33388095 25.042721 -2 25 C-1.67 24.01 -1.34 23.02 -1 22 C-6.94 21.01 -6.94 21.01 -13 20 C-13 15.71 -13 11.42 -13 7 C-11.02 7 -9.04 7 -7 7 C-4.59593616 4.62157423 -4.59593616 4.62157423 -3 2 C-3 2.66 -3 3.32 -3 4 C-2.34 4 -1.68 4 -1 4 C-0.67 2.68 -0.34 1.36 0 0 Z " fill="#CBA974" transform="translate(17,16)"/>
<path d="M0 0 C0 0.66 0 1.32 0 2 C0.33 2.33 0.66 2.66 1 3 C1.23192865 4.51469448 1.41215238 6.03754562 1.5625 7.5625 C1.68818359 8.80193359 1.68818359 8.80193359 1.81640625 10.06640625 C1.87699219 10.70449219 1.93757813 11.34257812 2 12 C1.34 12 0.68 12 0 12 C-0.33 11.01 -0.66 10.02 -1 9 C-2.32 9.33 -3.64 9.66 -5 10 C-5.68707555 12.49064888 -6 14.37886292 -6 17 C-7.32 16.67 -8.64 16.34 -10 16 C-9.67 15.34 -9.34 14.68 -9 14 C-9.89363605 11.39068734 -9.89363605 11.39068734 -11 9 C-11.99 9 -12.98 9 -14 9 C-14.33 9.99 -14.66 10.98 -15 12 C-15.66 12 -16.32 12 -17 12 C-17 9.03 -17 6.06 -17 3 C-15.68 2.67 -14.36 2.34 -13 2 C-13.66 2 -14.32 2 -15 2 C-15 1.34 -15 0.68 -15 0 C-10.11787308 -2.59362992 -5.00033374 -2.50016687 0 0 Z " fill="#BB8236" transform="translate(31,8)"/>
<path d="M0 0 C1.875 0.125 1.875 0.125 4 1 C5.25 4.0625 5.25 4.0625 6 7 C5.67 7.33 5.34 7.66 5 8 C5.99 8 6.98 8 8 8 C7.67 7.34 7.34 6.68 7 6 C7.6875 3.4375 7.6875 3.4375 9 1 C11.125 0.1875 11.125 0.1875 13 0 C13.33 1.32 13.66 2.64 14 4 C14.66 4 15.32 4 16 4 C15.75 6.375 15.75 6.375 15 9 C11.70612776 11.66043527 8.06595526 11.22177938 4 11 C3.01 10.67 2.02 10.34 1 10 C1 9.34 1 8.68 1 8 C-1.31 7.67 -3.62 7.34 -6 7 C-5.34 5.35 -4.68 3.7 -4 2 C-3.67 2.66 -3.34 3.32 -3 4 C-2.34 4 -1.68 4 -1 4 C-0.67 2.68 -0.34 1.36 0 0 Z " fill="#E9BE77" transform="translate(17,16)"/>
<path d="M0 0 C1.32 0.33 2.64 0.66 4 1 C3.34 1 2.68 1 2 1 C2 1.66 2 2.32 2 3 C2.969375 3.268125 3.93875 3.53625 4.9375 3.8125 C5.948125 4.204375 6.95875 4.59625 8 5 C8.33 5.99 8.66 6.98 9 8 C11.01508358 8.73323796 11.01508358 8.73323796 13 9 C12.67 10.65 12.34 12.3 12 14 C11.01 14.33 10.02 14.66 9 15 C8.67 14.34 8.34 13.68 8 13 C5.24358584 13.49756092 5.24358584 13.49756092 3 15 C1.33382885 15.04063832 -0.33388095 15.042721 -2 15 C-1.855625 14.195625 -1.71125 13.39125 -1.5625 12.5625 C-0.90311661 8.38640519 -0.43908647 4.20401941 0 0 Z " fill="#B47D34" transform="translate(17,26)"/>
<path d="M0 0 C0.680625 0.33 1.36125 0.66 2.0625 1 C5.50840238 2.17307315 8.38397422 2.14180493 12 2 C12 4.31 12 6.62 12 9 C11.34 8.67 10.68 8.34 10 8 C10 7.01 10 6.02 10 5 C9.01 5 8.02 5 7 5 C7.34786708 6.97536745 7.34786708 6.97536745 8 9 C8.66 9.33 9.32 9.66 10 10 C10 10.66 10 11.32 10 12 C7.03 12 4.06 12 1 12 C1.33 10.35 1.66 8.7 2 7 C2.66 7 3.32 7 4 7 C4 5.68 4 4.36 4 3 C3.34 3 2.68 3 2 3 C1.67 3.66 1.34 4.32 1 5 C0.67 3.35 0.34 1.7 0 0 Z " fill="#ECCC89" transform="translate(4,23)"/>
<path d="M0 0 C0.66 0 1.32 0 2 0 C1.47731534 2.76276177 0.89130413 5.3260876 0 8 C-1.32 7.67 -2.64 7.34 -4 7 C-4 7.66 -4 8.32 -4 9 C-3.34 9 -2.68 9 -2 9 C-2 9.66 -2 10.32 -2 11 C-2.66 11 -3.32 11 -4 11 C-4 11.99 -4 12.98 -4 14 C-5.32 14 -6.64 14 -8 14 C-8 13.01 -8 12.02 -8 11 C-8.928125 10.7834375 -8.928125 10.7834375 -9.875 10.5625 C-12 10 -12 10 -14 9 C-14 8.34 -14 7.68 -14 7 C-13.15695313 6.91363281 -12.31390625 6.82726562 -11.4453125 6.73828125 C-10.34960938 6.59777344 -9.25390625 6.45726562 -8.125 6.3125 C-7.03445312 6.18488281 -5.94390625 6.05726562 -4.8203125 5.92578125 C-1.7697488 5.28387243 -1.7697488 5.28387243 -0.6171875 2.41796875 C-0.41351563 1.62003906 -0.20984375 0.82210938 0 0 Z " fill="#817754" transform="translate(33,20)"/>
<path d="M0 0 C0 0.66 0 1.32 0 2 C-0.66 2 -1.32 2 -2 2 C-2.33 2.99 -2.66 3.98 -3 5 C-4.43836751 4.88541307 -5.87570966 4.75790884 -7.3125 4.625 C-8.11300781 4.55539063 -8.91351563 4.48578125 -9.73828125 4.4140625 C-12 4 -12 4 -15 2 C-15 1.34 -15 0.68 -15 0 C-10.11787308 -2.59362992 -5.00033374 -2.50016687 0 0 Z " fill="#637772" transform="translate(31,8)"/>
<path d="M0 0 C2.475 0.99 2.475 0.99 5 2 C4.67 3.98 4.34 5.96 4 8 C3.34 8 2.68 8 2 8 C2 8.66 2 9.32 2 10 C3.65 10 5.3 10 7 10 C5.02 10.99 5.02 10.99 3 12 C3 12.66 3 13.32 3 14 C1.35 14 -0.3 14 -2 14 C-1.34 13.67 -0.68 13.34 0 13 C0.65555119 10.47266765 0.65555119 10.47266765 1 8 C-0.32 7.67 -1.64 7.34 -3 7 C-2.01 7 -1.02 7 0 7 C0 6.01 0 5.02 0 4 C0.66 4 1.32 4 2 4 C2 3.34 2 2.68 2 2 C1.34 2 0.68 2 0 2 C0 1.34 0 0.68 0 0 Z " fill="#9E6C2A" transform="translate(29,27)"/>
<path d="M0 0 C3.4375 1.1875 3.4375 1.1875 7 3 C7.9375 5.6875 7.9375 5.6875 8 8 C1.125 7.125 1.125 7.125 0 6 C-0.04080783 4.00041636 -0.04254356 1.99954746 0 0 Z " fill="#F4C87E" transform="translate(18,28)"/>
<path d="M0 0 C1.98 0.99 1.98 0.99 4 2 C4 3.32 4 4.64 4 6 C3.34 6 2.68 6 2 6 C1.67 7.65 1.34 9.3 1 11 C2.98 11.495 2.98 11.495 5 12 C3.35 12 1.7 12 0 12 C0 8.04 0 4.08 0 0 Z " fill="#BF9A64" transform="translate(4,24)"/>
<path d="M0 0 C-0.33 1.65 -0.66 3.3 -1 5 C-1.99 5.33 -2.98 5.66 -4 6 C-4 4.68 -4 3.36 -4 2 C-5.65 2 -7.3 2 -9 2 C-9 1.67 -9 1.34 -9 1 C-5.846632 0.29925156 -3.27275026 0 0 0 Z " fill="#CA8D3A" transform="translate(30,35)"/>
<path d="M0 0 C1.7074998 1.28062485 3.37373596 2.61767557 5 4 C5 4.66 5 5.32 5 6 C2.69 6 0.38 6 -2 6 C-1.34 4.02 -0.68 2.04 0 0 Z " fill="#F8D58D" transform="translate(9,29)"/>
<path d="M0 0 C2.475 0.99 2.475 0.99 5 2 C5 3.32 5 4.64 5 6 C3.68 6.33 2.36 6.66 1 7 C1.33 5.35 1.66 3.7 2 2 C1.34 2 0.68 2 0 2 C0 1.34 0 0.68 0 0 Z " fill="#B57B2E" transform="translate(29,27)"/>
<path d="M0 0 C2.0625 0.4375 2.0625 0.4375 4 1 C3.67 2.32 3.34 3.64 3 5 C2.01 5 1.02 5 0 5 C-0.5625 3.0625 -0.5625 3.0625 -1 1 C-0.67 0.67 -0.34 0.34 0 0 Z " fill="#6B989F" transform="translate(11,27)"/>
<path d="M0 0 C2.5 -0.375 2.5 -0.375 5 0 C5.66 0.99 6.32 1.98 7 3 C4.03 3 1.06 3 -2 3 C-1.34 2.01 -0.68 1.02 0 0 Z " fill="#417B90" transform="translate(21,9)"/>
<path d="M0 0 C0 0.66 0 1.32 0 2 C-0.66 2 -1.32 2 -2 2 C-2.33 2.99 -2.66 3.98 -3 5 C-3.66 4.01 -4.32 3.02 -5 2 C-7.05003955 0.80767387 -7.05003955 0.80767387 -9 0 C-5.67465243 -1.10844919 -3.37817425 -0.84454356 0 0 Z " fill="#6D7363" transform="translate(31,8)"/>
<path d="M0 0 C-3.8503105 2.56687367 -5.58569763 1.83288724 -10 1 C-6.1496895 -1.56687367 -4.41430237 -0.83288724 0 0 Z " fill="#AB7731" transform="translate(17,24)"/>
</svg>
