<?xml version="1.0" encoding="UTF-8"?>
<svg version="1.1" xmlns="http://www.w3.org/2000/svg" width="200" height="200">
<path d="M0 0 C66 0 132 0 200 0 C200 66 200 132 200 200 C134 200 68 200 0 200 C0 134 0 68 0 0 Z " fill="#FEFEFE" transform="translate(0,0)"/>
<path d="M0 0 C4.06135203 2.86651284 8.06079643 5.96928011 11 10 C10.63696284 13.74623457 9.41568179 16.35373202 7.41796875 19.50390625 C6.89783203 20.32697266 6.37769531 21.15003906 5.84179688 21.99804688 C5.29587891 22.84431641 4.74996094 23.69058594 4.1875 24.5625 C3.65318359 25.41263672 3.11886719 26.26277344 2.56835938 27.13867188 C0.0146469 31.14357152 -2.39156885 34.84589917 -6 38 C-6.34256836 37.50072998 -6.68513672 37.00145996 -7.03808594 36.48706055 C-8.60203499 34.2158496 -10.1758791 31.95167157 -11.75 29.6875 C-12.28882812 28.90181641 -12.82765625 28.11613281 -13.3828125 27.30664062 C-14.17558594 26.1706543 -14.17558594 26.1706543 -14.984375 25.01171875 C-15.46616211 24.31522217 -15.94794922 23.61872559 -16.44433594 22.90112305 C-18.96747403 19.81768358 -20.98160243 18.17334427 -24.9375 17.5 C-28.17230663 18.02813169 -29.49189424 18.8128839 -31.72241211 21.16357422 C-34.55377374 25.23341985 -35.80638055 30.13409859 -37.3125 34.8125 C-37.67150391 35.88693359 -38.03050781 36.96136719 -38.40039062 38.06835938 C-39.28031567 40.7081345 -40.14628101 43.35165741 -41 46 C-44.48237464 44.83920845 -45.01581316 43.93131619 -47.0625 41 C-49.07953853 37.98371816 -49.07953853 37.98371816 -52 36 C-57.37906209 35.34485282 -57.37906209 35.34485282 -62.0703125 37.4609375 C-64.76881194 41.01159466 -65.77583083 44.68687788 -67 48.9375 C-67.5114749 50.6524165 -68.02319452 52.36726003 -68.53515625 54.08203125 C-68.90471436 55.34007568 -68.90471436 55.34007568 -69.28173828 56.62353516 C-69.91237788 58.71009051 -70.58919922 60.76698335 -71.30859375 62.82421875 C-73.41693925 68.98875837 -75.21438979 74.61398556 -73 81 C-70.79952634 83.68946781 -69.46898086 83.92017347 -66.0625 84.5 C-61.86104447 83.81404808 -60.70696398 82.256018 -58 79 C-56.77189313 76.30099288 -55.96619401 73.54441342 -55.1875 70.6875 C-54.97158203 69.94693359 -54.75566406 69.20636719 -54.53320312 68.44335938 C-54.00763072 66.63305443 -53.50176957 64.81704641 -53 63 C-49.98407145 65.29689923 -47.93105253 67.0995908 -45.75 70.25 C-42.78461801 73.21538199 -42.31981635 73.44121924 -38.375 73.5625 C-35.83514399 73.49748662 -34.49686933 73.3963653 -32.49731445 71.80126953 C-30.62226719 69.54558737 -29.89332465 67.45396329 -28.95703125 64.67578125 C-28.60576172 63.64775391 -28.25449219 62.61972656 -27.89257812 61.56054688 C-27.53615234 60.48869141 -27.17972656 59.41683594 -26.8125 58.3125 C-26.44447266 57.22904297 -26.07644531 56.14558594 -25.69726562 55.02929688 C-24.79026912 52.35542406 -23.89154027 49.6790579 -23 47 C-18.79614655 48.40128448 -17.32019923 51.47624102 -14.9375 55 C-12.09963162 59.66807443 -12.09963162 59.66807443 -8 63 C-2.86444424 63.30185315 -2.86444424 63.30185315 2 62 C2.68552488 60.34100095 3.34890955 58.67281303 4 57 C4.92986392 55.3552551 5.89838184 53.7319413 6.8984375 52.12890625 C7.46046875 51.22462891 8.0225 50.32035156 8.6015625 49.38867188 C9.47941406 47.9897168 9.47941406 47.9897168 10.375 46.5625 C10.9525 45.63373047 11.53 44.70496094 12.125 43.74804688 C15.01313988 39.11581339 17.93721031 34.51874636 21 30 C23 31 23 31 24.125 34.0625 C27.68205989 49.7305019 24.36768978 67.26427358 16.24609375 80.95703125 C7.02978993 94.2694701 -5.94987727 103.80896287 -21.83203125 107.5625 C-38.43747375 109.85573004 -53.9160485 107.57549111 -68 98 C-80.98413261 87.95629437 -89.37694432 75.1982881 -93 59 C-94.68685545 41.0531392 -91.25305249 25.77984759 -79.96875 11.4140625 C-72.73334244 2.93029236 -64.44072473 -3.09151379 -54 -7 C-53.26652344 -7.2990625 -52.53304687 -7.598125 -51.77734375 -7.90625 C-34.55795762 -14.11557789 -15.00148413 -9.49914306 0 0 Z " fill="#E27511" transform="translate(134,51)"/>
<path d="M0 0 C3.64331077 1.61924923 6.20425519 3.40851039 8 7 C8.66921551 10.85350468 8.89898103 14.39515239 6.9453125 17.8828125 C4.62919258 20.71971679 2.71802305 22.79410726 -0.98828125 23.23828125 C-5.05070018 23.36800555 -7.37166461 23.37432746 -10.9375 21.25 C-14.58884851 17.26671072 -15.45851372 14.51225916 -15.32421875 8.96484375 C-14.80766846 5.83442451 -13.22817871 4.16451646 -11 2 C-7.29017554 -0.4732163 -4.30111858 -0.54710902 0 0 Z " fill="#E27612" transform="translate(166,40)"/>
</svg>
