<?xml version="1.0" encoding="UTF-8"?>
<svg version="1.1" xmlns="http://www.w3.org/2000/svg" width="148" height="148">
<path d="M0 0 C48.84 0 97.68 0 148 0 C148 48.84 148 97.68 148 148 C99.16 148 50.32 148 0 148 C0 99.16 0 50.32 0 0 Z " fill="#FEFEFE" transform="translate(0,0)"/>
<path d="M0 0 C3.5625 0.5 3.5625 0.5 6 2.125 C8.03411336 5.21685231 8.16855429 6.86367425 7.5625 10.5 C6 12.875 6 12.875 3.5625 14.5 C0.10019185 14.92519574 -2.2722167 15.13902633 -5.375 13.4375 C-7.05653731 10.37116726 -6.79801184 7.92486249 -6.4375 4.5 C-4.84580713 0.8484693 -3.98042609 0.57897107 0 0 Z " fill="#0B0B0B" transform="translate(46.4375,93.5)"/>
<path d="M0 0 C1.9375 1.0625 1.9375 1.0625 3 3 C3.50030235 6.93094707 3.5996142 9.1005787 1.375 12.4375 C-1.71685231 14.47161336 -3.36367425 14.60605429 -7 14 C-9.375 12.4375 -9.375 12.4375 -11 10 C-11.5 6.4375 -11.5 6.4375 -11 3 C-8.00072831 -0.7190969 -4.52120916 -0.49322282 0 0 Z " fill="#0B0B0B" transform="translate(105,40)"/>
<path d="M0 0 C2.375 1.5625 2.375 1.5625 4 4 C4.42519574 7.46230815 4.63902633 9.8347167 2.9375 12.9375 C-0.1652833 14.63902633 -2.53769185 14.42519574 -6 14 C-8.4375 12.375 -8.4375 12.375 -10 10 C-10.61195145 6.3282913 -10.48706506 4.71186432 -8.375 1.625 C-5.28813568 -0.48706506 -3.6717087 -0.61195145 0 0 Z " fill="#090909" transform="translate(104,94)"/>
<path d="M0 0 C2.4375 1.625 2.4375 1.625 4 4 C4.61195145 7.6717087 4.48706506 9.28813568 2.375 12.375 C-0.71186432 14.48706506 -2.3282913 14.61195145 -6 14 C-8.375 12.4375 -8.375 12.4375 -10 10 C-10.42519574 6.53769185 -10.63902633 4.1652833 -8.9375 1.0625 C-5.8347167 -0.63902633 -3.46230815 -0.42519574 0 0 Z " fill="#0A0A0A" transform="translate(50,40)"/>
<path d="M0 0 C2.375 1.625 2.375 1.625 4 4 C4.60605429 7.63632575 4.47161336 9.28314769 2.4375 12.375 C-0.92058549 14.61372366 -3.04745604 14.57491549 -7 14 C-9.62541413 11.79803976 -9.9445448 10.38026421 -10.4375 7 C-10 4 -10 4 -8.375 1.625 C-5.28813568 -0.48706506 -3.6717087 -0.61195145 0 0 Z " fill="#080808" transform="translate(77,103)"/>
<path d="M0 0 C2.375 1.0625 2.375 1.0625 4 3 C4.57491549 6.95254396 4.61372366 9.07941451 2.375 12.4375 C-0.71685231 14.47161336 -2.36367425 14.60605429 -6 14 C-8.375 12.375 -8.375 12.375 -10 10 C-10.61195145 6.3282913 -10.48706506 4.71186432 -8.375 1.625 C-5.30522452 -0.4753727 -3.65443439 -0.53293835 0 0 Z " fill="#080808" transform="translate(113,67)"/>
<path d="M0 0 C3.625 0.375 3.625 0.375 6.125 1.9375 C7.625 4.375 7.625 4.375 7.625 7.9375 C6.625 11.375 6.625 11.375 4.875 13.3125 C2.10208502 14.62193207 0.64980283 14.97996057 -2.375 14.375 C-4.75 12.3125 -4.75 12.3125 -6.375 9.375 C-6.18819799 3.86434072 -5.98170158 0.66463351 0 0 Z " fill="#070707" transform="translate(73.375,30.625)"/>
<path d="M0 0 C2 1.6875 2 1.6875 3 4 C2.92974155 7.44266385 2.60090824 9.28353249 0.375 11.9375 C-3.07517724 13.48100034 -5.39999716 12.93333407 -9 12 C-11.46943529 8.29584707 -11.46913089 6.37855495 -11 2 C-7.89207752 -1.97814077 -4.55239669 -1.24156273 0 0 Z " fill="#050505" transform="translate(42,68)"/>
</svg>
