<?xml version="1.0" encoding="UTF-8"?>
<svg version="1.1" xmlns="http://www.w3.org/2000/svg" width="240" height="240">
<path d="M0 0 C79.2 0 158.4 0 240 0 C240 79.2 240 158.4 240 240 C160.8 240 81.6 240 0 240 C0 160.8 0 81.6 0 0 Z " fill="#FEFEFE" transform="translate(0,0)"/>
<path d="M0 0 C3.03200339 1.0106678 3.99878825 1.63493157 6 4 C6.96070434 6.88211302 7.10581883 8.69850044 7.0625 11.6875 C7.05347656 12.49574219 7.04445313 13.30398437 7.03515625 14.13671875 C7.02355469 14.75160156 7.01195312 15.36648437 7 16 C8.4540625 15.2575 8.4540625 15.2575 9.9375 14.5 C15.26018588 12.23273015 20.47745576 12.01291747 25.875 14.125 C28.64413441 16.56835389 29.75073785 18.51521611 31 22 C31.14974995 24.67752917 31.05253179 27.31534908 31 30 C32.09699219 29.89300781 33.19398438 29.78601563 34.32421875 29.67578125 C35.77857194 29.55380324 37.23300363 29.43275862 38.6875 29.3125 C39.40873047 29.23966797 40.12996094 29.16683594 40.87304688 29.09179688 C45.50851828 28.73196576 48.37107583 28.98663299 52 32 C52 32.66 52 33.32 52 34 C52.66 34 53.32 34 54 34 C55.19039379 36.38078758 55.13086026 37.83950475 55.14044189 40.4967804 C55.14615204 41.44310333 55.15186218 42.38942627 55.15774536 43.36442566 C55.15942215 44.92680717 55.15942215 44.92680717 55.16113281 46.52075195 C55.16609772 47.61516602 55.17106262 48.70958008 55.17617798 49.8371582 C55.19082666 53.4708722 55.19760622 57.10454253 55.203125 60.73828125 C55.20887435 63.2569326 55.21463211 65.77558392 55.22039795 68.29423523 C55.22957018 72.90480644 55.23586727 77.51536449 55.2388947 82.12594253 C55.24337369 88.909871 55.26091313 95.69359782 55.2898953 102.47746497 C55.31412867 108.35395854 55.32183964 114.23038488 55.32357025 120.10692406 C55.32660099 122.60640752 55.33464359 125.10589005 55.34775543 127.60534096 C55.36478236 131.10073806 55.36294357 134.59564287 55.35644531 138.09106445 C55.3656601 139.12657944 55.37487488 140.16209442 55.3843689 141.22898865 C55.33330781 149.98296359 55.33330781 149.98296359 52 154 C47.98538284 157.63824681 43.86143579 157.28979948 38.71875 157.203125 C36.07222013 157.00539576 33.58696633 156.58113012 31 156 C31 158.31 31 160.62 31 163 C30.34 163 29.68 163 29 163 C29.061875 163.763125 29.12375 164.52625 29.1875 165.3125 C29 168 29 168 27.625 169.8125 C26 171 26 171 24 171 C24 171.66 24 172.32 24 173 C17.48208608 173.3540919 12.82478551 173.03901852 7 170 C7.01160156 170.61488281 7.02320313 171.22976562 7.03515625 171.86328125 C7.04417969 172.67152344 7.05320312 173.47976562 7.0625 174.3125 C7.07410156 175.11300781 7.08570313 175.91351563 7.09765625 176.73828125 C6.9428267 180.32413357 6.27997277 181.74213034 3.625 184.1875 C-0.9015619 186.99483887 -5.87655022 186.86603768 -11 186 C-13.30926597 184.94288669 -15.22173592 183.73632144 -17.2734375 182.24609375 C-19.37715388 180.7278007 -21.55483212 179.84052646 -24 179 C-24 178.34 -24 177.68 -24 177 C-24.99 177 -25.98 177 -27 177 C-27 176.34 -27 175.68 -27 175 C-28.485 174.62875 -28.485 174.62875 -30 174.25 C-37.61537155 172.04154225 -44.00482556 167.82051687 -50.58203125 163.48828125 C-52.99990766 161.87337954 -52.99990766 161.87337954 -56 161 C-56.66 160.01 -57.32 159.02 -58 158 C-60.17897492 156.99194445 -60.17897492 156.99194445 -62.625 156.3125 C-63.44226563 156.06113281 -64.25953125 155.80976563 -65.1015625 155.55078125 C-65.72804688 155.36902344 -66.35453125 155.18726563 -67 155 C-67 154.34 -67 153.68 -67 153 C-67.99 152.62875 -67.99 152.62875 -69 152.25 C-72.10853573 150.95477678 -75.05520534 149.46608036 -78.03515625 147.90234375 C-79.97959699 146.9256162 -79.97959699 146.9256162 -82.13671875 146.52734375 C-84 146 -84 146 -85.75 143.625 C-87 141 -87 141 -87 138 C-87.66 138 -88.32 138 -89 138 C-89.06950591 126.35184937 -89.12281437 114.70374808 -89.15543652 103.05543232 C-89.17109339 97.64666227 -89.19233226 92.2380341 -89.22631836 86.8293457 C-89.25891073 81.60980522 -89.27685285 76.39040122 -89.28463173 71.17076683 C-89.29017543 69.17925048 -89.30100088 67.18774161 -89.31719017 65.19628334 C-89.33896267 62.40713983 -89.34196698 59.61856051 -89.34057617 56.8293457 C-89.351362 56.00575562 -89.36214783 55.18216553 -89.3732605 54.33361816 C-89.34836925 49.72144405 -88.97514226 46.75090759 -86 43 C-82.48940075 40.28726422 -79.01033561 38.56129717 -74.9140625 36.91015625 C-71.80197282 35.43032585 -69.06766764 33.41001465 -66.234375 31.4609375 C-64.28941817 30.18923495 -62.41347038 29.16615714 -60.3125 28.1875 C-55.64548667 25.98519451 -51.4322479 23.08837797 -47.18676758 20.17260742 C-43.20902708 17.51796053 -39.65910334 16.10394041 -35 15 C-35 14.34 -35 13.68 -35 13 C-32.36 12.34 -29.72 11.68 -27 11 C-27 10.34 -27 9.68 -27 9 C-25.68 9 -24.36 9 -23 9 C-23 8.34 -23 7.68 -23 7 C-22.13375 6.5875 -21.2675 6.175 -20.375 5.75 C-16.97870031 4.13413614 -16.97870031 4.13413614 -14.3125 1.8125 C-9.60143207 -0.76525415 -5.26794711 -0.50446589 0 0 Z " fill="#090909" transform="translate(137,27)"/>
<path d="M0 0 C0 53.46 0 106.92 0 162 C-1.98 161.34 -3.96 160.68 -6 160 C-6.33 159.34 -6.66 158.68 -7 158 C-8.88786818 157.12266249 -10.81147115 156.32136312 -12.75 155.5625 C-16.73094145 153.99855872 -20.47421649 152.44846077 -24 150 C-24 149.34 -24 148.68 -24 148 C-25.2375 147.62875 -25.2375 147.62875 -26.5 147.25 C-37.30434783 143.39130435 -37.30434783 143.39130435 -39 140 C-40.78562347 139.18808554 -42.60520142 138.4502415 -44.4375 137.75 C-49.61586234 135.67371152 -54.24177612 133.22855643 -58.94140625 130.234375 C-61.07249172 128.85547054 -61.07249172 128.85547054 -64 128 C-64 127.34 -64 126.68 -64 126 C-66.65228812 124.92474806 -69.28368454 123.90543849 -72 123 C-72 95.28 -72 67.56 -72 39 C-67.05 36.525 -67.05 36.525 -62 34 C-55.79837025 30.7664926 -49.66372543 27.44780764 -43.6875 23.8125 C-32.47335791 17 -32.47335791 17 -28 17 C-28 16.34 -28 15.68 -28 15 C-26.73308493 14.32591692 -25.46129251 13.66099503 -24.1875 13 C-23.47980469 12.62875 -22.77210937 12.2575 -22.04296875 11.875 C-20 11 -20 11 -17 11 C-17 10.34 -17 9.68 -17 9 C-12.61538462 6 -12.61538462 6 -10 6 C-10 5.34 -10 4.68 -10 4 C-8.52184338 3.3310968 -7.04244528 2.66493641 -5.5625 2 C-4.73878906 1.62875 -3.91507812 1.2575 -3.06640625 0.875 C-1 0 -1 0 0 0 Z " fill="#FAFAFA" transform="translate(132,39)"/>
<path d="M0 0 C0 44.22 0 88.44 0 134 C-10 133 -10 133 -12 132 C-12 89.1 -12 46.2 -12 2 C-4 0 -4 0 0 0 Z " fill="#FDFDFD" transform="translate(156,53)"/>
<path d="M0 0 C0 34.32 0 68.64 0 104 C-3.96 103.67 -7.92 103.34 -12 103 C-12 69.34 -12 35.68 -12 1 C-2 0 -2 0 0 0 Z " fill="#F5F5F5" transform="translate(180,68)"/>
<path d="M0 0 C0 25.08 0 50.16 0 76 C-2.66666667 75.33333333 -5.33333333 74.66666667 -8 74 C-8 73.34 -8 72.68 -8 72 C-9.32 71.67 -10.64 71.34 -12 71 C-12 49.22 -12 27.44 -12 5 C-10.35 4.67 -8.7 4.34 -7 4 C-7 3.34 -7 2.68 -7 2 C-4.35261084 0.5393715 -3.10551666 0 0 0 Z " fill="#090909" transform="translate(84,82)"/>
<path d="M0 0 C0.33 0 0.66 0 1 0 C1 44.22 1 88.44 1 134 C-9 133 -9 133 -11 132 C-11 89.1 -11 46.2 -11 2 C-9.02 1.67 -7.04 1.34 -5 1 C-5.33 1.66 -5.66 2.32 -6 3 C-7.32 3 -8.64 3 -10 3 C-10 45.24 -10 87.48 -10 131 C-7.03 131 -4.06 131 -1 131 C-0.67 87.77 -0.34 44.54 0 0 Z " fill="#D1D1D1" transform="translate(155,53)"/>
<path d="M0 0 C0.33 0 0.66 0 1 0 C1.33 37.29 1.66 74.58 2 113 C0.515 113.495 0.515 113.495 -1 114 C-1.33 114.99 -1.66 115.98 -2 117 C-2.33 116.34 -2.66 115.68 -3 115 C-2.34 114.01 -1.68 113.02 -1 112 C-0.68969938 109.82482534 -0.68969938 109.82482534 -0.7215271 107.38728333 C-0.71036362 106.44077408 -0.69920013 105.49426483 -0.68769836 104.51907349 C-0.68553818 103.4825766 -0.68337799 102.44607971 -0.68115234 101.37817383 C-0.67110672 100.28533585 -0.6610611 99.19249786 -0.65071106 98.06654358 C-0.61976812 94.44671159 -0.60281292 90.82695393 -0.5859375 87.20703125 C-0.56723481 84.7002447 -0.54766208 82.19346451 -0.5272522 79.68669128 C-0.48108879 73.75819083 -0.44371464 67.82967604 -0.41057932 61.90109223 C-0.36861742 54.48933278 -0.31304367 47.07768602 -0.2578125 39.66601562 C-0.16093394 26.44407164 -0.07618907 13.22207855 0 0 Z " fill="#CCCCCC" transform="translate(192,64)"/>
<path d="M0 0 C0.33 0.66 0.66 1.32 1 2 C0.608125 2.37125 0.21625 2.7425 -0.1875 3.125 C-0.785625 3.74375 -1.38375 4.3625 -2 5 C-2.8487822 5.84801178 -3.69756439 6.69602356 -4.57206726 7.56973267 C-7.74930724 11.43032149 -7.71161711 14.91069476 -7.65942383 19.75927734 C-7.66990753 20.61846771 -7.68039124 21.47765808 -7.69119263 22.36288452 C-7.71987056 25.18760614 -7.71365972 28.0110968 -7.70703125 30.8359375 C-7.72015069 32.8003594 -7.73545567 34.76476782 -7.75285339 36.72915649 C-7.79268737 41.88799157 -7.80289284 47.04647361 -7.80688477 52.20544434 C-7.81621917 57.4743113 -7.8536347 62.7429711 -7.88867188 68.01171875 C-7.9532315 78.34113617 -7.98648495 88.67039848 -8 99 C-8.33 99 -8.66 99 -9 99 C-9.06950591 87.35184937 -9.12281437 75.70374808 -9.15543652 64.05543232 C-9.17109339 58.64666227 -9.19233226 53.2380341 -9.22631836 47.8293457 C-9.25891073 42.60980522 -9.27685285 37.39040122 -9.28463173 32.17076683 C-9.29017543 30.17925048 -9.30100088 28.18774161 -9.31719017 26.19628334 C-9.33896267 23.40713983 -9.34196698 20.61856051 -9.34057617 17.8293457 C-9.351362 17.00575562 -9.36214783 16.18216553 -9.3732605 15.33361816 C-9.34840156 10.72743026 -8.99254418 7.73226442 -6 4 C-2.8125 1.6875 -2.8125 1.6875 0 0 Z " fill="#373737" transform="translate(57,66)"/>
<path d="M0 0 C5.75 1.75 5.75 1.75 8 4 C13.01025094 4.62123884 17.59375536 4.66176218 22.1875 2.5 C22.785625 2.005 23.38375 1.51 24 1 C24 2.65 24 4.3 24 6 C23.34 6 22.68 6 22 6 C21.67 6.66 21.34 7.32 21 8 C21 7.34 21 6.68 21 6 C19.80503906 6.14308594 19.80503906 6.14308594 18.5859375 6.2890625 C6.22754169 7.58203335 6.22754169 7.58203335 1.125 3.5 C0 2 0 2 0 0 Z " fill="#CBCBCB" transform="translate(118,208)"/>
<path d="M0 0 C0.99 0.33 1.98 0.66 3 1 C2.67 1.66 2.34 2.32 2 3 C1.01 2.67 0.02 2.34 -1 2 C-3.33299825 1.96045766 -5.66708189 1.95598268 -8 2 C-8.33 2.66 -8.66 3.32 -9 4 C-11.33333333 4.66666667 -13.66666667 5.33333333 -16 6 C-16.33 6.66 -16.66 7.32 -17 8 C-17.66 8 -18.32 8 -19 8 C-19 8.66 -19 9.32 -19 10 C-19.66 10 -20.32 10 -21 10 C-21 9.34 -21 8.68 -21 8 C-21.66 7.67 -22.32 7.34 -23 7 C-22.13375 6.5875 -21.2675 6.175 -20.375 5.75 C-16.97870031 4.13413614 -16.97870031 4.13413614 -14.3125 1.8125 C-9.60143207 -0.76525415 -5.26794711 -0.50446589 0 0 Z " fill="#383838" transform="translate(137,27)"/>
<path d="M0 0 C5.94 0 11.88 0 18 0 C18 0.66 18 1.32 18 2 C15.54159395 2.02691685 13.08348118 2.04679802 10.625 2.0625 C9.92632812 2.07087891 9.22765625 2.07925781 8.5078125 2.08789062 C3.2265625 2.11328125 3.2265625 2.11328125 1 1 C1.061875 2.258125 1.12375 3.51625 1.1875 4.8125 C1.20826011 8.72231986 1.20826011 8.72231986 -0.5 11 C-0.995 11.33 -1.49 11.66 -2 12 C-2 10.35 -2 8.7 -2 7 C-1.34 7 -0.68 7 0 7 C0 4.69 0 2.38 0 0 Z " fill="#A5A5A5" transform="translate(168,183)"/>
<path d="M0 0 C0.66 0.33 1.32 0.66 2 1 C1.71364159 3.76813126 1.18075889 4.8312917 -0.875 6.75 C-5.5347172 8.61388688 -10.04290957 8.23439832 -15 8 C-15 7.67 -15 7.34 -15 7 C-14.40832031 6.98582031 -13.81664062 6.97164062 -13.20703125 6.95703125 C-8.70077808 6.68503881 -6.57362742 6.47802285 -3 3.5 C-2.34 2.675 -1.68 1.85 -1 1 C-0.67 0.67 -0.34 0.34 0 0 Z " fill="#1C1C1C" transform="translate(188,176)"/>
<path d="M0 0 C0.66 0.33 1.32 0.66 2 1 C1.01 1.33 0.02 1.66 -1 2 C-1 2.66 -1 3.32 -1 4 C-2.65 4.33 -4.3 4.66 -6 5 C-6 5.66 -6 6.32 -6 7 C-8.64 7.66 -11.28 8.32 -14 9 C-10.50912907 4.9957657 -8.35048061 3.37328935 -3 3 C-3 2.34 -3 1.68 -3 1 C-2.01 0.67 -1.02 0.34 0 0 Z " fill="#626262" transform="translate(105,39)"/>
<path d="M0 0 C-0.8125 1.9375 -0.8125 1.9375 -2 4 C-2.99 4.33 -3.98 4.66 -5 5 C-5 5.66 -5 6.32 -5 7 C-6.62463842 7.05395478 -8.24978541 7.09277195 -9.875 7.125 C-10.77992188 7.14820313 -11.68484375 7.17140625 -12.6171875 7.1953125 C-15 7 -15 7 -17 5 C-13.37 5.33 -9.74 5.66 -6 6 C-5.67 4.68 -5.34 3.36 -5 2 C-2 0 -2 0 0 0 Z " fill="#484848" transform="translate(166,193)"/>
<path d="M0 0 C2.125 0.9375 2.125 0.9375 4 2 C2.02 2.99 2.02 2.99 0 4 C0 4.66 0 5.32 0 6 C-1.65 5.67 -3.3 5.34 -5 5 C-4.67 4.34 -4.34 3.68 -4 3 C-3.34 3 -2.68 3 -2 3 C-2 2.34 -2 1.68 -2 1 C-1.34 0.67 -0.68 0.34 0 0 Z " fill="#0F0F0F" transform="translate(60,65)"/>
<path d="M0 0 C3.91211733 1.15585285 6.8745041 2.35534962 10 5 C9.67 5.66 9.34 6.32 9 7 C2.29787234 5.06382979 2.29787234 5.06382979 0 2 C0 1.34 0 0.68 0 0 Z " fill="#E0E0E0" transform="translate(118,208)"/>
<path d="M0 0 C2.79133871 0.78208351 5.44481903 1.61706907 8 3 C9 5.6875 9 5.6875 9 8 C7.68 7.34 6.36 6.68 5 6 C5 5.01 5 4.02 5 3 C3.35 2.67 1.7 2.34 0 2 C0 1.34 0 0.68 0 0 Z " fill="#373737" transform="translate(86,176)"/>
<path d="M0 0 C0.99 0.33 1.98 0.66 3 1 C3 1.66 3 2.32 3 3 C5.64 3.33 8.28 3.66 11 4 C11 4.66 11 5.32 11 6 C11.66 6 12.32 6 13 6 C12.67 6.66 12.34 7.32 12 8 C10.36881217 7.43420053 8.74515506 6.84665767 7.125 6.25 C5.76761719 5.76273438 5.76761719 5.76273438 4.3828125 5.265625 C1.67952982 3.82978305 1.03293147 2.82572058 0 0 Z " fill="#686868" transform="translate(51,169)"/>
<path d="M0 0 C0 0.66 0 1.32 0 2 C-1.95927063 3.7143618 -3.95880212 5.38405168 -6 7 C-6 6.34 -6 5.68 -6 5 C-7.65 5.33 -9.3 5.66 -11 6 C-9.60147088 3.20294175 -7.86348142 3.09085007 -5 2 C-2 0 -2 0 0 0 Z " fill="#3A3A3A" transform="translate(86,51)"/>
<path d="M0 0 C3.3125 0.1875 3.3125 0.1875 7 1 C8.9375 3.5625 8.9375 3.5625 10 6 C5.56909529 4.79157144 3.01887244 3.48331435 0 0 Z " fill="#707070" transform="translate(91,192)"/>
<path d="M0 0 C1.98 0 3.96 0 6 0 C6.33 1.65 6.66 3.3 7 5 C5.68 4.67 4.36 4.34 3 4 C3 3.34 3 2.68 3 2 C2.01 1.67 1.02 1.34 0 1 C0 0.67 0 0.34 0 0 Z " fill="#C4C4C4" transform="translate(65,163)"/>
<path d="M0 0 C2.97 0.495 2.97 0.495 6 1 C6 1.66 6 2.32 6 3 C4.68 3 3.36 3 2 3 C2 3.66 2 4.32 2 5 C0.68 5.33 -0.64 5.66 -2 6 C-1.34 4.02 -0.68 2.04 0 0 Z " fill="#D2D2D2" transform="translate(108,33)"/>
<path d="M0 0 C2.31 0.66 4.62 1.32 7 2 C5.68 2.33 4.36 2.66 3 3 C3 3.66 3 4.32 3 5 C2.01 5 1.02 5 0 5 C0 3.35 0 1.7 0 0 Z " fill="#F8F8F8" transform="translate(169,184)"/>
<path d="M0 0 C2.475 0.99 2.475 0.99 5 2 C5 2.99 5 3.98 5 5 C2.03 4.505 2.03 4.505 -1 4 C-0.67 2.68 -0.34 1.36 0 0 Z " fill="#C5C5C5" transform="translate(75,183)"/>
<path d="M0 0 C1.65 0.33 3.3 0.66 5 1 C3.02 1.99 3.02 1.99 1 3 C1 5.31 1 7.62 1 10 C0.34 9.67 -0.32 9.34 -1 9 C-0.67 6.03 -0.34 3.06 0 0 Z " fill="#D0D0D0" transform="translate(144,197)"/>
<path d="M0 0 C-2 3 -2 3 -4.625 3.6875 C-5.800625 3.8421875 -5.800625 3.8421875 -7 4 C-7.33 3.01 -7.66 2.02 -8 1 C-5.29120665 -0.35439668 -2.99066732 -0.06501451 0 0 Z " fill="#DCDCDC" transform="translate(82,52)"/>
</svg>
