<?xml version="1.0" encoding="UTF-8"?>
<svg xmlns="http://www.w3.org/2000/svg"
     version="1.1"
     viewBox="-3.39 -3.39 2193.06 2193.06"
     width="400" height="400"
     style="shape-rendering:geometricPrecision; text-rendering:geometricPrecision; image-rendering:optimizeQuality; fill-rule:evenodd; clip-rule:evenodd">
  <defs>
    <style>
  .str1 {stroke:white;stroke-width:113.21;stroke-miterlimit:22.9256}
    .fil2 {fill:white}
    .fil4 {fill:#EAA45D}
    .fil5 {fill:#2D2912}
    .fil6 {fill:#F1CD94}
    .fil7 {fill:#DCA662}
    .fil8 {fill:#17160A}
    .fil9 {fill:#F2CF96}
    .fil10 {fill:#262511}
    .fil11 {fill:#2E2D16}
    .fil12 {fill:#292611}
    .fil13 {fill:#F3CE95}
    .fil14 {fill:#F6D49A}
    .fil15 {fill:#25220D}
    .fil16 {fill:#F6D59D}
    .fil17 {fill:#F2D199}
    </style>
  </defs>
  <g>
    <circle  class="fil2 str1" cx="1093.14" cy="1093.14" r="1036.53" />
  
    <g  id="_2177949604912">
   <circle class="fil4" cx="1093.14" cy="1093.14" r="988.26" />
   <g>
    <path class="fil5" d="M759.41 1797.47c0.34,-0.17 0.94,-0.63 1.12,-0.26l2.52 -0.4c0.43,-0.03 0.99,-0.06 1.49,-0.08 44.21,-1.78 39.49,4.23 88.15,25.51 25.11,10.99 24.29,7.22 52.05,6.2 20.35,-0.75 40.04,-1.15 60.23,-2.05 78.13,-3.43 158.15,-6.1 236.94,-8.28 40.06,-1.1 79.51,-2.71 118.51,-4.36 40.21,-1.71 80.37,-1.5 120.34,-3.59 13.54,-0.71 195.93,-8.47 206,-5.3l14.33 7.35c5.92,4.07 1.51,-1.56 5.15,5.31l-3.3 1.45c-12.05,3.59 7.55,-1.33 -3.48,1.02 -1.5,0.33 -5.43,0.64 -7.12,0.74l-105.07 3.33c-38.52,0.07 -80.49,3.25 -119.37,4.74 -79.16,3.03 -161.65,7.14 -241.26,8.34 -78.03,1.18 -157.98,6.81 -236.31,8.92 -18.17,0.48 -36.68,1.71 -54.54,1.69 -34.62,-0.04 -22.14,3.94 -51.18,-10.14l-85.2 -40.14zm166.99 -3.83c26.98,-0.03 60.02,-6 79.57,10.96 -8.81,1.94 -34.91,2.91 -44.76,2.68 -12.33,-0.29 -30.66,-9.28 -34.81,-13.65zm258.02 -7.71c17.9,0.87 29.19,0.39 42.12,11.06l-38.17 3.13c-0.81,-6.05 -0.18,-9.9 -3.94,-14.19zm54.13 -1.22c15.94,-3.55 39.93,-3.69 55.8,2.46 2.14,0.84 6.34,2.21 7.76,2.92 8.57,4.29 3.22,0.18 6.38,5.62 -26.45,-3.65 -24.74,8.16 -56,-5.05 -6.47,-2.72 -9.38,-2.57 -13.95,-5.94zm82.18 -3.53c24.92,-1.12 44.32,-4.28 65.9,8.64 2.99,1.78 2.24,1.37 4.16,3.08 -17.38,-0.65 -49.2,6.91 -70.06,-11.72zm-185.54 -229.05c5.1,10.23 12.97,19.27 18.55,32.88 13.11,31.99 39.94,86.98 47.51,115.96l-15.92 -18.12c-5.87,-5.49 -12.53,-12.59 -17.72,-18.81 -6.53,-7.78 -32.57,-24.45 -43.29,-29.5 -1,-25.49 3.69,-57.02 10.87,-82.4zm-649.19 53.93l35.76 -151.25c21.83,52.08 33.13,117.49 49.86,172.13 -10.53,-2.48 -75.34,-15.35 -85.62,-20.88zm48.11 -212.27c2.03,-15.48 6.17,-32.06 8.1,-48.22 0.98,-8.16 2.81,-15.33 3.28,-23.89 0.28,-5.11 1.77,-22.25 -4.86,-24.74 -10.45,-3.91 -13.85,23.47 -15.31,29.84l-26.34 119.62c-4.86,19.46 -31.18,147.45 -38.96,154.4 -4.78,4.26 -26.81,5.28 -35.37,8.22 -7.17,2.46 -6.9,2.02 -9.1,7.96 8.57,9.29 40.98,11.67 52.83,13.5 17.55,2.72 37.14,7.14 54.42,11.05 36.39,8.21 72.7,15.14 109.69,21.69 39.11,6.92 77.98,10.06 117.31,13.64 122.17,11.09 95.98,8.72 216.73,-30.91 46.09,-15.13 58.94,-21.36 108.81,-6.28 25.07,7.58 47.54,17.1 67.51,30.89l13.99 9.73c3.64,2.99 1.74,1.3 4.72,4.4 7.79,8.11 14.19,12.06 24.99,24.23 2.73,3.08 1.01,1.11 3.08,4.21 0.22,0.33 0.48,0.79 0.7,1.13 7.41,11.26 22.96,32.33 27.15,48.34l-19.22 0.92c-8.31,-13.08 -17.48,-26.83 -28.04,-38.35l-15.61 -17.11c-15.96,-15.02 -38.57,-32.82 -59.52,-40.72 -9.53,-3.6 -40.26,-17.61 -49.29,-13.89 5.03,5.67 14.45,7.72 21.51,10.63 7.58,3.12 13.96,7.43 21.35,11.43l28.99 20.32c8.75,7.66 17.91,15.33 24.71,24.48 1.26,1.69 1.54,2.25 3.12,4.17 2.15,2.62 2.41,2.5 4.24,4.83l19.37 29.91c4.06,6.78 8.49,15.94 6.78,24.59 -12.04,-1.38 -15.96,-3.51 -20.76,-10.7l-15.44 -19.18c-4.04,-5.16 -2.75,-3.64 -7.69,-8.66 -9.33,-9.47 -15.09,-18.19 -26.3,-26.62 -13.53,-10.15 -24.59,-19.29 -40.05,-27.39 -10.95,-5.74 -39.96,-18.11 -51.23,-14.76 2.58,7.51 10.4,7.44 18.48,11.04 6.23,2.77 13.62,6.92 19.29,9.99 25.5,13.83 46.07,34.01 63.22,57.04 5.28,7.09 20.44,25.93 24.14,35.06l-27.97 0.63c-4.66,-8.14 -4.45,-7.94 -11.29,-15.06 -14.08,-14.67 -23.82,-29.9 -42.42,-41.53 -20.93,-13.09 -54.79,-31.8 -84.55,-26.45 6.3,9.9 23.25,12.03 32.99,17.92 11.62,7.02 21.56,11.52 30.68,18.5l28.15 22.9c0.25,0.26 0.64,0.64 0.89,0.9 0.26,0.25 0.67,0.61 0.93,0.86 2.34,2.23 0.58,0.22 3.74,3.5 5.26,5.47 13.87,14.46 15.87,21 -64.5,6.45 -33.06,-14.33 -101.65,-35.57 -50.87,-15.74 -65.82,35.28 -139.92,7.04 -42.36,-16.15 -39.56,-11.46 -88.93,-5.95 -125.09,13.95 -264.12,38.07 -388.58,14.98 -45.43,-8.42 -70.82,-16.11 -74.58,-63.35 -6.32,-79 30.65,-284.75 50.88,-367.83 15.63,-64.16 23.82,-166.26 62.38,-216.37 26.85,-34.87 98.17,-60.22 120.82,-36.9 42.49,43.72 47.72,142.27 42.42,198.2 -2.99,31.61 -10.46,74.78 -30,101.22 -0.34,0.46 -1.43,1.79 -1.82,2.22 -0.33,0.37 -0.77,0.76 -1.08,1.09l-2.41 2.2zm538.71 -301.98c26.62,0.69 47.61,10.83 66.03,23.07 6.94,4.61 6.83,2.92 12.21,9.78 13.12,16.73 16.09,15.8 28.2,41.05 21.08,44.01 32.19,86.83 46.64,135.66 13.68,46.25 30.66,89.12 45.89,134.51 11.82,35.25 25.81,83.59 41.43,117.31 3.7,7.97 5.32,7.54 7.86,17 -23.36,-4.25 -40.33,-1.42 -58.83,8.67 -13.31,7.26 -35.15,19.74 -34.39,35.91 12.33,-0.84 59.64,-50.72 178.46,7.37 35.02,17.13 42.48,22.19 69.13,45.81 6.42,5.68 7.17,8.01 12.68,14.65 4.21,5.06 8.04,11.85 11.21,18.09 6.89,13.57 11.24,28.55 14.49,44.36l-15.69 0.99c-3.97,-27.2 -4.08,-41.16 -18.99,-61.73 -10.45,-14.41 -24.57,-34.39 -40.55,-40.86 3.89,8.98 23.14,28.21 32.01,51.15 8.55,22.11 9.89,44.56 17.43,66.34l-18.23 -1.29c-4.2,-12.92 -4.3,-27.82 -8.28,-41.33 -9.91,-33.66 -29.28,-72.19 -63.51,-87.57 1.81,5.9 15.43,23.28 19.81,29.24 15.61,21.2 38.87,86.05 38.32,106.64l-24.54 0.45c-19.49,-33.25 -6.41,-49.57 -40.69,-98.46 -8.78,-12.54 -15.3,-18.7 -26.68,-28.01 -6.39,-5.24 -11.36,-8.14 -20.03,-9.3 0.93,5.77 6.06,11.94 8.82,15.08 25.23,28.88 48.69,83.58 59.06,118.97 -32.28,-2.19 -25.15,1.6 -37.3,-15.03 -13.86,-18.98 -33.4,-69.05 -45.85,-79.84 -45.29,-39.23 -81.37,-0.31 -32.84,38.27 14.92,11.86 50.42,30.85 38.48,55.35 -9.83,1.64 -15.85,0.42 -20.62,-4.02 -27.29,-25.37 -66.61,-28.96 -82.02,-54.65 -12.23,-20.38 -36.36,-113.15 -85.44,-188.72 8.05,-12.55 5.88,-7.5 11.73,-14.49 7.08,-8.47 11.65,-16.55 16.14,-27.54 20.92,-51.18 -11.36,-123.36 -32.98,-169.11 -7.69,-16.26 -16.3,-30.69 -22.05,-47.21 -20.08,-57.56 -26.16,-107.89 -46.51,-166.59zm-438.28 -19.39c-7.26,-5.08 -15.17,-9.05 -20.93,-15.05l31.84 -22.37c69.34,-47.74 47.34,-103.01 50.21,-174.1l40.48 51.55c3.85,4.7 6.86,8.73 11.17,12.57 4.28,3.79 8.83,6.84 13.08,10.7l44.7 37.24c54.29,43.59 102.19,12.92 109.66,12.45 -0.87,20.16 -0.94,52.15 2.34,72.22 1.95,11.87 0.44,14.17 9.92,13.64l2.01 -22.85c2.51,0.82 40.53,24.33 42.07,31.38 3.21,14.58 -22.91,37.27 -29.31,41.91 -30.73,22.29 -79.78,25.38 -120.75,21.23 -41.02,-4.16 -81.72,-14.34 -115.73,-31.82 -21.16,-10.87 -51.76,-25.38 -70.76,-38.68zm-98.53 -174.56c-3.64,-2.77 -0.89,-0.08 -3.59,-3.59 -5.45,-7.04 -16.13,-44.57 -17.59,-52.18 -7.84,-40.8 -1.4,-83.86 28.04,-112.02 6.43,-6.14 29.14,-34.4 36.72,-37.91 -9.3,11.83 -24.59,27.98 -30.78,38.4 -9.25,15.54 -15.14,28.5 -20.09,47.42 -11.52,44.03 -4.17,77.22 7.29,119.89zm586.64 -430.39c39,1.16 80.28,-0.07 119.32,0.11 39.5,0.17 78.9,-0.38 118.56,-0.78 78.82,-0.79 156.94,-1.43 235.16,-1.21 125.61,0.33 127.66,-14.3 128.42,48.56l-0.74 648.95c-0.12,17.49 4.4,101.47 -9.1,109.48 -7.65,4.55 -364.49,3.23 -412.07,3.36 -16.24,0.05 -42.68,1.65 -57.66,-0.43 -11.08,-49.05 -28.68,-104.63 -53.57,-147.09l-20.77 -28.35c-14.19,-15.37 -7.98,-13.09 -24.02,-26.99 -5.84,-5.06 -8.38,-11.71 -15.16,-17.74 -42.99,-38.2 0.92,-112.08 16.73,-145.15 54.33,-113.63 28.32,-215.19 2.91,-337.57 -9.97,-48 -16.36,-62.9 -28,-105.16zm-56.98 114.62c-0.82,7.67 -1.15,5.77 1.37,12.27 7.04,1.74 3.89,-0.56 13.88,2.27l20.75 5.52c17.55,5.95 12.79,10.16 22.48,12.53l-1.5 8.84c-6.13,3.43 -8.15,5.17 -13.02,5.47 -1.91,20.57 -0.91,45.28 -14.19,61.41 -10.42,12.66 -6.38,13.34 -11.99,35.18 -0.16,-0.63 -0.18,-1.4 -0.23,-1.92l-0.27 -3.58c0.08,-13.07 7.13,-6.02 -1.34,-14.53 -0.23,6.84 -0.58,5.23 -4.61,10.09 -5.47,6.61 -4.87,1.71 -4.69,10.06 0.5,-9.03 1.06,-0.03 -3.23,-2.87 -5.38,46.21 -26.15,97.01 -50.65,136.46 -2.3,3.69 -2.98,5.26 -4.86,7.94l-26.87 38.72c-8.53,11.57 -16.74,18.37 -24.51,28.41 -17.07,22.07 -40.55,29.26 -77.6,23.25 -37.2,-6.03 -67.53,-17.89 -95.73,-37.66 -28.15,-19.73 -37.9,-27.97 -62.91,-53.77l-17.09 -23.09c-31.14,-48.38 -31.39,-69.03 -42.87,-87.83 -13.65,5.63 -12.91,10.74 -27.33,1.35 -10.2,-6.64 -11.47,-8.46 -17.65,-18.99 -5.99,-10.2 -8.66,-15.17 -9.93,-28.4 -1.86,-19.19 2.5,-21.65 12.98,-23.23 3.77,11.36 2.14,12.72 8.66,23.68 4.3,7.25 7.7,14.76 16.86,14.7 6.48,-8.98 -2.65,-17.87 -2.27,-31.58 0.96,-35.2 24.59,-14.16 51.48,-56.51l-2.11 -0.03c0.38,-0.48 0.65,-1.19 0.94,-1.6 0.27,-0.41 0.61,-1.05 0.96,-1.53l2 -2.62c2.93,-2.94 4.04,-2.63 7.77,-3.33 -1.77,0.98 -0.74,1.9 -3.28,-1.84 0.06,-0.04 3.2,-2.67 3.59,-3.07 0.32,-0.33 0.69,-0.73 0.99,-1.06l13.4 -12.46c1.09,-5.01 25.37,-33.5 26.61,-34.66 10.56,-9.89 11.1,-9.83 21.95,-9.94 58.74,-0.65 88.69,35.8 117.59,33.11 3.81,-15.5 -4.48,-19.97 -14.58,-25.69 -30.42,-17.23 -65.15,-28.86 -100.25,-21.72l24.73 -26.49c23.56,-24.35 38.88,-71.52 68.68,-100.91 46.03,-45.39 86.63,-26.39 127.16,-20.41 1.89,-5.87 5.27,-8.72 8.95,-14.79 4.01,-6.59 4.45,-8.69 7.03,-15.78 3.41,9.41 -2.74,24.61 -2.94,35.71 1.04,0.76 6.32,4.72 7.99,6.66 19.48,22.64 42.32,65.56 46.84,95.3 2.51,16.51 2.12,32.83 4.39,47.5 -28.37,-9.03 -21.34,-9.92 -61.26,3.94 -10.32,3.59 -47.45,11.29 -38.15,36.71 8.14,0.15 70.35,-31.6 98.45,-21.62l-0.59 6.41zm262.98 944.54c4.13,-2.77 56.21,-1.61 66.51,-1.88 15.98,-0.4 50.62,5.62 52.71,-19.05 2.7,-31.87 -26.1,-25.47 -43.6,-25.43 -23.44,0.06 -48.41,0.71 -71.67,-0.33 -12.23,-24.53 -22.36,-70.13 -32.51,-92.84 63.42,3.33 188.62,-1.34 260.95,-0.94 42.47,0.23 86.27,-0.43 129.43,-0.4 37.91,0.03 73.03,-6.89 74.37,-56.7 4.48,-165.13 0.67,-352.76 1.35,-521.52 0.34,-85.61 0.08,-171.04 0.89,-256.93 0.39,-41.67 4.84,-84.62 -19.91,-111.42 -21.94,-23.74 -74.37,-18.07 -113.21,-17.37 -126.19,2.26 -263.33,0.61 -391.92,1.77 -41.67,0.37 -90.44,2.53 -131.25,0.49 -4.03,-6.69 -8.57,-20.03 -11.83,-27.62 -12.12,-28.14 -27.95,-50.28 -48.81,-67.78 -7.46,-6.25 -12.72,-10.62 -23.82,-14.44 -4.57,-1.57 -9.03,-3.43 -13.67,-4.75 -20.53,-5.84 -7.69,-3.85 -20.47,-17.63 -40.8,-44 -98.07,-54.43 -160.3,-54.73 -68.3,-0.33 -121.61,21.16 -172.5,58.99l-9.57 8.56c-4.31,4.35 -6.53,5.42 -11.3,8.9l-49.45 56.17c-2.26,3.06 -2.84,4.14 -4.49,6.5 -41.52,59.2 -50.63,86.21 -77.84,155.48 -26.58,67.65 -30.44,95.81 -66.45,164.99 -8.51,16.36 -18.78,35.37 -25.87,52.57 -17.96,43.5 -33.57,70.26 -27.06,123.7 4.82,39.5 33.59,89.87 24.22,128.68 -5.07,21.02 -15.65,27.91 -31.08,45.46l-16.74 21.53c-4.49,6.44 -12.39,16.24 -16,24.09 -20.63,44.95 -23.34,75.54 -8.41,125.32 7.2,23.99 1.56,22.43 -8.28,60.45 -18.38,71.11 -26.25,121.41 -40.41,192.83 -9.03,45.49 -12.97,90.81 -20.19,136.49 -5.05,31.9 -10.91,114.94 0.84,143.17 1.61,3.89 4.32,8.94 6.57,11.72 9.35,11.56 20.43,17.56 34.56,23.76 46.2,20.3 161.87,22.94 211.39,21.81 24.55,-0.56 48.31,-1.53 72.94,-3.45 75.61,-5.89 54.67,-12.6 121.84,22.07l52.86 25.46c76.75,31.93 53.42,37.23 116.93,34.86l448.48 -17.78c49.6,-1.7 99.62,-2.92 149.3,-5.56 22.58,-1.2 46.62,-0.74 69.39,-2.52 23.03,-1.81 52.99,-3.04 76.25,-2.77 21.69,0.25 51.35,-0.6 61.56,-14.5 13.38,-18.24 4.31,-46.02 -11.38,-54.56 -20.29,-11.03 -149.99,-64.81 -158.96,-72.62 -4,-3.49 -2.47,-2.87 -5.68,-12.56 -9.62,-29.08 -29.81,-53.92 -52.74,-72.9 -41.09,-33.99 -113.36,-48.13 -116.63,-51.2l-16.26 -42.17c-1.99,-4.4 -5.82,-9.89 -3.08,-11.47z" />
    <path class="fil6" d="M1389.63 1152.67c-17.37,-0.58 -29.37,-0.25 -47.37,0.03l-43.72 0.05c-13.01,0.34 -32.91,2.47 -40.52,-8.93 -6.89,-10.35 -4.68,-25.09 -5.39,-36.76 -0.32,-5.29 -0.03,-4.17 0.23,-8.84l0.2 -12.24c0.33,-20.09 -1.45,-42.29 0.02,-61.39 0.7,-9.11 -0.94,-16.26 -0.68,-23.79l1.42 -74.75c-0.03,-3.74 0.84,-8.73 0.84,-8.78 1.83,-17.76 -1.2,-38.66 -0.02,-56.75 1.37,-21.05 0.49,-49.56 0.38,-72.76l-0.35 -111.6c-0.18,-5.62 0.09,-29.15 -0.2,-37.42l-1.22 -20.11c0.12,-5.23 1.89,-16.06 1.84,-20.77 -0.08,-8.48 -3.64,-10.21 2.08,-19.48 0.23,-0.38 0.53,-0.8 0.79,-1.16l2.49 -3.09c3.46,-3.22 7.71,-3.03 12.43,-3.15 7.25,-0.18 16.68,1.09 21.42,0.74 9.24,-0.69 12.79,-1.77 21.85,-1.07 2.8,0.22 7.12,0.73 8.84,0.79l71.99 -0.75c9.89,-0.43 13.28,-0.43 23.01,0.73 7.6,0.9 10.53,-1.34 20.16,-0.82l65.87 -0.07c24.86,-2.34 61.28,-1.81 87.01,-0.91 2.46,0.08 4.09,0.46 5.83,0.69l11.92 -0.25c33.49,-2.05 29.67,2.49 31.99,23.7 0.07,0.55 0.82,7.07 0.97,9.67 1.92,32.36 -2.98,138.86 0.44,160.51l-1.76 17.1c-0.02,0.28 -0.01,0.79 -0.02,1.09l0.65 14.13c0.49,21.19 1.2,115.18 -0.94,130.41l1.83 137.34c-1.09,20.37 1.25,59.79 0.51,69.97 -0.74,10.07 -1.92,12.1 -8.16,15.33 -5.44,2.81 -30.05,2.66 -37.76,2.72 -6.36,0.04 -14.75,-0.79 -21.82,-1.09 -4.44,-0.18 -11.62,1.02 -19.32,1.26l-40.1 -0.41c-14.48,0.64 -27.14,0.85 -41.93,0.74 -7.56,-0.06 -14.2,0.43 -21.74,0.3l-40.68 0.58c-8.58,-0.12 -8.42,-2.32 -19.61,-0.53 -0.48,-0.36 -1.56,-1.26 -1.81,-1.38l-1.21 -0.38c-0.01,0 -0.66,1.55 -0.68,1.59zm-266.99 -685.19c11.64,42.26 18.03,57.16 28,105.16 25.41,122.37 51.42,223.94 -2.91,337.57 -15.81,33.07 -59.72,106.95 -16.73,145.15 6.78,6.03 9.32,12.68 15.16,17.74 16.04,13.9 9.83,11.62 24.02,26.99l20.77 28.35c24.89,42.45 42.49,98.04 53.57,147.09 14.98,2.07 41.42,0.48 57.66,0.43 47.58,-0.13 404.42,1.19 412.07,-3.36 13.5,-8.01 8.98,-91.99 9.1,-109.48l0.74 -648.95c-0.76,-62.86 -2.82,-48.23 -128.42,-48.56 -78.22,-0.22 -156.34,0.43 -235.16,1.21 -39.65,0.4 -79.05,0.94 -118.56,0.78 -39.03,-0.18 -80.32,1.05 -119.32,-0.11z" />
    <path class="fil7" d="M1374.02 1016.37l132.64 0.26c1.04,9.94 1.12,22.44 -1.25,30.69 -10.57,3.13 -115.54,0.79 -131.17,-1.72 -2.34,-7.36 -3.44,-20.87 -0.21,-29.23zm78.57 -42.84c-8.59,4.91 -74.58,4.04 -95.54,5.91 -17.9,1.59 -13.22,1.71 -28.12,-5.13 -1.75,-15.14 -1.25,-23.76 13.48,-26.48 8.66,-1.59 27.84,-0.92 38.16,-1.67 16.09,-1.18 60.58,-6.2 71.68,1.19l0.34 26.19zm67.55 -1.18l-30.19 0.42 -0.61 -31.33 31.61 1.98 -0.81 28.93zm17.25 -97.76c32.8,0.48 25.86,28.89 13.16,31.64l-131.71 0.65c-21.52,0.13 -44.1,0.69 -65.68,0.3 -36.33,-0.64 -25.84,-28.18 -12.53,-31.04l196.76 -1.55zm-10.35 -86.27c-1.04,0.54 -2.21,1.48 -4.87,1.79 -4.37,0.51 -7.04,-1.77 -9.64,-3.46l0.93 -25.01c9.87,-2.95 9.61,-4.85 17.86,-9.18 7.7,-4.04 10.65,-3.63 16.76,-12.18 -6.64,-1.88 -8.87,-2.82 -14.49,-7.1 -14.25,-10.86 -32.11,-13.12 -21.63,-38.33 10.42,-1.83 18.28,2.68 25.16,7.3 7.43,4.98 11.91,8.4 19.31,13.51 4.02,2.77 52.58,22.46 27.79,40.4l-57.17 32.27zm-129.67 -28.79c2.56,35.29 2.41,39.6 -44.63,12.06 -21.04,-12.33 -49.2,-27.54 -18.17,-44.48 13.53,-7.39 47.95,-34.21 58.67,-33.03 8.06,0.88 9.42,9.41 8.9,17.04 -1.18,17.67 -24.18,24.19 -38.29,30.89 4.43,8.53 23.83,14.53 33.52,17.52zm40.34 60.02c-9.13,2.71 -17.06,0.96 -18.38,-9.28 -1.73,-13.53 25.81,-96.62 32.17,-112.14 6.98,-17.04 8.97,-36.28 17.49,-39.08 9.13,-2.99 17.68,2.11 19.35,8.51 1.8,6.9 -14.57,56.45 -18.18,69.47 -3.63,13.12 -25.71,76.49 -32.46,82.51zm-48.08 333.1c0.02,-0.04 0.67,-1.59 0.68,-1.59l1.21 0.38c0.24,0.12 1.32,1.02 1.81,1.38 11.2,-1.79 11.03,0.42 19.61,0.53l40.68 -0.58c7.54,0.13 14.17,-0.36 21.74,-0.3 14.79,0.12 27.45,-0.1 41.93,-0.74l40.1 0.41c7.7,-0.24 14.88,-1.44 19.32,-1.26 7.07,0.3 15.46,1.14 21.82,1.09 7.71,-0.06 32.32,0.09 37.76,-2.72 6.24,-3.23 7.42,-5.26 8.16,-15.33 0.74,-10.18 -1.6,-49.6 -0.51,-69.97l-1.83 -137.34c2.14,-15.23 1.44,-109.21 0.94,-130.41l-0.65 -14.13c0.01,-0.29 0,-0.81 0.02,-1.09l1.76 -17.1c-3.43,-21.64 1.48,-128.15 -0.44,-160.51 -0.15,-2.6 -0.9,-9.12 -0.97,-9.67 -2.31,-21.21 1.5,-25.75 -31.99,-23.7l-11.92 0.25c-1.75,-0.23 -3.38,-0.61 -5.83,-0.69 -25.73,-0.89 -62.15,-1.43 -87.01,0.91l-65.87 0.07c-9.64,-0.52 -12.56,1.72 -20.16,0.82 -9.73,-1.16 -13.12,-1.15 -23.01,-0.73l-71.99 0.75c-1.72,-0.06 -6.04,-0.57 -8.84,-0.79 -9.07,-0.7 -12.61,0.38 -21.85,1.07 -4.74,0.35 -14.16,-0.93 -21.42,-0.74 -4.71,0.13 -8.97,-0.07 -12.43,3.15l-2.49 3.09c-0.26,0.36 -0.56,0.78 -0.79,1.16 -5.72,9.27 -2.16,11 -2.08,19.48 0.05,4.71 -1.72,15.54 -1.84,20.77l1.22 20.11c0.29,8.27 0.03,31.81 0.2,37.42l0.35 111.6c0.12,23.2 0.99,51.71 -0.38,72.76 -1.18,18.09 1.85,38.99 0.02,56.75 0,0.05 -0.86,5.05 -0.84,8.78l-1.42 74.75c-0.27,7.53 1.38,14.68 0.68,23.79 -1.47,19.09 0.31,41.3 -0.02,61.39l-0.2 12.24c-0.26,4.67 -0.55,3.55 -0.23,8.84 0.71,11.67 -1.5,26.42 5.39,36.76 7.61,11.4 27.51,9.28 40.52,8.93l43.72 -0.05c18,-0.28 30.01,-0.61 47.37,-0.03z" />
    <path class="fil6" d="M536.51 1391.61c0.31,-0.33 0.75,-0.73 1.08,-1.09 0.39,-0.43 1.48,-1.76 1.82,-2.22 19.54,-26.45 27.01,-69.61 30,-101.22 5.31,-55.93 0.07,-154.48 -42.42,-198.2 -22.65,-23.32 -93.97,2.03 -120.82,36.9 -38.57,50.11 -46.76,152.21 -62.38,216.37 -20.23,83.07 -57.2,288.83 -50.88,367.83 3.76,47.24 29.16,54.93 74.58,63.35 124.46,23.1 263.49,-1.03 388.58,-14.98 49.37,-5.51 46.57,-10.2 88.93,5.95 74.1,28.25 89.05,-22.78 139.92,-7.04 68.59,21.24 37.15,42.03 101.65,35.57 -2,-6.54 -10.6,-15.54 -15.87,-21 -3.16,-3.28 -1.4,-1.27 -3.74,-3.5 -0.26,-0.25 -0.67,-0.61 -0.93,-0.86 -0.26,-0.26 -0.64,-0.64 -0.89,-0.9l-28.15 -22.9c-9.12,-6.98 -19.06,-11.48 -30.68,-18.5 -9.74,-5.89 -26.69,-8.01 -32.99,-17.92 29.77,-5.35 63.62,13.35 84.55,26.45 18.59,11.63 28.34,26.87 42.42,41.53 6.84,7.12 6.63,6.92 11.29,15.06l27.97 -0.63c-3.7,-9.13 -18.86,-27.98 -24.14,-35.06 -17.15,-23.03 -37.72,-43.21 -63.22,-57.04 -5.67,-3.08 -13.05,-7.22 -19.29,-9.99 -8.07,-3.6 -15.89,-3.53 -18.48,-11.04 11.27,-3.35 40.29,9.02 51.23,14.76 15.46,8.11 26.52,17.24 40.05,27.39 11.21,8.43 16.97,17.16 26.3,26.62 4.94,5.01 3.65,3.5 7.69,8.66l15.44 19.18c4.8,7.19 8.72,9.32 20.76,10.7 1.71,-8.66 -2.72,-17.82 -6.78,-24.59l-19.37 -29.91c-1.83,-2.33 -2.09,-2.21 -4.24,-4.83 -1.58,-1.92 -1.86,-2.48 -3.12,-4.17 -6.8,-9.15 -15.96,-16.81 -24.71,-24.48l-28.99 -20.32c-7.4,-4 -13.77,-8.31 -21.35,-11.43 -7.06,-2.91 -16.48,-4.96 -21.51,-10.63 9.03,-3.72 39.75,10.29 49.29,13.89 20.95,7.91 43.55,25.71 59.52,40.72l15.61 17.11c10.55,11.52 19.73,25.27 28.04,38.35l19.22 -0.92c-4.19,-16.01 -19.74,-37.08 -27.15,-48.34 -0.23,-0.33 -0.48,-0.8 -0.7,-1.13 -2.07,-3.1 -0.35,-1.14 -3.08,-4.21 -10.81,-12.17 -17.21,-16.12 -24.99,-24.23 -2.98,-3.1 -1.09,-1.41 -4.72,-4.4l-13.99 -9.73c-19.97,-13.79 -42.44,-23.31 -67.51,-30.89 -49.87,-15.08 -62.72,-8.85 -108.81,6.28 -120.75,39.63 -94.56,42 -216.73,30.91 -39.33,-3.58 -78.2,-6.72 -117.31,-13.64 -36.99,-6.54 -73.3,-13.47 -109.69,-21.69 -17.28,-3.9 -36.87,-8.32 -54.42,-11.05 -11.85,-1.83 -44.26,-4.21 -52.83,-13.5 2.2,-5.94 1.93,-5.51 9.1,-7.96 8.56,-2.94 30.59,-3.96 35.37,-8.22 7.78,-6.94 34.1,-134.93 38.96,-154.4l26.34 -119.62c1.46,-6.38 4.86,-33.75 15.31,-29.84 6.64,2.48 5.15,19.62 4.86,24.74 -0.48,8.56 -2.31,15.73 -3.28,23.89 -1.93,16.16 -6.07,32.73 -8.1,48.22l2.41 -2.2z" />
    <path class="fil6" d="M1072.82 1091.82c20.36,58.7 26.43,109.03 46.51,166.59 5.76,16.52 14.37,30.94 22.05,47.21 21.62,45.74 53.89,117.92 32.98,169.11 -4.49,10.99 -9.06,19.07 -16.14,27.54 -5.85,6.99 -3.69,1.94 -11.73,14.49 49.08,75.57 73.2,168.34 85.44,188.72 15.41,25.69 54.73,29.28 82.02,54.65 4.77,4.44 10.8,5.66 20.62,4.02 11.93,-24.49 -23.56,-43.49 -38.48,-55.35 -48.53,-38.58 -12.45,-77.5 32.84,-38.27 12.45,10.79 31.99,60.86 45.85,79.84 12.15,16.63 5.01,12.84 37.3,15.03 -10.36,-35.39 -33.83,-90.09 -59.06,-118.97 -2.76,-3.14 -7.89,-9.31 -8.82,-15.08 8.67,1.16 13.64,4.06 20.03,9.3 11.38,9.31 17.9,15.47 26.68,28.01 34.28,48.89 21.2,65.21 40.69,98.46l24.54 -0.45c0.55,-20.59 -22.71,-85.44 -38.32,-106.64 -4.38,-5.96 -18.01,-23.34 -19.81,-29.24 34.23,15.38 53.6,53.91 63.51,87.57 3.98,13.51 4.08,28.41 8.28,41.33l18.23 1.29c-7.54,-21.79 -8.88,-44.23 -17.43,-66.34 -8.87,-22.94 -28.12,-42.17 -32.01,-51.15 15.98,6.48 30.1,26.46 40.55,40.86 14.92,20.57 15.03,34.53 18.99,61.73l15.69 -0.99c-3.25,-15.81 -7.6,-30.79 -14.49,-44.36 -3.18,-6.24 -7,-13.04 -11.21,-18.09 -5.51,-6.64 -6.26,-8.97 -12.68,-14.65 -26.65,-23.62 -34.1,-28.68 -69.13,-45.81 -118.82,-58.1 -166.13,-8.21 -178.46,-7.37 -0.76,-16.17 21.08,-28.65 34.39,-35.91 18.5,-10.09 35.47,-12.93 58.83,-8.67 -2.53,-9.46 -4.15,-9.03 -7.86,-17 -15.63,-33.72 -29.61,-82.06 -41.43,-117.31 -15.23,-45.39 -32.21,-88.26 -45.89,-134.51 -14.45,-48.84 -25.56,-91.65 -46.64,-135.66 -12.1,-25.25 -15.08,-24.32 -28.2,-41.05 -5.38,-6.85 -5.27,-5.16 -12.21,-9.78 -18.42,-12.24 -39.41,-22.39 -66.03,-23.07z" />
    <path class="fil6" d="M869.99 865.97c20.41,4.17 29.31,15.61 66.03,2.07 6.99,-2.58 13.83,-7.58 20.44,-9.52 -5.21,34.53 -57.06,43.86 -81.79,21.21 -4.76,-4.36 -5.41,-5.36 -4.69,-13.76zm56.67 -41.8c8.97,-3.46 11.18,-5.56 16.4,-10.6 5.79,2.87 7.26,5.06 15.26,8 5.94,2.21 14.6,2.44 18.99,6.14 -1.6,22.96 -75.01,19.6 -90.25,17.26 -14.49,-2.22 -62.21,-4.36 -54.03,-17.95 3.19,-5.29 24.45,0.66 33.52,-0.33 22.65,-2.46 46.21,-11.55 53.81,-7.31 4.71,2.63 -0.22,1.58 6.3,4.79zm-227.87 -187.86c-26.88,42.34 -50.52,21.31 -51.48,56.51 -0.38,13.71 8.76,22.6 2.27,31.58 -9.17,0.06 -12.56,-7.45 -16.86,-14.7 -6.52,-10.96 -4.89,-12.33 -8.66,-23.68 -10.48,1.58 -14.83,4.04 -12.98,23.23 1.27,13.24 3.94,18.2 9.93,28.4 6.18,10.53 7.45,12.35 17.65,18.99 14.42,9.38 13.68,4.28 27.33,-1.35 11.48,18.8 11.73,39.45 42.87,87.83l17.09 23.09c25.01,25.8 34.76,34.04 62.91,53.77 28.2,19.76 58.53,31.62 95.73,37.66 37.05,6.01 60.53,-1.18 77.6,-23.25 7.77,-10.04 15.98,-16.84 24.51,-28.41l26.87 -38.72c1.88,-2.68 2.57,-4.25 4.86,-7.94 24.5,-39.44 45.27,-90.24 50.65,-136.46 -14.07,10.65 -23.83,16.55 -42.68,18.3 -24.13,2.26 -33.66,-1.43 -52.62,-8.88 2.9,23.89 6.86,48.1 -17.39,55.72 -14.95,4.7 -55.3,1.44 -59.78,-12.73 3.88,-7.86 19.3,-10.79 28.6,-4.4 8.53,5.85 3.69,4.87 15.99,4.5 7.4,-0.23 14.2,0.13 18.09,-4.37 7.09,-8.17 7.31,-20.44 2.48,-29.38 -4.6,-8.51 -7.64,-26.47 -11.42,-30.6 -3.53,-3.87 -7.23,-3.91 -8.82,-11.11 -2.23,-10.13 1.4,-28.35 -5.21,-35.02 -4.31,-4.35 -12.43,-4.28 -17.4,-1.79 -12.03,6.01 -13.49,37.95 -56.03,67.97 -28.86,20.38 -71.62,13.43 -97.83,-2.52 -9.58,-5.84 -16.43,-9.23 -23.41,-18.34 -32.88,-42.94 -16.41,-63.84 -29.42,-74.83 -3.18,-2.69 -3.59,-2.74 -7.36,-2 -10.38,2.05 4.36,1.77 -6.08,2.94z" />
    <path class="fil6" d="M613.6 1057.38c5.77,6 13.67,9.97 20.93,15.05 18.99,13.3 49.6,27.81 70.76,38.68 34.01,17.48 74.71,27.66 115.73,31.82 40.96,4.15 90.02,1.06 120.75,-21.23 6.39,-4.64 32.52,-27.33 29.31,-41.91 -1.54,-7.05 -39.56,-30.56 -42.07,-31.38l-2.01 22.85c-9.48,0.53 -7.97,-1.76 -9.92,-13.64 -3.28,-20.06 -3.21,-52.06 -2.34,-72.22 -7.48,0.47 -55.37,31.14 -109.66,-12.45l-44.7 -37.24c-4.25,-3.86 -8.8,-6.9 -13.08,-10.7 -4.31,-3.84 -7.32,-7.86 -11.17,-12.57l-40.48 -51.55c-2.87,71.09 19.13,126.36 -50.21,174.1l-31.84 22.37z" />
    <path class="fil6" d="M723.08 608.77c28.85,-11.88 55.84,-17.62 90.49,-12.42 104.99,15.75 59.05,40.75 125.19,33.74 21.48,-2.28 17.1,-11.44 34.44,-20.08 18.89,-9.42 70.11,-18.57 92.98,-15.2l-0.51 -12.71 0.59 -6.41c-28.1,-9.99 -90.31,21.77 -98.45,21.62 -9.3,-25.42 27.83,-33.13 38.15,-36.71 39.92,-13.86 32.89,-12.96 61.26,-3.94 -2.26,-14.67 -1.88,-30.99 -4.39,-47.5 -4.52,-29.74 -27.36,-72.66 -46.84,-95.3 -1.67,-1.94 -6.95,-5.9 -7.99,-6.66 0.2,-11.1 6.35,-26.3 2.94,-35.71 -2.57,7.09 -3.02,9.18 -7.03,15.78 -3.68,6.07 -7.06,8.92 -8.95,14.79 -40.53,-5.98 -81.13,-24.99 -127.16,20.41 -29.81,29.4 -45.13,76.56 -68.68,100.91l-24.73 26.49c35.11,-7.14 69.84,4.49 100.25,21.72 10.1,5.72 18.39,10.19 14.58,25.69 -28.91,2.69 -58.86,-33.76 -117.59,-33.11 -10.86,0.12 -11.39,0.06 -21.95,9.94 -1.24,1.15 -25.51,29.64 -26.61,34.66z" />
    <path class="fil8" d="M1071.32 681.11l0.17 18.28c-6.06,2.39 -4.55,4.39 -9.53,8.33 -24.83,19.65 -70.91,19.41 -89.71,-0.34 -12,-12.62 -12.96,-34.5 -7.85,-53.32 5.68,-20.98 14.51,-26.63 32.78,-35.33 4.66,-6.54 8.81,-3.91 12.79,-3.18l8.31 -0.75c16.26,-0.49 6.38,-1.48 17.36,-3.32 12.8,-2.12 22.13,0.51 31.39,1.14 0,4.95 -0.31,11.01 0.17,15.85l2.97 13.02c-1.5,-9.43 -0.22,-17.75 -1.46,-28.56l12.49 5.74c3.58,2.34 0.82,-0.25 3.48,3.06l-2.55 2.62c-0.23,0.15 -0.74,0.44 -0.99,0.56 -0.24,0.13 -0.84,0.28 -1.09,0.38l-2.38 0.38c-0.18,-0.39 -0.86,0.02 -1.26,0.05l10.09 0.2 -1.18 39.91c-0.41,6.18 -1.45,12.53 -3.18,16.79 -1.22,2.97 -0.72,1.68 -1.79,3.7l-1.28 2.36c-4.14,6.21 0.69,2.97 -5.86,4.67 2.67,-4.6 0.23,-7.14 -0.02,-13.27 -1.21,-29.51 -0.11,-3.51 -2.45,-17.9 -0.17,-1.01 -0.64,-1.11 -1.05,-1.61 0.88,10.81 4.94,9.4 1.63,20.55zm-240.17 -62.81c9.41,1.45 33.51,12.19 42.86,15.95 36.49,14.67 2.41,67.4 -21.67,80.95 -40.7,22.91 -99.26,-6.41 -109.41,-35.57 -4.02,-11.57 -3.96,-43.44 1.92,-53.72 6.52,-11.39 30.11,-10.9 45.11,-12.01l5.51 -1.4c6.4,-0.36 4.67,0.75 9.47,1.7l21.46 0.22c-1.69,3.74 -2.21,8.6 -1.8,0 11.72,0.68 3.5,-0.69 6.55,3.87zm-108.08 -9.53l-13.4 12.46c-0.3,0.33 -0.67,0.74 -0.99,1.06 -0.39,0.39 -3.53,3.03 -3.59,3.07 2.53,3.74 1.5,2.82 3.28,1.84 -3.73,0.69 -4.84,0.38 -7.77,3.33l-2 2.62c-0.35,0.48 -0.69,1.12 -0.96,1.53 -0.29,0.42 -0.56,1.12 -0.94,1.6l2.11 0.03c10.45,-1.17 -4.3,-0.89 6.08,-2.94 3.77,-0.74 4.18,-0.69 7.36,2 13,10.99 -3.46,31.88 29.42,74.83 6.98,9.11 13.83,12.5 23.41,18.34 26.21,15.95 68.97,22.91 97.83,2.52 42.54,-30.03 44.01,-61.96 56.03,-67.97 4.97,-2.49 13.09,-2.57 17.4,1.79 6.62,6.68 2.98,24.89 5.21,35.02 1.6,7.2 5.29,7.25 8.82,11.11 3.79,4.14 6.82,22.09 11.42,30.6 4.83,8.94 4.61,21.21 -2.48,29.38 -3.89,4.5 -10.69,4.14 -18.09,4.37 -12.31,0.37 -7.46,1.35 -15.99,-4.5 -9.31,-6.38 -24.73,-3.46 -28.6,4.4 4.49,14.16 44.83,17.42 59.78,12.73 24.25,-7.62 20.29,-31.83 17.39,-55.72 18.96,7.45 28.49,11.15 52.62,8.88 18.84,-1.75 28.6,-7.65 42.68,-18.3 4.29,2.84 3.73,-6.16 3.23,2.87 -0.18,-8.35 -0.78,-3.45 4.69,-10.06 4.04,-4.86 4.39,-3.24 4.61,-10.09 8.47,8.52 1.42,1.46 1.34,14.53l0.27 3.58c0.04,0.53 0.07,1.3 0.23,1.92 5.62,-21.84 1.57,-22.52 11.99,-35.18 13.28,-16.14 12.28,-40.85 14.19,-61.41 4.87,-0.3 6.89,-2.05 13.02,-5.47l1.5 -8.84c-9.69,-2.37 -4.93,-6.59 -22.48,-12.53l-20.75 -5.52c-9.99,-2.83 -6.84,-0.53 -13.88,-2.27 -2.52,-6.5 -2.19,-4.6 -1.37,-12.27l0.51 12.71c-22.87,-3.37 -74.09,5.78 -92.98,15.2 -17.34,8.64 -12.95,17.8 -34.44,20.08 -66.14,7.01 -20.2,-17.98 -125.19,-33.74 -34.65,-5.21 -61.64,0.53 -90.49,12.42z" />
    <path class="fil9" d="M759.41 1797.47l85.2 40.14c29.04,14.09 16.55,10.1 51.18,10.14 17.87,0.03 36.38,-1.2 54.54,-1.69 78.33,-2.11 158.27,-7.74 236.31,-8.92 79.61,-1.2 162.09,-5.31 241.26,-8.34 38.88,-1.49 80.84,-4.67 119.37,-4.74l105.07 -3.33c1.69,-0.1 5.62,-0.42 7.12,-0.74 11.03,-2.35 -8.57,2.57 3.48,-1.02l3.3 -1.45c-3.64,-6.87 0.78,-1.24 -5.15,-5.31l-14.33 -7.35c-10.07,-3.17 -192.46,4.59 -206,5.3 -39.96,2.09 -80.12,1.87 -120.34,3.59 -39,1.65 -78.44,3.26 -118.51,4.36 -78.79,2.18 -158.81,4.85 -236.94,8.28 -20.2,0.89 -39.89,1.3 -60.23,2.05 -27.75,1.02 -26.93,4.79 -52.05,-6.2 -48.66,-21.28 -43.95,-27.29 -88.15,-25.51 -0.49,0.03 -1.06,0.06 -1.49,0.08l-2.52 0.4c-0.18,-0.37 -0.78,0.09 -1.12,0.26z" />
    <path class="fil6" d="M831.15 618.3c-4.39,1.78 1.32,1.04 8.13,6.94 8.95,7.74 20.64,31.45 21.53,35.32 2.81,12.23 -9.33,20.72 -16.94,7.53 -6.28,-10.91 -5.02,-15.07 -20.37,-16.23 -2.72,7.46 -2.33,13.79 -7.05,18.28 -2.06,1.96 -11.21,6.86 -15.89,7.97 -23.26,5.5 -21.84,-12.98 -28.82,-20.26 -8.46,4.99 -11.05,6.08 -22.2,6.03 0.23,-8.65 1.59,-11.51 6.29,-17.97 13.82,-18.99 15.96,-23.89 41.09,-30.94l-6.94 -1.07c-15,1.11 -38.59,0.62 -45.11,12.01 -5.88,10.28 -5.94,42.15 -1.92,53.72 10.15,29.16 68.72,58.49 109.41,35.57 24.08,-13.55 58.15,-66.28 21.67,-80.95 -9.35,-3.76 -33.45,-14.5 -42.86,-15.95z" />
    <path class="fil10" d="M1340.63 876.15c-13.31,2.86 -23.8,30.4 12.53,31.04 21.59,0.38 44.16,-0.18 65.68,-0.3l131.71 -0.65c12.69,-2.75 19.64,-31.15 -13.16,-31.64l-196.76 1.55z" />
    <path class="fil6" d="M1071.32 681.11l-2.26 -19.38c-30.38,-15.32 -12.3,-19.45 -39.54,-16.22 4.18,17.21 1.84,26.06 -13.16,31.3 -14.95,5.2 -29.23,-2.52 -30.84,-15.28 -3.42,3.01 -5.98,5.31 -10.69,6.32 -1.94,0.42 -3.71,0.09 -3.73,0.09 -0.08,-11.54 12.32,-33.66 17.02,-39.37 3.95,-4.82 1.96,-1.63 4.88,-4.34l4.17 -5.51c-18.28,8.7 -27.1,14.35 -32.78,35.33 -5.11,18.83 -4.15,40.71 7.85,53.32 18.79,19.76 64.88,19.99 89.71,0.34 4.98,-3.94 3.48,-5.94 9.53,-8.33l-0.17 -18.28z" />
    <path class="fil11" d="M997.18 618.72l-4.17 5.51c-2.92,2.71 -0.93,-0.48 -4.88,4.34 -4.7,5.71 -17.11,27.83 -17.02,39.37 0.02,0 1.79,0.33 3.73,-0.09 4.71,-1.01 7.27,-3.31 10.69,-6.32 1.61,12.76 15.89,20.48 30.84,15.28 15,-5.23 17.34,-14.08 13.16,-31.3 27.23,-3.23 9.16,0.9 39.54,16.22l2.26 19.38c3.31,-11.15 -0.75,-9.74 -1.63,-20.55 0.41,0.5 0.89,0.6 1.05,1.61 2.34,14.39 1.24,-11.61 2.45,17.9 0.24,6.13 2.68,8.67 0.02,13.27 6.54,-1.7 1.71,1.54 5.86,-4.67l1.28 -2.36c1.07,-2.02 0.57,-0.74 1.79,-3.7 1.74,-4.25 2.77,-10.61 3.18,-16.79l1.18 -39.91 -10.09 -0.2c0.4,-0.03 1.09,-0.44 1.26,-0.05l2.38 -0.38c0.24,-0.1 0.84,-0.26 1.09,-0.38 0.25,-0.12 0.77,-0.41 0.99,-0.56l2.55 -2.62c-2.67,-3.31 0.09,-0.72 -3.48,-3.06l-12.49 -5.74c1.25,10.81 -0.04,19.13 1.46,28.56l-2.97 -13.02c-0.48,-4.84 -0.17,-10.91 -0.17,-15.85 -9.26,-0.63 -18.59,-3.26 -31.39,-1.14 -10.97,1.84 -1.09,2.82 -17.36,3.32l-8.31 0.75c-3.98,-0.74 -8.12,-3.37 -12.79,3.18z" />
    <path class="fil10" d="M1437.71 819.56c6.74,-6.03 28.83,-69.39 32.46,-82.51 3.61,-13.02 19.97,-62.57 18.18,-69.47 -1.66,-6.39 -10.22,-11.5 -19.35,-8.51 -8.52,2.8 -10.51,22.04 -17.49,39.08 -6.36,15.52 -33.9,98.61 -32.17,112.14 1.31,10.24 9.25,11.98 18.38,9.28z" />
    <path class="fil12" d="M831.15 618.3c-3.05,-4.56 5.16,-3.19 -6.55,-3.87 -0.41,8.6 0.11,3.74 1.8,0l-21.46 -0.22c-4.8,-0.95 -3.07,-2.06 -9.47,-1.7l-5.51 1.4 6.94 1.07c-25.13,7.05 -27.27,11.96 -41.09,30.94 -4.7,6.46 -6.07,9.32 -6.29,17.97 11.16,0.04 13.75,-1.04 22.2,-6.03 6.99,7.28 5.57,25.76 28.82,20.26 4.68,-1.11 13.84,-6.02 15.89,-7.97 4.72,-4.49 4.34,-10.81 7.05,-18.28 15.35,1.16 14.09,5.31 20.37,16.23 7.61,13.2 19.75,4.7 16.94,-7.53 -0.89,-3.86 -12.58,-27.58 -21.53,-35.32 -6.81,-5.9 -12.52,-5.16 -8.13,-6.94z" />
    <path class="fil10" d="M1374.02 1016.37c-3.23,8.37 -2.13,21.87 0.21,29.23 15.64,2.51 120.6,4.86 131.17,1.72 2.37,-8.26 2.3,-20.75 1.25,-30.69l-132.64 -0.26z" />
    <path class="fil12" d="M1397.37 759.54c-9.69,-2.99 -29.09,-8.99 -33.52,-17.52 14.11,-6.69 37.11,-13.22 38.29,-30.89 0.52,-7.63 -0.84,-16.16 -8.9,-17.04 -10.72,-1.19 -45.14,25.64 -58.67,33.03 -31.04,16.94 -2.87,32.16 18.17,44.48 47.04,27.54 47.19,23.23 44.63,-12.06z" />
    <path class="fil12" d="M1548.07 740.29c-6.1,8.56 -9.05,8.15 -16.76,12.18 -8.25,4.33 -7.99,6.23 -17.86,9.18l-0.93 25.01c2.61,1.69 5.27,3.97 9.64,3.46 2.67,-0.31 3.84,-1.25 4.87,-1.79l57.17 -32.27c24.79,-17.94 -23.77,-37.63 -27.79,-40.4 -7.4,-5.11 -11.88,-8.53 -19.31,-13.51 -6.89,-4.61 -14.74,-9.13 -25.16,-7.3 -10.49,25.21 7.38,27.48 21.63,38.33 5.62,4.28 7.85,5.22 14.49,7.1z" />
    <path class="fil10" d="M1452.25 947.34c-11.11,-7.39 -55.59,-2.36 -71.68,-1.19 -10.31,0.75 -29.5,0.08 -38.16,1.67 -14.73,2.72 -15.23,11.34 -13.48,26.48 14.9,6.84 10.22,6.72 28.12,5.13 20.96,-1.87 86.95,-0.99 95.54,-5.91l-0.34 -26.19z" />
    <path class="fil13" d="M1135.19 1552.14c-7.18,25.39 -11.87,56.92 -10.87,82.4 10.71,5.05 36.75,21.72 43.29,29.5 5.2,6.22 11.85,13.32 17.72,18.81l15.92 18.12c-7.56,-28.97 -34.4,-83.97 -47.51,-115.96 -5.58,-13.6 -13.45,-22.65 -18.55,-32.88z" />
    <path class="fil12" d="M926.67 824.17c-6.52,-3.21 -1.59,-2.16 -6.3,-4.79 -7.6,-4.24 -31.16,4.86 -53.81,7.31 -9.07,0.99 -30.33,-4.96 -33.52,0.33 -8.18,13.59 39.54,15.73 54.03,17.95 15.24,2.34 88.65,5.69 90.25,-17.26 -4.39,-3.7 -13.04,-3.94 -18.99,-6.14 -8,-2.94 -9.47,-5.12 -15.26,-8 -5.22,5.05 -7.44,7.14 -16.4,10.6z" />
    <path class="fil14" d="M536 897.87c-11.46,-42.68 -18.8,-75.86 -7.29,-119.89 4.95,-18.92 10.84,-31.87 20.09,-47.42 6.19,-10.42 21.48,-26.57 30.78,-38.4 -7.58,3.51 -30.28,31.77 -36.72,37.91 -29.44,28.16 -35.88,71.22 -28.04,112.02 1.46,7.6 12.14,45.13 17.59,52.18 2.71,3.51 -0.04,0.83 3.59,3.59z" />
    <path class="fil10" d="M869.99 865.97c-0.72,8.41 -0.08,9.4 4.69,13.76 24.73,22.65 76.57,13.32 81.79,-21.21 -6.61,1.94 -13.45,6.94 -20.44,9.52 -36.73,13.54 -45.63,2.1 -66.03,-2.07z" />
    <polygon class="fil15" points="1520.95,943.42 1489.34,941.44 1489.95,972.77 1520.14,972.35 " />
    <path class="fil16" d="M926.4 1793.65c4.15,4.36 22.49,13.35 34.81,13.65 9.85,0.23 35.95,-0.74 44.76,-2.68 -19.55,-16.96 -52.59,-10.99 -79.57,-10.96z" />
    <path class="fil17" d="M1320.73 1781.19c20.87,18.63 52.68,11.06 70.06,11.72 -1.92,-1.7 -1.17,-1.3 -4.16,-3.08 -21.59,-12.92 -40.98,-9.76 -65.9,-8.64z" />
    <path class="fil16" d="M1238.56 1784.71c4.57,3.37 7.48,3.22 13.95,5.94 31.26,13.21 29.55,1.4 56,5.05 -3.17,-5.44 2.18,-1.33 -6.38,-5.62 -1.42,-0.71 -5.62,-2.08 -7.76,-2.92 -15.87,-6.15 -39.85,-6.01 -55.8,-2.46z" />
    <path class="fil17" d="M1184.42 1785.93c3.76,4.29 3.13,8.14 3.94,14.19l38.17 -3.13c-12.93,-10.67 -24.22,-10.2 -42.12,-11.06z" />
   </g>
  </g>
 
  </g>
</svg>