<?xml version="1.0" encoding="UTF-8"?>
<svg version="1.1" xmlns="http://www.w3.org/2000/svg" width="180" height="180">
<path d="M0 0 C59.4 0 118.8 0 180 0 C180 59.4 180 118.8 180 180 C120.6 180 61.2 180 0 180 C0 120.6 0 61.2 0 0 Z " fill="#FCFCFC" transform="translate(0,0)"/>
<path d="M0 0 C3.00270524 0.3279405 4.58992387 0.59534338 6.7734375 2.75 C7.56621094 3.86375 7.56621094 3.86375 8.375 5 C9.26058594 6.21429688 9.26058594 6.21429688 10.1640625 7.453125 C10.76992187 8.29359375 11.37578125 9.1340625 12 10 C13.24451274 11.58764999 14.49433918 13.17115221 15.75 14.75 C18.06918994 17.73550509 20.1679512 20.68486408 22 24 C22.350625 24.5775 22.70125 25.155 23.0625 25.75 C26 30.64583333 26 30.64583333 26 34 C28.64 33.34 31.28 32.68 34 32 C34 31.34 34 30.68 34 30 C36.31 29.67 38.62 29.34 41 29 C41 28.34 41 27.68 41 27 C41.99 27 42.98 27 44 27 C44 26.34 44 25.68 44 25 C44.56589844 24.79503906 45.13179688 24.59007813 45.71484375 24.37890625 C46.44832031 24.10949219 47.18179688 23.84007813 47.9375 23.5625 C48.66839844 23.29566406 49.39929688 23.02882813 50.15234375 22.75390625 C51.98305678 22.14613052 51.98305678 22.14613052 53 21 C54.66617115 20.95936168 56.33388095 20.957279 58 21 C58 20.34 58 19.68 58 19 C63.445 18.505 63.445 18.505 69 18 C69.33 21.3 69.66 24.6 70 28 C70.66 28 71.32 28 72 28 C73.0746161 34.97647592 73.14917328 41.82446118 73.125 48.875 C73.12886719 49.99519531 73.13273438 51.11539063 73.13671875 52.26953125 C73.11590563 70.1063724 73.11590563 70.1063724 70 78 C69.34 78 68.68 78 68 78 C68 78.99 68 79.98 68 81 C71.96 81 75.92 81 80 81 C80 81.66 80 82.32 80 83 C81.98 83 83.96 83 86 83 C85.32829194 86.8063457 84.27253436 90.35206816 83 94 C82.34 94 81.68 94 81 94 C81 95.98 81 97.96 81 100 C80.34 100 79.68 100 79 100 C78.72285156 100.73863281 78.44570312 101.47726563 78.16015625 102.23828125 C74.67735735 110.52898436 68.44278756 117.82780952 62 124 C61.34 124 60.68 124 60 124 C60 124.66 60 125.32 60 126 C54.70588235 130 54.70588235 130 51 130 C51 130.66 51 131.32 51 132 C49.88625 132.433125 49.88625 132.433125 48.75 132.875 C46.09822727 133.90641946 46.09822727 133.90641946 44.05859375 135.03125 C38.18477243 137.79540121 30.64373191 137.12069269 24.25 137.1875 C23.51692627 137.20055176 22.78385254 137.21360352 22.02856445 137.22705078 C17.80123586 137.2338091 14.864535 136.56786206 11 135 C7.25501153 134.7215411 7.25501153 134.7215411 3.3125 134.8125 C2.63638672 134.81314453 1.96027344 134.81378906 1.26367188 134.81445312 C-2.49420957 134.8060202 -2.49420957 134.8060202 -6 136 C-10.32820535 136.24686371 -14.66556339 136.18522112 -19 136.1875 C-20.19496094 136.19974609 -21.38992187 136.21199219 -22.62109375 136.22460938 C-40.26024794 136.25358937 -40.26024794 136.25358937 -47 131 C-48.155 130.525625 -49.31 130.05125 -50.5 129.5625 C-53.86646207 128.05961515 -55.70781765 126.84230611 -58 124 C-58 123.34 -58 122.68 -58 122 C-58.5878125 121.74605469 -59.175625 121.49210937 -59.78125 121.23046875 C-65.84391619 117.8682507 -70.01596283 111.08743582 -73 105 C-73 104.01 -73 103.02 -73 102 C-73.99 102 -74.98 102 -76 102 C-77.97094808 97.07262981 -78.1799928 93.21979128 -78 88 C-78.66 88 -79.32 88 -80 88 C-80 86.35 -80 84.7 -80 83 C-78.35 83 -76.7 83 -75 83 C-75 82.34 -75 81.68 -75 81 C-71.37 81 -67.74 81 -64 81 C-64.639375 79.453125 -65.27875 77.90625 -65.9375 76.3125 C-68.27457918 69.86282213 -68.82283836 63.82072315 -69 57 C-69.02835938 55.95972656 -69.05671875 54.91945312 -69.0859375 53.84765625 C-69.23402246 41.86758311 -68.88943524 29.66995206 -66 18 C-60.6534353 17.74375273 -56.258104 18.56116904 -51.25 20.3125 C-50.59128906 20.52583984 -49.93257812 20.73917969 -49.25390625 20.95898438 C-45.79087316 22.1355727 -43.39232216 23.22080066 -41 26 C-38.89667109 26.71447643 -38.89667109 26.71447643 -37 27 C-37 27.66 -37 28.32 -37 29 C-36.21625 29.12375 -35.4325 29.2475 -34.625 29.375 C-32 30 -32 30 -30 32 C-27.68234271 32.71927295 -25.34904126 33.3909893 -23 34 C-22.75378906 33.31164063 -22.50757813 32.62328125 -22.25390625 31.9140625 C-20.79124839 28.51486385 -18.94226873 25.47125392 -16.9375 22.375 C-16.54626953 21.76688477 -16.15503906 21.15876953 -15.75195312 20.53222656 C-12.40684983 15.42921014 -8.70880264 10.75546977 -4.75 6.109375 C-2.96633174 4.12175283 -2.96633174 4.12175283 -2 2 C-1.34 2 -0.68 2 0 2 C0 1.34 0 0.68 0 0 Z " fill="#272727" transform="translate(88,20)"/>
<path d="M0 0 C1.32 0 2.64 0 4 0 C4.99 2.475 4.99 2.475 6 5 C6.66 5 7.32 5 8 5 C8.495 7.97 8.495 7.97 9 11 C9.66 11 10.32 11 11 11 C12.38232443 12.62626404 13.71937515 14.2925002 15 16 C15.33 15.34 15.66 14.68 16 14 C16.66 14 17.32 14 18 14 C18 14.66 18 15.32 18 16 C21.153368 16.70074844 23.72724974 17 27 17 C27 17.66 27 18.32 27 19 C28.10859375 18.4225 29.2171875 17.845 30.359375 17.25 C31.82269983 16.49957701 33.28625355 15.74960026 34.75 15 C35.47960937 14.6184375 36.20921875 14.236875 36.9609375 13.84375 C37.66992188 13.4828125 38.37890625 13.121875 39.109375 12.75 C39.75874023 12.41484375 40.40810547 12.0796875 41.07714844 11.734375 C43 11 43 11 47 11 C47.22786458 13.05078125 47.45572917 15.1015625 47.68359375 17.15234375 C47.81886614 19.01140229 47.81886614 19.01140229 49 20 C49.1296483 22.45125734 49.18973531 24.86036315 49.1875 27.3125 C49.18814453 28.02857422 49.18878906 28.74464844 49.18945312 29.48242188 C49.12770316 35.78653167 48.30863293 41.83073048 47 48 C46.34 48 45.68 48 45 48 C44.855625 48.763125 44.71125 49.52625 44.5625 50.3125 C44 53 44 53 43 56 C42.34 56 41.68 56 41 56 C40.9175 56.53625 40.835 57.0725 40.75 57.625 C38.38632397 65.10997409 32.37138595 69.80282587 26 74 C22.6796875 75.234375 22.6796875 75.234375 20 76 C20 76.66 20 77.32 20 78 C19.01 78 18.02 78 17 78 C16.505 79.485 16.505 79.485 16 81 C12.4375 82.1875 12.4375 82.1875 9 83 C9 81.35 9 79.7 9 78 C7.68 78 6.36 78 5 78 C4.83154037 73.55281865 4.67107614 69.1054401 4.51782227 64.65771484 C4.46464934 63.14656938 4.40934146 61.6354974 4.35180664 60.12451172 C4.26920057 57.94514811 4.1944279 55.76563047 4.12109375 53.5859375 C4.05039673 51.62213135 4.05039673 51.62213135 3.97827148 49.61865234 C3.99832317 46.27925861 4.34344729 43.26728925 5 40 C2.36 39.67 -0.28 39.34 -3 39 C-2.67781494 39.84022705 -2.35562988 40.6804541 -2.02368164 41.54614258 C-0.92191606 45.26345183 -0.6988013 48.39058347 -0.62109375 52.26171875 C-0.60409927 52.93419144 -0.5871048 53.60666412 -0.56959534 54.29951477 C-0.51687595 56.42875004 -0.47634155 58.55797007 -0.4375 60.6875 C-0.39346008 62.82764756 -0.34672714 64.96765174 -0.29469299 67.10762024 C-0.24838013 69.0412588 -0.21075629 70.97509967 -0.17358398 72.90893555 C-0.13361946 76.03670696 -0.13361946 76.03670696 1 79 C-4.41538462 83.06153846 -4.41538462 83.06153846 -7.375 82.75 C-7.91125 82.5025 -8.4475 82.255 -9 82 C-8.67 83.32 -8.34 84.64 -8 86 C-13.47059581 87.84532714 -18.18819928 88.25309068 -23.9375 88.125 C-24.71673828 88.11597656 -25.49597656 88.10695313 -26.29882812 88.09765625 C-28.19935447 88.07433691 -30.09972008 88.03847586 -32 88 C-32 87.34 -32 86.68 -32 86 C-33.2375 86.04125 -34.475 86.0825 -35.75 86.125 C-39.01637962 86.13658291 -41.2146947 85.8568702 -44 84 C-44 83.34 -44 82.68 -44 82 C-44.66 82 -45.32 82 -46 82 C-46 81.34 -46 80.68 -46 80 C-46.721875 80.0825 -47.44375 80.165 -48.1875 80.25 C-54.18743894 79.71667209 -57.77950336 74.16930162 -61.546875 69.90234375 C-63 68 -63 68 -64 65 C-64.66 65 -65.32 65 -66 65 C-66.25394531 64.33613281 -66.50789063 63.67226562 -66.76953125 62.98828125 C-68.88889763 57.48466321 -68.88889763 57.48466321 -71.6875 52.3125 C-73.41211005 49.27390133 -73.66220533 46.44550562 -74 43 C-68.06 42.505 -68.06 42.505 -62 42 C-61.34 43.98 -60.68 45.96 -60 48 C-58.68 48 -57.36 48 -56 48 C-55.01 48 -54.02 48 -53 48 C-53 48.66 -53 49.32 -53 50 C-52.34 50 -51.68 50 -51 50 C-51 50.99 -51 51.98 -51 53 C-49.515 53.495 -49.515 53.495 -48 54 C-46 57 -46 57 -46 60 C-44.35 60.66 -42.7 61.32 -41 62 C-41.33 60.35 -41.66 58.7 -42 57 C-38.125 57.875 -38.125 57.875 -37 59 C-37 58.01 -37 57.02 -37 56 C-37.66 56 -38.32 56 -39 56 C-39.28875 55.236875 -39.5775 54.47375 -39.875 53.6875 C-40.96269013 50.84970692 -40.96269013 50.84970692 -43 48 C-43.1953125 45.30078125 -43.1953125 45.30078125 -43.125 42.3125 C-43.10695313 41.31863281 -43.08890625 40.32476562 -43.0703125 39.30078125 C-43.04710938 38.54152344 -43.02390625 37.78226563 -43 37 C-43.66 37 -44.32 37 -45 37 C-45.19865739 28.10456358 -45.33447255 19.67089803 -43 11 C-38.6027062 11.78224743 -35.05440555 13.17154259 -31 15 C-31 15.66 -31 16.32 -31 17 C-30.01 17 -29.02 17 -28 17 C-28 17.66 -28 18.32 -28 19 C-27.01 19 -26.02 19 -25 19 C-25 19.66 -25 20.32 -25 21 C-23.02 21.33 -21.04 21.66 -19 22 C-19 23.32 -19 24.64 -19 26 C-19.66 26 -20.32 26 -21 26 C-22.35476136 36.71713007 -22.45202781 47.2912949 -21 58 C-20.34 57.67 -19.68 57.34 -19 57 C-19.48919922 56.03900391 -19.48919922 56.03900391 -19.98828125 55.05859375 C-21.3342181 50.98960318 -21.25347831 47.3163644 -21.1875 43.0625 C-21.18685547 42.27681641 -21.18621094 41.49113281 -21.18554688 40.68164062 C-21.15292592 36.35030318 -20.85544057 32.26351582 -20 28 C-19.34 28 -18.68 28 -18 28 C-18 26.02 -18 24.04 -18 22 C-17.34 22 -16.68 22 -16 22 C-15.95101562 21.37351562 -15.90203125 20.74703125 -15.8515625 20.1015625 C-15.77679688 19.28429687 -15.70203125 18.46703125 -15.625 17.625 C-15.55539063 16.81289062 -15.48578125 16.00078125 -15.4140625 15.1640625 C-15 13 -15 13 -13 11 C-12.29289322 9.35008418 -11.62056011 7.68437744 -11 6 C-10.34 6 -9.68 6 -9 6 C-8.505 8.97 -8.505 8.97 -8 12 C-8.66 12 -9.32 12 -10 12 C-9.505 12.99 -9.505 12.99 -9 14 C-8.0165504 12.56542672 -7.03839079 11.12722594 -6.0625 9.6875 C-5.51722656 8.88699219 -4.97195312 8.08648437 -4.41015625 7.26171875 C-2.86162674 4.9741857 -2.86162674 4.9741857 -2 2 C-1.34 2 -0.68 2 0 2 C0 1.34 0 0.68 0 0 Z " fill="#111111" transform="translate(88,64)"/>
<path d="M0 0 C2.33944736 0.28730055 4.6739143 0.61936779 7 1 C7 1.66 7 2.32 7 3 C5.02 3.33 3.04 3.66 1 4 C0.95005188 9.33445924 0.91402459 14.66877825 0.89013672 20.00341797 C0.88016384 21.81301245 0.86658068 23.62259118 0.84912109 25.43212891 C0.63584148 43.53018786 0.63584148 43.53018786 5 61 C8.63 61.33 12.26 61.66 16 62 C15.97679688 60.5046875 15.95359375 59.009375 15.9296875 57.46875 C15.91091789 55.47917169 15.89271898 53.48958794 15.875 51.5 C15.85824219 50.51773438 15.84148438 49.53546875 15.82421875 48.5234375 C15.78500126 42.64081335 16.29567362 37.63635497 18 32 C18.66 32 19.32 32 20 32 C20 35.63 20 39.26 20 43 C19.34 43 18.68 43 18 43 C18 49.27 18 55.54 18 62 C18.99 62 19.98 62 21 62 C21.05607422 63.12148437 21.05607422 63.12148437 21.11328125 64.265625 C21.17902344 65.25046875 21.24476562 66.2353125 21.3125 67.25 C21.37050781 68.22453125 21.42851563 69.1990625 21.48828125 70.203125 C22.05474408 73.29921193 23.11445538 74.55334156 25 77 C25 78.32 25 79.64 25 81 C25.66 81 26.32 81 27 81 C27.33 82.32 27.66 83.64 28 85 C27.34 85 26.68 85 26 85 C26 84.34 26 83.68 26 83 C24.68 82.67 23.36 82.34 22 82 C22.33 83.65 22.66 85.3 23 87 C20.6875 86.375 20.6875 86.375 18 85 C16.3125 81.9375 16.3125 81.9375 15 79 C14.34 78.67 13.68 78.34 13 78 C13 77.01 13 76.02 13 75 C12.34 75 11.68 75 11 75 C11 74.34 11 73.68 11 73 C8.525 73.99 8.525 73.99 6 75 C6 74.34 6 73.68 6 73 C5.34 73 4.68 73 4 73 C3.01 70.03 3.01 70.03 2 67 C1.01 67.495 1.01 67.495 0 68 C-1.70702735 68.06996014 -3.41668003 68.08440154 -5.125 68.0625 C-6.49011719 68.04896484 -6.49011719 68.04896484 -7.8828125 68.03515625 C-8.93082031 68.01775391 -8.93082031 68.01775391 -10 68 C-8.167573 73.30234197 -6.3518431 78.51932892 -3.75 83.5 C-2 87 -2 87 -2 90 C-1.34 90 -0.68 90 0 90 C4 94.47058824 4 94.47058824 4 97 C4.556875 97.226875 5.11375 97.45375 5.6875 97.6875 C8 99 8 99 10.4375 101.5625 C13.1178537 104.11210474 14.39068083 104.69062979 18 105 C18 105.66 18 106.32 18 107 C18.66 107 19.32 107 20 107 C20 107.66 20 108.32 20 109 C23.96 109.66 27.92 110.32 32 111 C32 111.66 32 112.32 32 113 C34.6877438 112.85790331 37.37513302 112.7114277 40.0625 112.5625 C40.81466797 112.52318359 41.56683594 112.48386719 42.34179688 112.44335938 C46.94698741 112.18419281 51.44366724 111.7200579 56 111 C55.67 109.68 55.34 108.36 55 107 C55.721875 106.87625 56.44375 106.7525 57.1875 106.625 C59.95721894 106.0095069 62.3970354 105.11555626 65 104 C64.34 103.01 63.68 102.02 63 101 C62.69702148 97.90893555 62.69702148 97.90893555 62.62109375 94.13671875 C62.59560204 93.13231499 62.59560204 93.13231499 62.56959534 92.10762024 C62.5165345 89.9676761 62.47624731 87.82774729 62.4375 85.6875 C62.39335296 83.55806884 62.34639234 81.42877623 62.29469299 79.29951477 C62.2484271 77.35955752 62.2107766 75.41940046 62.17358398 73.47924805 C62.01202831 70.24109073 61.6056063 67.18179752 61 64 C63.64 64.33 66.28 64.66 69 65 C69 77.54 69 90.08 69 103 C70.32 103 71.64 103 73 103 C73 104.65 73 106.3 73 108 C77.81122847 106.47444034 77.81122847 106.47444034 81 103 C81.99 103 82.98 103 84 103 C84 102.34 84 101.68 84 101 C85.94140625 99.703125 85.94140625 99.703125 88.5625 98.25 C94.5290729 94.78007817 100.11235743 91.46942999 103 85 C103.99 85 104.98 85 106 85 C106 84.34 106 83.68 106 83 C106.66 83 107.32 83 108 83 C107.67 84.98 107.34 86.96 107 89 C108.95894361 88.88693303 108.95894361 88.88693303 111 88 C111.72904086 86.35965807 112.38655243 84.68698082 113 83 C115 80.1875 115 80.1875 117 78 C117.66 78 118.32 78 119 78 C119.12246094 77.42765625 119.24492187 76.8553125 119.37109375 76.265625 C120.02762868 73.90046809 120.93723512 71.92793203 122.0625 69.75 C122.42472656 69.04359375 122.78695312 68.3371875 123.16015625 67.609375 C123.43730469 67.07828125 123.71445313 66.5471875 124 66 C125.65 66 127.3 66 129 66 C127.28940149 73.1274938 125.18323676 78.68385973 120 84 C119.34 84 118.68 84 118 84 C117.74863281 84.58265625 117.49726563 85.1653125 117.23828125 85.765625 C111.57061809 95.99244938 97.53994606 102.93173103 87 107 C86.01 107 85.02 107 84 107 C84 107.66 84 108.32 84 109 C82.515 109.495 82.515 109.495 81 110 C80.67 110.66 80.34 111.32 80 112 C89.57 112 99.14 112 109 112 C109 112.66 109 113.32 109 114 C104.10175208 116.58995896 99.34435256 116.23809477 93.95703125 116.16015625 C92.99222336 116.15495468 92.02741547 116.14975311 91.03337097 116.14439392 C87.95959236 116.12661778 84.88615062 116.09543626 81.8125 116.0625 C78.72817128 116.03489921 75.64388871 116.01020419 72.55949402 115.99131775 C70.64189929 115.97904137 68.72433005 115.96141914 66.80683899 115.93800354 C65.94221542 115.93147263 65.07759186 115.92494171 64.18676758 115.91821289 C63.42463455 115.90995987 62.66250153 115.90170685 61.87727356 115.89320374 C59.9082235 115.88101712 59.9082235 115.88101712 58 117 C53.67179465 117.24686371 49.33443661 117.18522112 45 117.1875 C43.80503906 117.19974609 42.61007813 117.21199219 41.37890625 117.22460938 C23.73975206 117.25358937 23.73975206 117.25358937 17 112 C15.845 111.525625 14.69 111.05125 13.5 110.5625 C10.13353793 109.05961515 8.29218235 107.84230611 6 105 C6 104.34 6 103.68 6 103 C5.4121875 102.74605469 4.824375 102.49210937 4.21875 102.23046875 C-1.84391619 98.8682507 -6.01596283 92.08743582 -9 86 C-9 85.01 -9 84.02 -9 83 C-9.99 83 -10.98 83 -12 83 C-13.97094808 78.07262981 -14.1799928 74.21979128 -14 69 C-14.66 69 -15.32 69 -16 69 C-16 67.35 -16 65.7 -16 64 C-14.35 64 -12.7 64 -11 64 C-11 63.34 -11 62.68 -11 62 C-7.37 62 -3.74 62 0 62 C-0.639375 60.453125 -1.27875 58.90625 -1.9375 57.3125 C-4.27457918 50.86282213 -4.82283836 44.82072315 -5 38 C-5.02835938 36.95972656 -5.05671875 35.91945312 -5.0859375 34.84765625 C-5.19276902 26.2049864 -4.61929082 17.61477766 -4 9 C-3.01 9 -2.02 9 -1 9 C-1.020625 7.700625 -1.04125 6.40125 -1.0625 5.0625 C-1.08399454 3.70834367 -1.07148199 2.35243917 -1 1 C-0.67 0.67 -0.34 0.34 0 0 Z " fill="#2B2B2B" transform="translate(24,39)"/>
<path d="M0 0 C0.22786458 2.05078125 0.45572917 4.1015625 0.68359375 6.15234375 C0.81886614 8.01140229 0.81886614 8.01140229 2 9 C2.1296483 11.45125734 2.18973531 13.86036315 2.1875 16.3125 C2.18814453 17.02857422 2.18878906 17.74464844 2.18945312 18.48242188 C2.12770316 24.78653167 1.30863293 30.83073048 0 37 C-0.66 37 -1.32 37 -2 37 C-2.144375 37.763125 -2.28875 38.52625 -2.4375 39.3125 C-3 42 -3 42 -4 45 C-4.66 45 -5.32 45 -6 45 C-6.0825 45.53625 -6.165 46.0725 -6.25 46.625 C-8.61367603 54.10997409 -14.62861405 58.80282587 -21 63 C-24.3203125 64.234375 -24.3203125 64.234375 -27 65 C-27 65.66 -27 66.32 -27 67 C-31.625 69.125 -31.625 69.125 -35 68 C-34 65 -34 65 -32.59765625 63.6171875 C-30.63961618 61.63521051 -29.6510612 59.62820775 -28.4375 57.125 C-27.81681641 55.86042969 -27.81681641 55.86042969 -27.18359375 54.5703125 C-26.03478789 52.07554598 -24.99532259 49.55940095 -24 47 C-23.34 47 -22.68 47 -22 47 C-21.97106068 43.37501666 -21.95322208 39.75006287 -21.9375 36.125 C-21.92912109 35.09246094 -21.92074219 34.05992188 -21.91210938 32.99609375 C-21.90888672 32.00996094 -21.90566406 31.02382812 -21.90234375 30.0078125 C-21.89710693 29.09660645 -21.89187012 28.18540039 -21.88647461 27.24658203 C-21.85114435 24.96312491 -21.85114435 24.96312491 -23 23 C-23.04022391 20.6670134 -23.04320247 18.33293334 -23 16 C-23.66 16 -24.32 16 -25 16 C-25 14.35 -25 12.7 -25 11 C-23.35451172 10.18595703 -23.35451172 10.18595703 -21.67578125 9.35546875 C-20.22130061 8.6329203 -18.7668765 7.91025804 -17.3125 7.1875 C-16.59126953 6.83107422 -15.87003906 6.47464844 -15.12695312 6.10742188 C-12.06651897 4.58419209 -9.11840209 3.07531642 -6.23046875 1.23828125 C-4 0 -4 0 0 0 Z " fill="#F0F0F0" transform="translate(135,75)"/>
<path d="M0 0 C4.3972938 0.78224743 7.94559445 2.17154259 12 4 C12 4.66 12 5.32 12 6 C12.99 6 13.98 6 15 6 C15 6.66 15 7.32 15 8 C15.99 8 16.98 8 18 8 C18 8.66 18 9.32 18 10 C20.97 10.495 20.97 10.495 24 11 C24 12.32 24 13.64 24 15 C23.34 15 22.68 15 22 15 C20.64523864 25.71713007 20.54797219 36.2912949 22 47 C22.66 47 23.32 47 24 47 C24.48198463 48.24891614 24.96045677 49.49918808 25.4375 50.75 C25.70433594 51.44609375 25.97117187 52.1421875 26.24609375 52.859375 C26.96146693 54.89059003 27.51365652 56.9035291 28 59 C28.66 59 29.32 59 30 59 C30.66 61.64 31.32 64.28 32 67 C29.36 66.67 26.72 66.34 24 66 C24 65.34 24 64.68 24 64 C23.4225 63.90203125 22.845 63.8040625 22.25 63.703125 C15.22187346 61.50683545 9.90400952 53.85601428 6 48 C6 47.01 6 46.02 6 45 C5.34 45 4.68 45 4 45 C3.71125 44.236875 3.4225 43.47375 3.125 42.6875 C2.03730987 39.84970692 2.03730987 39.84970692 0 37 C-0.1953125 34.30078125 -0.1953125 34.30078125 -0.125 31.3125 C-0.10695312 30.31863281 -0.08890625 29.32476562 -0.0703125 28.30078125 C-0.04710937 27.54152344 -0.02390625 26.78226563 0 26 C-0.66 26 -1.32 26 -2 26 C-2.19865739 17.10456358 -2.33447255 8.67089803 0 0 Z " fill="#F4F4F4" transform="translate(45,75)"/>
<path d="M0 0 C2.64 0.33 5.28 0.66 8 1 C8 1.66 8 2.32 8 3 C9.32 3 10.64 3 12 3 C12 3.66 12 4.32 12 5 C13.65 5 15.3 5 17 5 C17 5.66 17 6.32 17 7 C17.56203125 7.12246094 18.1240625 7.24492188 18.703125 7.37109375 C21.18986519 8.0519869 23.40514776 8.99352325 25.75 10.0625 C26.54921875 10.42472656 27.3484375 10.78695312 28.171875 11.16015625 C28.77515625 11.43730469 29.3784375 11.71445312 30 12 C30 12.66 30 13.32 30 14 C30.99 14 31.98 14 33 14 C33 14.66 33 15.32 33 16 C33.66 16 34.32 16 35 16 C34.58846263 20.97093824 34.20399168 25.44508386 32 30 C26.31492008 28.39334698 20.65571861 26.70695733 15 25 C15 27.31 15 29.62 15 32 C14.34 32 13.68 32 13 32 C13 40.25 13 48.5 13 57 C9.7 57 6.4 57 3 57 C0.03798924 50.56084617 -1.1250579 45.00019268 -1.1328125 37.8515625 C-1.13474609 36.68786133 -1.13667969 35.52416016 -1.13867188 34.32519531 C-1.13416016 33.10413086 -1.12964844 31.88306641 -1.125 30.625 C-1.12306641 29.3781543 -1.12113281 28.13130859 -1.11914062 26.84667969 C-1.07714767 17.86252034 -0.77834988 8.95102361 0 0 Z " fill="#F4F4F4" transform="translate(26,44)"/>
<path d="M0 0 C2.41939358 15.66125308 3.48601991 31.40628594 0 47 C-0.66 47 -1.32 47 -2 47 C-2 49.31 -2 51.62 -2 54 C-6.455 54.495 -6.455 54.495 -11 55 C-11.07347656 53.54980469 -11.07347656 53.54980469 -11.1484375 52.0703125 C-11.53808677 45.28504074 -12.09203185 38.74350314 -13.58984375 32.09765625 C-14.12185849 29.37678087 -14.14537627 26.76214922 -14 24 C-18.84386449 24.47488868 -21.92193003 25.39456641 -26 28 C-26.99 28 -27.98 28 -29 28 C-29 28.66 -29 29.32 -29 30 C-29.99 29.67 -30.98 29.34 -32 29 C-32.94921875 26.85546875 -32.94921875 26.85546875 -33.6875 24.1875 C-33.93886719 23.31480469 -34.19023438 22.44210938 -34.44921875 21.54296875 C-35 19 -35 19 -35 15 C-32 13 -32 13 -29 13 C-29 12.34 -29 11.68 -29 11 C-20.60216251 5.90053796 -10.07482703 0 0 0 Z " fill="#F9F9F9" transform="translate(153,45)"/>
<path d="M0 0 C2.64 0.33 5.28 0.66 8 1 C8 13.54 8 26.08 8 39 C9.32 39 10.64 39 12 39 C12 40.65 12 42.3 12 44 C16.81122847 42.47444034 16.81122847 42.47444034 20 39 C20.99 39 21.98 39 23 39 C23 38.34 23 37.68 23 37 C24.94140625 35.703125 24.94140625 35.703125 27.5625 34.25 C33.5290729 30.78007817 39.11235743 27.46942999 42 21 C42.99 21 43.98 21 45 21 C45 20.34 45 19.68 45 19 C45.66 19 46.32 19 47 19 C46.67 20.98 46.34 22.96 46 25 C47.95894361 24.88693303 47.95894361 24.88693303 50 24 C50.72904086 22.35965807 51.38655243 20.68698082 52 19 C54 16.1875 54 16.1875 56 14 C56.66 14 57.32 14 58 14 C58.12246094 13.42765625 58.24492187 12.8553125 58.37109375 12.265625 C59.02762868 9.90046809 59.93723512 7.92793203 61.0625 5.75 C61.42472656 5.04359375 61.78695312 4.3371875 62.16015625 3.609375 C62.57587891 2.81273438 62.57587891 2.81273438 63 2 C64.65 2 66.3 2 68 2 C66.28940149 9.1274938 64.18323676 14.68385973 59 20 C58.34 20 57.68 20 57 20 C56.74863281 20.58265625 56.49726563 21.1653125 56.23828125 21.765625 C50.57061809 31.99244938 36.53994606 38.93173103 26 43 C25.01 43 24.02 43 23 43 C23 43.66 23 44.32 23 45 C22.01 45.33 21.02 45.66 20 46 C19.505 46.99 19.505 46.99 19 48 C28.57 48 38.14 48 48 48 C48 48.66 48 49.32 48 50 C43.95784392 51.91572953 40.72724687 52.24611445 36.2734375 52.23046875 C34.9946875 52.22853516 33.7159375 52.22660156 32.3984375 52.22460938 C31.73811523 52.21840576 31.07779297 52.21220215 30.39746094 52.20581055 C28.37422142 52.18749295 26.35143903 52.18530157 24.328125 52.18554688 C14.42155098 52.14051699 14.42155098 52.14051699 11 51 C8.26710707 50.77202438 5.54957796 50.58331813 2.8125 50.4375 C1.68811523 50.37272461 1.68811523 50.37272461 0.54101562 50.30664062 C-1.30578375 50.20077315 -3.15286834 50.0999024 -5 50 C-5 50.66 -5 51.32 -5 52 C-12.59 52 -20.18 52 -28 52 C-28 51.34 -28 50.68 -28 50 C-26.84242187 49.95101562 -25.68484375 49.90203125 -24.4921875 49.8515625 C-22.9531033 49.77648522 -21.4140419 49.70093957 -19.875 49.625 C-18.73417969 49.57859375 -18.73417969 49.57859375 -17.5703125 49.53125 C-13.05367842 49.297631 -9.25847653 48.67345883 -5 47 C-5.33 45.68 -5.66 44.36 -6 43 C-5.278125 42.87625 -4.55625 42.7525 -3.8125 42.625 C-1.04278106 42.0095069 1.3970354 41.11555626 4 40 C3.34 39.01 2.68 38.02 2 37 C1.69702148 33.90893555 1.69702148 33.90893555 1.62109375 30.13671875 C1.60409927 29.46711624 1.5871048 28.79751373 1.56959534 28.10762024 C1.5165345 25.9676761 1.47624731 23.82774729 1.4375 21.6875 C1.39335296 19.55806884 1.34639234 17.42877623 1.29469299 15.29951477 C1.2484271 13.35955752 1.2107766 11.41940046 1.17358398 9.47924805 C1.01202831 6.24109073 0.6056063 3.18179752 0 0 Z " fill="#070707" transform="translate(85,103)"/>
<path d="M0 0 C0.103125 0.639375 0.20625 1.27875 0.3125 1.9375 C0.6528125 2.9584375 0.6528125 2.9584375 1 4 C1.99 4.33 2.98 4.66 4 5 C5.82421875 7.1796875 5.82421875 7.1796875 7.6875 9.875 C8.31011719 10.75929688 8.93273437 11.64359375 9.57421875 12.5546875 C11 15 11 15 11 18 C11.66 18 12.32 18 13 18 C13 18.99 13 19.98 13 21 C13.66 21 14.32 21 15 21 C17.58184768 26.06042145 18.820394 29.32465401 17 35 C14.1875 37.5 14.1875 37.5 11 39 C8.2130968 38.77283692 7.145281 38.13435539 5.078125 36.22265625 C4.47484375 35.50980469 3.8715625 34.79695313 3.25 34.0625 C2.63640625 33.35222656 2.0228125 32.64195313 1.390625 31.91015625 C0 30 0 30 0 28 C-1.32 28 -2.64 28 -4 28 C-4.2475 28.556875 -4.495 29.11375 -4.75 29.6875 C-6 32 -6 32 -8.0625 34.5625 C-10.16384349 36.92026019 -10.16384349 36.92026019 -11 40 C-15.75 39.125 -15.75 39.125 -18 38 C-18 37.34 -18 36.68 -18 36 C-18.61875 35.7525 -19.2375 35.505 -19.875 35.25 C-22.37326623 33.78043163 -23.06694014 32.71435596 -24 30 C-23.67 29.34 -23.34 28.68 -23 28 C-22.34 28 -21.68 28 -21 28 C-20.814375 27.071875 -20.62875 26.14375 -20.4375 25.1875 C-18.0846429 17.02654112 -8.97199454 0 0 0 Z " fill="#F3F3F3" transform="translate(92,28)"/>
<path d="M0 0 C0.845625 0.144375 1.69125 0.28875 2.5625 0.4375 C6.03593149 1.0058797 9.51445662 1.51202393 13 2 C13 2.99 13 3.98 13 5 C12.34 5 11.68 5 11 5 C10.91363281 5.56847656 10.82726562 6.13695313 10.73828125 6.72265625 C9.65711217 12.66412669 7.70079038 16.31545522 4 21 C2.98343919 22.65661761 1.97934924 24.32111559 1 26 C0.34 26.99 -0.32 27.98 -1 29 C-1.66 29 -2.32 29 -3 29 C-3.23976562 29.57234375 -3.47953125 30.1446875 -3.7265625 30.734375 C-5.2578822 33.45880882 -7.05119983 35.16552808 -9.375 37.25 C-10.14585937 37.95640625 -10.91671875 38.6628125 -11.7109375 39.390625 C-14 41 -14 41 -18 41 C-18 41.66 -18 42.32 -18 43 C-22.17737474 44.59138085 -25.53160785 45.21278058 -30 45 C-30 45.66 -30 46.32 -30 47 C-32.7708983 47.02696009 -35.5415345 47.04681952 -38.3125 47.0625 C-39.09818359 47.07087891 -39.88386719 47.07925781 -40.69335938 47.08789062 C-41.45068359 47.09111328 -42.20800781 47.09433594 -42.98828125 47.09765625 C-44.03302612 47.10551147 -44.03302612 47.10551147 -45.09887695 47.11352539 C-47 47 -47 47 -50 46 C-49.67 45.01 -49.34 44.02 -49 43 C-48.01 43 -47.02 43 -46 43 C-46 42.34 -46 41.68 -46 41 C-45.11699219 40.6596875 -44.23398438 40.319375 -43.32421875 39.96875 C-32.75093939 35.69855339 -17.33944162 28.67888324 -12 18 C-11.34 18 -10.68 18 -10 18 C-9.731875 17.401875 -9.46375 16.80375 -9.1875 16.1875 C-8 14 -8 14 -6.5234375 12.61328125 C-4.80587048 10.79442181 -4.21974651 9.36014948 -3.4375 7 C-2.50700205 4.22427731 -1.66958731 2.50438097 0 0 Z " fill="#F2F2F2" transform="translate(154,105)"/>
<path d="M0 0 C0.495 4.95 0.495 4.95 1 10 C1.66 10 2.32 10 3 10 C4.0746161 16.97647592 4.14917328 23.82446118 4.125 30.875 C4.13080078 32.55529297 4.13080078 32.55529297 4.13671875 34.26953125 C4.11590563 52.1063724 4.11590563 52.1063724 1 60 C0.34 60 -0.32 60 -1 60 C-1 60.99 -1 61.98 -1 63 C2.96 63 6.92 63 11 63 C11 63.66 11 64.32 11 65 C12.98 65 14.96 65 17 65 C16.32829194 68.8063457 15.27253436 72.35206816 14 76 C13.34 76 12.68 76 12 76 C12 77.98 12 79.96 12 82 C11.34 82 10.68 82 10 82 C9.72285156 82.73863281 9.44570312 83.47726563 9.16015625 84.23828125 C5.67735735 92.52898436 -0.55721244 99.82780952 -7 106 C-7.66 106 -8.32 106 -9 106 C-9 106.66 -9 107.32 -9 108 C-14.29411765 112 -14.29411765 112 -18 112 C-18 112.66 -18 113.32 -18 114 C-18.7425 114.28875 -19.485 114.5775 -20.25 114.875 C-22.90177273 115.90641946 -22.90177273 115.90641946 -24.94140625 117.03125 C-32.9177011 120.78480052 -44.35020007 119.08937796 -53 119 C-53.33 118.34 -53.66 117.68 -54 117 C-53.26885986 116.97494385 -52.53771973 116.9498877 -51.78442383 116.92407227 C-48.46028583 116.80777359 -45.13640759 116.68520072 -41.8125 116.5625 C-40.66201172 116.52318359 -39.51152344 116.48386719 -38.32617188 116.44335938 C-37.21435547 116.40146484 -36.10253906 116.35957031 -34.95703125 116.31640625 C-33.93585205 116.27974854 -32.91467285 116.24309082 -31.86254883 116.20532227 C-29.16171537 116.01159937 -26.63833872 115.59548047 -24 115 C-24 114.34 -24 113.68 -24 113 C-26.97 113 -29.94 113 -33 113 C-33 112.67 -33 112.34 -33 112 C-31.14375 111.505 -31.14375 111.505 -29.25 111 C-28.55390625 110.814375 -27.8578125 110.62875 -27.140625 110.4375 C-25 110 -25 110 -21 110 C-21 109.34 -21 108.68 -21 108 C-19.90945312 107.62875 -19.90945312 107.62875 -18.796875 107.25 C-15.72525165 105.87720744 -13.7285941 104.26234093 -11.25 102 C-10.47140625 101.29875 -9.6928125 100.5975 -8.890625 99.875 C-6.93385325 98.13450772 -6.93385325 98.13450772 -6 96 C-5.34 96 -4.68 96 -4 96 C-3.74089844 95.44699219 -3.48179687 94.89398438 -3.21484375 94.32421875 C-1.83496816 91.68426385 -0.22212857 89.28588193 1.4375 86.8125 C4.56269067 81.96845446 6.45651651 77.53838193 8 72 C8.66 72 9.32 72 10 72 C10 71.01 10 70.02 10 69 C8.989375 69.020625 7.97875 69.04125 6.9375 69.0625 C3.18159445 69.00288245 -0.29917407 68.61680432 -4 68 C-4.928125 67.855625 -5.85625 67.71125 -6.8125 67.5625 C-9 67 -9 67 -11 65 C-9.81857422 64.44892578 -9.81857422 64.44892578 -8.61328125 63.88671875 C-5.25349584 61.46104408 -5.00472803 59.81261613 -4.1875 55.8125 C-3.95417969 54.72582031 -3.72085938 53.63914063 -3.48046875 52.51953125 C-3.24263672 51.27236328 -3.24263672 51.27236328 -3 50 C-2.34 50 -1.68 50 -1 50 C-1.11848926 45.65818774 -1.2427536 41.31659035 -1.37231445 36.97509766 C-1.41556035 35.4989061 -1.45724256 34.02266785 -1.49731445 32.54638672 C-1.55526846 30.42140652 -1.61888946 28.29665907 -1.68359375 26.171875 C-1.73858032 24.2552002 -1.73858032 24.2552002 -1.79467773 22.29980469 C-1.95882149 19.66179403 -2.28574025 17.51568594 -3 15 C-3.06624507 13.25113019 -3.08552595 11.49997252 -3.0625 9.75 C-3.05347656 8.85796875 -3.04445312 7.9659375 -3.03515625 7.046875 C-3.02355469 6.37140625 -3.01195312 5.6959375 -3 5 C-4.32 5 -5.64 5 -7 5 C-7 5.66 -7 6.32 -7 7 C-7.91523438 7.27714844 -8.83046875 7.55429687 -9.7734375 7.83984375 C-11.55621094 8.38318359 -11.55621094 8.38318359 -13.375 8.9375 C-15.15003906 9.47697266 -15.15003906 9.47697266 -16.9609375 10.02734375 C-19.87926818 10.87576274 -19.87926818 10.87576274 -22 12 C-22 8 -22 8 -19.3125 5.25 C-16.99529969 3.45017933 -16.1386747 3.01507334 -13.125 2.6875 C-12.073125 2.8421875 -12.073125 2.8421875 -11 3 C-11 2.34 -11 1.68 -11 1 C-7.18939869 0.29105092 -3.91978817 0 0 0 Z " fill="#1A1A1A" transform="translate(157,38)"/>
<path d="M0 0 C0.66 1.98 1.32 3.96 2 6 C2.66 6 3.32 6 4 6 C5.07818042 7.80856071 6.15633279 9.61713815 7.234375 11.42578125 C9.46842978 14.68295404 12.01451925 17.5366714 14.6875 20.4375 C15.17532959 20.96956055 15.66315918 21.50162109 16.16577148 22.04980469 C18.78466362 24.90387517 18.78466362 24.90387517 22 27 C22 27.66 22 28.32 22 29 C22.71542969 29.26941406 23.43085937 29.53882813 24.16796875 29.81640625 C27.02420099 31.01011435 29.62294588 32.40784042 32.3125 33.9375 C36.79023527 36.41906331 41.15755703 38.35539673 46 40 C46 40.66 46 41.32 46 42 C47.98 42 49.96 42 52 42 C52 42.99 52 43.98 52 45 C47.37540756 46.17700048 42.92133538 46.11408412 38.1875 46.0625 C37.39923828 46.05798828 36.61097656 46.05347656 35.79882812 46.04882812 C33.86585239 46.03711312 31.93291607 46.01917998 30 46 C30 45.34 30 44.68 30 44 C28.7625 44.04125 27.525 44.0825 26.25 44.125 C22.98362038 44.13658291 20.7853053 43.8568702 18 42 C18 41.34 18 40.68 18 40 C17.34 40 16.68 40 16 40 C16 39.34 16 38.68 16 38 C15.278125 38.0825 14.55625 38.165 13.8125 38.25 C7.81256106 37.71667209 4.22049664 32.16930162 0.453125 27.90234375 C-1 26 -1 26 -2 23 C-2.66 23 -3.32 23 -4 23 C-4.25394531 22.33613281 -4.50789063 21.67226562 -4.76953125 20.98828125 C-6.88889763 15.48466321 -6.88889763 15.48466321 -9.6875 10.3125 C-11.41211005 7.27390133 -11.66220533 4.44550562 -12 1 C-10.37512529 0.83211627 -8.75009558 0.66573213 -7.125 0.5 C-6.22007813 0.4071875 -5.31515625 0.314375 -4.3828125 0.21875 C-2 0 -2 0 0 0 Z " fill="#F0F0F0" transform="translate(26,106)"/>
<path d="M0 0 C5.3465647 -0.25624727 9.741896 0.56116904 14.75 2.3125 C15.40871094 2.52583984 16.06742188 2.73917969 16.74609375 2.95898438 C20.20912684 4.1355727 22.60767784 5.22080066 25 8 C27.10332891 8.71447643 27.10332891 8.71447643 29 9 C29 9.66 29 10.32 29 11 C29.78375 11.12375 30.5675 11.2475 31.375 11.375 C34 12 34 12 36 14 C38.31765729 14.71927295 40.65095874 15.3909893 43 16 C43.66 14.35 44.32 12.7 45 11 C45.495 12.98 45.495 12.98 46 15 C45.34 15 44.68 15 44 15 C43.67 16.32 43.34 17.64 43 19 C42.01 19 41.02 19 40 19 C41.29144978 21.99992729 41.29144978 21.99992729 43 25 C43.99 25.33 44.98 25.66 46 26 C47.859375 27.671875 47.859375 27.671875 49.75 29.75 C50.38421875 30.42546875 51.0184375 31.1009375 51.671875 31.796875 C53 34 53 34 52.76953125 36.46484375 C52.38861328 37.71974609 52.38861328 37.71974609 52 39 C51.82339844 39.81082031 51.64679688 40.62164062 51.46484375 41.45703125 C51.29082031 42.23433594 51.11679688 43.01164062 50.9375 43.8125 C50.76089844 44.60269531 50.58429688 45.39289063 50.40234375 46.20703125 C50.20318359 47.09455078 50.20318359 47.09455078 50 48 C49.34 48 48.68 48 48 48 C48 49.98 48 51.96 48 54 C47.34 54 46.68 54 46 54 C45.94178065 57.89577024 45.9063297 61.79142802 45.875 65.6875 C45.85824219 66.79029297 45.84148437 67.89308594 45.82421875 69.02929688 C45.81777344 70.09599609 45.81132813 71.16269531 45.8046875 72.26171875 C45.79421387 73.24100342 45.78374023 74.22028809 45.77294922 75.22924805 C46.0149724 78.1827116 46.8373245 80.29402815 48 83 C48.125 85.8125 48.125 85.8125 48 88 C47.67 86.68 47.34 85.36 47 84 C46.34 84 45.68 84 45 84 C42.07450621 73.21224164 42.26429062 62.82070764 45 52 C45.66 52 46.32 52 47 52 C47 50.68 47 49.36 47 48 C44.03 47.505 44.03 47.505 41 47 C41 46.34 41 45.68 41 45 C40.01 45 39.02 45 38 45 C38 44.34 38 43.68 38 43 C37.01 43 36.02 43 35 43 C35 42.34 35 41.68 35 41 C34.319375 40.896875 33.63875 40.79375 32.9375 40.6875 C29.37084011 39.85274981 26.33777806 38.50527246 23 37 C23.020625 38.27875 23.04125 39.5575 23.0625 40.875 C23.125 44.75 23.125 44.75 22 47 C21.7677354 49.71262116 21.58063765 52.40773126 21.4375 55.125 C21.39431641 55.87910156 21.35113281 56.63320312 21.30664062 57.41015625 C21.2005168 59.27321888 21.09974999 61.13658524 21 63 C20.67 63 20.34 63 20 63 C20 56.73 20 50.46 20 44 C20.66 44 21.32 44 22 44 C22 40.37 22 36.74 22 33 C21.34 33 20.68 33 20 33 C20.020625 33.94875 20.04125 34.8975 20.0625 35.875 C20 39 20 39 19 41 C18.84777027 42.66565749 18.75082785 44.33656496 18.68359375 46.0078125 C18.64169922 46.99394531 18.59980469 47.98007813 18.55664062 48.99609375 C18.51732422 50.02863281 18.47800781 51.06117187 18.4375 52.125 C18.39431641 53.16527344 18.35113281 54.20554688 18.30664062 55.27734375 C18.2003712 57.85142528 18.09833417 60.42560508 18 63 C17.67 63 17.34 63 17 63 C17 54.75 17 46.5 17 38 C17.66 38 18.32 38 19 38 C19 35.69 19 33.38 19 31 C25.23568111 31.54223314 30.24033681 33.55411563 36 36 C36.99 31.38 37.98 26.76 39 22 C38.34 22 37.68 22 37 22 C37 21.34 37 20.68 37 20 C36.01 20 35.02 20 34 20 C34 19.34 34 18.68 34 18 C33.43796875 17.87753906 32.8759375 17.75507812 32.296875 17.62890625 C29.81013481 16.9480131 27.59485224 16.00647675 25.25 14.9375 C24.45078125 14.57527344 23.6515625 14.21304688 22.828125 13.83984375 C22.22484375 13.56269531 21.6215625 13.28554688 21 13 C21 12.34 21 11.68 21 11 C19.35 11 17.7 11 16 11 C16 10.34 16 9.68 16 9 C14.68 9 13.36 9 12 9 C12 8.34 12 7.68 12 7 C9.36 6.67 6.72 6.34 4 6 C4.01160156 6.89976563 4.02320313 7.79953125 4.03515625 8.7265625 C4.1177918 20.50803086 3.61162413 32.23599544 3 44 C2.67 44 2.34 44 2 44 C1.79361047 15.64207904 1.79361047 15.64207904 3 5 C4.98 4.67 6.96 4.34 9 4 C9 3.34 9 2.68 9 2 C6.69 2 4.38 2 2 2 C1.67 4.64 1.34 7.28 1 10 C0.34 10 -0.32 10 -1 10 C-0.67 6.7 -0.34 3.4 0 0 Z " fill="#434343" transform="translate(22,38)"/>
<path d="M0 0 C3.00270524 0.3279405 4.58992387 0.59534338 6.7734375 2.75 C7.30195312 3.4925 7.83046875 4.235 8.375 5 C8.96539062 5.80953125 9.55578125 6.6190625 10.1640625 7.453125 C10.76992187 8.29359375 11.37578125 9.1340625 12 10 C13.24451274 11.58764999 14.49433918 13.17115221 15.75 14.75 C20.72001294 21.17329798 25.79734886 28.49494544 25 37 C24.34 37 23.68 37 23 37 C23 36.34 23 35.68 23 35 C22.01 34.67 21.02 34.34 20 34 C19.67 32.35 19.34 30.7 19 29 C18.34 29 17.68 29 17 29 C17 28.01 17 27.02 17 26 C16.34 26 15.68 26 15 26 C14.70867187 25.43152344 14.41734375 24.86304687 14.1171875 24.27734375 C11.56093914 19.46227215 8.87106274 15.38906685 5.13671875 11.41015625 C4 10 4 10 4 8 C2.68 8 1.36 8 0 8 C-0.38091797 8.85464844 -0.38091797 8.85464844 -0.76953125 9.7265625 C-2.14615829 12.27004485 -3.79152332 14.19220563 -5.6875 16.375 C-10.60818221 22.3841695 -13.76907818 28.99293831 -17 36 C-17.66 36 -18.32 36 -19 36 C-18.65221564 39.21700528 -18.49927596 40.59150148 -15.9375 42.6875 C-15.298125 43.120625 -14.65875 43.55375 -14 44 C-14 44.66 -14 45.32 -14 46 C-11.69 46.66 -9.38 47.32 -7 48 C-6.896875 47.360625 -6.79375 46.72125 -6.6875 46.0625 C-6.460625 45.381875 -6.23375 44.70125 -6 44 C-4.515 43.505 -4.515 43.505 -3 43 C-2.525625 42.505 -2.05125 42.01 -1.5625 41.5 C0.30880033 39.70355169 1.41123 39.16179813 4 39 C5.75 40.25 5.75 40.25 7 42 C7 42.99 7 43.98 7 45 C7.99 45.33 8.98 45.66 10 46 C9.505 46.99 9.505 46.99 9 48 C8.34 48 7.68 48 7 48 C6.54625 47.525625 6.0925 47.05125 5.625 46.5625 C3.77022513 44.77906263 2.49864408 44.4308007 0 44 C0 44.66 0 45.32 0 46 C-0.66 46 -1.32 46 -2 46 C-2.10183594 46.54140625 -2.20367187 47.0828125 -2.30859375 47.640625 C-3.17757607 50.60596581 -4.55472291 53.05524946 -6.0625 55.75 C-6.61035156 56.73484375 -7.15820312 57.7196875 -7.72265625 58.734375 C-8.14417969 59.48203125 -8.56570312 60.2296875 -9 61 C-9.33 61 -9.66 61 -10 61 C-10 59.35 -10 57.7 -10 56 C-9.34 56 -8.68 56 -8 56 C-8.33 54.02 -8.66 52.04 -9 50 C-11.51083114 51.25541557 -11.87125446 52.50063488 -13 55 C-13.4125 54.2575 -13.825 53.515 -14.25 52.75 C-15.89266462 49.94915692 -15.89266462 49.94915692 -18.1875 47.8125 C-18.785625 47.214375 -19.38375 46.61625 -20 46 C-20 45.34 -20 44.68 -20 44 C-20.61875 43.896875 -21.2375 43.79375 -21.875 43.6875 C-24 43 -24 43 -26 40 C-26 39.01 -26 38.02 -26 37 C-24.515 36.505 -24.515 36.505 -23 36 C-22.67 35.01 -22.34 34.02 -22 33 C-21.34 33 -20.68 33 -20 33 C-20 31.906875 -20 30.81375 -20 29.6875 C-19.20092929 23.3061888 -14.91218139 18.85997791 -11 14 C-10.24976562 13.05769531 -9.49953125 12.11539063 -8.7265625 11.14453125 C-7.34884984 9.42114701 -5.96297874 7.70423036 -4.56640625 5.99609375 C-2.95904996 4.08505924 -2.95904996 4.08505924 -2 2 C-1.34 2 -0.68 2 0 2 C0 1.34 0 0.68 0 0 Z " fill="#363636" transform="translate(88,20)"/>
<path d="M0 0 C1.32 0 2.64 0 4 0 C4.66 1.65 5.32 3.3 6 5 C6.66 5 7.32 5 8 5 C8.33 6.98 8.66 8.96 9 11 C9.66 11 10.32 11 11 11 C11.86916887 12.40751221 12.71985149 13.8264521 13.5625 15.25 C14.03816406 16.03890625 14.51382813 16.8278125 15.00390625 17.640625 C16 20 16 20 15.83984375 22.13671875 C14.44319197 25.23533688 11.59639578 26.89042843 9 29 C8.67 29.99 8.34 30.98 8 32 C7.34 32 6.68 32 6 32 C5.01 34.475 5.01 34.475 4 37 C2.68 37 1.36 37 0 37 C-1.4921875 35.4609375 -1.4921875 35.4609375 -2.875 33.375 C-4.86308967 30.48693112 -6.79752159 28.17809021 -9.4375 25.875 C-12 23 -12 23 -11.875 19.625 C-11.58625 18.75875 -11.2975 17.8925 -11 17 C-10.34 17 -9.68 17 -9 17 C-8.89816406 16.45859375 -8.79632813 15.9171875 -8.69140625 15.359375 C-7.82242393 12.39403419 -6.44527709 9.94475054 -4.9375 7.25 C-4.11572266 5.77273437 -4.11572266 5.77273437 -3.27734375 4.265625 C-2.85582031 3.51796875 -2.43429688 2.7703125 -2 2 C-1.34 2 -0.68 2 0 2 C0 1.34 0 0.68 0 0 Z " fill="#F3F3F3" transform="translate(88,64)"/>
<path d="M0 0 C0.99 0 1.98 0 3 0 C3.80515134 2.83482033 4.12826729 5.35710837 4.1328125 8.30078125 C4.13474609 9.51991211 4.13474609 9.51991211 4.13671875 10.76367188 C4.13285156 11.60478516 4.12898438 12.44589844 4.125 13.3125 C4.12886719 14.14201172 4.13273437 14.97152344 4.13671875 15.82617188 C4.12573317 22.78553554 3.83241389 29.05736658 0.625 35.375 C0.20476562 36.22835937 -0.21546875 37.08171875 -0.6484375 37.9609375 C-2 40 -2 40 -5 41 C-5.144375 41.598125 -5.28875 42.19625 -5.4375 42.8125 C-6.18882904 45.73433517 -7.84516035 46.95654371 -10 49 C-10.12439375 44.16204012 -10.2147079 39.32502819 -10.2746582 34.48583984 C-10.29967054 32.84277106 -10.33369226 31.19981206 -10.37719727 29.55712891 C-10.82141137 12.34252586 -10.82141137 12.34252586 -5 6 C-4.56131592 5.41025391 -4.12263184 4.82050781 -3.6706543 4.21289062 C-2.375 2.5 -2.375 2.5 0 0 Z " fill="#F0F0F0" transform="translate(104,92)"/>
<path d="M0 0 C3.72547793 1.50355612 5.64094944 3.63313048 8.125 6.75 C8.80820313 7.59046875 9.49140625 8.4309375 10.1953125 9.296875 C13.71787649 14.57309639 14.16442738 18.36140416 13.29736328 24.44873047 C12.73174332 29.30154544 12.89748364 34.18358272 12.9375 39.0625 C12.94201172 40.11888672 12.94652344 41.17527344 12.95117188 42.26367188 C12.96284082 44.84250908 12.97921115 47.42122294 13 50 C9.52055717 46.73912998 7.02415323 43.72170804 4.8125 39.5 C4.32394531 38.5821875 3.83539063 37.664375 3.33203125 36.71875 C-0.21636837 29.47626866 -1.17067186 23.10835937 -1.125 15.0625 C-1.12886719 14.38509766 -1.13273437 13.70769531 -1.13671875 13.00976562 C-1.1281918 8.56296111 -0.71837941 4.3729921 0 0 Z " fill="#F1F1F1" transform="translate(73,91)"/>
<path d="M0 0 C-0.66 1.32 -1.32 2.64 -2 4 C-3.98 4 -5.96 4 -8 4 C-8 5.32 -8 6.64 -8 8 C-7.34 8 -6.68 8 -6 8 C-5.5875 9.155 -5.175 10.31 -4.75 11.5 C-3.35965242 15.24529038 -1.67064874 18.72797818 0.23046875 22.23828125 C1 24 1 24 1 27 C1.66 27 2.32 27 3 27 C7 31.47058824 7 31.47058824 7 34 C7.556875 34.226875 8.11375 34.45375 8.6875 34.6875 C11 36 11 36 13.4375 38.5625 C16.1178537 41.11210474 17.39068083 41.69062979 21 42 C21 42.66 21 43.32 21 44 C21.66 44 22.32 44 23 44 C23 44.66 23 45.32 23 46 C26.96 46.66 30.92 47.32 35 48 C35 48.66 35 49.32 35 50 C45.395 49.505 45.395 49.505 56 49 C52.95318939 51.03120707 52.39881676 51.24659875 48.98828125 51.1953125 C48.23095703 51.18886719 47.47363281 51.18242187 46.69335938 51.17578125 C45.90767578 51.15902344 45.12199219 51.14226562 44.3125 51.125 C43.51521484 51.11597656 42.71792969 51.10695312 41.89648438 51.09765625 C39.930861 51.07411585 37.96539225 51.03824547 36 51 C36 51.66 36 52.32 36 53 C43.59 53 51.18 53 59 53 C59 52.34 59 51.68 59 51 C64.28 51 69.56 51 75 51 C75 51.33 75 51.66 75 52 C74.15695313 52.06058594 73.31390625 52.12117188 72.4453125 52.18359375 C71.34960938 52.26738281 70.25390625 52.35117188 69.125 52.4375 C68.03445312 52.51871094 66.94390625 52.59992188 65.8203125 52.68359375 C63.05271029 52.83001703 63.05271029 52.83001703 61 54 C56.67179465 54.24686371 52.33443661 54.18522112 48 54.1875 C46.80503906 54.19974609 45.61007813 54.21199219 44.37890625 54.22460938 C26.73975206 54.25358937 26.73975206 54.25358937 20 49 C18.845 48.525625 17.69 48.05125 16.5 47.5625 C13.13353793 46.05961515 11.29218235 44.84230611 9 42 C9 41.34 9 40.68 9 40 C8.4121875 39.74605469 7.824375 39.49210937 7.21875 39.23046875 C1.15608381 35.8682507 -3.01596283 29.08743582 -6 23 C-6 22.01 -6 21.02 -6 20 C-6.99 20 -7.98 20 -9 20 C-10.97094808 15.07262981 -11.1799928 11.21979128 -11 6 C-11.66 6 -12.32 6 -13 6 C-13 4.35 -13 2.7 -13 1 C-8.59085217 -0.10228696 -4.51617599 -0.07654536 0 0 Z " fill="#101010" transform="translate(21,102)"/>
<path d="M0 0 C1.32 0 2.64 0 4 0 C5.78403543 10.24362167 6.25425093 20.01541641 6.125 30.375 C6.11493182 31.8046811 6.10581288 33.23436921 6.09765625 34.6640625 C6.0759886 38.10952479 6.04167943 41.5547146 6 45 C5.34 45 4.68 45 4 45 C4.061875 45.845625 4.12375 46.69125 4.1875 47.5625 C3.96325183 51.67371652 2.94714618 54.38387138 1 58 C-1.1875 59.4375 -1.1875 59.4375 -3 60 C-2.79117188 60.7321875 -2.58234375 61.464375 -2.3671875 62.21875 C-1.74299237 66.94669612 -4.39425986 70.20227235 -7 74 C-8.62746694 75.70496537 -10.28891311 77.37897032 -12 79 C-12.7734375 80.36125 -12.7734375 80.36125 -13.5625 81.75 C-15 84 -15 84 -17.1875 84.8125 C-17.785625 84.874375 -18.38375 84.93625 -19 85 C-18.67 83.02 -18.34 81.04 -18 79 C-18.66 79 -19.32 79 -20 79 C-20 79.66 -20 80.32 -20 81 C-20.66 80.67 -21.32 80.34 -22 80 C-21.67 79.01 -21.34 78.02 -21 77 C-20.34 77 -19.68 77 -19 77 C-18.7834375 76.13375 -18.7834375 76.13375 -18.5625 75.25 C-17.78125 72.125 -17.78125 72.125 -17 69 C-16.34 69 -15.68 69 -15 69 C-15.04125 67.88625 -15.0825 66.7725 -15.125 65.625 C-15.14300722 60.60098664 -14.11958236 55.8781803 -13 51 C-12.67 51 -12.34 51 -12 51 C-11.67 52.98 -11.34 54.96 -11 57 C-10.67 50.4 -10.34 43.8 -10 37 C-9.67 37 -9.34 37 -9 37 C-8.0672582 41.099361 -7.71174738 45.12043288 -7.4375 49.3125 C-7.35371094 50.56675781 -7.26992187 51.82101563 -7.18359375 53.11328125 C-7.12300781 54.06589844 -7.06242188 55.01851562 -7 56 C-4.36 56 -1.72 56 1 56 C1 53.69 1 51.38 1 49 C1.66 49 2.32 49 3 49 C2.98839844 48.38511719 2.97679687 47.77023438 2.96484375 47.13671875 C2.95582031 46.32847656 2.94679687 45.52023438 2.9375 44.6875 C2.92589844 43.88699219 2.91429687 43.08648437 2.90234375 42.26171875 C3 40 3 40 4 37 C4.09176662 35.57779056 4.13066478 34.15172782 4.1328125 32.7265625 C4.13410156 31.9015625 4.13539063 31.0765625 4.13671875 30.2265625 C4.13091797 28.93878906 4.13091797 28.93878906 4.125 27.625 C4.12886719 26.77421875 4.13273437 25.9234375 4.13671875 25.046875 C4.13020992 20.86820471 3.89771572 17.09273543 3 13 C2.93466565 11.06348981 2.91415697 9.12497139 2.9375 7.1875 C2.94652344 6.21167969 2.95554688 5.23585938 2.96484375 4.23046875 C2.97644531 3.49441406 2.98804688 2.75835937 3 2 C0.03 2.66 -2.94 3.32 -6 4 C-5.67 3.34 -5.34 2.68 -5 2 C-3.35 2 -1.7 2 0 2 C0 1.34 0 0.68 0 0 Z " fill="#252525" transform="translate(150,43)"/>
<path d="M0 0 C1.65 0 3.3 0 5 0 C3.28940149 7.1274938 1.18323676 12.68385973 -4 18 C-4.66 18 -5.32 18 -6 18 C-6.37705078 18.87398437 -6.37705078 18.87398437 -6.76171875 19.765625 C-11.31407706 27.97997501 -21.81079248 33.87970864 -30 38 C-33.39453125 38.72265625 -33.39453125 38.72265625 -36 39 C-36 38.01 -36 37.02 -36 36 C-36.99 36.66 -37.98 37.32 -39 38 C-41.1875 37.625 -41.1875 37.625 -43 37 C-42.01 37 -41.02 37 -40 37 C-40 36.34 -40 35.68 -40 35 C-38.05859375 33.703125 -38.05859375 33.703125 -35.4375 32.25 C-29.4709271 28.78007817 -23.88764257 25.46942999 -21 19 C-20.01 19 -19.02 19 -18 19 C-18 18.34 -18 17.68 -18 17 C-17.34 17 -16.68 17 -16 17 C-16.33 18.98 -16.66 20.96 -17 23 C-15.04105639 22.88693303 -15.04105639 22.88693303 -13 22 C-12.27095914 20.35965807 -11.61344757 18.68698082 -11 17 C-9 14.1875 -9 14.1875 -7 12 C-6.34 12 -5.68 12 -5 12 C-4.81630859 11.14148438 -4.81630859 11.14148438 -4.62890625 10.265625 C-3.97237132 7.90046809 -3.06276488 5.92793203 -1.9375 3.75 C-1.57527344 3.04359375 -1.21304688 2.3371875 -0.83984375 1.609375 C-0.56269531 1.07828125 -0.28554687 0.5471875 0 0 Z " fill="#181818" transform="translate(148,105)"/>
<path d="M0 0 C0.99 0 1.98 0 3 0 C3 0.66 3 1.32 3 2 C3.66 2 4.32 2 5 2 C5 2.99 5 3.98 5 5 C5.99 5.33 6.98 5.66 8 6 C10 9 10 9 10 12 C12.475 12.99 12.475 12.99 15 14 C14.67 12.35 14.34 10.7 14 9 C15.32 9.33 16.64 9.66 18 10 C18 10.66 18 11.32 18 12 C18.99 12 19.98 12 21 12 C21.89039952 13.36984542 22.7746791 14.74402935 23.62890625 16.13671875 C26.95596962 20.65811257 31.64961432 25.21653811 37 27 C37 27.66 37 28.32 37 29 C38.32 29.33 39.64 29.66 41 30 C41.495 31.98 41.495 31.98 42 34 C36.88890246 34.40514798 33.42001871 33.11442049 29 30.75 C28.40960938 30.44964844 27.81921875 30.14929688 27.2109375 29.83984375 C23.27662485 27.80336033 19.56056664 25.62700344 16 23 C16 22.34 16 21.68 16 21 C15.41089844 20.73703125 14.82179688 20.4740625 14.21484375 20.203125 C10.49136523 18.18049469 7.87170055 15.07085652 5 12 C4.49597656 11.46632813 3.99195313 10.93265625 3.47265625 10.3828125 C0.79555052 7.38755797 -0.76779068 5.06366312 -1 1 C-0.67 0.67 -0.34 0.34 0 0 Z " fill="#141414" transform="translate(32,112)"/>
<path d="M0 0 C3.89477313 16.7513058 4.23509302 34.95741572 2 52 C0.68 52 -0.64 52 -2 52 C-1.99476318 51.0212793 -1.98952637 50.04255859 -1.98413086 49.03417969 C-1.96600439 45.39633095 -1.95454003 41.75848619 -1.94506836 38.12060547 C-1.94004563 36.54735645 -1.93322625 34.97411208 -1.92456055 33.40087891 C-1.91240471 31.13703257 -1.90675104 28.87324807 -1.90234375 26.609375 C-1.89718246 25.90818542 -1.89202118 25.20699585 -1.88670349 24.48455811 C-1.88632273 21.15545139 -2.05250553 18.19409269 -3 15 C-3.06624507 13.25113019 -3.08552595 11.49997252 -3.0625 9.75 C-3.05347656 8.85796875 -3.04445312 7.9659375 -3.03515625 7.046875 C-3.02355469 6.37140625 -3.01195312 5.6959375 -3 5 C-4.32 5 -5.64 5 -7 5 C-7 5.66 -7 6.32 -7 7 C-7.91523438 7.27714844 -8.83046875 7.55429687 -9.7734375 7.83984375 C-11.55621094 8.38318359 -11.55621094 8.38318359 -13.375 8.9375 C-14.55835938 9.29714844 -15.74171875 9.65679687 -16.9609375 10.02734375 C-19.87926818 10.87576274 -19.87926818 10.87576274 -22 12 C-22 8 -22 8 -19.3125 5.25 C-16.99529969 3.45017933 -16.1386747 3.01507334 -13.125 2.6875 C-12.073125 2.8421875 -12.073125 2.8421875 -11 3 C-11 2.34 -11 1.68 -11 1 C-7.26616906 0.30533378 -3.79269127 -0.05168915 0 0 Z " fill="#191919" transform="translate(157,38)"/>
<path d="M0 0 C2.33944736 0.28730055 4.6739143 0.61936779 7 1 C7 1.66 7 2.32 7 3 C5.02 3.33 3.04 3.66 1 4 C0.95005188 9.33445924 0.91402459 14.66877825 0.89013672 20.00341797 C0.88016384 21.81301245 0.86658068 23.62259118 0.84912109 25.43212891 C0.59947556 40.3363218 0.59947556 40.3363218 3 55 C3.33 55.33 3.66 55.66 4 56 C4.04063832 57.66617115 4.042721 59.33388095 4 61 C2.02 61.495 2.02 61.495 0 62 C-3.46475099 53.95855468 -4.77329649 46.72808498 -5 38 C-5.02835938 36.95972656 -5.05671875 35.91945312 -5.0859375 34.84765625 C-5.19276902 26.2049864 -4.61929082 17.61477766 -4 9 C-3.01 9 -2.02 9 -1 9 C-1.020625 7.700625 -1.04125 6.40125 -1.0625 5.0625 C-1.08399454 3.70834367 -1.07148199 2.35243917 -1 1 C-0.67 0.67 -0.34 0.34 0 0 Z " fill="#2F2F2F" transform="translate(24,39)"/>
<path d="M0 0 C1.06528748 2.73019786 1.07998186 3.79298812 0.00390625 6.578125 C-0.47175781 7.45984375 -0.94742188 8.3415625 -1.4375 9.25 C-2.14712891 10.58804688 -2.14712891 10.58804688 -2.87109375 11.953125 C-3.24363281 12.62859375 -3.61617187 13.3040625 -4 14 C-4.66 14 -5.32 14 -6 14 C-5.65221564 17.21700528 -5.49927596 18.59150148 -2.9375 20.6875 C-2.298125 21.120625 -1.65875 21.55375 -1 22 C-1 22.66 -1 23.32 -1 24 C1.31 24.66 3.62 25.32 6 26 C6.103125 25.360625 6.20625 24.72125 6.3125 24.0625 C6.539375 23.381875 6.76625 22.70125 7 22 C7.99 21.67 8.98 21.34 10 21 C10.474375 20.505 10.94875 20.01 11.4375 19.5 C13.30880033 17.70355169 14.41123 17.16179813 17 17 C18.75 18.25 18.75 18.25 20 20 C20 20.99 20 21.98 20 23 C20.99 23.33 21.98 23.66 23 24 C22.67 24.66 22.34 25.32 22 26 C21.34 26 20.68 26 20 26 C19.54625 25.525625 19.0925 25.05125 18.625 24.5625 C16.77022513 22.77906263 15.49864408 22.4308007 13 22 C13 22.66 13 23.32 13 24 C12.34 24 11.68 24 11 24 C10.89816406 24.54140625 10.79632813 25.0828125 10.69140625 25.640625 C9.82242393 28.60596581 8.44527709 31.05524946 6.9375 33.75 C6.38964844 34.73484375 5.84179688 35.7196875 5.27734375 36.734375 C4.85582031 37.48203125 4.43429688 38.2296875 4 39 C3.67 39 3.34 39 3 39 C3 37.35 3 35.7 3 34 C3.66 34 4.32 34 5 34 C4.67 32.02 4.34 30.04 4 28 C1.48916886 29.25541557 1.12874554 30.50063488 0 33 C-0.4125 32.2575 -0.825 31.515 -1.25 30.75 C-2.89266462 27.94915692 -2.89266462 27.94915692 -5.1875 25.8125 C-6.0846875 24.9153125 -6.0846875 24.9153125 -7 24 C-7 23.34 -7 22.68 -7 22 C-7.61875 21.896875 -8.2375 21.79375 -8.875 21.6875 C-11 21 -11 21 -13 18 C-13 17.01 -13 16.02 -13 15 C-12.01 14.67 -11.02 14.34 -10 14 C-9.67 13.01 -9.34 12.02 -9 11 C-8.34 11 -7.68 11 -7 11 C-7 9.35 -7 7.7 -7 6 C-5.68 5.34 -4.36 4.68 -3 4 C-3 3.34 -3 2.68 -3 2 C-2.01 1.34 -1.02 0.68 0 0 Z " fill="#222222" transform="translate(75,42)"/>
<path d="M0 0 C1.50224503 4.5067351 1.01805114 9.21289504 0.87304688 13.89257812 C0.79712036 18.61342061 1.49567606 22.47055748 3 27 C3.391875 28.2375 3.78375 29.475 4.1875 30.75 C6.28126286 36.28974756 9.7170416 41.10704282 13 46 C12.98952637 45.34926514 12.97905273 44.69853027 12.96826172 44.02807617 C12.92670165 41.0812567 12.90067392 38.13449889 12.875 35.1875 C12.85824219 34.16333984 12.84148437 33.13917969 12.82421875 32.08398438 C12.81777344 31.10107422 12.81132813 30.11816406 12.8046875 29.10546875 C12.79421387 28.19949951 12.78374023 27.29353027 12.77294922 26.36010742 C13 24 13 24 15 21 C15.02505615 21.74161377 15.0501123 22.48322754 15.07592773 23.24731445 C15.19186132 26.60255328 15.31459985 29.95750944 15.4375 33.3125 C15.47681641 34.47974609 15.51613281 35.64699219 15.55664062 36.84960938 C15.59853516 37.96787109 15.64042969 39.08613281 15.68359375 40.23828125 C15.72025146 41.26993408 15.75690918 42.30158691 15.79467773 43.36450195 C15.90161242 46.10748258 15.90161242 46.10748258 17 49 C11.58461538 53.06153846 11.58461538 53.06153846 8.625 52.75 C8.08875 52.5025 7.5525 52.255 7 52 C7.33 53.32 7.66 54.64 8 56 C7.34 56 6.68 56 6 56 C6 55.34 6 54.68 6 54 C4.02 54 2.04 54 0 54 C0 53.34 0 52.68 0 52 C0.66 52 1.32 52 2 52 C1.67 50.68 1.34 49.36 1 48 C2.485 47.505 2.485 47.505 4 47 C3.67 44.69 3.34 42.38 3 40 C2.34 40 1.68 40 1 40 C0.67 38.68 0.34 37.36 0 36 C0.66 36 1.32 36 2 36 C2 36.99 2 37.98 2 39 C2.66 39 3.32 39 4 39 C4 37.02 4 35.04 4 33 C3.34 33 2.68 33 2 33 C-0.56870808 25.85565958 -1.42172621 19.56668618 -1.25 12 C-1.24484375 11.06027344 -1.2396875 10.12054688 -1.234375 9.15234375 C-1.15562868 2.31125736 -1.15562868 2.31125736 0 0 Z " fill="#343434" transform="translate(72,94)"/>
<path d="M0 0 C0.99 0 1.98 0 3 0 C3.89253189 3.06403451 4.12864529 5.80546097 4.1328125 8.9921875 C4.13474609 10.42111328 4.13474609 10.42111328 4.13671875 11.87890625 C4.13285156 12.86761719 4.12898438 13.85632813 4.125 14.875 C4.13080078 16.34646484 4.13080078 16.34646484 4.13671875 17.84765625 C4.13020276 22.6760025 4.01346034 27.25443174 3 32 C3.66 32 4.32 32 5 32 C5.12117188 31.28972656 5.24234375 30.57945313 5.3671875 29.84765625 C5.53476563 28.92855469 5.70234375 28.00945312 5.875 27.0625 C6.03742188 26.14597656 6.19984375 25.22945312 6.3671875 24.28515625 C6.57601562 23.53105469 6.78484375 22.77695313 7 22 C7.66 21.67 8.32 21.34 9 21 C8.67 24.3 8.34 27.6 8 31 C7.34 31 6.68 31 6 31 C5.90847656 31.68449219 5.81695312 32.36898437 5.72265625 33.07421875 C4.82696359 36.70056363 3.24973718 39.55047308 1.4375 42.8125 C0.9434668 43.7087207 0.9434668 43.7087207 0.43945312 44.62304688 C-0.36773267 46.08533998 -1.18304917 47.5431399 -2 49 C-2.66 49 -3.32 49 -4 49 C-4 49.99 -4 50.98 -4 52 C-2.68 52.33 -1.36 52.66 0 53 C-5.75 56 -5.75 56 -8 56 C-8 54.35 -8 52.7 -8 51 C-9.32 51 -10.64 51 -12 51 C-12.33 40.44 -12.66 29.88 -13 19 C-12.34 18.67 -11.68 18.34 -11 18 C-10.09429581 24.89618858 -9.8777016 31.61208545 -9.9375 38.5625 C-9.94201172 39.57119141 -9.94652344 40.57988281 -9.95117188 41.61914062 C-9.96283231 44.07949147 -9.97919622 46.53971239 -10 49 C-9.401875 47.88625 -8.80375 46.7725 -8.1875 45.625 C-6.62304383 42.71187472 -5.90092502 41.93395001 -3 40 C-1.80595927 38.0667457 -1.80595927 38.0667457 -0.875 35.8125 C-0.54242188 35.07644531 -0.20984375 34.34039062 0.1328125 33.58203125 C2.4808402 26.59083166 2.12125365 19.34343354 2.0625 12.0625 C2.05798828 10.99708984 2.05347656 9.93167969 2.04882812 8.83398438 C2.03711787 6.22259709 2.02071724 3.61132876 2 1 C1.34 0.67 0.68 0.34 0 0 Z " fill="#3A3A3A" transform="translate(105,91)"/>
<path d="M0 0 C0.66 0 1.32 0 2 0 C2 0.66 2 1.32 2 2 C5.153368 2.70074844 7.72724974 3 11 3 C11.33 3.99 11.66 4.98 12 6 C10.02 6.66 8.04 7.32 6 8 C6 9.65 6 11.3 6 13 C6.66 13 7.32 13 8 13 C9.88078239 20.05293397 10.50981156 26.69665293 10 34 C9.505 34.495 9.505 34.495 9 35 C8.855625 36.11375 8.71125 37.2275 8.5625 38.375 C8 42 8 42 6 45 C5.34 45 4.68 45 4 45 C4 34.44 4 23.88 4 13 C1.69 13.33 -0.62 13.66 -3 14 C-2.29875 13.34 -1.5975 12.68 -0.875 12 C1.24517991 9.2912247 1.24517991 9.2912247 0.78515625 6.921875 C0.23815129 4.93406614 -0.37759049 2.96550372 -1 1 C-0.67 0.67 -0.34 0.34 0 0 Z " fill="#0D0D0D" transform="translate(104,78)"/>
<path d="M0 0 C0.33 0 0.66 0 1 0 C1.03738281 0.74765625 1.07476562 1.4953125 1.11328125 2.265625 C1.17902344 3.25046875 1.24476562 4.2353125 1.3125 5.25 C1.39951172 6.71179688 1.39951172 6.71179688 1.48828125 8.203125 C2.05474408 11.29921193 3.11445538 12.55334156 5 15 C5 16.32 5 17.64 5 19 C5.66 19 6.32 19 7 19 C7.33 20.32 7.66 21.64 8 23 C7.34 23 6.68 23 6 23 C6 22.34 6 21.68 6 21 C4.68 20.67 3.36 20.34 2 20 C2.33 21.65 2.66 23.3 3 25 C0.6875 24.375 0.6875 24.375 -2 23 C-3.6875 19.9375 -3.6875 19.9375 -5 17 C-5.66 16.67 -6.32 16.34 -7 16 C-7 15.01 -7 14.02 -7 13 C-7.66 13 -8.32 13 -9 13 C-9 12.34 -9 11.68 -9 11 C-9.66 11 -10.32 11 -11 11 C-11.33 8.69 -11.66 6.38 -12 4 C-9.69 4 -7.38 4 -5 4 C-4.67 4.99 -4.34 5.98 -4 7 C-3.01 7 -2.02 7 -1 7 C-0.67 4.69 -0.34 2.38 0 0 Z " fill="#1F1F1F" transform="translate(44,101)"/>
<path d="M0 0 C0.86625 0.4640625 0.86625 0.4640625 1.75 0.9375 C3.84294184 1.92583364 5.74535275 2.5168613 8 3 C7.67 2.01 7.34 1.02 7 0 C8.32 0 9.64 0 11 0 C11 0.66 11 1.32 11 2 C11.66 2 12.32 2 13 2 C13 2.66 13 3.32 13 4 C18.94 4.99 18.94 4.99 25 6 C25 6.66 25 7.32 25 8 C35.395 7.505 35.395 7.505 46 7 C42.95318939 9.03120707 42.39881676 9.24659875 38.98828125 9.1953125 C38.23095703 9.18886719 37.47363281 9.18242187 36.69335938 9.17578125 C35.51483398 9.15064453 35.51483398 9.15064453 34.3125 9.125 C33.51521484 9.11597656 32.71792969 9.10695312 31.89648438 9.09765625 C29.930861 9.07411585 27.96539225 9.03824547 26 9 C26 9.66 26 10.32 26 11 C33.59 11 41.18 11 49 11 C49 10.34 49 9.68 49 9 C54.28 9 59.56 9 65 9 C65 9.33 65 9.66 65 10 C64.15695313 10.06058594 63.31390625 10.12117187 62.4453125 10.18359375 C61.34960938 10.26738281 60.25390625 10.35117188 59.125 10.4375 C57.48917969 10.55931641 57.48917969 10.55931641 55.8203125 10.68359375 C53.05271029 10.83001703 53.05271029 10.83001703 51 12 C46.67179465 12.24686371 42.33443661 12.18522112 38 12.1875 C36.80503906 12.19974609 35.61007813 12.21199219 34.37890625 12.22460938 C16.75325718 12.25356718 16.75325718 12.25356718 10 7 C8.824375 6.525625 7.64875 6.05125 6.4375 5.5625 C3.06906583 4.03139356 1.83001202 3.12178521 0 0 Z " fill="#1E1E1E" transform="translate(31,144)"/>
<path d="M0 0 C2 1.375 2 1.375 4 3 C4 3.66 4 4.32 4 5 C4.99 5 5.98 5 7 5 C12.66872566 9.42916431 15.29820585 16.21284449 17 23 C17.1015625 25.8359375 17.1015625 25.8359375 17 28 C16.34 28 15.68 28 15 28 C15 27.34 15 26.68 15 26 C14.01 25.67 13.02 25.34 12 25 C11.67 23.35 11.34 21.7 11 20 C10.34 20 9.68 20 9 20 C9 19.01 9 18.02 9 17 C8.34 17 7.68 17 7 17 C6.67386719 16.39671875 6.34773438 15.7934375 6.01171875 15.171875 C5.57472656 14.37265625 5.13773437 13.5734375 4.6875 12.75 C4.25824219 11.96109375 3.82898438 11.1721875 3.38671875 10.359375 C2.04987616 7.96577266 2.04987616 7.96577266 0.3125 5.84375 C-1 4 -1 4 -0.6875 1.75 C-0.460625 1.1725 -0.23375 0.595 0 0 Z " fill="#202020" transform="translate(96,29)"/>
<path d="M0 0 C2.89924116 1.44962058 3.31328874 3.45241526 4.625 6.375 C5.07101563 7.35210937 5.51703125 8.32921875 5.9765625 9.3359375 C7 12 7 12 7 15 C7.66 15 8.32 15 9 15 C13 19.47058824 13 19.47058824 13 22 C13.556875 22.226875 14.11375 22.45375 14.6875 22.6875 C18.96311877 25.11420254 22.13916819 28.43250373 24 33 C20.65626525 32.44271087 17.96687001 31.64826111 15 30 C15 29.34 15 28.68 15 28 C14.12021484 27.61908203 14.12021484 27.61908203 13.22265625 27.23046875 C7.01910581 23.79616578 3.30180521 17.4992147 1 11 C1.66 11 2.32 11 3 11 C3 11.99 3 12.98 3 14 C3.66 13.67 4.32 13.34 5 13 C4.6390625 12.22914062 4.278125 11.45828125 3.90625 10.6640625 C3.4421875 9.66117188 2.978125 8.65828125 2.5 7.625 C1.80390625 6.12839844 1.80390625 6.12839844 1.09375 4.6015625 C0 2 0 2 0 0 Z " fill="#2D2D2D" transform="translate(15,114)"/>
<path d="M0 0 C2.64 0 5.28 0 8 0 C6.68 1.32 5.36 2.64 4 4 C13.57 4 23.14 4 33 4 C33 4.66 33 5.32 33 6 C28.96508072 7.9080365 25.7182668 8.25705252 21.2734375 8.265625 C19.9946875 8.26820313 18.7159375 8.27078125 17.3984375 8.2734375 C16.4079541 8.26715332 16.4079541 8.26715332 15.39746094 8.26074219 C13.37404658 8.24999494 11.35151268 8.26068093 9.328125 8.2734375 C8.05195312 8.27085937 6.77578125 8.26828125 5.4609375 8.265625 C4.29353027 8.26336914 3.12612305 8.26111328 1.92333984 8.25878906 C-1 8 -1 8 -4 6 C-2.35 5.34 -0.7 4.68 1 4 C0.67 2.68 0.34 1.36 0 0 Z " fill="#1D1D1D" transform="translate(100,147)"/>
<path d="M0 0 C0.66 0.33 1.32 0.66 2 1 C1.319375 1.763125 0.63875 2.52625 -0.0625 3.3125 C-1.0215625 4.6428125 -1.0215625 4.6428125 -2 6 C-1.505 7.485 -1.505 7.485 -1 9 C-2.65 9.33 -4.3 9.66 -6 10 C-6 10.66 -6 11.32 -6 12 C-6.7425 12.28875 -7.485 12.5775 -8.25 12.875 C-10.90177273 13.90641946 -10.90177273 13.90641946 -12.94140625 15.03125 C-20.9177011 18.78480052 -32.35020007 17.08937796 -41 17 C-41.33 16.34 -41.66 15.68 -42 15 C-41.26885986 14.97494385 -40.53771973 14.9498877 -39.78442383 14.92407227 C-36.46028583 14.80777359 -33.13640759 14.68520072 -29.8125 14.5625 C-28.66201172 14.52318359 -27.51152344 14.48386719 -26.32617188 14.44335938 C-25.21435547 14.40146484 -24.10253906 14.35957031 -22.95703125 14.31640625 C-21.93585205 14.27974854 -20.91467285 14.24309082 -19.86254883 14.20532227 C-17.16171537 14.01159937 -14.63833872 13.59548047 -12 13 C-12 12.34 -12 11.68 -12 11 C-14.97 11 -17.94 11 -21 11 C-21 10.67 -21 10.34 -21 10 C-19.7625 9.67 -18.525 9.34 -17.25 9 C-16.20585937 8.7215625 -16.20585937 8.7215625 -15.140625 8.4375 C-13 8 -13 8 -9 8 C-9 7.34 -9 6.68 -9 6 C-8.2575 5.7525 -7.515 5.505 -6.75 5.25 C-3.79875938 3.90852699 -2.15185026 2.39094474 0 0 Z " fill="#565656" transform="translate(145,140)"/>
<path d="M0 0 C1.32 0 2.64 0 4 0 C5.78403543 10.24362167 6.25425093 20.01541641 6.125 30.375 C6.11493182 31.8046811 6.10581288 33.23436921 6.09765625 34.6640625 C6.0759886 38.10952479 6.04167943 41.5547146 6 45 C5.34 45 4.68 45 4 45 C4.061875 45.845625 4.12375 46.69125 4.1875 47.5625 C3.95984372 51.73619843 2.79792186 54.25432947 1 58 C-2.3 58 -5.6 58 -9 58 C-9 52.72 -9 47.44 -9 42 C-8.67 42 -8.34 42 -8 42 C-7.67 46.62 -7.34 51.24 -7 56 C-4.36 56 -1.72 56 1 56 C1 53.69 1 51.38 1 49 C1.66 49 2.32 49 3 49 C2.98839844 48.38511719 2.97679687 47.77023438 2.96484375 47.13671875 C2.95582031 46.32847656 2.94679687 45.52023438 2.9375 44.6875 C2.92589844 43.88699219 2.91429687 43.08648437 2.90234375 42.26171875 C3 40 3 40 4 37 C4.09176662 35.57779056 4.13066478 34.15172782 4.1328125 32.7265625 C4.13410156 31.9015625 4.13539063 31.0765625 4.13671875 30.2265625 C4.13285156 29.36804688 4.12898437 28.50953125 4.125 27.625 C4.12886719 26.77421875 4.13273438 25.9234375 4.13671875 25.046875 C4.13020992 20.86820471 3.89771572 17.09273543 3 13 C2.93466565 11.06348981 2.91415697 9.12497139 2.9375 7.1875 C2.94652344 6.21167969 2.95554688 5.23585938 2.96484375 4.23046875 C2.97644531 3.49441406 2.98804688 2.75835937 3 2 C0.03 2.66 -2.94 3.32 -6 4 C-5.67 3.34 -5.34 2.68 -5 2 C-3.35 2 -1.7 2 0 2 C0 1.34 0 0.68 0 0 Z " fill="#8E8E8E" transform="translate(150,43)"/>
<path d="M0 0 C3.83690637 1.56318408 6.39154889 3.7953315 9 7 C9 10.87274628 7.46484668 13.10648433 5 16 C2.03824877 15.38722388 0.61941217 14.74627478 -2 13 C-2.36328125 10.9765625 -2.36328125 10.9765625 -2.3125 8.625 C-2.30863281 7.85414062 -2.30476563 7.08328125 -2.30078125 6.2890625 C-1.97634488 3.81997531 -1.23105029 2.14820728 0 0 Z " fill="#F0F0F0" transform="translate(66,65)"/>
<path d="M0 0 C1.99785435 4.1205746 2.17835515 7.45194365 2 12 C1.01 12.33 0.02 12.66 -1 13 C-1.99 14.485 -1.99 14.485 -3 16 C-5.40928735 15.03628506 -6.76007009 14.34789837 -8.25 12.1875 C-9.20919792 9.38983941 -9.64327991 7.93049736 -9 5 C-6.45602336 2.56894139 -3.6250273 0 0 0 Z " fill="#EBEBEB" transform="translate(114,66)"/>
<path d="M0 0 C0.33 0 0.66 0 1 0 C1.03738281 1.14597656 1.07476562 2.29195313 1.11328125 3.47265625 C1.17898584 5.00263446 1.24543159 6.53258097 1.3125 8.0625 C1.33505859 8.81466797 1.35761719 9.56683594 1.38085938 10.34179688 C1.63042766 15.58273083 2.77253491 19.26071258 5 24 C5.1875 26.9375 5.1875 26.9375 5 29 C5.66 29 6.32 29 7 29 C7 30.98 7 32.96 7 35 C6.34 35 5.68 35 5 35 C5 34.01 5 33.02 5 32 C4.01 32 3.02 32 2 32 C1.87882812 31.40832031 1.75765625 30.81664062 1.6328125 30.20703125 C1.38144531 29.02173828 1.38144531 29.02173828 1.125 27.8125 C0.96257812 27.03519531 0.80015625 26.25789063 0.6328125 25.45703125 C0.07218948 22.9772792 0.07218948 22.9772792 -1.0546875 20.7109375 C-2.32133249 17.07849279 -2.29124091 13.61010026 -2.25 9.8125 C-2.25773437 9.08869141 -2.26546875 8.36488281 -2.2734375 7.61914062 C-2.25347222 2.25347222 -2.25347222 2.25347222 0 0 Z " fill="#060606" transform="translate(69,98)"/>
<path d="M0 0 C0.94875 0.185625 1.8975 0.37125 2.875 0.5625 C5.89868793 1.28686632 5.89868793 1.28686632 8 0 C7.67 2.31 7.34 4.62 7 7 C6.34 7 5.68 7 5 7 C5 8.98 5 10.96 5 13 C4.34 13 3.68 13 3 13 C2.94178065 16.89577024 2.9063297 20.79142802 2.875 24.6875 C2.85824219 25.79029297 2.84148437 26.89308594 2.82421875 28.02929688 C2.81777344 29.09599609 2.81132813 30.16269531 2.8046875 31.26171875 C2.79421387 32.24100342 2.78374023 33.22028809 2.77294922 34.22924805 C3.0149724 37.1827116 3.8373245 39.29402815 5 42 C5.125 44.8125 5.125 44.8125 5 47 C4.67 45.68 4.34 44.36 4 43 C3.34 43 2.68 43 2 43 C-0.92549379 32.21224164 -0.73570938 21.82070764 2 11 C2.66 11 3.32 11 4 11 C4 9.68 4 8.36 4 7 C1.03 6.505 1.03 6.505 -2 6 C-2 5.34 -2 4.68 -2 4 C-2.99 4 -3.98 4 -5 4 C-5 3.34 -5 2.68 -5 2 C-2.525 2.495 -2.525 2.495 0 3 C0 2.01 0 1.02 0 0 Z " fill="#585858" transform="translate(65,79)"/>
<path d="M0 0 C0.66 0 1.32 0 2 0 C2 3.63 2 7.26 2 11 C1.34 11 0.68 11 0 11 C0 17.27 0 23.54 0 30 C0.66 30 1.32 30 2 30 C2 32.31 2 34.62 2 37 C1.01 37.495 1.01 37.495 0 38 C-1.5 36.625 -1.5 36.625 -3 35 C-3 34.34 -3 33.68 -3 33 C-4.65 33 -6.3 33 -8 33 C-8 32.34 -8 31.68 -8 31 C-6.35 30.67 -4.7 30.34 -3 30 C-2.970271 29.06317383 -2.970271 29.06317383 -2.93994141 28.10742188 C-2.84383068 25.23790619 -2.73450513 22.36903453 -2.625 19.5 C-2.57859375 18.02660156 -2.57859375 18.02660156 -2.53125 16.5234375 C-2.29952461 10.73030282 -1.63047777 5.56748508 0 0 Z " fill="#050505" transform="translate(42,71)"/>
<path d="M0 0 C1.06528748 2.73019786 1.07998186 3.79298812 0.00390625 6.578125 C-0.47175781 7.45984375 -0.94742188 8.3415625 -1.4375 9.25 C-2.14712891 10.58804688 -2.14712891 10.58804688 -2.87109375 11.953125 C-3.24363281 12.62859375 -3.61617187 13.3040625 -4 14 C-4.66 14 -5.32 14 -6 14 C-5.79375 15.11375 -5.5875 16.2275 -5.375 17.375 C-5.25125 18.57125 -5.1275 19.7675 -5 21 C-5.66 21.66 -6.32 22.32 -7 23 C-9.4375 21.8125 -9.4375 21.8125 -12 20 C-12.8125 17.3125 -12.8125 17.3125 -13 15 C-12.01 14.67 -11.02 14.34 -10 14 C-9.67 13.01 -9.34 12.02 -9 11 C-8.34 11 -7.68 11 -7 11 C-7 9.35 -7 7.7 -7 6 C-5.68 5.34 -4.36 4.68 -3 4 C-3 3.34 -3 2.68 -3 2 C-2.01 1.34 -1.02 0.68 0 0 Z " fill="#060606" transform="translate(75,42)"/>
<path d="M0 0 C5.45479185 0.56820748 9.91059256 1.94637945 15 4 C15 4.33 15 4.66 15 5 C12.69 4.67 10.38 4.34 8 4 C8.33 4.99 8.66 5.98 9 7 C7.35 6.67 5.7 6.34 4 6 C4.020625 7.27875 4.04125 8.5575 4.0625 9.875 C4.125 13.75 4.125 13.75 3 16 C2.7677354 18.71262116 2.58063765 21.40773126 2.4375 24.125 C2.39431641 24.87910156 2.35113281 25.63320312 2.30664062 26.41015625 C2.2005168 28.27321888 2.09974999 30.13658524 2 32 C1.67 32 1.34 32 1 32 C1 25.73 1 19.46 1 13 C1.66 13 2.32 13 3 13 C3 9.37 3 5.74 3 2 C2.34 2 1.68 2 1 2 C1.020625 2.94875 1.04125 3.8975 1.0625 4.875 C1 8 1 8 0 10 C-0.15222973 11.66565749 -0.24917215 13.33656496 -0.31640625 15.0078125 C-0.35830078 15.99394531 -0.40019531 16.98007813 -0.44335938 17.99609375 C-0.48267578 19.02863281 -0.52199219 20.06117187 -0.5625 21.125 C-0.60568359 22.16527344 -0.64886719 23.20554687 -0.69335938 24.27734375 C-0.7996288 26.85142528 -0.90166583 29.42560508 -1 32 C-1.33 32 -1.66 32 -2 32 C-2 23.75 -2 15.5 -2 7 C-1.34 7 -0.68 7 0 7 C0 4.69 0 2.38 0 0 Z " fill="#3A3A3A" transform="translate(41,69)"/>
<path d="M0 0 C0.66 0.33 1.32 0.66 2 1 C0.84826645 3.46800047 -0.04783565 5.04783565 -2 7 C-1.34 7.66 -0.68 8.32 0 9 C-0.47050781 9.56847656 -0.94101563 10.13695313 -1.42578125 10.72265625 C-5.13807403 15.32651418 -7.98623447 19.43253059 -10 25 C-10.33 25 -10.66 25 -11 25 C-11 23.35 -11 21.7 -11 20 C-12.65 20 -14.3 20 -16 20 C-15.505 18.515 -15.505 18.515 -15 17 C-14.34 17 -13.68 17 -13 17 C-12.505 16.175 -12.01 15.35 -11.5 14.5 C-11.005 13.675 -10.51 12.85 -10 12 C-9.34 12 -8.68 12 -8 12 C-7.95875 11.443125 -7.9175 10.88625 -7.875 10.3125 C-6.56257493 6.84394802 -3.83260329 5.30149018 -1 3 C-0.67 2.01 -0.34 1.02 0 0 Z " fill="#222222" transform="translate(104,84)"/>
<path d="M0 0 C1.32 0 2.64 0 4 0 C4 3.3 4 6.6 4 10 C4.66 10 5.32 10 6 10 C6 16.6 6 23.2 6 30 C5.34 30.33 4.68 30.66 4 31 C3.86722656 29.78441406 3.73445312 28.56882812 3.59765625 27.31640625 C3.41949909 25.73174516 3.24110125 24.1471111 3.0625 22.5625 C2.97548828 21.76005859 2.88847656 20.95761719 2.79882812 20.13085938 C2.69451606 16.24423336 2.69451606 16.24423336 1 13 C0.92820036 11.48071962 0.91607993 9.95832518 0.9375 8.4375 C0.94652344 7.61121094 0.95554688 6.78492187 0.96484375 5.93359375 C0.97644531 5.29550781 0.98804688 4.65742187 1 4 C-0.65 4 -2.3 4 -4 4 C-3.67 3.34 -3.34 2.68 -3 2 C-2.01 2 -1.02 2 0 2 C0 1.34 0 0.68 0 0 Z " fill="#0B0B0B" transform="translate(134,70)"/>
<path d="M0 0 C2.31 0 4.62 0 7 0 C6.11461227 7.30444877 2.15730877 12.1071686 -3 17 C-3.556875 17.763125 -4.11375 18.52625 -4.6875 19.3125 C-5.120625 19.869375 -5.55375 20.42625 -6 21 C-6.66 21 -7.32 21 -8 21 C-7.73445312 20.34644531 -7.46890625 19.69289063 -7.1953125 19.01953125 C-5.70697928 15.25978753 -4.2899438 11.47535194 -2.875 7.6875 C-2.59785156 6.94693359 -2.32070312 6.20636719 -2.03515625 5.44335938 C-1.35626973 3.62909368 -0.67806589 1.81457256 0 0 Z " fill="#EAEAEA" transform="translate(141,105)"/>
<path d="M0 0 C0.33 0 0.66 0 1 0 C1 3.63 1 7.26 1 11 C1.99 11.33 2.98 11.66 4 12 C3.67 12.99 3.34 13.98 3 15 C0.36 14.34 -2.28 13.68 -5 13 C-5 12.34 -5 11.68 -5 11 C-5.763125 10.896875 -6.52625 10.79375 -7.3125 10.6875 C-10.18416484 9.95288806 -11.23042094 9.3283935 -13 7 C-13 6.34 -13 5.68 -13 5 C-9.37 5.33 -5.74 5.66 -2 6 C-1.34 4.02 -0.68 2.04 0 0 Z " fill="#161616" transform="translate(62,68)"/>
<path d="M0 0 C2.31 0 4.62 0 7 0 C8.47948223 3.51617206 9.60096726 6.99742933 10.5625 10.6875 C11.52171208 14.44195031 11.52171208 14.44195031 13 18 C9.63704165 16.55873214 7.37072898 14.79407345 5 12 C5 11.01 5 10.02 5 9 C4.34 9 3.68 9 3 9 C3 8.34 3 7.68 3 7 C2.34 7 1.68 7 1 7 C0.67 4.69 0.34 2.38 0 0 Z " fill="#DDDDDD" transform="translate(32,105)"/>
<path d="M0 0 C1.50224503 4.5067351 1.01805114 9.21289504 0.87304688 13.89257812 C0.79711729 18.61361172 1.48552903 22.47293031 3 27 C3.24621094 27.74507812 3.49242188 28.49015625 3.74609375 29.2578125 C4.89039629 32.34807587 6.02709603 35.04451491 7.75 37.875 C8.36875 38.926875 8.36875 38.926875 9 40 C8.67 40.66 8.34 41.32 8 42 C7.01 41.34 6.02 40.68 5 40 C5.45848368 44.1263531 5.84889402 46.25990785 9 49 C9 49.66 9 50.32 9 51 C5.62537285 50.45276317 3.91765 49.9451 1 48 C2.485 47.505 2.485 47.505 4 47 C3.67 44.69 3.34 42.38 3 40 C2.34 40 1.68 40 1 40 C0.67 38.68 0.34 37.36 0 36 C0.66 36 1.32 36 2 36 C2 36.99 2 37.98 2 39 C2.66 39 3.32 39 4 39 C4 37.02 4 35.04 4 33 C3.34 33 2.68 33 2 33 C-0.56870808 25.85565958 -1.42172621 19.56668618 -1.25 12 C-1.24484375 11.06027344 -1.2396875 10.12054688 -1.234375 9.15234375 C-1.15562868 2.31125736 -1.15562868 2.31125736 0 0 Z " fill="#676767" transform="translate(72,94)"/>
<path d="M0 0 C0.33 0 0.66 0 1 0 C1.82222554 4.29605732 2.11770795 8.33966603 2.09765625 12.7109375 C2.09443359 13.95488281 2.09121094 15.19882813 2.08789062 16.48046875 C2.07951172 17.76566406 2.07113281 19.05085938 2.0625 20.375 C2.05798828 21.68339844 2.05347656 22.99179688 2.04882812 24.33984375 C2.03707594 27.55994281 2.02064543 30.7799477 2 34 C0.68 34 -0.64 34 -2 34 C-1.88127168 29.96132839 -1.75699341 25.92286858 -1.62768555 21.88452148 C-1.5845116 20.51217224 -1.54282499 19.13977533 -1.50268555 17.76733398 C-1.44455608 15.78877932 -1.3805429 13.8104003 -1.31640625 11.83203125 C-1.27974854 10.64327393 -1.24309082 9.4545166 -1.20532227 8.22973633 C-1.02453589 5.38595153 -0.64190592 2.77093195 0 0 Z " fill="#070707" transform="translate(157,56)"/>
<path d="M0 0 C0.99053728 2.97161185 1 4.91471992 1 8 C1.29044914 9.34332728 1.60955794 10.68225804 2 12 C1.67 11.34 1.34 10.68 1 10 C-1.1385485 12.1385485 -1.42655063 13.13275314 -2 16 C-6 9.25 -6 9.25 -6 7 C-6.66 7 -7.32 7 -8 7 C-8.33 5.02 -8.66 3.04 -9 1 C-5.8035914 -0.06546953 -3.34252724 -0.07427838 0 0 Z " fill="#252525" transform="translate(105,68)"/>
<path d="M0 0 C4.50344225 3.65985796 8.60528518 7.26797328 12 12 C12 13.32 12 14.64 12 16 C8.56819484 15.71251894 7.26227106 15.27219482 4.83203125 12.75 C4.16558594 11.8425 3.49914062 10.935 2.8125 10 C0.37517066 6.44819222 0.37517066 6.44819222 -3 4 C-3 3.34 -3 2.68 -3 2 C-2.01 1.34 -1.02 0.68 0 0 Z " fill="#191919" transform="translate(76,87)"/>
<path d="M0 0 C0.33 0.66 0.66 1.32 1 2 C0.13804887 4.5387844 -0.78327991 6.96783645 -1.8125 9.4375 C-2.08642578 10.11876953 -2.36035156 10.80003906 -2.64257812 11.50195312 C-3.89162326 14.56016676 -5.16186918 17.24280376 -7 20 C-6.34 20.33 -5.68 20.66 -5 21 C-6.32 21.33 -7.64 21.66 -9 22 C-8.67 20.02 -8.34 18.04 -8 16 C-8.66 16 -9.32 16 -10 16 C-10 16.66 -10 17.32 -10 18 C-10.66 17.67 -11.32 17.34 -12 17 C-11.505 15.515 -11.505 15.515 -11 14 C-10.34 14 -9.68 14 -9 14 C-8.87625 13.4225 -8.7525 12.845 -8.625 12.25 C-7.99351176 9.97664233 -7.11141809 8.0746471 -6 6 C-5.34 6.33 -4.68 6.66 -4 7 C-3.67 6.01 -3.34 5.02 -3 4 C-2.34 4 -1.68 4 -1 4 C-0.67 2.68 -0.34 1.36 0 0 Z " fill="#393939" transform="translate(140,106)"/>
<path d="M0 0 C1.32 0 2.64 0 4 0 C4 0.66 4 1.32 4 2 C5.32 2.66 6.64 3.32 8 4 C6.68 4 5.36 4 4 4 C4 4.66 4 5.32 4 6 C3.08476562 6.27714844 2.16953125 6.55429687 1.2265625 6.83984375 C-0.55621094 7.38318359 -0.55621094 7.38318359 -2.375 7.9375 C-3.55835938 8.29714844 -4.74171875 8.65679687 -5.9609375 9.02734375 C-8.87926818 9.87576274 -8.87926818 9.87576274 -11 11 C-11 7 -11 7 -8.3125 4.25 C-5.99529969 2.45017933 -5.1386747 2.01507334 -2.125 1.6875 C-1.073125 1.8421875 -1.073125 1.8421875 0 2 C0 1.34 0 0.68 0 0 Z " fill="#212121" transform="translate(146,39)"/>
<path d="M0 0 C0 0.66 0 1.32 0 2 C-2.31 2.33 -4.62 2.66 -7 3 C-7.33 3.99 -7.66 4.98 -8 6 C-4.04 6.33 -0.08 6.66 4 7 C4 7.66 4 8.32 4 9 C1.2291017 9.02696009 -1.5415345 9.04681952 -4.3125 9.0625 C-5.49102539 9.07506836 -5.49102539 9.07506836 -6.69335938 9.08789062 C-7.45068359 9.09111328 -8.20800781 9.09433594 -8.98828125 9.09765625 C-10.03302612 9.10551147 -10.03302612 9.10551147 -11.09887695 9.11352539 C-13 9 -13 9 -16 8 C-15.67 7.01 -15.34 6.02 -15 5 C-14.01 5 -13.02 5 -12 5 C-12 4.34 -12 3.68 -12 3 C-10.3789897 2.30314502 -8.75303934 1.61777139 -7.125 0.9375 C-6.22007813 0.55464844 -5.31515625 0.17179688 -4.3828125 -0.22265625 C-2 -1 -2 -1 0 0 Z " fill="#BDBDBD" transform="translate(120,143)"/>
<path d="M0 0 C0.33 0.66 0.66 1.32 1 2 C0.01 3.3303125 0.01 3.3303125 -1 4.6875 C-3.22074618 7.72070224 -3.22074618 7.72070224 -3 10.5625 C-3 14.04902435 -4.71605837 15.50193884 -7 18 C-7.33 17.34 -7.66 16.68 -8 16 C-8.99 16.33 -9.98 16.66 -11 17 C-11 17.66 -11 18.32 -11 19 C-11.99 19.33 -12.98 19.66 -14 20 C-12.69248561 16.33509512 -11.12195206 13.59072086 -8.6875 10.5625 C-8.07132812 9.79164062 -7.45515625 9.02078125 -6.8203125 8.2265625 C-4.56510732 5.46804973 -2.30155647 2.72002129 0 0 Z " fill="#262626" transform="translate(83,27)"/>
<path d="M0 0 C1.32 0 2.64 0 4 0 C6.140625 2.1875 6.140625 2.1875 8.25 5 C8.95640625 5.928125 9.6628125 6.85625 10.390625 7.8125 C10.92171875 8.534375 11.4528125 9.25625 12 10 C14.16874252 9.49396008 15.99967627 9.00016187 18 8 C17.3125 9.9375 17.3125 9.9375 16 12 C12.67000827 13.07999732 9.48044019 13.09944115 6 13 C5.34 11.68 4.68 10.36 4 9 C4.99 9.33 5.98 9.66 7 10 C7 10.66 7 11.32 7 12 C7.66 11.34 8.32 10.68 9 10 C8.34 9.67 7.68 9.34 7 9 C5.9590934 7.35857037 4.95495674 5.69287785 4 4 C2.02 4.33 0.04 4.66 -2 5 C-2.33 5.99 -2.66 6.98 -3 8 C-3.66 8 -4.32 8 -5 8 C-3.62901008 5.04709864 -2.22467373 2.39580248 0 0 Z " fill="#3F3F3F" transform="translate(88,56)"/>
<path d="M0 0 C0.33 0 0.66 0 1 0 C1.90570419 6.89618858 2.1222984 13.61208545 2.0625 20.5625 C2.05798828 21.57119141 2.05347656 22.57988281 2.04882812 23.61914062 C2.03716769 26.07949147 2.02080378 28.53971239 2 31 C3.32 28.69 4.64 26.38 6 24 C6.66 24.33 7.32 24.66 8 25 C6.83242263 28.32310483 5.85051143 30.83361132 3 33 C2.01 33 1.02 33 0 33 C-0.16725986 28.46122739 -0.32785453 23.92228756 -0.48217773 19.38305664 C-0.5356662 17.8377441 -0.59100068 16.29249433 -0.64819336 14.74731445 C-0.72991433 12.53089949 -0.8050717 10.31434616 -0.87890625 8.09765625 C-0.90594131 7.4028566 -0.93297638 6.70805695 -0.96083069 5.99220276 C-1.01301108 4.32890224 -1.01185107 2.66407661 -1 1 C-0.67 0.67 -0.34 0.34 0 0 Z " fill="#5D5D5D" transform="translate(93,109)"/>
<path d="M0 0 C4.4609303 1.40200667 6.84677303 3.59783406 10 7 C10.598125 7.556875 11.19625 8.11375 11.8125 8.6875 C13 10 13 10 13 12 C9.65626525 11.44271087 6.96687001 10.64826111 4 9 C4 8.34 4 7.68 4 7 C3.360625 6.7525 2.72125 6.505 2.0625 6.25 C0 5 0 5 -0.8125 2.9375 C-0.874375 2.298125 -0.93625 1.65875 -1 1 C-0.67 0.67 -0.34 0.34 0 0 Z " fill="#1B1B1B" transform="translate(26,135)"/>
<path d="M0 0 C1.32 0.33 2.64 0.66 4 1 C3.01 1.495 3.01 1.495 2 2 C2 2.66 2 3.32 2 4 C2.66 4.33 3.32 4.66 4 5 C2.37660195 6.70884005 0.70680947 8.37446717 -1 10 C-1.66 10 -2.32 10 -3 10 C-3 10.66 -3 11.32 -3 12 C-4.98 12.99 -4.98 12.99 -7 14 C-7.66 13.34 -8.32 12.68 -9 12 C-6.03 8.04 -3.06 4.08 0 0 Z " fill="#202020" transform="translate(151,134)"/>
<path d="M0 0 C1.134375 0.020625 2.26875 0.04125 3.4375 0.0625 C3.4375 0.7225 3.4375 1.3825 3.4375 2.0625 C-0.23114051 3.74408146 -3.05666047 4.30278871 -7.08203125 4.2578125 C-8.6144043 4.24814453 -8.6144043 4.24814453 -10.17773438 4.23828125 C-11.23283203 4.22152344 -12.28792969 4.20476562 -13.375 4.1875 C-14.44943359 4.17847656 -15.52386719 4.16945312 -16.63085938 4.16015625 C-19.27496854 4.13665306 -21.91861872 4.10379575 -24.5625 4.0625 C-24.8925 3.4025 -25.2225 2.7425 -25.5625 2.0625 C-24.93158447 2.03744385 -24.30066895 2.0123877 -23.65063477 1.98657227 C-20.80853175 1.87095863 -17.96678917 1.74807684 -15.125 1.625 C-14.13177734 1.58568359 -13.13855469 1.54636719 -12.11523438 1.50585938 C-11.17099609 1.46396484 -10.22675781 1.42207031 -9.25390625 1.37890625 C-8.37935791 1.34224854 -7.50480957 1.30559082 -6.60375977 1.26782227 C-3.39941077 0.94550944 -3.83581376 0.06729498 0 0 Z " fill="#050505" transform="translate(129.5625,150.9375)"/>
<path d="M0 0 C1.76462683 3.08809695 2 4.23312136 2 8 C2.66 8 3.32 8 4 8 C5.29243536 12.1196377 6.26252625 15.66831683 6 20 C4.68 20.33 3.36 20.66 2 21 C0.27669093 13.90673679 -0.2494783 7.29031024 0 0 Z " fill="#151515" transform="translate(22,80)"/>
<path d="M0 0 C0.33 0 0.66 0 1 0 C2.0746161 6.97647592 2.14917328 13.82446118 2.125 20.875 C2.12886719 21.99519531 2.13273438 23.11539063 2.13671875 24.26953125 C2.11590563 42.1063724 2.11590563 42.1063724 -1 50 C-1.33 50 -1.66 50 -2 50 C-2 47.36 -2 44.72 -2 42 C-1.34 42 -0.68 42 0 42 C0 28.14 0 14.28 0 0 Z " fill="#868686" transform="translate(159,48)"/>
<path d="M0 0 C0.66 0 1.32 0 2 0 C2.66 0.99 3.32 1.98 4 3 C4.99 3.66 5.98 4.32 7 5 C6.34 5 5.68 5 5 5 C4.06380187 8.15506142 3.8942877 10.96586502 3.9375 14.25 C3.95103516 15.58804688 3.95103516 15.58804688 3.96484375 16.953125 C3.97644531 17.62859375 3.98804687 18.3040625 4 19 C3.34 19 2.68 19 2 19 C1.67 15.7 1.34 12.4 1 9 C0.34 10.65 -0.32 12.3 -1 14 C-1.66 14 -2.32 14 -3 14 C-2.01 9.38 -1.02 4.76 0 0 Z " fill="#3D3D3D" transform="translate(61,60)"/>
<path d="M0 0 C2.19836839 7.2446231 0.29016379 14.41967242 -3 21 C-6.3 21 -9.6 21 -13 21 C-13 15.72 -13 10.44 -13 5 C-12.67 5 -12.34 5 -12 5 C-11.67 9.62 -11.34 14.24 -11 19 C-8.36 19 -5.72 19 -3 19 C-3 16.69 -3 14.38 -3 12 C-2.34 12 -1.68 12 -1 12 C-1.01160156 11.38511719 -1.02320313 10.77023438 -1.03515625 10.13671875 C-1.04417969 9.32847656 -1.05320313 8.52023438 -1.0625 7.6875 C-1.07410156 6.88699219 -1.08570313 6.08648437 -1.09765625 5.26171875 C-1 3 -1 3 0 0 Z " fill="#B6B6B6" transform="translate(154,80)"/>
<path d="M0 0 C0.33 3.63 0.66 7.26 1 11 C0.34 11 -0.32 11 -1 11 C-1 7.7 -1 4.4 -1 1 C-2.32 1 -3.64 1 -5 1 C-5 1.66 -5 2.32 -5 3 C-5.99 3.33 -6.98 3.66 -8 4 C-6.68 4.66 -5.36 5.32 -4 6 C-8.455 7.485 -8.455 7.485 -13 9 C-12.67 8.01 -12.34 7.02 -12 6 C-12.99 5.34 -13.98 4.68 -15 4 C-9.77228537 0.95842058 -6.07328688 -0.50610724 0 0 Z " fill="#424242" transform="translate(139,69)"/>
<path d="M0 0 C1.32 0.66 2.64 1.32 4 2 C4 2.66 4 3.32 4 4 C6.31 4.66 8.62 5.32 11 6 C11 6.66 11 7.32 11 8 C10.071875 8.12375 10.071875 8.12375 9.125 8.25 C6.81562433 8.81258459 6.81562433 8.81258459 5.75 11.0625 C5.5025 11.701875 5.255 12.34125 5 13 C4.5875 12.278125 4.175 11.55625 3.75 10.8125 C2.01263197 8.02030138 0.09618143 5.52987415 -2 3 C-1.34 2.01 -0.68 1.02 0 0 Z " fill="#222222" transform="translate(70,62)"/>
<path d="M0 0 C1.06528748 2.73019786 1.07998186 3.79298812 0.00390625 6.578125 C-0.47175781 7.45984375 -0.94742188 8.3415625 -1.4375 9.25 C-1.91058594 10.14203125 -2.38367188 11.0340625 -2.87109375 11.953125 C-3.24363281 12.62859375 -3.61617188 13.3040625 -4 14 C-4.66 14 -5.32 14 -6 14 C-7.35439668 11.29120665 -7.06501451 8.99066732 -7 6 C-5.68 5.34 -4.36 4.68 -3 4 C-3 3.34 -3 2.68 -3 2 C-2.01 1.34 -1.02 0.68 0 0 Z " fill="#161616" transform="translate(75,42)"/>
<path d="M0 0 C2.33944736 0.28730055 4.6739143 0.61936779 7 1 C7 1.66 7 2.32 7 3 C5.02 3.33 3.04 3.66 1 4 C1 6.97 1 9.94 1 13 C0.34 13 -0.32 13 -1 13 C-1 16.63 -1 20.26 -1 24 C-1.33 24 -1.66 24 -2 24 C-2.19193154 7.62184189 -2.19193154 7.62184189 -1 1 C-0.67 0.67 -0.34 0.34 0 0 Z " fill="#030303" transform="translate(24,39)"/>
<path d="M0 0 C0.66 0.33 1.32 0.66 2 1 C0.02 1.99 0.02 1.99 -2 3 C-1.67 3.99 -1.34 4.98 -1 6 C1.31 5.34 3.62 4.68 6 4 C4.6032879 6.7934242 3.00586915 6.96442959 0.125 8.0625 C-0.75929687 8.40410156 -1.64359375 8.74570312 -2.5546875 9.09765625 C-4.35847791 9.7632722 -6.1759841 10.3919947 -8 11 C-8 8.69 -8 6.38 -8 4 C-7.01 4 -6.02 4 -5 4 C-5 3.34 -5 2.68 -5 2 C-2.625 0.9375 -2.625 0.9375 0 0 Z " fill="#414141" transform="translate(137,43)"/>
<path d="M0 0 C5.28 0 10.56 0 16 0 C16 0.33 16 0.66 16 1 C15.15695313 1.06058594 14.31390625 1.12117187 13.4453125 1.18359375 C12.34960938 1.26738281 11.25390625 1.35117188 10.125 1.4375 C9.03445312 1.51871094 7.94390625 1.59992188 6.8203125 1.68359375 C4.05271029 1.83001703 4.05271029 1.83001703 2 3 C-0.03232634 3.08527628 -2.06747006 3.10716135 -4.1015625 3.09765625 C-5.31328125 3.09443359 -6.525 3.09121094 -7.7734375 3.08789062 C-9.04445313 3.07951172 -10.31546875 3.07113281 -11.625 3.0625 C-12.90375 3.05798828 -14.1825 3.05347656 -15.5 3.04882812 C-18.66671292 3.03701203 -21.83333356 3.02053815 -25 3 C-25 2.67 -25 2.34 -25 2 C-16.75 2 -8.5 2 0 2 C0 1.34 0 0.68 0 0 Z " fill="#686868" transform="translate(80,153)"/>
<path d="M0 0 C4.6875 0.78125 4.6875 0.78125 9.375 1.5625 C10.674375 1.7790625 10.674375 1.7790625 12 2 C12 3.65 12 5.3 12 7 C10.68 7 9.36 7 8 7 C7.67 6.34 7.34 5.68 7 5 C4.6859378 4.26924352 2.35171131 3.59861742 0 3 C0 2.01 0 1.02 0 0 Z " fill="#060606" transform="translate(160,102)"/>
<path d="M0 0 C2.475 0.99 2.475 0.99 5 2 C4.67 3.65 4.34 5.3 4 7 C3.34 7 2.68 7 2 7 C2 8.98 2 10.96 2 13 C1.34 13 0.68 13 0 13 C-0.33 13.66 -0.66 14.32 -1 15 C-1 14.01 -1 13.02 -1 12 C-0.34 12 0.32 12 1 12 C1 10.02 1 8.04 1 6 C-0.98 6.99 -0.98 6.99 -3 8 C-2.67 6.35 -2.34 4.7 -2 3 C-1.34 3 -0.68 3 0 3 C0 2.01 0 1.02 0 0 Z " fill="#434343" transform="translate(167,107)"/>
<path d="M0 0 C3.12259437 3.12259437 3.14293342 6.71466712 4 11 C0.7 11 -2.6 11 -6 11 C-4.7934375 9.948125 -4.7934375 9.948125 -3.5625 8.875 C-0.76566189 5.73708407 -0.28691249 4.11241237 0 0 Z " fill="#E7E7E7" transform="translate(20,90)"/>
<path d="M0 0 C1.65 0.33 3.3 0.66 5 1 C5 1.66 5 2.32 5 3 C6.98 3 8.96 3 11 3 C11 3.99 11 4.98 11 6 C6.37540756 7.17700048 1.92133538 7.11408412 -2.8125 7.0625 C-3.99489258 7.05573242 -3.99489258 7.05573242 -5.20117188 7.04882812 C-7.13414761 7.03711312 -9.06708393 7.01917998 -11 7 C-11 6.67 -11 6.34 -11 6 C-6.05 5.67 -1.1 5.34 4 5 C4 4.01 4 3.02 4 2 C2.68 2 1.36 2 0 2 C0 1.34 0 0.68 0 0 Z " fill="#949494" transform="translate(67,145)"/>
<path d="M0 0 C0.66 0.33 1.32 0.66 2 1 C1.40716379 4.39192363 0.23256811 6.2107757 -2.0625 8.75 C-2.61035156 9.36359375 -3.15820312 9.9771875 -3.72265625 10.609375 C-4.14417969 11.06828125 -4.56570312 11.5271875 -5 12 C-5.66 10.68 -6.32 9.36 -7 8 C-4.79020692 5.18060883 -2.59937954 2.46941056 0 0 Z " fill="#111111" transform="translate(86,26)"/>
<path d="M0 0 C0.66 0.33 1.32 0.66 2 1 C2 2.65 2 4.3 2 6 C2.66 6 3.32 6 4 6 C4 7.98 4 9.96 4 12 C3.34 12 2.68 12 2 12 C2 11.01 2 10.02 2 9 C1.01 9 0.02 9 -1 9 C-1.625 6.1875 -1.625 6.1875 -2 3 C-1.34 2.01 -0.68 1.02 0 0 Z " fill="#151515" transform="translate(72,121)"/>
<path d="M0 0 C4.15467129 -0.19324053 7.3382625 -0.09242143 11 2 C11.8125 4.125 11.8125 4.125 12 6 C7.15340923 5.40895235 3.39251833 4.02055843 -1 2 C-0.67 1.34 -0.34 0.68 0 0 Z " fill="#080808" transform="translate(32,42)"/>
<path d="M0 0 C2 1 2 1 2 1 Z M-2 1 C-1.34 1.33 -0.68 1.66 0 2 C-0.1875 3.8125 -0.1875 3.8125 -1 6 C-4.37287736 8.62334906 -6.75651873 9.36372697 -11 9 C-6.375 4.125 -6.375 4.125 -3 3 C-2.67 2.34 -2.34 1.68 -2 1 Z " fill="#060606" transform="translate(130,48)"/>
<path d="M0 0 C0.33 0.66 0.66 1.32 1 2 C2.32 1.67 3.64 1.34 5 1 C5 3 5 3 2.6875 5.375 C1.800625 6.24125 0.91375 7.1075 0 8 C-0.556875 8.763125 -1.11375 9.52625 -1.6875 10.3125 C-2.3371875 11.1478125 -2.3371875 11.1478125 -3 12 C-3.66 12 -4.32 12 -5 12 C-3.41037341 7.96479403 -1.71767682 3.98188718 0 0 Z " fill="#BABABA" transform="translate(138,114)"/>
<path d="M0 0 C2 1.375 2 1.375 4 3 C4 3.66 4 4.32 4 5 C4.99 5 5.98 5 7 5 C7 5.99 7 6.98 7 8 C5.68 8.33 4.36 8.66 3 9 C0.9375 6.75 0.9375 6.75 -1 4 C-0.75 1.6875 -0.75 1.6875 0 0 Z " fill="#111111" transform="translate(96,29)"/>
<path d="M0 0 C0.86625 0.4640625 0.86625 0.4640625 1.75 0.9375 C3.89953007 1.95255587 5.64354368 2.69594112 8 3 C8.99 2.34 9.98 1.68 11 1 C10.3125 2.9375 10.3125 2.9375 9 5 C5.67000827 6.07999732 2.48044019 6.09944115 -1 6 C-1.66 4.68 -2.32 3.36 -3 2 C-2.01 2.33 -1.02 2.66 0 3 C0 3.66 0 4.32 0 5 C0.66 4.34 1.32 3.68 2 3 C1.34 2.67 0.68 2.34 0 2 C0 1.34 0 0.68 0 0 Z " fill="#4D4D4D" transform="translate(95,63)"/>
<path d="M0 0 C2.96175123 0.61277612 4.38058783 1.25372522 7 3 C7 4.32 7 5.64 7 7 C4.625 6.6875 4.625 6.6875 2 6 C0 3 0 3 0 0 Z " fill="#121212" transform="translate(81,96)"/>
<path d="M0 0 C3.96 0 7.92 0 12 0 C12 0.66 12 1.32 12 2 C13.98 2 15.96 2 18 2 C17.67 3.65 17.34 5.3 17 7 C16.67 5.68 16.34 4.36 16 3 C15.21625 3.04125 14.4325 3.0825 13.625 3.125 C8.9473956 2.9637033 4.55916568 2.00914339 0 1 C0 0.67 0 0.34 0 0 Z " fill="#6C6C6C" transform="translate(156,101)"/>
<path d="M0 0 C1.65 0.33 3.3 0.66 5 1 C5 2.65 5 4.3 5 6 C2 6 2 6 -1 5 C-0.67 3.35 -0.34 1.7 0 0 Z " fill="#202020" transform="translate(88,20)"/>
<path d="M0 0 C0.33 0.66 0.66 1.32 1 2 C-0.4375 4.625 -0.4375 4.625 -2 7 C-1.34 7.33 -0.68 7.66 0 8 C-1.28965176 9.37562854 -2.62689293 10.70766393 -4 12 C-4.66 12 -5.32 12 -6 12 C-6.33 13.32 -6.66 14.64 -7 16 C-7.33 15.01 -7.66 14.02 -8 13 C-7.67 12.34 -7.34 11.68 -7 11 C-6.34 11 -5.68 11 -5 11 C-4.731875 9.9275 -4.46375 8.855 -4.1875 7.75 C-3.13772173 4.43491072 -2.25387672 2.56122354 0 0 Z " fill="#B9B9B9" transform="translate(76,45)"/>
<path d="M0 0 C-0.33 1.32 -0.66 2.64 -1 4 C-2.65 4.33 -4.3 4.66 -6 5 C-5.01 4.67 -4.02 4.34 -3 4 C-3 3.34 -3 2.68 -3 2 C-5.97 2 -8.94 2 -12 2 C-12 1.67 -12 1.34 -12 1 C-3.96428571 -1.27678571 -3.96428571 -1.27678571 0 0 Z " fill="#393939" transform="translate(136,149)"/>
<path d="M0 0 C2 1.3125 2 1.3125 4 3 C4 3.99 4 4.98 4 6 C4.99 6.33 5.98 6.66 7 7 C6.67 7.66 6.34 8.32 6 9 C4 9 4 9 2.375 7.625 C1 6 1 6 1 4 C0.01 4 -0.98 4 -2 4 C-2 3.34 -2 2.68 -2 2 C-1.34 2 -0.68 2 0 2 C0 1.34 0 0.68 0 0 Z " fill="#030303" transform="translate(91,59)"/>
<path d="M0 0 C2.66666667 1.33333333 5.33333333 2.66666667 8 4 C8 4.66 8 5.32 8 6 C4.08597051 4.73058503 2.20927127 3.48832306 0 0 Z M7 0 C8.32 0 9.64 0 11 0 C11 0.66 11 1.32 11 2 C11.66 2.33 12.32 2.66 13 3 C11.35 3 9.7 3 8 3 C7.67 2.01 7.34 1.02 7 0 Z " fill="#565656" transform="translate(31,144)"/>
<path d="M0 0 C2.31 0 4.62 0 7 0 C7.33 1.65 7.66 3.3 8 5 C7.67 4.01 7.34 3.02 7 2 C5.35 2 3.7 2 2 2 C2.33 3.65 2.66 5.3 3 7 C2.34 7 1.68 7 1 7 C0.67 4.69 0.34 2.38 0 0 Z " fill="#8F8F8F" transform="translate(32,105)"/>
<path d="M0 0 C2.7856426 1.3928213 3.52376361 3.30426398 5 6 C5.33 6.99 5.66 7.98 6 9 C2.62537285 8.45276317 0.91765 7.9451 -2 6 C-1.01 5.67 -0.02 5.34 1 5 C0.67 3.35 0.34 1.7 0 0 Z " fill="#AEAEAE" transform="translate(75,136)"/>
<path d="M0 0 C1.27351308 2.54702616 0.80191925 3.4282945 0.0625 6.125 C-0.13214844 6.84945312 -0.32679688 7.57390625 -0.52734375 8.3203125 C-0.68332031 8.87460938 -0.83929688 9.42890625 -1 10 C-1.66 10 -2.32 10 -3 10 C-3.33 8.35 -3.66 6.7 -4 5 C-3.34 5 -2.68 5 -2 5 C-1.7834375 4.0409375 -1.7834375 4.0409375 -1.5625 3.0625 C-1 1 -1 1 0 0 Z " fill="#0C0C0C" transform="translate(136,113)"/>
<path d="M0 0 C1.67110042 2.96178773 2.32682752 5.37071192 2.625 8.75 C2.69976563 9.54921875 2.77453125 10.3484375 2.8515625 11.171875 C2.90054687 11.77515625 2.94953125 12.3784375 3 13 C2.34 13 1.68 13 1 13 C-0.32229189 10.35541621 -0.09677194 8.32238699 -0.0625 5.375 C-0.05347656 4.37210937 -0.04445313 3.36921875 -0.03515625 2.3359375 C-0.02355469 1.56507812 -0.01195313 0.79421875 0 0 Z " fill="#030303" transform="translate(22,80)"/>
<path d="M0 0 C2.97 0.495 2.97 0.495 6 1 C6 1.33 6 1.66 6 2 C5.195625 2.12375 4.39125 2.2475 3.5625 2.375 C2.2940625 2.684375 2.2940625 2.684375 1 3 C0.67 3.66 0.34 4.32 0 5 C-0.66 5 -1.32 5 -2 5 C-2 6.32 -2 7.64 -2 9 C-2.66 9 -3.32 9 -4 9 C-2.94124926 5.59687262 -1.99097846 2.98646769 0 0 Z " fill="#979797" transform="translate(154,105)"/>
<path d="M0 0 C0.33 0.66 0.66 1.32 1 2 C-0.26953125 3.46484375 -1.5390625 4.9296875 -2.80859375 6.39453125 C-4.20871231 8.10712971 -4.20871231 8.10712971 -5 11 C-5.99 11 -6.98 11 -8 11 C-6.63629701 8.00779732 -5.05091917 5.70973471 -2.875 3.25 C-2.33617188 2.63640625 -1.79734375 2.0228125 -1.2421875 1.390625 C-0.62730469 0.70226562 -0.62730469 0.70226562 0 0 Z " fill="#414141" transform="translate(83,27)"/>
<path d="M0 0 C0.66 0.33 1.32 0.66 2 1 C1.125 5.75 1.125 5.75 0 8 C-0.66 8 -1.32 8 -2 8 C-2.125 5.125 -2.125 5.125 -2 2 C-1.34 1.34 -0.68 0.68 0 0 Z " fill="#050505" transform="translate(110,115)"/>
<path d="M0 0 C1.32 0 2.64 0 4 0 C4.66 1.65 5.32 3.3 6 5 C3.69 4.34 1.38 3.68 -1 3 C-1 3.99 -1 4.98 -1 6 C-1.66 5.67 -2.32 5.34 -3 5 C-2.67 4.01 -2.34 3.02 -2 2 C-1.34 2 -0.68 2 0 2 C0 1.34 0 0.68 0 0 Z " fill="#BBBBBB" transform="translate(88,64)"/>
<path d="M0 0 C0 0.66 0 1.32 0 2 C-1.5778125 2.2165625 -1.5778125 2.2165625 -3.1875 2.4375 C-6.15460549 2.87526966 -9.06794366 3.37804866 -12 4 C-8.71298741 1.21868166 -4.24676932 -2.12338466 0 0 Z " fill="#B0B0B0" transform="translate(120,143)"/>
<path d="M0 0 C2.4375 1.25 2.4375 1.25 3.4375 4.25 C-0.25004757 3.75168276 -2.16740662 3.14932357 -4.5625 0.25 C-2.5625 -0.75 -2.5625 -0.75 0 0 Z " fill="#050505" transform="translate(35.5625,142.75)"/>
<path d="M0 0 C0.33 0.99 0.66 1.98 1 3 C-0.62366466 6.24732932 -3.75387839 6.70155136 -7 8 C-7 7.34 -7 6.68 -7 6 C-5.46875 4.4921875 -5.46875 4.4921875 -3.5 2.875 C-2.8503125 2.33617187 -2.200625 1.79734375 -1.53125 1.2421875 C-1.0259375 0.83226562 -0.520625 0.42234375 0 0 Z " fill="#C4C4C4" transform="translate(155,138)"/>
<path d="M0 0 C1.32 1.32 2.64 2.64 4 4 C3.67 4.99 3.34 5.98 3 7 C2.01 7 1.02 7 0 7 C-1.125 2.25 -1.125 2.25 0 0 Z " fill="#080808" transform="translate(77,132)"/>
<path d="M0 0 C0.66 0 1.32 0 2 0 C2.99 3.63 3.98 7.26 5 11 C2.525 10.01 2.525 10.01 0 9 C0.33 8.34 0.66 7.68 1 7 C1 4.66140564 0.39143758 2.29969577 0 0 Z " fill="#636363" transform="translate(42,115)"/>
<path d="M0 0 C0.66 0.33 1.32 0.66 2 1 C1.34 2.65 0.68 4.3 0 6 C-2.31 6 -4.62 6 -7 6 C-6.67 5.34 -6.34 4.68 -6 4 C-5.01 4 -4.02 4 -3 4 C-3 3.34 -3 2.68 -3 2 C-2.01 1.34 -1.02 0.68 0 0 Z " fill="#BFBFBF" transform="translate(127,54)"/>
<path d="M0 0 C2.64 0 5.28 0 8 0 C6.25 2.0625 6.25 2.0625 4 4 C1.75 3.75 1.75 3.75 0 3 C0 2.01 0 1.02 0 0 Z " fill="#454545" transform="translate(100,147)"/>
<path d="M0 0 C0.99 0.495 0.99 0.495 2 1 C2 1.99 2 2.98 2 4 C2.66 4 3.32 4 4 4 C4 4.99 4 5.98 4 7 C4.66 7 5.32 7 6 7 C5.67 8.32 5.34 9.64 5 11 C5 10.01 5 9.02 5 8 C4.01 8 3.02 8 2 8 C1.34 5.36 0.68 2.72 0 0 Z " fill="#616161" transform="translate(10,114)"/>
<path d="M0 0 C3.875 1.75 3.875 1.75 5 4 C3.35 4.33 1.7 4.66 0 5 C-0.33 6.65 -0.66 8.3 -1 10 C-1.33 10 -1.66 10 -2 10 C-2.17942163 6.05272412 -2.09350689 3.4019487 0 0 Z " fill="#C4C4C4" transform="translate(66,65)"/>
<path d="M0 0 C0.99 0.495 0.99 0.495 2 1 C2 2.32 2 3.64 2 5 C2.66 5 3.32 5 4 5 C4.33 6.32 4.66 7.64 5 9 C4.34 9 3.68 9 3 9 C3 8.34 3 7.68 3 7 C2.01 6.67 1.02 6.34 0 6 C0 4.02 0 2.04 0 0 Z " fill="#4E4E4E" transform="translate(47,115)"/>
<path d="M0 0 C0.66 0 1.32 0 2 0 C2 1.65 2 3.3 2 5 C2.66 5 3.32 5 4 5 C4 6.98 4 8.96 4 11 C3.67 10.01 3.34 9.02 3 8 C2.34 8 1.68 8 1 8 C0.67 5.36 0.34 2.72 0 0 Z " fill="#858585" transform="translate(6,103)"/>
<path d="M0 0 C0.66 0.33 1.32 0.66 2 1 C0.70700306 3.88437779 -0.65941363 5.87219421 -3 8 C-3.99 7.67 -4.98 7.34 -6 7 C-5.195625 6.401875 -4.39125 5.80375 -3.5625 5.1875 C-0.77672016 3.19052724 -0.77672016 3.19052724 0 0 Z " fill="#363636" transform="translate(104,84)"/>
<path d="M0 0 C2.31 0 4.62 0 7 0 C6.67 1.65 6.34 3.3 6 5 C5.67 4.01 5.34 3.02 5 2 C3.35 2 1.7 2 0 2 C0 1.34 0 0.68 0 0 Z " fill="#A1A1A1" transform="translate(141,105)"/>
<path d="M0 0 C0.99 0.33 1.98 0.66 3 1 C3.33 1.99 3.66 2.98 4 4 C2.02 4.66 0.04 5.32 -2 6 C-1.34 4.02 -0.68 2.04 0 0 Z " fill="#151515" transform="translate(112,80)"/>
<path d="M0 0 C0.66 0 1.32 0 2 0 C2.33 1.98 2.66 3.96 3 6 C1.68 5.67 0.36 5.34 -1 5 C-0.67 3.35 -0.34 1.7 0 0 Z " fill="#080808" transform="translate(77,70)"/>
<path d="M0 0 C0.66 0 1.32 0 2 0 C0.55746343 3.36591866 -1.33264727 5.51047079 -4 8 C-3.67 6.35 -3.34 4.7 -3 3 C-2.01 2.67 -1.02 2.34 0 2 C0 1.34 0 0.68 0 0 Z " fill="#E1E1E1" transform="translate(82,25)"/>
<path d="M0 0 C0.33 0.66 0.66 1.32 1 2 C1.66 2.33 2.32 2.66 3 3 C1.35 3.66 -0.3 4.32 -2 5 C-2 5.99 -2 6.98 -2 8 C-2.66 7.67 -3.32 7.34 -4 7 C-2.68 4.69 -1.36 2.38 0 0 Z " fill="#B6B6B6" transform="translate(164,125)"/>
<path d="M0 0 C1.9375 0.6875 1.9375 0.6875 4 2 C4.75 4.625 4.75 4.625 5 7 C4.01 6.67 3.02 6.34 2 6 C2 5.01 2 4.02 2 3 C1.34 3 0.68 3 0 3 C0 2.01 0 1.02 0 0 Z " fill="#020202" transform="translate(16,122)"/>
<path d="M0 0 C0.99 0.33 1.98 0.66 3 1 C3 1.99 3 2.98 3 4 C2.01 4.33 1.02 4.66 0 5 C-0.99 4.01 -1.98 3.02 -3 2 C-2.01 1.34 -1.02 0.68 0 0 Z " fill="#060606" transform="translate(149,101)"/>
</svg>
