<svg xmlns="http://www.w3.org/2000/svg"  viewBox="0 0 48 48" width="50px" height="50px" baseProfile="basic"><path fill="#283d5b" d="M24.504,3.229c-1.353-0.153-1.965,0.46-3.126,1.171c-4.137,2.534-8.438,4.944-12.574,7.478	c-0.378,0.231-0.768,0.474-1.012,0.844c-0.306,0.462-0.337,1.049-0.34,1.603c-0.009,1.561-0.078,3.879,0.059,5.433	c0.362,4.124-0.321,6.988,0.04,11.112c0.021,0.243,0.044,0.491,0.14,0.715c0.177,0.411,0.413,0.78,1.185,1.28	c6.005,3.892,11.665,6.716,18.121,10.235c1.748,0.953,3.866,1.877,5.46,2.427c0,0,0.019-1.463-0.047-2.786	c-0.079-1.578-0.103-2.451,0.132-4.014c0.056-0.371,0.105-1.228,0.105-1.228s1.105-0.729,1.437-0.915	c0.665-0.372,1.65-1.058,2.844-1.764c1.051-0.622,2.674-1.842,3.309-2.885c0.504-0.826,0.383-3.131,0.24-4.927	c-0.208-2.621-0.146-5.929-0.079-8.928c0.053-2.377,0.62-4.364-0.213-5.448c-0.71-0.924-2.404-1.646-3.44-2.18	c-2.715-1.398-6.713-4.183-9.396-5.85C25.914,3.71,25.144,3.316,24.504,3.229z"/><path fill="#d6e5e5" d="M18.617,12.878c-1.272,0.165-2.11,1.113-2.49,2.339c-0.059,0.19-0.094,0.685-0.079,0.883	c0.018,0.223,0.244,0.699,0.357,0.892c0.643,1.098,1.745,1.735,3,1.52c0.33-0.057,1.15-0.409,1.15-0.409s0.857,0.537,1.262,0.745	c2.066,1.062,3.804,2.212,5.785,3.245c-0.344,1.172,0.289,2.411,1.31,3.082c0.914,0.601,2.1,0.382,3.171,0.161	c0.402-0.083,0.824-0.389,1.133-0.66c0.466-0.408,0.601-0.883,0.676-1.498c0.154-1.271-0.012-2.538-1.104-3.205	c-0.367-0.224-0.615-0.427-1.036-0.514c-0.631-0.13-1.149-0.125-1.809,0.051c-0.399,0.107-1.035,0.543-1.035,0.543	s-0.756-0.376-1.112-0.568c-1.912-1.03-3.396-2.082-5.09-2.923c-0.117-0.058-1.041-0.572-1.041-0.572s0.007-0.939-0.155-1.285	C20.893,13.392,20.058,12.692,18.617,12.878z"/><path fill="#d6e5e5" d="M25.282,24.226c-1.63,0.97-3.29,1.686-4.907,2.795c-0.889-0.66-1.616-0.894-2.79-0.546	c-0.532,0.158-1.018,0.697-1.384,1.114c-0.548,0.622-0.527,1.775-0.13,2.503c0.397,0.728,0.839,1.365,1.625,1.625	c0.701,0.232,1.45,0.313,2.145,0.065c0.695-0.248,1.398-0.923,1.463-1.658c0.046-0.526,0.061-0.914,0.061-0.914	s3.171-1.944,4.638-2.716c0.085-0.045,0.488-0.38,0.488-0.38s-0.547-0.56-0.624-0.677C25.519,24.91,25.455,24.763,25.282,24.226z"/><path d="M33.19,19.641c-1.333-0.953-2.919-0.972-4.292-0.16c-1.25-0.637-2.456-1.344-3.658-2.069 c-1.013-0.61-2.058-1.157-3.093-1.727c-0.042-0.819-0.258-1.519-0.793-2.199c-0.681-0.865-1.652-1.223-2.737-1.108 c-0.025,0.003-0.042,0.015-0.065,0.02c-0.023,0.001-0.043-0.006-0.068-0.003c-2.031,0.324-3.57,2.701-2.627,4.626 c0.452,0.922,1.294,1.691,2.304,1.938c0.841,0.205,1.587-0.002,2.347-0.306c0.885,0.538,1.803,1.01,2.704,1.521 c1.285,0.729,2.55,1.492,3.852,2.191c-0.172,1.571,0.864,3.223,2.446,3.602c1.598,0.383,4.019-0.138,4.673-1.829 C34.748,22.676,34.532,20.6,33.19,19.641z M33.356,23.398c-0.275,1.383-1.904,1.724-3.12,1.664 c-1.39-0.069-2.495-1.467-2.151-2.836c0.052-0.207-0.032-0.461-0.23-0.565c-1.678-0.882-3.283-1.894-4.947-2.801 c-0.62-0.338-1.242-0.661-1.844-1.031c-0.448-0.275-0.622-0.209-1.026-0.051c-0.612,0.239-1.204,0.381-1.849,0.148 c-0.706-0.255-1.248-0.867-1.533-1.549c-0.556-1.331,0.798-2.763,2.034-3c0.82-0.07,1.478,0.151,1.972,0.843 c0.404,0.565,0.506,1.088,0.504,1.772c0,0.173,0.095,0.347,0.248,0.432c1.109,0.616,2.235,1.197,3.323,1.852 c1.288,0.776,2.574,1.54,3.921,2.21c0.155,0.077,0.352,0.103,0.505,0c0.943-0.638,2.101-0.872,3.119-0.242 C33.414,20.946,33.605,22.146,33.356,23.398z"/><path d="M25.764,24.093c-0.034-0.103-0.093-0.172-0.161-0.228c-0.03-0.03-0.065-0.052-0.102-0.074c0,0,0,0,0,0 c-0.133-0.078-0.297-0.1-0.471,0.003c-1.537,0.906-3.158,1.661-4.653,2.637c-1.194-0.747-2.685-0.879-3.835,0.095 c-0.559,0.474-1.066,1.048-1.206,1.786c-0.136,0.719-0.007,1.46,0.341,2.1c0.786,1.446,2.176,2.261,3.857,1.965 c0.766-0.135,1.468-0.588,1.904-1.234c0.334-0.495,0.388-1.064,0.414-1.641c0.676-0.413,1.354-0.822,2.035-1.225 c0.987-0.584,2.074-1.076,2.958-1.809c0.21-0.174,0.175-0.528,0-0.707C26.342,25.246,25.994,24.797,25.764,24.093z M23.495,27.346 c-0.773,0.457-1.6,0.882-2.333,1.403c-0.356,0.253-0.3,0.613-0.329,1.011c-0.062,0.851-0.624,1.475-1.476,1.638 c-1.565,0.3-3.129-0.986-3.074-2.596c0.027-0.801,0.769-1.634,1.522-1.868c0.882-0.273,1.6-0.001,2.318,0.519 c0.134,0.097,0.37,0.091,0.505,0c1.404-0.951,2.932-1.682,4.405-2.513c0.191,0.403,0.432,0.758,0.719,1.1 C25.044,26.533,24.228,26.913,23.495,27.346z"/><path d="M40.844,23.933c-0.032-2.026-0.014-4.059,0.06-6.084c0.055-1.53,0.557-3.332,0.042-4.824 c-0.47-1.362-2.035-2.056-3.231-2.649c-1.403-0.695-2.746-1.485-4.072-2.318c-1.642-1.031-3.254-2.108-4.885-3.157 c-1.233-0.793-2.632-1.922-4.12-2.156c-0.023-0.004-0.041,0.003-0.063,0.003c-0.024-0.005-0.043-0.018-0.07-0.02 c-0.92-0.079-1.703,0.179-2.477,0.663c-0.99,0.619-1.98,1.235-2.982,1.834c-2.167,1.295-4.351,2.56-6.525,3.842 c-1.119,0.66-2.236,1.324-3.347,1.999c-0.846,0.514-1.763,0.978-2.075,1.988c-0.283,0.916-0.155,2.011-0.165,2.959 c-0.011,1.042-0.019,2.086,0.035,3.128c0.115,2.21,0.142,4.371,0.043,6.583c-0.049,1.095-0.087,2.191-0.062,3.287 c0.022,0.946-0.06,2.11,0.381,2.977c0.399,0.784,1.17,1.231,1.886,1.689c1.034,0.661,2.08,1.304,3.134,1.933 c1.991,1.186,4.013,2.318,6.049,3.426c2.318,1.262,4.652,2.496,6.974,3.75c2.256,1.219,4.525,2.374,6.951,3.222 c0.314,0.11,0.629-0.176,0.633-0.482c0.016-1.385-0.077-2.765-0.099-4.149c-0.02-1.208,0.175-2.391,0.265-3.589 c0.92-0.598,1.86-1.164,2.786-1.753c1.425-0.906,2.906-1.731,4.075-2.977c0.421-0.449,0.794-0.934,0.943-1.54 c0.179-0.73,0.183-1.512,0.172-2.259C41.07,27.482,40.872,25.712,40.844,23.933z M40.085,28.767 c0.031,0.843,0.098,1.796-0.156,2.613c-0.237,0.761-1.025,1.375-1.619,1.862c-1.398,1.146-3.043,2.052-4.593,2.976 c-0.324,0.193-0.64,0.402-0.956,0.607c-0.197,0.129-0.471,0.256-0.572,0.479c-0.112,0.249-0.069,0.622-0.092,0.888 c-0.039,0.468-0.119,0.931-0.167,1.399c-0.179,1.727-0.014,3.472,0.015,5.208c-3.861-1.444-7.443-3.611-11.062-5.557 c-3.852-2.071-7.678-4.192-11.36-6.556c-0.81-0.52-1.395-0.935-1.483-1.938c-0.094-1.082-0.113-2.17-0.091-3.255 c0.04-2.035,0.217-4.066,0.156-6.102c-0.06-1.998-0.19-3.972-0.165-5.974c0.011-0.909-0.191-2.112,0.587-2.756 c0.859-0.712,1.966-1.226,2.923-1.796c2.273-1.355,4.564-2.68,6.842-4.027c1.147-0.679,2.297-1.355,3.428-2.061 c0.896-0.559,1.628-1.118,2.721-1.048c0.626,0.115,1.191,0.435,1.737,0.75c0.81,0.468,1.597,0.978,2.383,1.486 c1.664,1.075,3.312,2.175,4.996,3.22c1.477,0.917,3.01,1.683,4.536,2.509c0.686,0.371,1.587,0.826,1.889,1.597 c0.3,0.769,0.143,1.73,0.073,2.528c-0.194,2.207-0.218,4.422-0.22,6.637C39.832,24.568,40.008,26.659,40.085,28.767z"/></svg>