<svg viewBox="0 0 24 24" fill="none" xmlns="http://www.w3.org/2000/svg">
  <path d="M20.317 4.3698C18.7873 3.71596 17.147 3.24208 15.4319 2.97512C15.2122 3.36161 14.9595 3.8728 14.7849 4.28571C12.9477 4.03022 11.1263 4.03022 9.32053 4.28571C9.14591 3.8728 8.8879 3.36161 8.66788 2.97512C6.95052 3.24418 5.30803 3.71816 3.7762 4.37471C0.894306 8.69007 0.114976 12.8989 0.503691 16.9484C2.39479 18.353 4.22759 19.2039 6.02885 19.7635C6.47388 19.15 6.87085 18.5003 7.21315 17.8168C6.56682 17.5699 5.94719 17.2677 5.36242 16.9179C5.51774 16.8018 5.66976 16.6806 5.81683 16.5563C9.44204 18.2157 13.3793 18.2157 16.9614 16.5563C17.1106 16.6806 17.2626 16.8018 17.4159 16.9179C16.829 17.2698 16.2073 17.572 15.5609 17.8189C15.9033 18.5003 16.2981 19.1521 16.7453 19.7656C18.5486 19.206 20.3836 18.3551 22.2747 16.9484C22.7238 12.2395 21.548 8.06818 20.317 4.3698ZM8.02002 14.3549C6.93352 14.3549 6.04282 13.3551 6.04282 12.1251C6.04282 10.8951 6.91532 9.89319 8.02002 9.89319C9.12472 9.89319 10.0154 10.893 9.99722 12.1251C9.99925 13.3551 9.12472 14.3549 8.02002 14.3549ZM15.9582 14.3549C14.8717 14.3549 13.981 13.3551 13.981 12.1251C13.981 10.8951 14.8535 9.89319 15.9582 9.89319C17.0629 9.89319 17.9536 10.893 17.9354 12.1251C17.9354 13.3551 17.0629 14.3549 15.9582 14.3549Z" fill="#5865F2"/>
</svg>