<?xml version="1.0" encoding="UTF-8"?>
<svg id="uuid-710015d4-6d0f-432d-8c4d-4633828944fc" xmlns="http://www.w3.org/2000/svg" version="1.1" viewBox="0 0 157.7 157.7">
  <!-- Generator: Adobe Illustrator 29.6.1, SVG Export Plug-In . SVG Version: 2.1.1 Build 9)  -->
  <defs>
    <style>
      .st0 {
        fill: #1967d2;
      }

      .st1 {
        fill: #ea4335;
      }

      .st2 {
        fill: #fbbc04;
      }

      .st3 {
        fill: #4285f4;
      }

      .st4 {
        fill: #34a853;
      }
    </style>
  </defs>
  <path class="st2" d="M33.2,132.6l-23.7,23.7c-1.8,1.8-4.8,1.8-6.6,0l-1.5-1.5c-1.8-1.8-1.8-4.8,0-6.6l23.7-23.7c1.8-1.8,4.8-1.8,6.6,0l1.5,1.5c1.8,1.8,1.8,4.8,0,6.6h0Z"/>
  <path class="st3" d="M96.9,142.5h30.4c16.8,0,30.4-13.6,30.4-30.4V30.4c0-16.8-13.6-30.4-30.4-30.4h0c-16.8,0-30.4,13.6-30.4,30.4v112.1h0Z"/>
  <path class="st2" d="M46.6,142.5c16.8,0,30.4-13.6,30.4-30.4h0c0-16.8-13.6-30.4-30.4-30.4h0c-16.8,0-30.4,13.6-30.4,30.4h0c0,16.8,13.6,30.4,30.4,30.4h0Z"/>
  <path class="st4" d="M118.1,142.5h-29.6c-16.8,0-30.4-13.6-30.4-30.4v-39.8c0-16.8,13.6-30.4,30.4-30.4h0c16.8,0,30.4,13.6,30.4,30.4v69.4c0,.4-.3.8-.8.8h0Z"/>
  <path class="st0" d="M118.9,141.7v-69.4c0-13.5-9-25.5-22-29.2v99.4h21.2c.4,0,.8-.3.8-.8h0Z"/>
  <path class="st1" d="M77,112.7c0-12.3-7.4-23.4-18.9-28.1v28.1c0,8.7,3.6,16.5,9.4,22,6-5.7,9.4-13.7,9.4-22Z"/>
</svg>