<svg xmlns="http://www.w3.org/2000/svg" viewBox="0 0 128 128">
  <path d="M26.9 80.4a13.4 13.4 0 1 1-13.4-13.4h13.4v13.4zm6.7 0a13.4 13.4 0 1 1 26.8 0v33.5a13.4 13.4 0 1 1-26.8 0V80.4z" fill="#E01E5A"/>
  <path d="M47.6 26.9a13.4 13.4 0 1 1 13.4-13.4v13.4H47.6zm0 6.8a13.4 13.4 0 1 1 0 26.8H14.1a13.4 13.4 0 1 1 0-26.8h33.5z" fill="#36C5F0"/>
  <path d="M101.1 47.6a13.4 13.4 0 1 1 13.4 13.4h-13.4V47.6zm-6.7 0a13.4 13.4 0 1 1-26.8 0V14.1a13.4 13.4 0 1 1 26.8 0v33.5z" fill="#2EB67D"/>
  <path d="M80.4 101.1a13.4 13.4 0 1 1-13.4 13.4v-13.4h13.4zm0-6.7a13.4 13.4 0 1 1 0-26.8h33.5a13.4 13.4 0 1 1 0 26.8H80.4z" fill="#ECB22E"/>
</svg>
