<?xml version="1.0" encoding="UTF-8"?>
<svg version="1.1" xmlns="http://www.w3.org/2000/svg" width="128" height="128">
<path d="M0 0 C42.24 0 84.48 0 128 0 C128 42.24 128 84.48 128 128 C85.76 128 43.52 128 0 128 C0 85.76 0 43.52 0 0 Z " fill="#020202" transform="translate(0,0)"/>
<path d="M0 0 C42.24 0 84.48 0 128 0 C128 42.24 128 84.48 128 128 C85.76 128 43.52 128 0 128 C0 85.76 0 43.52 0 0 Z M22.1875 23.3125 C21.64480469 23.84488281 21.10210937 24.37726562 20.54296875 24.92578125 C15.34696146 31.91079358 15.55917544 38.6618826 15.6015625 47.08984375 C15.59869232 48.34833633 15.59582214 49.60682892 15.59286499 50.90345764 C15.59082789 53.55892214 15.5948102 56.21355191 15.60888672 58.86889648 C15.62596055 62.25246186 15.6161379 65.6353122 15.59816933 69.01885128 C15.58464618 72.27170674 15.5941495 75.52447891 15.6015625 78.77734375 C15.59548981 79.98277328 15.58941711 81.18820282 15.5831604 82.43016052 C15.6523814 90.76030701 16.4467646 97.75928729 22.1875 104.25 C22.71730469 104.87390625 23.24710938 105.4978125 23.79296875 106.140625 C31.27564786 112.44461661 38.18627724 112.592584 47.625 112.53125 C49.57720459 112.53699036 49.57720459 112.53699036 51.56884766 112.54284668 C54.31236961 112.54871474 57.05536753 112.54026737 59.79882812 112.52148438 C63.29576338 112.49869508 66.79147029 112.51183291 70.2883606 112.53577423 C73.65066923 112.55379642 77.0126566 112.5411368 80.375 112.53125 C81.62104004 112.53934692 82.86708008 112.54744385 84.15087891 112.55578613 C92.30871179 112.46823293 97.81511643 111.52567182 104.20703125 106.140625 C105.00173828 105.20476562 105.00173828 105.20476562 105.8125 104.25 C106.35519531 103.63640625 106.89789063 103.0228125 107.45703125 102.390625 C112.36034587 94.7935907 112.45509303 87.61754196 112.43359375 78.8125 C112.4388356 77.55542236 112.44407745 76.29834473 112.44947815 75.00317383 C112.45588231 72.3536816 112.45603494 69.70505697 112.44604492 67.05566406 C112.43454864 63.67982748 112.45479647 60.305036 112.48396206 56.92933655 C112.50683477 53.68205346 112.49985297 50.43484467 112.49609375 47.1875 C112.50732773 45.98520752 112.51856171 44.78291504 112.53013611 43.54418945 C112.4592543 34.96988723 111.04631307 28.51366585 104.8125 22.1875 C104.30332031 21.64480469 103.79414062 21.10210937 103.26953125 20.54296875 C95.8159154 15.47553629 87.43064002 15.54503313 78.71484375 15.56640625 C77.45918106 15.5611644 76.20351837 15.55592255 74.9098053 15.55052185 C72.2662879 15.54412322 69.62364195 15.54395438 66.98022461 15.55395508 C63.61226356 15.56546303 60.24534824 15.5451806 56.87752438 15.51603794 C53.6357932 15.49317022 50.39413658 15.50014636 47.15234375 15.50390625 C45.95318832 15.49267227 44.7540329 15.48143829 43.51853943 15.46986389 C34.91995201 15.54114922 28.43780887 16.94053062 22.1875 23.3125 Z " fill="#FDFDFD" transform="translate(0,0)"/>
<path d="M0 0 C4.62 0 9.24 0 14 0 C13 8 13 8 12 16 C13.0209375 15.2575 13.0209375 15.2575 14.0625 14.5 C17.71831169 12.63320254 19.93308428 12.57190361 24 13 C29.33739473 14.98844117 32.45333824 17.90667648 35 23 C35.83717621 30.47018774 34.68273235 38.00299978 30.453125 44.3046875 C26.02096537 49.65857944 22.16400561 52.69866613 15.0625 53.375 C10.85417283 53.22904646 7.73976077 51.86988039 4 50 C3.54625 50.556875 3.0925 51.11375 2.625 51.6875 C-1.1030868 54.97176694 -6.85937223 59 -12 59 C-12.40749556 52.43376472 -10.87348629 46.64680556 -9.25 40.3125 C-7.03011226 31.39756712 -4.99759997 22.48634483 -3.29394531 13.45825195 C-2.4211793 8.88211422 -1.34877043 4.46040748 0 0 Z " fill="#F7F6F7" transform="translate(53,34)"/>
<path d="M0 0 C3.625 0.25 3.625 0.25 5.5625 1.375 C7.16273673 4.19894718 7.07234094 6.05470761 6.625 9.25 C5.125 12.125 5.125 12.125 2.625 14.25 C-0.17688855 14.67242213 -2.5169611 14.48816991 -5.375 14.25 C-6.88547521 11.86704813 -7.46691411 10.751733 -6.94921875 7.92578125 C-6.65660156 7.14589844 -6.36398438 6.36601563 -6.0625 5.5625 C-5.77761719 4.77488281 -5.49273437 3.98726562 -5.19921875 3.17578125 C-3.83156563 -0.01973054 -3.77133133 0.27935788 0 0 Z " fill="#080808" transform="translate(66.375,59.75)"/>
</svg>
