<?xml version="1.0" encoding="UTF-8"?>
<svg version="1.1" xmlns="http://www.w3.org/2000/svg" width="800" height="800">
<path d="M0 0 C2.28395804 0.83173231 3.3964794 1.70699904 5.10796498 3.41623355 C5.68602078 3.98626635 6.26407658 4.55629915 6.85964923 5.14360566 C7.48606631 5.77647455 8.1124834 6.40934344 8.75788282 7.06139018 C9.43278255 7.73133039 10.10768228 8.40127061 10.80303352 9.09151204 C13.08196776 11.35740517 15.34998814 13.63392246 17.61826871 15.91047694 C19.25863385 17.54595724 20.89964966 19.18078514 22.54126261 20.81501295 C26.59034078 24.84934724 30.63234252 28.89067521 34.6714586 32.93498141 C39.50829972 37.77727344 44.3537825 42.61088265 49.19951851 47.44427067 C59.24639955 57.46620846 69.28303778 67.4983625 79.316507 77.53372513 C87.06245354 85.28104329 94.81098581 93.02576648 102.56136106 100.76865412 C103.67376287 101.88000561 104.78616332 102.99135845 105.89856243 104.10271263 C106.450728 104.65435886 107.00289357 105.20600508 107.57179142 105.77436785 C108.124951 106.32700729 108.67811057 106.87964672 109.24803255 107.4490328 C109.80209956 108.00257581 110.35616656 108.55611882 110.92702348 109.12643587 C126.51601428 124.70083805 142.10184645 140.27839546 157.68123792 155.86240031 C158.26886938 156.45020372 158.85650084 157.03800714 159.46193931 157.64362278 C162.44046794 160.62304033 165.41896863 163.60248583 168.39745958 166.58194105 C168.98902727 167.17369977 169.58059496 167.7654585 170.19008894 168.3751493 C171.38638242 169.57182987 172.58267429 170.76851207 173.77896454 171.96519588 C192.39894302 190.59114618 211.02959937 209.2063565 229.66862272 227.81324793 C250.59609633 248.70467537 271.51521103 269.60442234 292.42219351 290.51635744 C294.64980021 292.74443413 296.87743678 294.97248095 299.10509275 297.20050837 C299.65361749 297.7491355 300.20214223 298.29776262 300.76728893 298.86301481 C309.06105253 307.15797507 317.36138955 315.44631946 325.66507505 323.73134638 C335.10406545 333.14913777 344.53437509 342.57552067 353.95305528 352.0136262 C358.7627495 356.83276197 363.57638447 361.64779456 368.40138982 366.4516051 C372.81230494 370.84394343 377.21165863 375.24751767 381.60182787 379.66058896 C383.1975914 381.26057198 384.79764907 382.85628516 386.402245 384.44741015 C388.5720552 386.60023081 390.72609602 388.76766202 392.87667249 390.93967082 C393.83034512 391.87492715 393.83034512 391.87492715 394.80328386 392.82907756 C398.94650976 397.05986748 398.94650976 397.05986748 399.54605101 400.54550745 C398.89159348 403.55139357 397.613554 404.82584977 395.4413278 406.99171473 C394.25460729 408.19239337 394.25460729 408.19239337 393.04391263 409.41732813 C391.74560262 410.69104525 391.74560262 410.69104525 390.42106412 411.99049403 C389.54033735 412.87126109 388.65961057 413.75202815 387.7521951 414.65948512 C385.88730247 416.51901427 384.01839217 418.37295972 382.14054655 420.21925379 C379.73249296 422.5875722 377.34254927 424.97321315 374.95804666 427.36521651 C372.68287193 429.64419519 370.39546846 431.91079484 368.10856412 434.17799403 C367.24909681 435.03725993 366.38962949 435.89652583 365.50411771 436.78183009 C364.70351423 437.56652171 363.90291074 438.35121333 363.07804655 439.15968348 C362.37411268 439.85519816 361.67017881 440.55071284 360.94491361 441.26730372 C359.06559537 442.75221278 359.06559537 442.75221278 356.06559537 442.75221278 C354.74371789 441.50854518 354.74371789 441.50854518 353.27114652 439.65235926 C349.9041218 435.64124763 346.34101327 431.91136741 342.64312528 428.20948817 C342.03325989 427.59837467 341.4233945 426.98726117 340.79504834 426.35762908 C338.79090326 424.3530856 336.78385949 422.35147106 334.77677701 420.34986903 C333.32727211 418.90064653 331.87798803 417.45120313 330.42890714 416.00155665 C326.5122606 412.08462423 322.59254745 408.17077385 318.67226122 404.25748469 C314.56919004 400.16068203 310.46896714 396.06103071 306.36843656 391.96168543 C298.61103629 384.20738818 290.85109132 376.45564269 283.09022062 368.70481898 C274.25148682 359.87727833 265.41560618 351.04688419 256.57995974 342.21625353 C238.41166972 324.05840459 220.23981365 305.90412798 202.06559537 287.75221278 C201.62103079 299.44672456 201.28565684 311.13915979 201.08116411 322.84046783 C200.982896 328.27731625 200.85020935 333.70829879 200.63224576 339.14176966 C198.96625662 371.16298389 198.96625662 371.16298389 213.42773221 398.51118685 C220.2887078 405.60896673 228.18664206 411.67279143 236.57731412 416.853287 C245.08426296 422.17880644 251.894997 429.44933344 258.92670988 436.53816248 C260.54013052 438.16454546 262.15682808 439.78760973 263.77433561 441.40992762 C267.78800639 445.43684701 271.79616372 449.46923941 275.80448698 453.50148036 C279.20365261 456.92049897 282.60494404 460.33737677 286.00898527 463.75154139 C287.58846603 465.33742284 289.16486334 466.92632374 290.74113248 468.51539637 C295.49442607 473.29256953 300.28079973 477.96896199 305.42472623 482.32789637 C305.96621305 482.79792079 306.50769987 483.2679452 307.06559537 483.75221278 C307.65284391 484.22610438 308.24009244 484.69999598 308.84513639 485.18824793 C310.06559537 486.75221278 310.06559537 486.75221278 309.98571561 488.68084742 C308.82614087 491.29127034 307.3529666 492.86046875 305.34367155 494.89405848 C304.55582776 495.69781413 303.76798398 496.50156977 302.95626615 497.32968165 C302.09902448 498.18712473 301.24178281 499.04456782 300.35856412 499.92799403 C299.48162397 500.81254771 298.60468381 501.69710139 297.70116971 502.60845973 C295.8445563 504.47588149 293.9849608 506.33968652 292.12003873 508.19874598 C289.72880557 510.58406958 287.35636389 512.98717294 284.98836587 515.39553572 C282.72734114 517.68857954 280.44819819 519.96346422 278.17106412 522.24049403 C277.31989515 523.10805827 276.46872617 523.97562251 275.5917642 524.86947657 C274.3958138 526.05146884 274.3958138 526.05146884 273.1757028 527.25733973 C272.47700574 527.95809123 271.77830869 528.65884272 271.058439 529.38082911 C269.06559537 530.75221278 269.06559537 530.75221278 266.96984647 530.60907008 C263.99439945 529.27020594 262.08716445 527.12945495 259.81559537 524.81471278 C258.4775485 523.47086512 258.4775485 523.47086512 257.11247037 522.09986903 C255.06559537 519.75221278 255.06559537 519.75221278 255.06559537 517.75221278 C254.07559537 517.42221278 253.08559537 517.09221278 252.06559537 516.75221278 C249.70044527 514.59575239 247.57125252 512.33223809 245.46867155 509.92042567 C237.26788034 500.55538245 228.32326859 491.90178369 219.50309537 483.12721278 C217.80950271 481.43864465 216.11614134 479.7498445 214.42301725 478.06080653 C210.30654108 473.95526154 206.18721285 469.85259597 202.06559537 465.75221278 C202.05528791 466.31375559 202.04498044 466.87529841 202.03436063 467.45385768 C201.92651852 473.27714743 201.8119033 479.10027542 201.69328092 484.92335536 C201.6498603 487.09910231 201.60819067 489.27488492 201.56828092 491.45069911 C201.51075036 494.57084446 201.44700715 497.6908091 201.38200162 500.81080653 C201.35693288 502.2795447 201.35693288 502.2795447 201.3313577 503.77795435 C201.31141248 504.67881266 201.29146726 505.57967097 201.27091764 506.50782801 C201.24760122 507.70362734 201.24760122 507.70362734 201.22381376 508.92358424 C201.06559537 510.75221278 201.06559537 510.75221278 200.06559537 511.75221278 C198.39845564 511.85032231 196.72712789 511.87776849 195.05710386 511.87805392 C193.41958811 511.88196554 193.41958811 511.88196554 191.74899124 511.88595618 C190.53471938 511.88372546 189.32044753 511.88149474 188.06937955 511.87919642 C186.15192843 511.88153641 186.15192843 511.88153641 184.19574092 511.88392366 C180.63122948 511.88812143 177.06674459 511.88602429 173.50223301 511.88293745 C169.66442959 511.88068538 165.8266309 511.88416199 161.98882841 511.88691737 C154.46411397 511.89137614 146.93940948 511.89039813 139.41469465 511.88750473 C133.30202511 511.88525111 127.18935836 511.88493799 121.07668851 511.88602854 C119.77429273 511.88625839 119.77429273 511.88625839 118.44558592 511.88649289 C116.68201218 511.88681259 114.91843845 511.88713681 113.15486471 511.88746548 C96.59757964 511.89032058 80.0403001 511.88703277 63.48301594 511.88166511 C49.26005137 511.87719704 35.03709495 511.87797297 20.81413053 511.88258387 C4.31819515 511.8879291 -12.17773538 511.89004589 -28.6736715 511.88697161 C-30.43094692 511.88665304 -32.18822234 511.88633867 -33.94549777 511.88602854 C-34.81022858 511.88587427 -35.67495939 511.88571999 -36.56589417 511.88556104 C-42.67490262 511.88469573 -48.78390801 511.88615906 -54.89291598 511.8885081 C-62.33246828 511.89130572 -69.77201002 511.89056863 -77.2115611 511.88522735 C-81.0110978 511.88258983 -84.81061686 511.88158613 -88.61015345 511.8848765 C-92.71951409 511.8883815 -96.82882976 511.88421133 -100.93818881 511.87919642 C-102.75959659 511.8825425 -102.75959659 511.8825425 -104.61780049 511.88595618 C-105.70947765 511.88334844 -106.80115482 511.88074069 -107.92591311 511.87805392 C-108.87581102 511.87789157 -109.82570894 511.87772921 -110.80439164 511.87756194 C-112.93440463 511.75221278 -112.93440463 511.75221278 -113.93440463 510.75221278 C-114.0324912 509.09549808 -114.05996029 507.43457176 -114.06024577 505.774956 C-114.06285351 504.69024563 -114.06546126 503.60553526 -114.06814803 502.48795487 C-114.06591731 501.28146491 -114.06368659 500.07497495 -114.06138827 498.83192469 C-114.06294826 497.56179105 -114.06450825 496.29165741 -114.06611551 494.98303486 C-114.07031325 491.44132651 -114.06821616 487.89964489 -114.06512929 484.3579364 C-114.06287721 480.54467307 -114.06635385 476.73141451 -114.06910922 472.91815211 C-114.07356797 465.44156459 -114.07258998 457.96498708 -114.06969658 450.48839916 C-114.06744295 444.41482191 -114.06712984 438.34124748 -114.06822039 432.26766993 C-114.06837362 431.4049568 -114.06852686 430.54224367 -114.06868473 429.65338771 C-114.06900444 427.90108797 -114.06932866 426.14878824 -114.06965733 424.3964885 C-114.07251243 407.94507367 -114.06922463 391.49366439 -114.06385696 375.04225047 C-114.05938889 360.91024944 -114.06016482 346.77825663 -114.06477572 332.64625575 C-114.07012095 316.25579579 -114.07223773 299.86534071 -114.06916346 283.47487999 C-114.06884489 281.72883854 -114.06853052 279.98279708 -114.06822039 278.23675562 C-114.06806612 277.37755303 -114.06791184 276.51835044 -114.06775289 275.6331114 C-114.06688758 269.56317627 -114.06835091 263.49324423 -114.07069995 257.42330958 C-114.07349758 250.0313344 -114.07276046 242.63936984 -114.0674192 235.24739589 C-114.06478169 231.47216235 -114.06377796 227.69694656 -114.06706835 223.92171313 C-114.07057338 219.83862676 -114.06640315 215.75558564 -114.06138827 211.67250086 C-114.06361899 210.4660109 -114.06584971 209.25952095 -114.06814803 208.01647069 C-114.06423641 206.38940512 -114.06423641 206.38940512 -114.06024577 204.72946955 C-114.06008341 203.78564716 -114.05992106 202.84182478 -114.05975379 201.86940171 C-113.93440463 199.75221278 -113.93440463 199.75221278 -112.93440463 198.75221278 C-111.52322761 198.63011354 -110.10620004 198.57450405 -108.69001986 198.54689051 C-107.78916155 198.52694529 -106.88830325 198.50700007 -105.9601462 198.48645045 C-104.49140803 198.46138171 -104.49140803 198.46138171 -102.99299838 198.43580653 C-101.9955913 198.41502543 -100.99818423 198.39424433 -99.9705527 198.37283351 C-96.7710762 198.30722641 -93.5715148 198.24840144 -90.37190463 198.18971278 C-88.20848424 198.14653816 -86.04507257 198.10292423 -83.88167025 198.0588534 C-78.56600589 197.95153375 -73.25025629 197.84978851 -67.93440463 197.75221278 C-68.39936846 197.28724894 -68.8643323 196.8222851 -69.34338595 196.34323145 C-101.87849642 163.80812098 -101.87849642 163.80812098 -104.0191672 161.66731288 C-105.18923786 160.49732612 -106.35945793 159.32748873 -107.5299399 158.15791346 C-109.25103979 156.43804289 -110.96949476 154.71641295 -112.67268588 152.97877528 C-115.65992691 149.93964669 -118.7071045 147.03630534 -121.93440463 144.25221278 C-124.65074007 141.88671518 -127.36230083 139.52123202 -129.99690463 137.06471278 C-130.58600619 136.52459559 -131.17510775 135.9844784 -131.78206088 135.42799403 C-132.93440463 133.75221278 -132.93440463 133.75221278 -132.73904635 131.90634181 C-131.71172873 129.15608086 -130.2755768 127.69840827 -128.2124808 125.61036707 C-127.42463702 124.80661143 -126.63679324 124.00285578 -125.8250754 123.17474391 C-124.96783373 122.31730082 -124.11059207 121.45985774 -123.22737338 120.57643153 C-122.35043322 119.69187785 -121.47349307 118.80732417 -120.56997897 117.89596583 C-118.71336556 116.02854406 -116.85377006 114.16473904 -114.98884799 112.30567957 C-112.59761482 109.92035598 -110.22517314 107.51725262 -107.85717513 105.10888983 C-105.59615039 102.81584601 -103.31700745 100.54096134 -101.03987338 98.26393153 C-100.1887044 97.39636729 -99.33753542 96.52880305 -98.46057345 95.63494898 C-97.66327319 94.84695414 -96.86597292 94.0589593 -96.04451205 93.24708582 C-95.345815 92.54633433 -94.64711794 91.84558283 -93.92724825 91.12359644 C-91.93440463 89.75221278 -91.93440463 89.75221278 -90.05468585 89.90510203 C-87.22090531 91.03727541 -85.98263988 92.60359046 -84.01706149 94.93460108 C-83.24564822 95.83629023 -82.47423495 96.73797938 -81.67944552 97.66699244 C-80.83940478 98.66392619 -79.99936404 99.66085993 -79.13386752 100.68800379 C-77.27959433 102.85703365 -75.41689652 105.01873813 -73.55282809 107.17935206 C-72.81477362 108.0364015 -72.81477362 108.0364015 -72.06180896 108.91076507 C-65.07521891 116.99516076 -57.81675599 124.83574111 -50.57120825 132.68754698 C-44.71936733 139.04411851 -38.97947282 145.45533035 -33.44587924 152.09181239 C-27.00151183 159.79293224 -20.33527326 167.23119602 -13.28206088 174.38111903 C-12.70487952 174.96646056 -12.12769817 175.5518021 -11.53302647 176.15488125 C8.65482815 196.30041267 28.18475981 201.28120204 56.37603544 201.39184596 C75.00387149 201.22242948 93.56484279 199.87548647 112.06559537 197.75221278 C92.15444485 177.81773127 72.24045393 157.88609118 52.3230512 137.95785643 C43.07571857 128.70536127 33.82932773 119.45192854 24.58512662 110.19630457 C16.53055513 102.13178494 8.47424418 94.06900784 0.4158145 86.00834341 C-3.85340185 81.73782017 -8.12172503 77.46641253 -12.38796832 73.19291903 C-16.39941847 69.17470663 -20.41318142 65.15881945 -24.42876841 61.14474131 C-25.90590935 59.66732414 -27.38218664 58.18904294 -28.85755564 56.70985629 C-30.86455747 54.69791405 -32.87458017 52.68904028 -34.88542391 50.68093897 C-35.47491332 50.08853673 -36.06440273 49.49613448 -36.67175545 48.88578065 C-39.530263 45.95908725 -39.530263 45.95908725 -42.93440463 43.75221278 C-42.36007802 40.01228888 -40.84113258 38.27080227 -38.2124808 35.61036707 C-37.42463702 34.80661143 -36.63679324 34.00285578 -35.8250754 33.17474391 C-34.96783373 32.31730082 -34.11059207 31.45985774 -33.22737338 30.57643153 C-32.35043322 29.69187785 -31.47349307 28.80732417 -30.56997897 27.89596583 C-28.71336556 26.02854406 -26.85377006 24.16473904 -24.98884799 22.30567957 C-22.59761482 19.92035598 -20.22517314 17.51725262 -17.85717513 15.10888983 C-15.59615039 12.81584601 -13.31700745 10.54096134 -11.03987338 8.26393153 C-10.1887044 7.39636729 -9.33753542 6.52880305 -8.46057345 5.63494898 C-7.26462306 4.45295672 -7.26462306 4.45295672 -6.04451205 3.24708582 C-5.345815 2.54633433 -4.64711794 1.84558283 -3.92724825 1.12359644 C-1.93440463 -0.24778722 -1.93440463 -0.24778722 0 0 Z " fill="#FE6162" transform="translate(400.9344046264887,0.2477872222661972)"/>
<path d="M0 0 C2.15906371 0.93379782 3.40451629 1.99987507 5.0519104 3.67681885 C5.63907837 4.26914307 6.22624634 4.86146729 6.83120728 5.47174072 C7.73516235 6.4066333 7.73516235 6.4066333 8.65737915 7.3604126 C9.24841431 7.956604 9.83944946 8.55279541 10.44839478 9.16705322 C13.34459859 12.11379059 16.11092907 15.10598379 18.74601746 18.28796387 C23.44504303 23.6703175 28.79796723 28.32566669 34.12499809 33.06674385 C48.38688546 45.77171635 62.3541928 58.77891939 76.22524166 71.90818405 C84.22858206 79.47167743 92.291088 86.93924309 100.55117798 94.222229 C110.12759704 102.68634771 119.48424416 111.34402625 128.5597229 120.3447876 C129.29407798 121.07301161 130.02843307 121.80123562 130.78504133 122.55152702 C151.96708314 143.8039112 162.24163283 162.38611261 162.41093445 192.78405762 C162.20466543 209.2408626 160.55370145 225.57407102 157.84487915 241.7979126 C159.17276522 241.5645402 159.17276522 241.5645402 160.52747726 241.32645321 C190.67070833 236.29203738 228.11691923 230.82844805 254.61899996 249.24757016 C263.99048143 256.17994907 272.41309232 264.13212136 280.61050415 272.39556885 C281.37223623 273.16335144 282.13396832 273.93113402 282.91878319 274.72218275 C292.32902091 284.27827069 301.34481297 294.16806139 310.24165869 304.20099866 C317.90617609 312.82624343 325.82172351 321.20442201 333.76307726 329.57415402 C347.31776278 343.86591158 360.70000019 358.29969907 373.83457947 372.97892761 C379.20988345 378.96570932 384.6023325 384.69317752 390.84487915 389.7979126 C392.55275496 391.33811477 394.24452129 392.89671306 395.90737915 394.4854126 C396.68210571 395.21115479 397.45683228 395.93689697 398.2550354 396.68463135 C399.84487915 398.7979126 399.84487915 398.7979126 399.6701355 400.67785645 C398.6319702 403.34486863 397.24183248 404.79581521 395.23062134 406.83209229 C394.466026 407.61259949 393.70143066 408.39310669 392.91366577 409.19726562 C392.08143494 410.02969788 391.2492041 410.86213013 390.39175415 411.7197876 C389.53938171 412.57977356 388.68700928 413.43975952 387.80880737 414.32580566 C386.00359052 416.14183047 384.19437578 417.95388859 382.38150024 419.76226807 C379.60568564 422.53710989 376.85186325 425.33256472 374.0987854 428.12994385 C372.3435775 429.89035806 370.58710848 431.64951597 368.82925415 433.4072876 C367.59305328 434.66808136 367.59305328 434.66808136 366.33187866 435.9543457 C365.55467468 436.72224426 364.7774707 437.49014282 363.97671509 438.28131104 C363.29800354 438.96207703 362.61929199 439.64284302 361.92001343 440.34423828 C359.17301203 442.26856936 358.16523975 442.36602749 354.84487915 441.7979126 C352.29463819 440.00973199 350.18823168 437.81120209 348.01113319 435.59337234 C346.99407088 434.58721083 346.99407088 434.58721083 345.95646185 433.56072283 C343.66801768 431.29065038 341.39794144 429.00303851 339.1272583 426.71520996 C337.48161881 425.07532676 335.83489018 423.43653591 334.18716276 421.79875064 C330.12411505 417.7544648 326.07289632 413.69859498 322.02641008 409.63774414 C317.18055654 404.77598094 312.32028557 399.92872968 307.45950481 395.08189842 C297.935998 385.58475512 288.42688007 376.07330676 278.92376482 366.55576387 C270.60817774 358.2276136 262.28797691 349.90410786 253.96311569 341.58522797 C253.41154825 341.03404245 252.8599808 340.48285693 252.29169919 339.91496882 C250.052881 337.67770724 247.81404512 335.44046335 245.57518015 333.20324859 C224.56148485 312.20485769 203.56241448 291.19189535 182.56982396 270.17240792 C163.9050276 251.48387918 145.22734307 232.80832382 126.53872681 214.14361572 C105.55694341 193.18858426 84.5832346 172.22552548 63.62255514 151.24938273 C61.38963538 149.01485931 59.15669588 146.78035562 56.92374802 144.54586029 C56.3739192 143.99563609 55.82409039 143.44541189 55.2576001 142.87851423 C46.94160752 134.55682583 38.61944634 126.24134012 30.29430008 117.92881012 C20.83239255 108.48116983 11.37940871 99.02470302 1.93823488 89.5563412 C-2.88351758 84.72116346 -7.70919009 79.89006393 -12.54620361 75.07014847 C-16.96690849 70.66425659 -21.37605977 66.24714662 -25.77597173 61.8204926 C-27.37639796 60.21444462 -28.98112837 58.61267293 -30.59037761 57.01546565 C-32.76404871 54.85682651 -34.92199417 52.68363685 -37.07642174 50.50581741 C-37.716149 49.87779598 -38.35587626 49.24977455 -39.0149892 48.60272217 C-40.73308504 46.84669423 -40.73308504 46.84669423 -43.15512085 43.7979126 C-42.70483257 40.04643168 -41.05344655 38.30799824 -38.43319702 35.65606689 C-37.64535324 34.85231125 -36.85750946 34.0485556 -36.04579163 33.22044373 C-35.18854996 32.36300064 -34.33130829 31.50555756 -33.4480896 30.62213135 C-32.57114944 29.73757767 -31.69420929 28.85302399 -30.79069519 27.94166565 C-28.93408178 26.07424388 -27.07448628 24.21043886 -25.20956421 22.35137939 C-22.81833105 19.9660558 -20.44588936 17.56295244 -18.07789135 15.15458965 C-15.81686661 12.86154583 -13.53772367 10.58666116 -11.2605896 8.30963135 C-10.40942062 7.44206711 -9.55825165 6.57450287 -8.68128967 5.6806488 C-7.48533928 4.49865654 -7.48533928 4.49865654 -6.26522827 3.29278564 C-5.21718269 2.2416584 -5.21718269 2.2416584 -4.14796448 1.16929626 C-2.15512085 -0.2020874 -2.15512085 -0.2020874 0 0 Z " fill="#FE6062" transform="translate(43.155120849609375,358.20208740234375)"/>
<path d="M0 0 C2.98429242 1.34178973 5.04547458 3.6127578 7.29678345 5.92169189 C7.80722702 6.43400864 8.31767059 6.94632538 8.84358215 7.47416687 C9.92371061 8.56101284 11.00023755 9.65144827 12.07339478 10.74517822 C13.69175575 12.39435137 15.32021385 14.03294097 16.95108032 15.66973877 C21.97547407 20.7326757 26.91626663 25.83216289 31.50650024 31.29840088 C33.06899663 33.11680603 33.06899663 33.11680603 35.9022522 35.35528564 C38.31545377 37.36628696 39.94256381 39.0650758 41.88027954 41.46417236 C44.75584578 44.82185136 47.76560091 47.32644557 51.3500061 49.90655518 C60.25974883 56.73122299 67.75733004 63.46315016 69.43439865 75.01057053 C70.54010213 86.23285186 69.98306843 97.5298358 69.41287231 108.76867676 C69.1848295 113.74856935 69.086727 118.73101576 68.97647095 123.71466064 C68.74285851 133.434792 68.3692073 143.14375531 67.9022522 152.85528564 C64.36247672 151.34340526 62.0716051 149.28271802 59.35237122 146.57955933 C58.44511292 145.68227615 57.53785461 144.78499298 56.60310364 143.86051941 C55.60529559 142.86360709 54.60760354 141.86657865 53.61001587 140.8694458 C52.55402048 139.82107317 51.49762402 138.7731044 50.44085693 137.72550964 C47.57468455 134.88126883 44.71509984 132.03049386 41.85733199 129.17781115 C40.07267346 127.39679566 38.28672369 125.61708546 36.50032997 123.83781052 C30.27156721 117.63353083 24.04853569 111.42356162 17.83023071 105.20880127 C12.02752361 99.40973572 6.2117977 93.6239525 0.39004153 87.84401667 C-4.60481613 82.88379022 -9.59007 77.9140477 -14.56799144 72.93682516 C-17.54270563 69.96290577 -20.52130469 66.99314012 -23.50977516 64.03303909 C-26.31725786 61.25161647 -29.11266014 58.45860768 -31.89907455 55.65608406 C-32.92554591 54.62778898 -33.95633421 53.60378317 -34.9916172 52.58436012 C-36.400145 51.19611052 -37.79198208 49.79098588 -39.18278503 48.38497925 C-39.96756635 47.60220926 -40.75234766 46.81943928 -41.56091022 46.01294899 C-43.0977478 43.85528564 -43.0977478 43.85528564 -42.94317627 41.69757366 C-41.80628672 39.22015768 -40.2920753 37.65286094 -38.37582397 35.71343994 C-37.58798019 34.9096843 -36.80013641 34.10592865 -35.98841858 33.27781677 C-35.13117691 32.42037369 -34.27393524 31.5629306 -33.39071655 30.67950439 C-32.5137764 29.79495071 -31.63683624 28.91039703 -30.73332214 27.9990387 C-28.87670873 26.13161693 -27.01711323 24.2678119 -25.15219116 22.40875244 C-22.760958 20.02342884 -20.38851631 17.62032548 -18.0205183 15.2119627 C-15.75949357 12.91891888 -13.48035062 10.6440342 -11.20321655 8.36700439 C-10.35204758 7.49944016 -9.5008786 6.63187592 -8.62391663 5.73802185 C-7.42796623 4.55602959 -7.42796623 4.55602959 -6.20785522 3.35015869 C-5.15980965 2.29903145 -5.15980965 2.29903145 -4.09059143 1.22666931 C-2.0977478 -0.14471436 -2.0977478 -0.14471436 0 0 Z " fill="#FD6162" transform="translate(133.09774780273438,268.14471435546875)"/>
<path d="M0 0 C10.6140333 -0.25589267 21.22732248 -0.45082969 31.84382248 -0.56993389 C36.77476387 -0.62712688 41.7035816 -0.70457256 46.63330078 -0.82983398 C51.3991984 -0.95016231 56.16306617 -1.01528895 60.93036652 -1.04364967 C62.74056181 -1.06383418 64.55065713 -1.10325272 66.35997772 -1.16303062 C81.98568786 -1.65832444 81.98568786 -1.65832444 88.30142212 3.71440792 C90.69203111 6.02730117 92.84376594 8.46534026 95 11 C96.1027691 12.09602925 97.21540648 13.18243976 98.34667969 14.24902344 C99.19649414 15.11043945 100.04630859 15.97185547 100.921875 16.859375 C101.39643127 17.3377179 101.87098755 17.81606079 102.35992432 18.30889893 C103.82588975 19.78671446 105.28841651 21.26785152 106.75 22.75 C114.1329821 30.31217105 114.1329821 30.31217105 121.93359375 37.43359375 C127.71843906 42.37786803 132.9692861 47.90164029 138.3125 53.3125 C140.45152309 55.47816178 142.59388197 57.64044431 144.73828125 59.80078125 C145.46486687 60.53981438 145.46486687 60.53981438 146.20613098 61.29377747 C148.38566507 63.48915375 150.41200737 65.27467158 153 67 C152.42567339 70.7399239 150.90672795 72.48141051 148.27807617 75.1418457 C147.49023239 75.94560135 146.70238861 76.74935699 145.89067078 77.57746887 C145.03342911 78.43491196 144.17618744 79.29235504 143.29296875 80.17578125 C141.97755852 81.50261177 141.97755852 81.50261177 140.63557434 82.85624695 C138.77896093 84.72366872 136.91936543 86.58747374 135.05444336 88.4465332 C132.6632102 90.8318568 130.29076851 93.23496016 127.9227705 95.64332294 C125.66174576 97.93636676 123.38260282 100.21125144 121.10546875 102.48828125 C120.25429977 103.35584549 119.4031308 104.22340973 118.52616882 105.11726379 C117.72886856 105.90525864 116.9315683 106.69325348 116.11010742 107.50512695 C115.41141037 108.20587845 114.71271332 108.90662994 113.99284363 109.62861633 C112 111 112 111 110.16176701 110.84864235 C107.24356114 109.70304568 105.63548636 108.01017719 103.41888428 105.79310608 C102.50465698 104.8858931 101.59042969 103.97868011 100.64849854 103.04397583 C99.64279713 102.03084679 98.63724803 101.01756654 97.63183594 100.00415039 C96.56784898 98.9425913 95.50321689 97.88167849 94.43798828 96.82136536 C91.54706139 93.93984997 88.66563963 91.04899891 85.78608227 88.15612721 C82.77462034 85.13336011 79.75546138 82.1182985 76.73736572 79.10215759 C71.67157449 74.03724942 66.61180067 68.96639074 61.55566406 63.8918457 C55.70321418 58.01821092 49.84196532 52.15347303 43.97579741 46.29354101 C38.33912059 40.66255028 32.70811815 35.02591977 27.07990265 29.3864727 C24.68132283 26.98323863 22.28085746 24.58191122 19.87889862 22.18205452 C17.05402372 19.35905741 14.23416753 16.53114187 11.41818237 13.69927788 C10.38143791 12.65827604 9.34297285 11.61898464 8.30271149 10.58149719 C6.88825018 9.17023722 5.48051074 7.75224949 4.07318115 6.33387756 C3.28194729 5.54059083 2.49071342 4.7473041 1.67550278 3.92997837 C0 2 0 2 0 0 Z " fill="#FE6162" transform="translate(380,600)"/>
<path d="M0 0 C2.91006872 1.39395297 4.86164055 2.65282407 7.03125 5.0546875 C7.58868896 5.66368896 8.14612793 6.27269043 8.72045898 6.90014648 C9.60133179 7.87769897 9.60133179 7.87769897 10.5 8.875 C15.04485335 13.83991069 19.64029573 18.71558817 24.4375 23.4375 C28.24576935 27.19510775 31.88207385 31.0306818 35.328125 35.125 C37.88922871 37.99726584 40.73918204 40.56299274 43.59375 43.140625 C45 45 45 45 44.79077148 46.90869141 C43.84422866 49.41195965 42.73351362 50.53031253 40.75390625 52.3203125 C40.08617187 52.93326172 39.4184375 53.54621094 38.73046875 54.17773438 C38.01503906 54.82033203 37.29960938 55.46292969 36.5625 56.125 C35.09380902 57.46999804 33.62635975 58.81635325 32.16015625 60.1640625 C31.4448877 60.81922852 30.72961914 61.47439453 29.99267578 62.14941406 C27.42351849 64.53537489 24.95800545 66.99968147 22.5 69.5 C19.07054739 72.97548554 15.53801511 76.23595494 11.8125 79.390625 C9.9983876 81.0014317 8.38901736 82.71347107 6.75 84.5 C5.8425 85.325 4.935 86.15 4 87 C0.18022978 86.8078841 -1.71313724 84.65090068 -4.30957031 82.03100586 C-5.5704245 80.76981178 -5.5704245 80.76981178 -6.85675049 79.48313904 C-8.20383087 78.11283287 -8.20383087 78.11283287 -9.578125 76.71484375 C-10.5046991 75.78402481 -11.43127319 74.85320587 -12.38592529 73.8941803 C-14.84539987 71.42326879 -17.29573101 68.94348031 -19.7442627 66.46173096 C-22.24592051 63.92934747 -24.75612622 61.4054687 -27.265625 58.88085938 C-32.18548013 53.92886047 -37.09572753 48.96743051 -42 44 C-40.54131246 40.64000982 -38.69131052 38.44796894 -36.10107422 35.87402344 C-34.90005569 34.67323151 -34.90005569 34.67323151 -33.67477417 33.44818115 C-32.81014557 32.59387512 -31.94551697 31.73956909 -31.0546875 30.859375 C-30.1696756 29.97719299 -29.2846637 29.09501099 -28.37283325 28.18609619 C-26.02549869 25.84805457 -23.67393215 23.51444126 -21.32019043 21.18286133 C-18.91686073 18.80003474 -16.51922233 16.41149652 -14.12109375 14.0234375 C-9.41928533 9.34368138 -4.71181336 4.66968133 0 0 Z " fill="#FD6062" transform="translate(576,534)"/>
<path d="M0 0 C3.2844404 0.57945005 4.87493896 1.51860416 7.171875 3.9140625 C7.74929443 4.50630615 8.32671387 5.0985498 8.92163086 5.70874023 C9.82667358 6.65728882 9.82667358 6.65728882 10.75 7.625 C12.0150446 8.9224111 13.2819527 10.218008 14.55078125 11.51171875 C15.45497803 12.43476807 15.45497803 12.43476807 16.37744141 13.37646484 C18.15857048 15.15866592 20.00518774 16.8208414 21.9375 18.4375 C26.73336716 22.48595929 31.06771465 27.01889176 35.45874023 31.49584961 C39.47116415 35.56311544 43.6143694 39.33684137 48 43 C46.54131246 46.35999018 44.69131052 48.55203106 42.10107422 51.12597656 C41.3003952 51.92650452 40.49971619 52.72703247 39.67477417 53.55181885 C38.37783127 54.83327789 38.37783127 54.83327789 37.0546875 56.140625 C36.1696756 57.02280701 35.2846637 57.90498901 34.37283325 58.81390381 C32.02549869 61.15194543 29.67393215 63.48555874 27.32019043 65.81713867 C24.91686073 68.19996526 22.51922233 70.58850348 20.12109375 72.9765625 C15.41928533 77.65631862 10.71181336 82.33031867 6 87 C2.62367669 85.53198172 0.3811071 83.64899752 -2.23364258 81.07275391 C-3.46930717 79.8610704 -3.46930717 79.8610704 -4.72993469 78.62490845 C-5.60925156 77.75095428 -6.48856842 76.87700012 -7.39453125 75.9765625 C-8.30128098 75.07884125 -9.2080307 74.18112 -10.14225769 73.25619507 C-12.05555303 71.35740243 -13.96628824 69.45634947 -15.8737793 67.55175781 C-18.32132955 65.10961121 -20.78465644 62.68405957 -23.25217152 60.26210976 C-25.6022951 57.94881235 -27.9347403 55.61781852 -30.26953125 53.2890625 C-31.15896927 52.4191568 -32.04840729 51.5492511 -32.96479797 50.65298462 C-33.77281357 49.8388913 -34.58082916 49.02479797 -35.41333008 48.18603516 C-36.13184647 47.47258942 -36.85036285 46.75914368 -37.59065247 46.02407837 C-39 44 -39 44 -38.87895203 41.90927124 C-37.42632055 38.7538459 -34.86164654 36.60233405 -32.375 34.25 C-31.26503263 33.17252107 -30.15694884 32.09309827 -29.05078125 31.01171875 C-28.51791504 30.4914209 -27.98504883 29.97112305 -27.43603516 29.43505859 C-25.71759118 27.71778323 -24.12721842 25.92035554 -22.5625 24.0625 C-18.86151251 19.70517975 -14.77832279 15.75176026 -10.71630859 11.73583984 C-6.93273839 7.97882878 -3.36867179 4.13865391 0 0 Z " fill="#FD6162" transform="translate(219,180)"/>
<path d="M0 0 C0.33 0 0.66 0 1 0 C1.02527062 6.39037231 1.04283317 12.78073183 1.05493164 19.17114258 C1.05997308 21.34692873 1.06680607 23.52271147 1.07543945 25.69848633 C1.08751338 28.81853067 1.09323005 31.93853038 1.09765625 35.05859375 C1.10281754 36.03775253 1.10797882 37.01691132 1.11329651 38.02574158 C1.11340981 39.37702904 1.11340981 39.37702904 1.11352539 40.75561523 C1.115746 41.55281479 1.11796661 42.35001434 1.12025452 43.17137146 C1 45 1 45 0 46 C-1.66713973 46.09810953 -3.33846748 46.12555571 -5.00849152 46.12584114 C-6.64600726 46.12975276 -6.64600726 46.12975276 -8.31660414 46.13374341 C-9.53087599 46.13151268 -10.74514785 46.12928196 -11.99621582 46.12698364 C-13.27451657 46.12854363 -14.55281732 46.13010362 -15.86985445 46.13171089 C-19.4343659 46.13590866 -22.99885078 46.13381152 -26.56336236 46.13072467 C-30.40116578 46.1284726 -34.23896447 46.13194921 -38.07676697 46.13470459 C-45.6014814 46.13916336 -53.12618589 46.13818535 -60.65090072 46.13529195 C-66.76357027 46.13303833 -72.87623702 46.13272521 -78.98890686 46.13381577 C-80.29130264 46.13404561 -80.29130264 46.13404561 -81.62000945 46.13428011 C-83.38358319 46.13459982 -85.14715692 46.13492403 -86.91073066 46.1352527 C-103.46801573 46.1381078 -120.02529527 46.13481999 -136.58257943 46.12945233 C-150.80554401 46.12498427 -165.02850042 46.12576019 -179.25146484 46.13037109 C-195.74740022 46.13571632 -212.24333075 46.13783311 -228.73926687 46.13475883 C-230.49654229 46.13444026 -232.25381772 46.13412589 -234.01109314 46.13381577 C-234.87582395 46.13366149 -235.74055477 46.13350721 -236.63148955 46.13334826 C-242.74049799 46.13248295 -248.84950338 46.13394629 -254.95851135 46.13629532 C-262.39806365 46.13909295 -269.83760539 46.13835585 -277.27715647 46.13301457 C-281.07669317 46.13037705 -284.87621224 46.12937335 -288.67574883 46.13266373 C-292.78510946 46.13616873 -296.89442513 46.13199855 -301.00378418 46.12698364 C-302.82519196 46.13032973 -302.82519196 46.13032973 -304.68339586 46.13374341 C-305.77507303 46.13113566 -306.86675019 46.12852791 -307.99150848 46.12584114 C-308.9414064 46.12567879 -309.89130431 46.12551644 -310.86998701 46.12534916 C-313 46 -313 46 -314 45 C-314.04063832 43.33382885 -314.042721 41.66611905 -314 40 C-313.67 40.99 -313.34 41.98 -313 43 C-312.34 43 -311.68 43 -311 43 C-310.67 42.01 -310.34 41.02 -310 40 C-306.04 40 -302.08 40 -298 40 C-298 40.99 -298 41.98 -298 43 C-296.68 43 -295.36 43 -294 43 C-293.67 42.01 -293.34 41.02 -293 40 C-289.37 40 -285.74 40 -282 40 C-281.505 42.475 -281.505 42.475 -281 45 C-280.26136719 44.75056641 -280.26136719 44.75056641 -279.5078125 44.49609375 C-275.27748955 43.65925416 -270.96196858 44.00155313 -266.66796875 44.12695312 C-264.77840518 44.15664128 -262.8878816 44.0850584 -261 44 C-260.34 43.34 -259.68 42.68 -259 42 C-256.8359375 41.8046875 -256.8359375 41.8046875 -254.375 41.875 C-253.55773437 41.89304687 -252.74046875 41.91109375 -251.8984375 41.9296875 C-251.27195312 41.95289063 -250.64546875 41.97609375 -250 42 C-249.67 42.99 -249.34 43.98 -249 45 C-248.50757813 44.83371094 -248.01515625 44.66742188 -247.5078125 44.49609375 C-243.27748955 43.65925416 -238.96196858 44.00155313 -234.66796875 44.12695312 C-232.77840518 44.15664128 -230.8878816 44.0850584 -229 44 C-228.01 43.01 -228.01 43.01 -227 42 C-224.8359375 41.8046875 -224.8359375 41.8046875 -222.375 41.875 C-221.55773437 41.89304687 -220.74046875 41.91109375 -219.8984375 41.9296875 C-219.27195312 41.95289063 -218.64546875 41.97609375 -218 42 C-217.67 42.99 -217.34 43.98 -217 45 C-216.50757813 44.83371094 -216.01515625 44.66742188 -215.5078125 44.49609375 C-211.27748955 43.65925416 -206.96196858 44.00155313 -202.66796875 44.12695312 C-200.77840518 44.15664128 -198.8878816 44.0850584 -197 44 C-196.01 43.01 -196.01 43.01 -195 42 C-192.8359375 41.8046875 -192.8359375 41.8046875 -190.375 41.875 C-189.55773437 41.89304687 -188.74046875 41.91109375 -187.8984375 41.9296875 C-187.27195312 41.95289063 -186.64546875 41.97609375 -186 42 C-185.67 42.99 -185.34 43.98 -185 45 C-184.50757813 44.83371094 -184.01515625 44.66742188 -183.5078125 44.49609375 C-179.27748955 43.65925416 -174.96196858 44.00155313 -170.66796875 44.12695312 C-168.77840518 44.15664128 -166.8878816 44.0850584 -165 44 C-164.01 43.01 -164.01 43.01 -163 42 C-160.8359375 41.8046875 -160.8359375 41.8046875 -158.375 41.875 C-157.55773437 41.89304687 -156.74046875 41.91109375 -155.8984375 41.9296875 C-155.27195312 41.95289063 -154.64546875 41.97609375 -154 42 C-153.67 42.99 -153.34 43.98 -153 45 C-152.50757813 44.83371094 -152.01515625 44.66742188 -151.5078125 44.49609375 C-147.27748955 43.65925416 -142.96196858 44.00155313 -138.66796875 44.12695312 C-136.77840518 44.15664128 -134.8878816 44.0850584 -133 44 C-132.01 43.01 -132.01 43.01 -131 42 C-128.8359375 41.8046875 -128.8359375 41.8046875 -126.375 41.875 C-125.55773437 41.89304687 -124.74046875 41.91109375 -123.8984375 41.9296875 C-123.27195312 41.95289063 -122.64546875 41.97609375 -122 42 C-121.67 42.99 -121.34 43.98 -121 45 C-120.50757813 44.83371094 -120.01515625 44.66742188 -119.5078125 44.49609375 C-115.27748955 43.65925416 -110.96196858 44.00155313 -106.66796875 44.12695312 C-104.77840518 44.15664128 -102.8878816 44.0850584 -101 44 C-100.01 43.01 -100.01 43.01 -99 42 C-96.8359375 41.8046875 -96.8359375 41.8046875 -94.375 41.875 C-93.55773437 41.89304687 -92.74046875 41.91109375 -91.8984375 41.9296875 C-91.27195312 41.95289063 -90.64546875 41.97609375 -90 42 C-89.67 42.99 -89.34 43.98 -89 45 C-88.50757813 44.83371094 -88.01515625 44.66742188 -87.5078125 44.49609375 C-83.27748955 43.65925416 -78.96196858 44.00155313 -74.66796875 44.12695312 C-72.77840518 44.15664128 -70.8878816 44.0850584 -69 44 C-68.01 43.01 -68.01 43.01 -67 42 C-64.8359375 41.8046875 -64.8359375 41.8046875 -62.375 41.875 C-61.55773437 41.89304687 -60.74046875 41.91109375 -59.8984375 41.9296875 C-59.27195312 41.95289063 -58.64546875 41.97609375 -58 42 C-57.67 42.99 -57.34 43.98 -57 45 C-56.50757813 44.83371094 -56.01515625 44.66742188 -55.5078125 44.49609375 C-51.27748955 43.65925416 -46.96196858 44.00155313 -42.66796875 44.12695312 C-40.77840518 44.15664128 -38.8878816 44.0850584 -37 44 C-36.34 43.34 -35.68 42.68 -35 42 C-32.9765625 41.76953125 -32.9765625 41.76953125 -30.625 41.8125 C-29.85414063 41.81894531 -29.08328125 41.82539063 -28.2890625 41.83203125 C-26.08110656 41.99404849 -24.12464668 42.39365106 -22 43 C-21.67 42.01 -21.34 41.02 -21 40 C-17.37 40 -13.74 40 -10 40 C-10 40.99 -10 41.98 -10 43 C-8.68 43 -7.36 43 -6 43 C-5.67 42.01 -5.34 41.02 -5 40 C-3.35 40 -1.7 40 0 40 C0 26.8 0 13.6 0 0 Z " fill="#D57072" transform="translate(601,466)"/>
<path d="M0 0 C10.7526572 -0.1158035 21.50516629 -0.20466951 32.25831985 -0.25906086 C37.25137594 -0.28516495 42.2440057 -0.32057787 47.23681641 -0.37719727 C52.05438176 -0.43148802 56.87153683 -0.46141442 61.68938446 -0.47438622 C63.52826142 -0.48363139 65.36711569 -0.50168519 67.20581818 -0.52865028 C69.77995989 -0.56490253 72.35240228 -0.5699471 74.92675781 -0.56762695 C75.68848801 -0.58560333 76.4502182 -0.60357971 77.23503113 -0.62210083 C81.19536155 -0.58342822 82.66737008 -0.33673358 85.50457764 2.53547668 C85.99806702 3.34876938 86.4915564 4.16206207 87 5 C85.906875 4.67 84.81375 4.34 83.6875 4 C80.15421116 2.86913351 80.15421116 2.86913351 77 3 C75.54339966 2.75769653 75.54339966 2.75769653 74.05737305 2.51049805 C68.75653438 1.72535856 63.42965629 1.83749707 58.08203125 1.83203125 C56.94722824 1.82870285 55.81242523 1.82537445 54.64323425 1.82194519 C52.25377811 1.81689887 49.86431498 1.81453615 47.47485352 1.81469727 C43.81449928 1.8125012 40.154442 1.79429486 36.49414062 1.77539062 C34.16927186 1.77245818 31.84440167 1.77047239 29.51953125 1.76953125 C28.42469925 1.76234573 27.32986725 1.75516022 26.20185852 1.74775696 C25.18367538 1.75083359 24.16549225 1.75391022 23.11645508 1.75708008 C22.22267654 1.75565506 21.32889801 1.75423004 20.40803528 1.75276184 C17.82499465 2.01796818 16.28451382 2.8267954 14 4 C9.12258076 3.63189289 4.65181774 2.42402584 0 1 C0 0.67 0 0.34 0 0 Z " fill="#E26B6F" transform="translate(202,600)"/>
<path d="M0 0 C0.33 0 0.66 0 1 0 C1.04934399 5.94481181 1.08569282 11.88950509 1.10986328 17.83447266 C1.11993671 19.85793127 1.13359595 21.88137528 1.15087891 23.90478516 C1.17506847 26.80895589 1.18646949 29.71293461 1.1953125 32.6171875 C1.20563507 33.52556366 1.21595764 34.43393982 1.22659302 35.36984253 C1.22674408 36.21056305 1.22689514 37.05128357 1.22705078 37.91748047 C1.231492 38.65916473 1.23593323 39.400849 1.24050903 40.16500854 C1 42 1 42 -1 44 C-1 43.34 -1 42.68 -1 42 C-1.56170898 42.48895752 -2.12341797 42.97791504 -2.70214844 43.48168945 C-5.35481643 45.23444575 -6.62782917 45.35331098 -9.765625 45.29296875 C-10.65507813 45.28330078 -11.54453125 45.27363281 -12.4609375 45.26367188 C-13.38132812 45.23853516 -14.30171875 45.21339844 -15.25 45.1875 C-16.18585937 45.17396484 -17.12171875 45.16042969 -18.0859375 45.14648438 C-20.39121327 45.11119954 -22.6953106 45.06190281 -25 45 C-24.67 44.34 -24.34 43.68 -24 43 C-23.34 43 -22.68 43 -22 43 C-21.67 42.01 -21.34 41.02 -21 40 C-17.37 40 -13.74 40 -10 40 C-10 40.99 -10 41.98 -10 43 C-8.68 43 -7.36 43 -6 43 C-5.67 42.01 -5.34 41.02 -5 40 C-3.35 40 -1.7 40 0 40 C0 26.8 0 13.6 0 0 Z " fill="#E76A6C" transform="translate(601,466)"/>
<path d="M0 0 C27.39 0 54.78 0 83 0 C83.495 0.99 83.495 0.99 84 2 C83.15475266 1.99777939 82.30950531 1.99555878 81.43864441 1.99327087 C73.47814639 1.97324484 65.51765681 1.95801403 57.5571394 1.94818783 C53.46443292 1.94296629 49.37174724 1.93588183 45.27905273 1.92456055 C41.33036914 1.91370582 37.38170556 1.90771766 33.43300819 1.90512276 C31.92550656 1.90327318 30.41800605 1.8996615 28.91051292 1.89426994 C26.80123897 1.88702523 24.69204804 1.88601051 22.58276367 1.88647461 C20.78073738 1.88314369 20.78073738 1.88314369 18.94230652 1.87974548 C15.93900127 1.86632022 15.93900127 1.86632022 13 3 C8.46395485 3.14632404 4.42546179 3.10636545 0 2 C0 1.34 0 0.68 0 0 Z " fill="#E26C6F" transform="translate(380,600)"/>
<path d="M0 0 C0.33 0.99 0.66 1.98 1 3 C1.66 3 2.32 3 3 3 C3.33 2.01 3.66 1.02 4 0 C7.96 0 11.92 0 16 0 C16 0.99 16 1.98 16 3 C17.32 3 18.64 3 20 3 C20.33 2.01 20.66 1.02 21 0 C24.63 0 28.26 0 32 0 C32 0.66 32 1.32 32 2 C31.37351562 2.04898437 30.74703125 2.09796875 30.1015625 2.1484375 C28.87566406 2.26058594 28.87566406 2.26058594 27.625 2.375 C26.81289063 2.44460938 26.00078125 2.51421875 25.1640625 2.5859375 C22.79665809 2.82892588 22.79665809 2.82892588 21 5 C18.84521484 5.22705078 18.84521484 5.22705078 16.2109375 5.1953125 C15.26992188 5.18886719 14.32890625 5.18242187 13.359375 5.17578125 C12.37453125 5.15902344 11.3896875 5.14226562 10.375 5.125 C9.38242187 5.11597656 8.38984375 5.10695313 7.3671875 5.09765625 C4.91121866 5.07404116 2.45572832 5.04110799 0 5 C0 3.35 0 1.7 0 0 Z " fill="#EB6A6C" transform="translate(287,506)"/>
<path d="M0 0 C3.63 0 7.26 0 11 0 C11 0.99 11 1.98 11 3 C12.32 3 13.64 3 15 3 C15.33 2.01 15.66 1.02 16 0 C19.63 0 23.26 0 27 0 C27 0.66 27 1.32 27 2 C26.37351562 2.04898437 25.74703125 2.09796875 25.1015625 2.1484375 C23.87566406 2.26058594 23.87566406 2.26058594 22.625 2.375 C21.81289063 2.44460938 21.00078125 2.51421875 20.1640625 2.5859375 C17.79665809 2.82892588 17.79665809 2.82892588 16 5 C13.93701172 5.22705078 13.93701172 5.22705078 11.4296875 5.1953125 C10.53378906 5.18886719 9.63789062 5.18242187 8.71484375 5.17578125 C7.77769531 5.15902344 6.84054687 5.14226562 5.875 5.125 C4.93011719 5.11597656 3.98523438 5.10695313 3.01171875 5.09765625 C0.67422708 5.07404522 -1.66276123 5.04111516 -4 5 C-3.67 4.34 -3.34 3.68 -3 3 C-2.34 3 -1.68 3 -1 3 C-0.67 2.01 -0.34 1.02 0 0 Z " fill="#EC696B" transform="translate(548,506)"/>
<path d="M0 0 C3.63 0 7.26 0 11 0 C11 0.99 11 1.98 11 3 C12.32 3 13.64 3 15 3 C15.33 2.01 15.66 1.02 16 0 C19.63 0 23.26 0 27 0 C27 0.66 27 1.32 27 2 C26.37351562 2.04898437 25.74703125 2.09796875 25.1015625 2.1484375 C23.87566406 2.26058594 23.87566406 2.26058594 22.625 2.375 C21.81289063 2.44460938 21.00078125 2.51421875 20.1640625 2.5859375 C17.79665809 2.82892588 17.79665809 2.82892588 16 5 C13.93701172 5.22705078 13.93701172 5.22705078 11.4296875 5.1953125 C10.53378906 5.18886719 9.63789062 5.18242187 8.71484375 5.17578125 C7.77769531 5.15902344 6.84054687 5.14226562 5.875 5.125 C4.93011719 5.11597656 3.98523438 5.10695313 3.01171875 5.09765625 C0.67422708 5.07404522 -1.66276123 5.04111516 -4 5 C-3.67 4.34 -3.34 3.68 -3 3 C-2.34 3 -1.68 3 -1 3 C-0.67 2.01 -0.34 1.02 0 0 Z " fill="#EC696B" transform="translate(516,506)"/>
<path d="M0 0 C3.63 0 7.26 0 11 0 C11 0.99 11 1.98 11 3 C12.32 3 13.64 3 15 3 C15.33 2.01 15.66 1.02 16 0 C19.63 0 23.26 0 27 0 C27 0.66 27 1.32 27 2 C26.37351562 2.04898437 25.74703125 2.09796875 25.1015625 2.1484375 C23.87566406 2.26058594 23.87566406 2.26058594 22.625 2.375 C21.81289063 2.44460938 21.00078125 2.51421875 20.1640625 2.5859375 C17.79665809 2.82892588 17.79665809 2.82892588 16 5 C13.93701172 5.22705078 13.93701172 5.22705078 11.4296875 5.1953125 C10.53378906 5.18886719 9.63789063 5.18242187 8.71484375 5.17578125 C7.77769531 5.15902344 6.84054687 5.14226562 5.875 5.125 C4.93011719 5.11597656 3.98523438 5.10695313 3.01171875 5.09765625 C0.67422708 5.07404522 -1.66276123 5.04111516 -4 5 C-3.67 4.34 -3.34 3.68 -3 3 C-2.34 3 -1.68 3 -1 3 C-0.67 2.01 -0.34 1.02 0 0 Z " fill="#EC696B" transform="translate(484,506)"/>
<path d="M0 0 C3.63 0 7.26 0 11 0 C11 0.99 11 1.98 11 3 C12.32 3 13.64 3 15 3 C15.33 2.01 15.66 1.02 16 0 C19.63 0 23.26 0 27 0 C27 0.66 27 1.32 27 2 C26.37351562 2.04898437 25.74703125 2.09796875 25.1015625 2.1484375 C23.87566406 2.26058594 23.87566406 2.26058594 22.625 2.375 C21.81289063 2.44460938 21.00078125 2.51421875 20.1640625 2.5859375 C17.79665809 2.82892588 17.79665809 2.82892588 16 5 C13.93701172 5.22705078 13.93701172 5.22705078 11.4296875 5.1953125 C10.53378906 5.18886719 9.63789063 5.18242187 8.71484375 5.17578125 C7.77769531 5.15902344 6.84054687 5.14226562 5.875 5.125 C4.93011719 5.11597656 3.98523438 5.10695313 3.01171875 5.09765625 C0.67422708 5.07404522 -1.66276123 5.04111516 -4 5 C-3.67 4.34 -3.34 3.68 -3 3 C-2.34 3 -1.68 3 -1 3 C-0.67 2.01 -0.34 1.02 0 0 Z " fill="#EC696B" transform="translate(452,506)"/>
<path d="M0 0 C3.63 0 7.26 0 11 0 C11 0.99 11 1.98 11 3 C12.32 3 13.64 3 15 3 C15.33 2.01 15.66 1.02 16 0 C19.63 0 23.26 0 27 0 C27 0.66 27 1.32 27 2 C26.37351562 2.04898437 25.74703125 2.09796875 25.1015625 2.1484375 C23.87566406 2.26058594 23.87566406 2.26058594 22.625 2.375 C21.81289063 2.44460938 21.00078125 2.51421875 20.1640625 2.5859375 C17.79665809 2.82892588 17.79665809 2.82892588 16 5 C13.93701172 5.22705078 13.93701172 5.22705078 11.4296875 5.1953125 C10.53378906 5.18886719 9.63789063 5.18242187 8.71484375 5.17578125 C7.77769531 5.15902344 6.84054687 5.14226562 5.875 5.125 C4.93011719 5.11597656 3.98523438 5.10695313 3.01171875 5.09765625 C0.67422708 5.07404522 -1.66276123 5.04111516 -4 5 C-3.67 4.34 -3.34 3.68 -3 3 C-2.34 3 -1.68 3 -1 3 C-0.67 2.01 -0.34 1.02 0 0 Z " fill="#EC696B" transform="translate(420,506)"/>
<path d="M0 0 C3.63 0 7.26 0 11 0 C11 0.99 11 1.98 11 3 C12.32 3 13.64 3 15 3 C15.33 2.01 15.66 1.02 16 0 C19.63 0 23.26 0 27 0 C27 0.66 27 1.32 27 2 C26.37351562 2.04898437 25.74703125 2.09796875 25.1015625 2.1484375 C23.87566406 2.26058594 23.87566406 2.26058594 22.625 2.375 C21.81289063 2.44460938 21.00078125 2.51421875 20.1640625 2.5859375 C17.79665809 2.82892588 17.79665809 2.82892588 16 5 C13.93701172 5.22705078 13.93701172 5.22705078 11.4296875 5.1953125 C10.53378906 5.18886719 9.63789063 5.18242187 8.71484375 5.17578125 C7.77769531 5.15902344 6.84054687 5.14226562 5.875 5.125 C4.93011719 5.11597656 3.98523438 5.10695313 3.01171875 5.09765625 C0.67422708 5.07404522 -1.66276123 5.04111516 -4 5 C-3.67 4.34 -3.34 3.68 -3 3 C-2.34 3 -1.68 3 -1 3 C-0.67 2.01 -0.34 1.02 0 0 Z " fill="#EC696B" transform="translate(388,506)"/>
<path d="M0 0 C3.63 0 7.26 0 11 0 C11 0.99 11 1.98 11 3 C12.32 3 13.64 3 15 3 C15.33 2.01 15.66 1.02 16 0 C19.63 0 23.26 0 27 0 C27 0.66 27 1.32 27 2 C26.37351562 2.04898437 25.74703125 2.09796875 25.1015625 2.1484375 C23.87566406 2.26058594 23.87566406 2.26058594 22.625 2.375 C21.81289063 2.44460938 21.00078125 2.51421875 20.1640625 2.5859375 C17.79665809 2.82892588 17.79665809 2.82892588 16 5 C13.93701172 5.22705078 13.93701172 5.22705078 11.4296875 5.1953125 C10.53378906 5.18886719 9.63789063 5.18242187 8.71484375 5.17578125 C7.77769531 5.15902344 6.84054687 5.14226562 5.875 5.125 C4.93011719 5.11597656 3.98523438 5.10695313 3.01171875 5.09765625 C0.67422708 5.07404522 -1.66276123 5.04111516 -4 5 C-3.67 4.34 -3.34 3.68 -3 3 C-2.34 3 -1.68 3 -1 3 C-0.67 2.01 -0.34 1.02 0 0 Z " fill="#EC696B" transform="translate(356,506)"/>
<path d="M0 0 C3.63 0 7.26 0 11 0 C11 0.99 11 1.98 11 3 C12.32 3 13.64 3 15 3 C15.33 2.01 15.66 1.02 16 0 C19.63 0 23.26 0 27 0 C27 0.66 27 1.32 27 2 C26.37351562 2.04898437 25.74703125 2.09796875 25.1015625 2.1484375 C23.87566406 2.26058594 23.87566406 2.26058594 22.625 2.375 C21.81289063 2.44460938 21.00078125 2.51421875 20.1640625 2.5859375 C17.79665809 2.82892588 17.79665809 2.82892588 16 5 C13.93701172 5.22705078 13.93701172 5.22705078 11.4296875 5.1953125 C10.53378906 5.18886719 9.63789063 5.18242187 8.71484375 5.17578125 C7.77769531 5.15902344 6.84054687 5.14226562 5.875 5.125 C4.93011719 5.11597656 3.98523438 5.10695313 3.01171875 5.09765625 C0.67422708 5.07404522 -1.66276123 5.04111516 -4 5 C-3.67 4.34 -3.34 3.68 -3 3 C-2.34 3 -1.68 3 -1 3 C-0.67 2.01 -0.34 1.02 0 0 Z " fill="#EC696B" transform="translate(324,506)"/>
<path d="M0 0 C0 4.4925177 -2.23785598 7.54354655 -5 11 C-7.5625 12.1875 -7.5625 12.1875 -10 13 C-12.29577243 15.51406311 -12.29577243 15.51406311 -14 18 C-14.99 17.67 -15.98 17.34 -17 17 C-11.39 11.39 -5.78 5.78 0 0 Z " fill="#EB6A67" transform="translate(377,22)"/>
<path d="M0 0 C2.125 0.375 2.125 0.375 4 1 C3.01 1.66 2.02 2.32 1 3 C0.67 3.99 0.34 4.98 0 6 C0.66 6.33 1.32 6.66 2 7 C1.67 7.99 1.34 8.98 1 10 C-1.0625 8.25 -1.0625 8.25 -3 6 C-2.82246387 2.98188578 -2.16264785 2.16264785 0 0 Z " fill="#EF5956" transform="translate(271,128)"/>
<path d="M0 0 C3.96 0 7.92 0 12 0 C11.01 1.485 11.01 1.485 10 3 C6.5625 3.375 6.5625 3.375 3 3 C2.01 2.01 1.02 1.02 0 0 Z " fill="#EC666D" transform="translate(208,601)"/>
<path d="M0 0 C4.52615993 3.67832017 8.39424999 7.41086363 12 12 C10.68 12 9.36 12 8 12 C6.5625 9.8125 6.5625 9.8125 5 7 C4.113125 6.113125 3.22625 5.22625 2.3125 4.3125 C1.549375 3.549375 0.78625 2.78625 0 2 C0 1.34 0 0.68 0 0 Z " fill="#F4626F" transform="translate(156,472)"/>
<path d="M0 0 C0.66 0.33 1.32 0.66 2 1 C0.57189185 2.50894446 -0.86781019 4.00692345 -2.3125 5.5 C-3.11300781 6.3353125 -3.91351562 7.170625 -4.73828125 8.03125 C-7 10 -7 10 -10 10 C-8.52861945 6.12090583 -6.54638875 4.98943759 -3 3 C-1.24850835 1.41754725 -1.24850835 1.41754725 0 0 Z " fill="#F0676F" transform="translate(767,433)"/>
<path d="M0 0 C0 3 0 3 -2 6 C-2.33 6.99 -2.66 7.98 -3 9 C-4.65 9.33 -6.3 9.66 -8 10 C-6.34908222 5.70761377 -3.26245434 3.1206085 0 0 Z " fill="#EB6B68" transform="translate(39,360)"/>
<path d="M0 0 C0.66 1.32 1.32 2.64 2 4 C0.03533587 5.06775224 -1.96855359 6.06553465 -4 7 C-4.66 6.67 -5.32 6.34 -6 6 C-4.02 4.02 -2.04 2.04 0 0 Z " fill="#E86866" transform="translate(19,380)"/>
<path d="M0 0 C0.99 0.33 1.98 0.66 3 1 C2.34 1 1.68 1 1 1 C0.67 1.99 0.34 2.98 0 4 C-1.87617698 5.84499398 -3.92737609 7.3683599 -6 9 C-6.66 8.67 -7.32 8.34 -8 8 C-5.36 5.36 -2.72 2.72 0 0 Z " fill="#EC6568" transform="translate(309,90)"/>
<path d="M0 0 C0 4.24645065 -1.81750806 6.38524772 -4 10 C-4.33 9.34 -4.66 8.68 -5 8 C-5.66 7.67 -6.32 7.34 -7 7 C-4.69 4.69 -2.38 2.38 0 0 Z " fill="#E55E5C" transform="translate(377,22)"/>
<path d="M0 0 C1.14926266 0.95421808 2.29430541 1.91352045 3.4375 2.875 C4.07558594 3.40867187 4.71367188 3.94234375 5.37109375 4.4921875 C7 6 7 6 8 8 C6.68 7.67 5.36 7.34 4 7 C4 6.34 4 5.68 4 5 C3.01 5 2.02 5 1 5 C0.67 3.35 0.34 1.7 0 0 Z " fill="#F2646D" transform="translate(59,375)"/>
<path d="M0 0 C2.31 1.98 4.62 3.96 7 6 C6.01 6.33 5.02 6.66 4 7 C3.67 6.01 3.34 5.02 3 4 C2.01 4 1.02 4 0 4 C0 2.68 0 1.36 0 0 Z " fill="#F6626F" transform="translate(396,712)"/>
<path d="M0 0 C2.31 1.98 4.62 3.96 7 6 C6.01 6.33 5.02 6.66 4 7 C3.67 6.01 3.34 5.02 3 4 C2.01 4 1.02 4 0 4 C0 2.68 0 1.36 0 0 Z " fill="#F6626E" transform="translate(364,680)"/>
<path d="M0 0 C2.31 1.98 4.62 3.96 7 6 C6.01 6.33 5.02 6.66 4 7 C3.67 6.01 3.34 5.02 3 4 C2.01 4 1.02 4 0 4 C0 2.68 0 1.36 0 0 Z " fill="#F6626F" transform="translate(332,648)"/>
<path d="M0 0 C2.31 1.98 4.62 3.96 7 6 C6.01 6.33 5.02 6.66 4 7 C3.67 6.01 3.34 5.02 3 4 C2.01 4 1.02 4 0 4 C0 2.68 0 1.36 0 0 Z " fill="#F6626E" transform="translate(300,616)"/>
<path d="M0 0 C2.31 1.98 4.62 3.96 7 6 C6.01 6.33 5.02 6.66 4 7 C3.67 6.01 3.34 5.02 3 4 C2.01 4 1.02 4 0 4 C0 2.68 0 1.36 0 0 Z " fill="#F6626E" transform="translate(124,440)"/>
<path d="M0 0 C2.31 1.98 4.62 3.96 7 6 C6.01 6.33 5.02 6.66 4 7 C3.67 6.01 3.34 5.02 3 4 C2.01 4 1.02 4 0 4 C0 2.68 0 1.36 0 0 Z " fill="#F6626F" transform="translate(108,424)"/>
<path d="M0 0 C1.14926266 0.95421808 2.29430541 1.91352045 3.4375 2.875 C4.07558594 3.40867187 4.71367188 3.94234375 5.37109375 4.4921875 C7 6 7 6 8 8 C7.401875 7.690625 6.80375 7.38125 6.1875 7.0625 C3.91043228 5.89790296 3.91043228 5.89790296 1 5 C0.67 3.35 0.34 1.7 0 0 Z " fill="#F26372" transform="translate(83,399)"/>
<path d="M0 0 C0 3.57575896 -1.08840607 5.05295935 -3 8 C-4.32 7.67 -5.64 7.34 -7 7 C-4.69 4.69 -2.38 2.38 0 0 Z " fill="#E96C68" transform="translate(279,120)"/>
<path d="M0 0 C1.14926266 0.95421808 2.29430541 1.91352045 3.4375 2.875 C4.07558594 3.40867187 4.71367187 3.94234375 5.37109375 4.4921875 C7 6 7 6 8 8 C4.63820226 6.55922954 2.40843732 4.75249979 0 2 C0 1.34 0 0.68 0 0 Z " fill="#F16471" transform="translate(387,703)"/>
<path d="M0 0 C2.97 0.495 2.97 0.495 6 1 C6 2.65 6 4.3 6 6 C3.97945196 4.35830472 1.97956942 2.69088222 0 1 C0 0.67 0 0.34 0 0 Z " fill="#F26369" transform="translate(216,617)"/>
<path d="M0 0 C2.97 0.495 2.97 0.495 6 1 C6 2.65 6 4.3 6 6 C3.97945196 4.35830472 1.97956942 2.69088222 0 1 C0 0.67 0 0.34 0 0 Z " fill="#F26369" transform="translate(184,585)"/>
<path d="M0 0 C1.14926266 0.95421808 2.29430541 1.91352045 3.4375 2.875 C4.07558594 3.40867187 4.71367187 3.94234375 5.37109375 4.4921875 C7 6 7 6 8 8 C4.63820226 6.55922954 2.40843732 4.75249979 0 2 C0 1.34 0 0.68 0 0 Z " fill="#F16470" transform="translate(147,463)"/>
<path d="M0 0 C1.14926266 0.95421808 2.29430541 1.91352045 3.4375 2.875 C4.07558594 3.40867187 4.71367188 3.94234375 5.37109375 4.4921875 C7 6 7 6 8 8 C4.63820226 6.55922954 2.40843732 4.75249979 0 2 C0 1.34 0 0.68 0 0 Z " fill="#F16471" transform="translate(99,415)"/>
<path d="M0 0 C0.99 0.33 1.98 0.66 3 1 C2.67 1.99 2.34 2.98 2 4 C0.02 4.33 -1.96 4.66 -4 5 C-2.68 3.35 -1.36 1.7 0 0 Z " fill="#E66866" transform="translate(386,13)"/>
</svg>
