<?xml version="1.0" encoding="UTF-8"?>
<svg version="1.1" xmlns="http://www.w3.org/2000/svg" width="400" height="400">
<path d="M0 0 C132 0 264 0 400 0 C400 132 400 264 400 400 C268 400 136 400 0 400 C0 268 0 136 0 0 Z " fill="#FEFEFE" transform="translate(0,0)"/>
<path d="M0 0 C1.10754639 0.31461182 2.21509277 0.62922363 3.35620117 0.95336914 C10.28813687 2.94532777 17.13193097 5.11557537 23.94946289 7.46484375 C31.04425989 9.87683545 38.23271175 11.94370889 45.4375 14 C47.1851062 14.49971313 47.1851062 14.49971313 48.96801758 15.00952148 C56.30004423 17.0847809 63.65857342 19.01079363 71.0625 20.8125 C71.18536377 20.14702148 71.30822754 19.48154297 71.43481445 18.79589844 C72.58018298 12.65931496 74.16530917 6.75703127 76.0625 0.8125 C77.3825 0.8125 78.7025 0.8125 80.0625 0.8125 C81.55699158 2.31036377 81.55699158 2.31036377 82.97241211 4.44238281 C83.5107518 5.23872131 84.04909149 6.03505981 84.60374451 6.85552979 C85.46311363 8.17227692 85.46311363 8.17227692 86.33984375 9.515625 C86.94703751 10.42262146 87.55423126 11.32961792 88.17982483 12.26409912 C90.1328905 15.18847319 92.06644798 18.12519674 94 21.0625 C95.26764474 22.96566724 96.53651255 24.86802043 97.80664062 26.76953125 C100.95537092 31.49123272 104.07484043 36.23154841 107.18865967 40.97631836 C109.086726 43.84916766 111.00971707 46.70399606 112.93798828 49.55664062 C114.14764278 51.36576384 115.35712302 53.17500359 116.56640625 54.984375 C117.13665024 55.81680725 117.70689423 56.6492395 118.29441833 57.50689697 C119.06242516 58.66508942 119.06242516 58.66508942 119.84594727 59.84667969 C120.299944 60.51882507 120.75394073 61.19097046 121.22169495 61.88348389 C122.26345979 64.2735518 121.93898896 65.40741782 121.0625 67.8125 C110.74335194 69.07685106 103.78779727 68.69716581 95.3125 62.25 C94.65830078 61.71785889 94.00410156 61.18571777 93.33007812 60.63745117 C92.71068359 60.13705322 92.09128906 59.63665527 91.453125 59.12109375 C90.91719727 58.65501709 90.38126953 58.18894043 89.82910156 57.70874023 C87.15698414 56.35310963 85.91761571 56.89902047 83.0625 57.8125 C80.10245819 59.10098343 77.2295869 60.54274289 74.3515625 62.00390625 C73.08377457 62.63920509 73.08377457 62.63920509 71.79037476 63.28733826 C69.99865151 64.18655852 68.20836871 65.08865386 66.41943359 65.9934082 C63.73443972 67.35126168 61.04544248 68.70087165 58.35546875 70.04882812 C49.67652755 74.40897386 41.02894867 78.8102504 32.5218811 83.49916077 C28.27479562 85.8125 28.27479562 85.8125 26.0625 85.8125 C25.66260864 86.89821289 25.66260864 86.89821289 25.25463867 88.00585938 C24.06084786 90.81638961 22.66437351 93.17051017 20.98828125 95.71875 C20.40369141 96.62753906 19.81910156 97.53632813 19.21679688 98.47265625 C17.98545093 100.37125328 16.7457978 102.26448752 15.49804688 104.15234375 C14.91732422 105.06113281 14.33660156 105.96992188 13.73828125 106.90625 C13.20114502 107.72802734 12.66400879 108.54980469 12.1105957 109.39648438 C10.78373428 112.45509621 11.01839133 113.66889274 12.0625 116.8125 C13.02199329 118.9312072 14.05092112 121.01904745 15.125 123.08203125 C15.43237091 123.67575531 15.73974182 124.26947937 16.056427 124.88119507 C17.05199567 126.79923876 18.05688611 128.7122066 19.0625 130.625 C19.75009127 131.94363385 20.43742771 133.2624006 21.12451172 134.58129883 C25.35588948 142.67981211 29.727392 150.68788682 34.25390625 158.625 C35.92104602 161.56319881 37.55539061 164.50861147 39.125 167.5 C39.50785156 168.22574219 39.89070312 168.95148438 40.28515625 169.69921875 C41.19726163 172.17886203 41.20483187 174.19083884 41.0625 176.8125 C35.73063058 177.51905448 30.33868097 178.16129814 25.0625 176.8125 C21.47557701 173.98897462 19.4265423 170.64586368 17.17822266 166.70410156 C15.55169681 163.94648181 13.70972401 161.35439065 11.87231445 158.734375 C10.50933094 156.78997246 9.1693481 154.83194877 7.8359375 152.8671875 C5.2410469 149.05911356 2.60034192 145.28423362 -0.04589844 141.51171875 C-3.45919044 136.64112551 -6.85348191 131.75729801 -10.25 126.875 C-10.96478516 125.84826172 -11.67957031 124.82152344 -12.41601562 123.76367188 C-13.09986328 122.78076172 -13.78371094 121.79785156 -14.48828125 120.78515625 C-15.10356689 119.90093994 -15.71885254 119.01672363 -16.3527832 118.10571289 C-19.56023427 113.46427276 -20.09788413 111.64079698 -19.71875 105.9765625 C-18.56195824 91.56979171 -18.56195824 91.56979171 -22.54931641 78.17919922 C-26.61539406 74.06233222 -31.46448147 71.49361282 -36.640625 69.00341797 C-40.03888928 67.24143528 -42.83353319 64.89199923 -45.75 62.4375 C-48.31952395 60.21404248 -48.31952395 60.21404248 -50.9375 58.8125 C-55.0361484 59.22787989 -58.21629476 60.79959699 -61.83984375 62.69140625 C-62.97059326 63.27970215 -64.10134277 63.86799805 -65.26635742 64.47412109 C-65.85613373 64.78500671 -66.44591003 65.09589233 -67.05355835 65.41619873 C-68.88999925 66.38289556 -70.73211135 67.33801542 -72.57543945 68.29150391 C-80.05115727 72.17514034 -80.05115727 72.17514034 -87.265625 76.51953125 C-93.1579554 80.32213982 -97.1887154 82.2170607 -104.29296875 82.03515625 C-104.98502411 82.02177719 -105.67707947 82.00839813 -106.3901062 81.99461365 C-108.57322481 81.94887642 -110.7549926 81.88105501 -112.9375 81.8125 C-114.32540519 81.78100396 -115.71334587 81.75103201 -117.10131836 81.72265625 C-120.55977942 81.6475385 -124.01706082 81.54914531 -127.47460938 81.44018555 C-129.56891264 81.37479979 -131.66332804 81.31512343 -133.7578125 81.25585938 C-142.50513035 80.99547232 -151.21327862 80.51054049 -159.9375 79.8125 C-159.9375 77.5025 -159.9375 75.1925 -159.9375 72.8125 C-151.2521399 71.34482782 -142.5569486 69.94388207 -133.85473633 68.58032227 C-131.74205514 68.24875312 -129.62982314 67.91441313 -127.51757812 67.58007812 C-126.83123795 67.47252197 -126.14489777 67.36496582 -125.4377594 67.25415039 C-123.4429964 66.94119732 -121.44890517 66.6239719 -119.45483398 66.30664062 C-116.59522469 65.90490194 -113.83915752 65.68963265 -110.9609375 65.55859375 C-105.71777124 65.01154001 -102.53774309 61.86685226 -98.75 58.4375 C-97.25903608 57.14832313 -95.76683199 55.86057924 -94.2734375 54.57421875 C-93.54092773 53.93403809 -92.80841797 53.29385742 -92.05371094 52.63427734 C-89.07291673 50.06820831 -85.98778911 47.65274445 -82.875 45.25 C-77.84358326 41.33338027 -72.87690444 37.34448605 -67.9375 33.3125 C-62.41780258 28.80779782 -56.85328054 24.36954194 -51.23754883 19.98535156 C-47.36496519 16.95420325 -43.53288968 13.87709552 -39.72094727 10.77001953 C-38.33731151 9.64280363 -36.95112519 8.51871038 -35.56225586 7.39794922 C-32.7347581 5.1141877 -29.95045456 2.82410278 -27.2421875 0.3984375 C-26.50226563 -0.24867187 -25.76234375 -0.89578125 -25 -1.5625 C-24.12021484 -2.37847656 -24.12021484 -2.37847656 -23.22265625 -3.2109375 C-16.31181396 -6.16428891 -6.79253754 -1.96050092 0 0 Z " fill="#020202" transform="translate(209.9375,126.1875)"/>
</svg>
