<?xml version="1.0" encoding="UTF-8"?>
<svg version="1.1" xmlns="http://www.w3.org/2000/svg" width="128" height="128">
<path d="M0 0 C42.24 0 84.48 0 128 0 C128 42.24 128 84.48 128 128 C85.76 128 43.52 128 0 128 C0 85.76 0 43.52 0 0 Z " fill="#FBFEFE" transform="translate(0,0)"/>
<path d="M0 0 C5.28317174 0.96380306 10.00262545 3.48239495 14.79296875 5.81640625 C16.22286133 6.48736328 16.22286133 6.48736328 17.68164062 7.171875 C24.72311517 10.55537588 24.72311517 10.55537588 26.98046875 13.94140625 C27.24789429 17.08457947 27.24789429 17.08457947 27.27099609 21.01147461 C27.27771332 21.72725174 27.28443054 22.44302887 27.29135132 23.18049622 C27.31035488 25.54748468 27.31425653 27.91419 27.31640625 30.28125 C27.32283212 31.92647926 27.32956032 33.57170736 27.33657837 35.2169342 C27.34855671 38.66605275 27.35225858 42.1150711 27.35107422 45.56420898 C27.3508709 49.98410793 27.37818364 54.40336483 27.41261864 58.82311153 C27.43485387 62.22118583 27.43891282 65.61910473 27.43785477 69.01724434 C27.44021542 70.6467466 27.44906506 72.27625284 27.4645195 73.90568352 C27.484114 76.18489467 27.47836879 78.46270979 27.46630859 80.74194336 C27.46915863 82.03861435 27.47200867 83.33528534 27.47494507 84.67124939 C26.89642182 88.49724001 25.99402926 89.6090423 22.98046875 91.94140625 C19.62565074 93.94056617 16.07734763 95.53383797 12.54296875 97.19140625 C11.60130859 97.6503125 10.65964844 98.10921875 9.68945312 98.58203125 C8.77615234 99.01515625 7.86285156 99.44828125 6.921875 99.89453125 C6.09373291 100.28801758 5.26559082 100.68150391 4.41235352 101.08691406 C1.71505378 102.0346652 -0.1820526 102.26164432 -3.01953125 101.94140625 C-5.23952288 100.2339496 -7.11365585 98.59012067 -9.08203125 96.62890625 C-10.23529642 95.52173876 -11.38895095 94.41497673 -12.54296875 93.30859375 C-13.12272461 92.74495117 -13.70248047 92.18130859 -14.29980469 91.60058594 C-16.89004944 89.10153663 -19.54616085 86.67725311 -22.20703125 84.25390625 C-23.19273768 83.35159456 -24.17841518 82.44925126 -25.1640625 81.546875 C-28.70674831 78.31435594 -32.25137204 75.08499042 -35.83203125 71.89453125 C-37.17950303 70.69143145 -38.51560196 69.47527084 -39.83203125 68.23828125 C-41.50565924 66.65920424 -41.50565924 66.65920424 -44.01953125 64.94140625 C-47.15026774 65.30559156 -49.07783538 66.51589328 -51.515625 68.4453125 C-52.15693359 68.93837891 -52.79824219 69.43144531 -53.45898438 69.93945312 C-54.79049711 70.98201589 -56.1186387 72.02889859 -57.44335938 73.08007812 C-62.30441587 76.80022467 -62.30441587 76.80022467 -65.75 77.48046875 C-68.57793702 76.80877287 -69.85208604 75.80950025 -71.89453125 73.75390625 C-72.51070312 73.16222656 -73.126875 72.57054688 -73.76171875 71.9609375 C-75.01953125 69.94140625 -75.01953125 69.94140625 -74.98046875 67.48828125 C-73.78545918 64.32102013 -72.21599031 62.70790287 -69.76953125 60.37890625 C-68.55716797 59.21875 -68.55716797 59.21875 -67.3203125 58.03515625 C-64.96459362 55.89141207 -62.57845592 53.83996327 -60.01953125 51.94140625 C-61.43041536 48.63487271 -63.07484494 46.78662455 -65.83203125 44.50390625 C-66.89164063 43.59705078 -66.89164063 43.59705078 -67.97265625 42.671875 C-69.20785963 41.62760955 -70.4464484 40.58730441 -71.69140625 39.5546875 C-73.89428677 37.59313378 -74.97650884 36.50069754 -75.20703125 33.50390625 C-73.56699025 29.9648704 -71.52477166 26.79876471 -68.01953125 24.94140625 C-61.39593726 24.85287705 -57.85549536 27.90500429 -53.08203125 32.00390625 C-52.39818359 32.57173828 -51.71433594 33.13957031 -51.00976562 33.72460938 C-49.33580362 35.11762671 -47.67616762 36.5278285 -46.01953125 37.94140625 C-41.21643661 34.49848632 -36.89274638 30.95161692 -32.77734375 26.70703125 C-30.42601787 24.34525503 -27.91429673 22.20173537 -25.390625 20.02734375 C-22.94961038 17.87989431 -20.55962508 15.68560363 -18.17675781 13.47412109 C-16.47988244 11.90010296 -14.77541937 10.33462204 -13.0703125 8.76953125 C-11.30102533 7.14198107 -9.57728638 5.49996693 -7.875 3.80078125 C-5.2097805 1.22580621 -3.78879174 -0.07352119 0 0 Z " fill="#0486CF" transform="translate(88.01953125,13.05859375)"/>
<path d="M0 0 C6.64373439 0.45945604 11.87508372 2.98209738 17.8125 5.875 C19.24239258 6.54595703 19.24239258 6.54595703 20.70117188 7.23046875 C27.74264642 10.61396963 27.74264642 10.61396963 30 14 C30.26742554 17.14317322 30.26742554 17.14317322 30.29052734 21.07006836 C30.29724457 21.78584549 30.30396179 22.50162262 30.31088257 23.23908997 C30.32988613 25.60607843 30.33378778 27.97278375 30.3359375 30.33984375 C30.34236337 31.98507301 30.34909157 33.63030111 30.35610962 35.27552795 C30.36808796 38.7246465 30.37178983 42.17366485 30.37060547 45.62280273 C30.37040215 50.04270168 30.39771489 54.46195858 30.43214989 58.88170528 C30.45438512 62.27977958 30.45844407 65.67769848 30.45738602 69.07583809 C30.45974667 70.70534035 30.46859631 72.33484659 30.48405075 73.96427727 C30.50364525 76.24348842 30.49790004 78.52130354 30.48583984 80.80053711 C30.48868988 82.0972081 30.49153992 83.39387909 30.49447632 84.72984314 C29.91595307 88.55583376 29.01356051 89.66763605 26 92 C22.64518199 93.99915992 19.09687888 95.59243172 15.5625 97.25 C14.62083984 97.70890625 13.67917969 98.1678125 12.70898438 98.640625 C11.79568359 99.07375 10.88238281 99.506875 9.94140625 99.953125 C9.11326416 100.34661133 8.28512207 100.74009766 7.43188477 101.14550781 C4.80231996 102.0694589 2.76618582 102.1615021 0 102 C1.98 101.505 1.98 101.505 4 101 C4.33 92.09 4.66 83.18 5 74 C3.68 73.34 2.36 72.68 1 72 C-0.19996162 71.18264446 -1.3795075 70.33467097 -2.5390625 69.4609375 C-3.52712891 68.7189209 -3.52712891 68.7189209 -4.53515625 67.96191406 C-5.22480469 67.43823242 -5.91445312 66.91455078 -6.625 66.375 C-7.33269531 65.84100586 -8.04039063 65.30701172 -8.76953125 64.75683594 C-14.25822846 60.60032253 -19.66878767 56.35724085 -25 52 C-23.54271866 48.4316168 -21.73278131 46.75926117 -18.640625 44.50390625 C-17.77179688 43.86259766 -16.90296875 43.22128906 -16.0078125 42.56054688 C-15.09773438 41.90119141 -14.18765625 41.24183594 -13.25 40.5625 C-11.46247126 39.25276172 -9.67598776 37.94159554 -7.890625 36.62890625 C-7.04564453 36.01031738 -6.20066406 35.39172852 -5.33007812 34.75439453 C-3.31655242 33.23834301 -1.39215395 31.67260027 0.515625 30.02734375 C3 28 3 28 5 28 C4.9482668 23.89479191 4.85322236 19.79171087 4.75 15.6875 C4.73582031 14.52025391 4.72164062 13.35300781 4.70703125 12.15039062 C4.67480469 11.03212891 4.64257812 9.91386719 4.609375 8.76171875 C4.58842773 7.73006592 4.56748047 6.69841309 4.54589844 5.63549805 C4.23804866 2.85206644 4.23804866 2.85206644 1.96191406 1.13989258 C1.31448242 0.76372803 0.66705078 0.38756348 0 0 Z " fill="#24A7EE" transform="translate(85,13)"/>
<path d="M0 0 C2.32421875 0.75 2.32421875 0.75 3.32421875 1.75 C4.9320359 9.84829715 5.67120757 18.76597987 3.32421875 26.75 C-1.05104603 32.91666479 -7.73382532 36.60842903 -14.19189453 40.30175781 C-17.46789742 42.21184717 -20.40706435 44.3947032 -23.42578125 46.6875 C-24.84123552 47.71001374 -26.25730141 48.73168764 -27.67578125 49.75 C-28.66578125 49.09 -29.65578125 48.43 -30.67578125 47.75 C-30.67578125 47.09 -30.67578125 46.43 -30.67578125 45.75 C-31.35640625 45.70875 -32.03703125 45.6675 -32.73828125 45.625 C-36.93093912 44.37612319 -39.53502515 41.70973269 -42.67578125 38.75 C-42.10792507 35.35742332 -41.21616042 34.00961103 -38.55078125 31.875 C-34.27873502 28.31239105 -30.22461627 24.56110892 -26.17578125 20.75 C-21.66290889 16.51797281 -17.15661069 12.29308003 -12.44140625 8.28515625 C-11.1271024 7.14240976 -9.85135642 5.95501891 -8.59765625 4.74609375 C-7.9015625 4.08738281 -7.20546875 3.42867187 -6.48828125 2.75 C-5.87597656 2.151875 -5.26367188 1.55375 -4.6328125 0.9375 C-2.67578125 -0.25 -2.67578125 -0.25 0 0 Z " fill="#0278B8" transform="translate(86.67578125,14.25)"/>
<path d="M0 0 C0 15.18 0 30.36 0 46 C-2.87779386 44.56110307 -5.03333668 43.34902086 -7.5390625 41.4609375 C-8.19777344 40.96625977 -8.85648438 40.47158203 -9.53515625 39.96191406 C-10.22480469 39.43823242 -10.91445312 38.91455078 -11.625 38.375 C-12.33269531 37.84100586 -13.04039063 37.30701172 -13.76953125 36.75683594 C-19.25822846 32.60032253 -24.66878767 28.35724085 -30 24 C-28.54271866 20.4316168 -26.73278131 18.75926117 -23.640625 16.50390625 C-22.77179688 15.86259766 -21.90296875 15.22128906 -21.0078125 14.56054688 C-20.09773438 13.90119141 -19.18765625 13.24183594 -18.25 12.5625 C-16.46247126 11.25276172 -14.67598776 9.94159554 -12.890625 8.62890625 C-12.04564453 8.01031738 -11.20066406 7.39172852 -10.33007812 6.75439453 C-8.31655242 5.23834301 -6.39215395 3.67260027 -4.484375 2.02734375 C-2 0 -2 0 0 0 Z " fill="#F7FCFD" transform="translate(90,41)"/>
<path d="M0 0 C3.10400323 1.42616365 3.10321516 2.9637076 4.3125 6.0625 C6.68875345 7.24641223 6.68875345 7.24641223 9.3125 8.0625 C10.66607603 9.03492466 12.00293687 10.03156732 13.3125 11.0625 C10.70932213 13.02215048 8.10478758 14.97998982 5.5 16.9375 C4.76201172 17.49308594 4.02402344 18.04867187 3.26367188 18.62109375 C2.55146484 19.15605469 1.83925781 19.69101563 1.10546875 20.2421875 C0.4508667 20.73444824 -0.20373535 21.22670898 -0.87817383 21.73388672 C-5.26847095 24.95774274 -5.26847095 24.95774274 -7.9375 25.625 C-11.78744406 24.83751144 -13.64744703 22.75368057 -16.4296875 20.08203125 C-17.6875 18.0625 -17.6875 18.0625 -17.6484375 15.609375 C-15.79111553 10.68671677 -11.48572176 7.55504296 -7.6875 4.0625 C-6.32625 2.763125 -6.32625 2.763125 -4.9375 1.4375 C-2.6875 0.0625 -2.6875 0.0625 0 0 Z " fill="#056EB0" transform="translate(30.6875,64.9375)"/>
<path d="M0 0 C0.66 0 1.32 0 2 0 C2 15.18 2 30.36 2 46 C-1.23475448 44.38262276 -2.70572021 43.52370777 -5 41 C-3.35 41.33 -1.7 41.66 0 42 C-0.33 30.12 -0.66 18.24 -1 6 C-2.65 6 -4.3 6 -6 6 C-4 4 -2 2 0 0 Z " fill="#C8EFFD" transform="translate(88,41)"/>
<path d="M0 0 C1.5778125 0.495 1.5778125 0.495 3.1875 1 C3.5175 1.66 3.8475 2.32 4.1875 3 C1.2175 2.505 1.2175 2.505 -1.8125 2 C-2.245625 2.9590625 -2.245625 2.9590625 -2.6875 3.9375 C-3.8125 6 -3.8125 6 -5.8125 7 C-5.55031251 11.4571874 -5.23538711 13.51522698 -2.25 16.9375 C-1.445625 17.618125 -0.64125 18.29875 0.1875 19 C-3.66237971 19 -4.35352273 17.94839335 -7.0625 15.3125 C-7.78953125 14.62800781 -8.5165625 13.94351563 -9.265625 13.23828125 C-10.8125 11 -10.8125 11 -10.7109375 8.44140625 C-8.74537627 3.10020727 -5.78256054 0 0 0 Z " fill="#178EC3" transform="translate(23.8125,38)"/>
<path d="M0 0 C0.66 0.33 1.32 0.66 2 1 C1.67 1.99 1.34 2.98 1 4 C0.01 4 -0.98 4 -2 4 C-2.25007813 4.5878125 -2.50015625 5.175625 -2.7578125 5.78125 C-4.16426885 8.29341102 -5.66640992 9.66645352 -7.875 11.5 C-10.71084912 13.89758153 -13.42508238 16.31779415 -16 19 C-16.99 18.67 -17.98 18.34 -19 18 C-14.41731215 13.30762016 -9.75053386 8.80319423 -4.76171875 4.54296875 C-3.10184189 3.08919634 -1.54066019 1.57858414 0 0 Z " fill="#1C7AB0" transform="translate(68,28)"/>
<path d="M0 0 C3.3503698 0.57764997 4.68233772 1.58576846 7 4 C8.051875 4.4640625 8.051875 4.4640625 9.125 4.9375 C11 6 11 6 11.625 8.0625 C11.74875 8.701875 11.8725 9.34125 12 10 C12.66 10.33 13.32 10.66 14 11 C9.88416276 10.46147924 7.7329259 8.25615375 4.75 5.5 C3.85796875 4.6853125 2.9659375 3.870625 2.046875 3.03125 C1.37140625 2.3609375 0.6959375 1.690625 0 1 C0 0.67 0 0.34 0 0 Z " fill="#1A7DBF" transform="translate(73,103)"/>
<path d="M0 0 C1.32 0 2.64 0 4 0 C4 0.66 4 1.32 4 2 C1.18249237 4.22779673 -1.08833723 5.80464369 -4.625 6.5625 C-8.02929943 5.75621856 -9.09517633 3.82196099 -11 1 C-9.68 1.33 -8.36 1.66 -7 2 C-7 2.66 -7 3.32 -7 4 C-3.535 3.505 -3.535 3.505 0 3 C0 2.01 0 1.02 0 0 Z " fill="#1A699E" transform="translate(27,84)"/>
<path d="M0 0 C0.99 0.66 1.98 1.32 3 2 C-0.3 4.64 -3.6 7.28 -7 10 C-7.66 9.01 -8.32 8.02 -9 7 C-7.68 7 -6.36 7 -5 7 C-5 6.01 -5 5.02 -5 4 C-4.34 4 -3.68 4 -3 4 C-3 3.34 -3 2.68 -3 2 C-2.01 1.34 -1.02 0.68 0 0 Z " fill="#1172AB" transform="translate(73,49)"/>
<path d="M0 0 C0.66 0.33 1.32 0.66 2 1 C0.9375 3.375 0.9375 3.375 -1 6 C-4.6875 7.3125 -4.6875 7.3125 -8 8 C-5.58443874 4.80800833 -3.31996462 2.25283313 0 0 Z " fill="#1D7BB6" transform="translate(84,14)"/>
<path d="M0 0 C0.99 0.33 1.98 0.66 3 1 C-0.3 3.64 -3.6 6.28 -7 9 C-7 8.01 -7 7.02 -7 6 C-6.34 6 -5.68 6 -5 6 C-4.67 4.68 -4.34 3.36 -4 2 C-2.68 2 -1.36 2 0 2 C0 1.34 0 0.68 0 0 Z " fill="#1978A8" transform="translate(85,41)"/>
<path d="M0 0 C0.33 1.32 0.66 2.64 1 4 C0.01 4.495 0.01 4.495 -1 5 C-1 6.65 -1 8.3 -1 10 C-1.99 9.34 -2.98 8.68 -4 8 C-3.50168276 4.31245243 -2.89932357 2.39509338 0 0 Z " fill="#166B9E" transform="translate(17,75)"/>
<path d="M0 0 C0.66 0.33 1.32 0.66 2 1 C2.72886734 3.7696959 3 6.12862585 3 9 C2.01 9.495 2.01 9.495 1 10 C1 8.68 1 7.36 1 6 C0.34 6 -0.32 6 -1 6 C-1.042721 4.33388095 -1.04063832 2.66617115 -1 1 C-0.67 0.67 -0.34 0.34 0 0 Z " fill="#D6F1F8" transform="translate(12,78)"/>
<path d="M0 0 C2.31 1.98 4.62 3.96 7 6 C6.01 6.33 5.02 6.66 4 7 C2 5.1875 2 5.1875 0 3 C0 2.01 0 1.02 0 0 Z " fill="#DFFBFE" transform="translate(73,104)"/>
<path d="M0 0 C3.43595166 1.52708963 6.11912454 3.59927045 9 6 C8.67 6.99 8.34 7.98 8 9 C6.66368764 7.6905332 5.33102075 6.37734515 4 5.0625 C3.2575 4.33160156 2.515 3.60070312 1.75 2.84765625 C0 1 0 1 0 0 Z " fill="#227FBC" transform="translate(60,91)"/>
<path d="M0 0 C0.66 0.33 1.32 0.66 2 1 C1.67 2.32 1.34 3.64 1 5 C-1.76264289 5.59732819 -4.16032769 6 -7 6 C-4.69 4.02 -2.38 2.04 0 0 Z " fill="#D2F3FA" transform="translate(71,54)"/>
<path d="M0 0 C3.36591866 1.44253657 5.51047079 3.33264727 8 6 C5.125 5.8125 5.125 5.8125 2 5 C0.625 2.4375 0.625 2.4375 0 0 Z " fill="#1A82C1" transform="translate(67,71)"/>
</svg>
