<?xml version="1.0" encoding="UTF-8"?>
<svg version="1.1" xmlns="http://www.w3.org/2000/svg" width="4096" height="4096">
<path d="M0 0 C10.03272501 6.26773276 15.68019049 15.86233208 22.06835938 25.52978516 C24.88937975 29.75575001 27.8136236 33.90789199 30.73828125 38.0625 C31.91417534 39.73820207 33.08995617 41.41398363 34.265625 43.08984375 C35.14130127 44.33677002 35.14130127 44.33677002 36.03466797 45.60888672 C38.96099989 49.77791862 41.88056224 53.9516852 44.80078125 58.125 C45.96741514 59.79168961 47.13408182 61.45835627 48.30078125 63.125 C106.05078125 145.625 163.80078125 228.125 533.05126953 755.62573242 C534.21626489 757.28998828 535.38130385 758.95421361 536.54638672 760.6184082 C539.48898536 764.82170923 542.43079029 769.02556181 545.37109375 773.23046875 C550.83254556 781.03938668 556.30038057 788.8434538 561.80078125 796.625 C567.90153564 805.2558807 573.96176638 813.91489054 580.01855469 822.57666016 C582.94454858 826.7604306 585.87276435 830.94264524 588.80078125 835.125 C589.96745884 836.79165902 591.1341255 838.45832569 592.30078125 840.125 C592.87828125 840.95 593.45578125 841.775 594.05078125 842.625 C711.30078125 1010.125 711.30078125 1010.125 713.05151367 1012.62646484 C714.21521441 1014.28861605 715.37943755 1015.95040164 716.54418945 1017.61181641 C719.51068297 1021.84468347 722.46708715 1026.08403859 725.40625 1030.3359375 C735.67687418 1045.16709828 746.31539526 1059.09000054 758.80078125 1072.125 C759.50976562 1072.87523438 760.21875 1073.62546875 760.94921875 1074.3984375 C766.17502134 1079.79487854 771.91665223 1084.46737808 777.80078125 1089.125 C778.77789063 1089.9190625 779.755 1090.713125 780.76171875 1091.53125 C827.60619704 1128.81803877 889.79906448 1146.07332613 949.11523438 1139.77294922 C977.89490594 1136.29589847 1005.27141954 1127.8755577 1030.80078125 1114.125 C1031.46416504 1113.77324707 1032.12754883 1113.42149414 1032.81103516 1113.05908203 C1084.71031996 1085.42665593 1123.65484744 1037.13448248 1141.42578125 981.28759766 C1143.61604805 974.05943202 1145.44879392 966.75488214 1147.05078125 959.375 C1147.20208496 958.67979248 1147.35338867 957.98458496 1147.50927734 957.26831055 C1147.99152868 954.89383573 1148.40029436 952.5147631 1148.80078125 950.125 C1148.96977637 949.11955287 1149.13877149 948.11410573 1149.31288767 947.07819051 C1151.24783055 933.84706666 1151.08425596 920.64908288 1151.0657959 907.30195618 C1151.06826135 904.58231827 1151.07373747 901.86268825 1151.07907248 899.14305466 C1151.08906619 893.24964629 1151.09179978 887.35627033 1151.08965111 881.46285439 C1151.08650247 872.69816057 1151.09487069 863.9335036 1151.10560621 855.16881712 C1151.12339579 840.41428096 1151.13227156 825.65975244 1151.13630676 810.90520668 C1151.1419434 790.73656654 1151.16063272 770.56795319 1151.1827473 750.39932515 C1151.19304806 740.988994 1151.20271314 731.57866219 1151.21221161 722.16833019 C1151.21363887 720.75537139 1151.21363887 720.75537139 1151.21509497 719.31386796 C1151.23757795 696.90968803 1151.25383095 674.50550425 1151.26904297 652.10131836 C1151.26971052 651.12154553 1151.27037807 650.14177271 1151.27106585 649.13230979 C1151.28120866 634.23404002 1151.2910274 619.33577003 1151.30078125 604.4375 C1151.31117047 588.57283516 1151.32168854 572.70817041 1151.33251953 556.84350586 C1151.33318441 555.86624816 1151.33384929 554.88899045 1151.33453431 553.88211888 C1151.3497675 531.54140299 1151.36679223 509.20069039 1151.38935089 486.85998058 C1151.39077478 485.44876363 1151.39077478 485.44876363 1151.39222743 484.00903725 C1151.40174896 474.61219118 1151.41157969 465.21534547 1151.42187139 455.81850021 C1151.44385542 435.68331375 1151.460477 415.54814364 1151.46599694 395.41294552 C1151.47010687 380.72398636 1151.48106378 366.03504573 1151.49897468 351.34609679 C1151.50935376 342.64048309 1151.5142665 333.93490741 1151.5110745 325.2292879 C1151.50947986 319.38991432 1151.51524049 313.55057576 1151.52658551 307.71121311 C1151.53281362 304.40006229 1151.53505296 301.08905369 1151.53041762 297.77789108 C1151.51353612 284.39847285 1151.78948354 271.09262656 1152.68062592 257.7399168 C1152.75650347 256.58628656 1152.83238102 255.43265633 1152.9105579 254.2440676 C1156.88870436 200.13853184 1179.04134206 148.23503401 1212.80078125 106.125 C1213.56777344 105.1453125 1214.33476563 104.165625 1215.125 103.15625 C1242.48180188 68.77062102 1278.03189043 41.61333234 1317.80078125 23.125 C1318.5705127 22.76696289 1319.34024414 22.40892578 1320.13330078 22.04003906 C1355.71134422 5.70657934 1393.24071266 -2.33674111 1432.30078125 -2.1875 C1433.31612946 -2.18534485 1434.33147766 -2.1831897 1435.37759399 -2.18096924 C1503.51273877 -1.94905061 1572.05374712 22.53292923 1622.546875 69.0546875 C1624.55381608 70.89815157 1626.59990367 72.67279093 1628.67578125 74.4375 C1637.03982321 81.75392458 1644.69351885 89.65860442 1651.59765625 98.36328125 C1653.89226952 101.23968476 1656.27943064 104.02052547 1658.67578125 106.8125 C1664.00877496 113.20388785 1668.63074697 119.99258278 1673.28076172 126.88867188 C1676.01631501 130.91335356 1678.81727145 134.89219467 1681.61328125 138.875 C1682.80729636 140.57812171 1684.00130674 142.28124674 1685.1953125 143.984375 C1686.08984131 145.25958008 1686.08984131 145.25958008 1687.00244141 146.56054688 C1689.93803109 150.74673125 1692.86921734 154.93599592 1695.80078125 159.125 C1696.96742606 160.79168197 1698.13409275 162.45834862 1699.30078125 164.125 C1860.30078126 394.12500001 1860.30078126 394.12500001 1862.05126953 396.62573242 C1863.21626489 398.28998828 1864.38130385 399.95421361 1865.54638672 401.6184082 C1868.48898536 405.82170923 1871.43079029 410.02556181 1874.37109375 414.23046875 C1879.83254556 422.03938668 1885.30038057 429.8434538 1890.80078125 437.625 C1896.90153564 446.2558807 1902.96176638 454.91489054 1909.01855469 463.57666016 C1911.94454858 467.7604306 1914.87276435 471.94264524 1917.80078125 476.125 C1918.96745884 477.79165902 1920.1341255 479.45832569 1921.30078125 481.125 C1921.87828125 481.95 1922.45578125 482.775 1923.05078125 483.625 C1980.80078125 566.125 2038.55078125 648.625 2280.05126953 993.62573242 C2281.21626489 995.28998828 2282.38130385 996.95421361 2283.54638672 998.6184082 C2286.48898536 1002.82170923 2289.43079029 1007.02556181 2292.37109375 1011.23046875 C2295.28747228 1015.40089005 2298.20690722 1019.56915843 2301.12792969 1023.73632812 C2302.75308908 1026.05690014 2304.37467989 1028.37993511 2305.99609375 1030.703125 C2314.02409119 1042.17931308 2322.13652317 1053.47083087 2331.6484375 1063.78515625 C2333.76794739 1066.08930584 2335.81513467 1068.44495434 2337.86328125 1070.8125 C2341.56334685 1074.97053049 2345.53094006 1078.5655527 2349.80078125 1082.125 C2351.07501953 1083.23101563 2351.07501953 1083.23101563 2352.375 1084.359375 C2366.07559612 1096.09740278 2380.77593879 1105.85656448 2396.80078125 1114.125 C2397.9906665 1114.74737549 2397.9906665 1114.74737549 2399.20458984 1115.38232422 C2421.10768533 1126.72865988 2444.47359947 1134.14066794 2468.80078125 1138.125 C2469.90317139 1138.30901367 2471.00556152 1138.49302734 2472.14135742 1138.68261719 C2482.64528118 1140.27041139 2493.0068563 1140.5231453 2503.61328125 1140.5 C2504.95981781 1140.49968277 2504.95981781 1140.49968277 2506.33355713 1140.49935913 C2521.47374702 1140.46389453 2535.97363511 1139.40861293 2550.80078125 1136.125 C2552.0846875 1135.84414551 2552.0846875 1135.84414551 2553.39453125 1135.55761719 C2558.93622769 1134.30424131 2564.37309423 1132.80112918 2569.80078125 1131.125 C2570.57486328 1130.88974609 2571.34894531 1130.65449219 2572.14648438 1130.41210938 C2614.93676418 1117.15167107 2655.46730401 1089.83947374 2682.80078125 1054.125 C2683.23100586 1053.56586914 2683.66123047 1053.00673828 2684.10449219 1052.43066406 C2691.03518234 1043.37502136 2697.16945149 1034.03571954 2702.80078125 1024.125 C2703.13674316 1023.54878906 2703.47270508 1022.97257812 2703.81884766 1022.37890625 C2726.8879405 982.6969172 2732.13401079 938.42813685 2732.05906677 893.39529419 C2732.06081601 890.66263986 2732.06558299 887.92999258 2732.07020527 885.1973418 C2732.07863412 879.29728711 2732.07988182 873.39726671 2732.07619286 867.49720764 C2732.07076061 858.72296165 2732.07693871 849.94874959 2732.08548164 841.17450741 C2732.0996028 826.40221691 2732.10499366 811.62993598 2732.1057415 796.85763931 C2732.10692431 776.67160891 2732.12216698 756.48560553 2732.14123667 736.29958497 C2732.15013255 726.87548399 2732.15840331 717.45138246 2732.16655827 708.02728081 C2732.16737602 707.0840905 2732.16819377 706.14090019 2732.1690363 705.16912836 C2732.18834515 682.75484461 2732.20190354 660.34055814 2732.21411133 637.92626953 C2732.21464812 636.94645903 2732.21518491 635.96664853 2732.21573797 634.9571468 C2732.22823277 612.09777466 2732.23901508 589.23840219 2732.24780273 566.37902832 C2732.25087299 558.44750976 2732.25396526 550.5159912 2732.25708008 542.58447266 C2732.25746189 541.60550933 2732.25784371 540.626546 2732.25823709 539.61791711 C2732.26700882 517.24404232 2732.27818527 494.87017332 2732.2982111 472.49630547 C2732.29905376 471.55457735 2732.29989643 470.61284923 2732.30076463 469.6425839 C2732.30925011 460.23787536 2732.31824586 450.83316744 2732.3279564 441.42846009 C2732.33271717 436.80091805 2732.33733275 432.17337588 2732.34184456 427.54583359 C2732.34273244 426.63524305 2732.34362032 425.72465252 2732.34453511 424.78646833 C2732.35842438 410.17661843 2732.36111131 395.56678712 2732.3591649 380.9569316 C2732.35736421 366.26104758 2732.36608115 351.56520074 2732.3854733 336.86932911 C2732.39662418 328.15615462 2732.39952604 319.44307057 2732.39027695 310.72989337 C2732.38490336 304.89083152 2732.39057488 299.05184397 2732.40475369 293.21279714 C2732.41249321 289.89861597 2732.41415011 286.5847619 2732.40553444 283.27056171 C2732.2926036 236.04617282 2742.52050759 190.90817132 2764.80078125 149.125 C2765.1781543 148.40892578 2765.55552734 147.69285156 2765.94433594 146.95507812 C2774.41417422 130.95880697 2784.43578632 116.2014622 2795.80078125 102.125 C2796.23406738 101.5872998 2796.66735352 101.04959961 2797.11376953 100.49560547 C2808.84786161 86.07360248 2821.99612613 72.40473723 2836.80078125 61.125 C2838.06099165 60.12638131 2839.32001206 59.12625989 2840.578125 58.125 C2878.51770167 28.18330271 2923.24013178 9.1906197 2970.80078125 1.125 C2971.77144531 0.95983887 2972.74210937 0.79467773 2973.7421875 0.62451172 C2991.02640743 -2.12809709 3008.40159594 -2.21044571 3025.86328125 -2.3125 C3027.01260132 -2.32471588 3028.16192139 -2.33693176 3029.34606934 -2.34951782 C3032.67641784 -2.37933696 3036.00548969 -2.3797679 3039.3359375 -2.37109375 C3040.82369438 -2.38772568 3040.82369438 -2.38772568 3042.34150696 -2.4046936 C3051.51640014 -2.31558537 3060.47436464 -0.10133828 3067.30078125 6.34765625 C3072.06877844 11.99723625 3074.92240296 18.13605617 3074.92958242 25.54201192 C3074.93285461 26.42737981 3074.9361268 27.3127477 3074.93949816 28.22494492 C3074.93801453 29.19532799 3074.93653091 30.16571107 3074.93500233 31.16549969 C3074.93735456 32.20239176 3074.93970679 33.23928384 3074.9421303 34.30759689 C3074.94883106 37.81084381 3074.94836175 41.31405372 3074.94795227 44.81730652 C3074.95125022 47.34284771 3074.95497563 49.86838837 3074.95909375 52.39392835 C3074.96807569 58.62549571 3074.97234263 64.85705196 3074.97461272 71.08862491 C3074.97757347 78.55072281 3074.9862701 86.01281128 3074.995027 93.47490423 C3075.0158769 111.51159544 3075.02634179 129.54828829 3075.0351566 147.58498874 C3075.03936206 156.11570572 3075.04458417 164.64642199 3075.04984113 173.17713837 C3075.06773119 202.37243779 3075.08272799 231.56773741 3075.09016132 260.7630415 C3075.09063608 262.59611337 3075.09111197 264.42918524 3075.09158899 266.26225712 C3075.09194355 267.62582809 3075.09194355 267.62582809 3075.09230528 269.01694594 C3075.09350649 273.62270681 3075.09472193 278.22846766 3075.09594727 282.83422852 C3075.09618742 283.74825871 3075.09642757 284.6622889 3075.09667499 285.60401698 C3075.10456975 315.24600511 3075.1280053 344.88795324 3075.16050321 374.52992389 C3075.19479052 405.8611785 3075.21451141 437.19240969 3075.21780556 468.52368337 C3075.21822311 471.96221849 3075.21870268 475.4007536 3075.21922874 478.83928871 C3075.21941353 480.10930637 3075.21941353 480.10930637 3075.21960205 481.40498094 C3075.22193536 495.03807768 3075.23760254 508.67112801 3075.25807059 522.3042082 C3075.27831275 536.00402748 3075.28381351 549.70379095 3075.27429996 563.40362241 C3075.26907884 571.54466315 3075.27499123 579.68551823 3075.29683463 587.8265323 C3075.31190678 593.90258706 3075.30612019 599.97843234 3075.29216411 606.05449764 C3075.28977451 608.51482118 3075.29418101 610.97516245 3075.30599276 613.4354588 C3075.32103855 616.77572423 3075.31148877 620.11505274 3075.29576588 623.45529461 C3075.30598808 624.41397185 3075.31621029 625.37264909 3075.32674226 626.36037716 C3075.23417069 635.35065179 3072.21168857 642.7325487 3065.8984375 649.1940918 C3057.80870604 656.64074987 3048.72807197 656.82819196 3038.29281616 656.81408691 C3034.04091003 656.81137932 3029.7903009 656.89598447 3025.5390625 656.96484375 C3024.69684647 656.97621368 3023.85463043 656.98758362 3022.9868927 656.9992981 C2975.08064564 657.67811318 2927.88893798 670.80155291 2888.80078125 699.125 C2888.23955566 699.53073242 2887.67833008 699.93646484 2887.10009766 700.35449219 C2879.8312465 705.66351119 2873.10611995 711.41329722 2866.5546875 717.58203125 C2864.61689393 719.37139808 2862.68850941 721.0639145 2860.65234375 722.73046875 C2858.39988171 724.62191975 2856.50322299 726.3955781 2854.61328125 728.625 C2853.73349609 729.66140625 2853.73349609 729.66140625 2852.8359375 730.71875 C2852.16433594 731.5128125 2851.49273438 732.306875 2850.80078125 733.125 C2849.97449219 734.0634375 2849.14820312 735.001875 2848.296875 735.96875 C2809.10595989 780.74217435 2793.26458719 836.45997642 2793.41551208 895.02001953 C2793.41316205 897.77060247 2793.40629198 900.52117021 2793.39964634 903.27174568 C2793.38763569 909.2109242 2793.38644884 915.15002427 2793.39270592 921.08921051 C2793.40194668 929.92151951 2793.39379569 938.7537552 2793.38220882 947.58605844 C2793.36314442 962.45546851 2793.35755836 977.32485401 2793.35952568 992.1942749 C2793.36137047 1006.91779702 2793.35611207 1021.64129151 2793.34184456 1036.36480713 C2793.34095468 1037.2831952 2793.3400648 1038.20158328 2793.33914796 1039.14780129 C2793.33457743 1043.81301735 2793.32986039 1048.47823324 2793.32507313 1053.14344907 C2793.31537727 1062.62758392 2793.30664439 1072.11171966 2793.2982111 1081.59585571 C2793.29736684 1082.54504768 2793.29652259 1083.49423965 2793.29565275 1084.47219501 C2793.27583433 1107.02898621 2793.26581924 1129.58578032 2793.25708008 1152.14257812 C2793.25669541 1153.12862952 2793.25631075 1154.11468091 2793.25591442 1155.13061264 C2793.25279858 1163.11938908 2793.24970746 1171.10816553 2793.24665672 1179.09694199 C2793.23785657 1202.10043637 2793.22663412 1225.10392923 2793.21411133 1248.10742188 C2793.21357798 1249.09292755 2793.21304463 1250.07843323 2793.21249511 1251.09380272 C2793.20026832 1273.61391926 2793.18595991 1296.13403271 2793.16655827 1318.65414429 C2793.16574341 1319.60181057 2793.16492855 1320.54947685 2793.164089 1321.52586029 C2793.15592015 1330.98934527 2793.14748262 1340.45282996 2793.1385991 1349.9163143 C2793.11965038 1370.20506692 2793.10662475 1390.49379991 2793.10560436 1410.78256184 C2793.10480913 1425.57249994 2793.09738081 1440.36242147 2793.08307462 1455.15235281 C2793.07483829 1463.92369741 2793.07217707 1472.69500242 2793.0776248 1481.4663494 C2793.08073246 1487.34162809 2793.07652636 1493.21687359 2793.06665283 1499.09214469 C2793.06125614 1502.42860342 2793.05995101 1505.76491737 2793.0654661 1509.10138535 C2793.18871913 1590.27531623 2765.06065768 1662.77569362 2707.67578125 1720.5 C2700.99864767 1727.13763852 2694.33940644 1733.47103111 2686.80078125 1739.125 C2685.61763327 1740.04707937 2684.43541233 1740.97034896 2683.25390625 1741.89453125 C2634.10261211 1779.97950781 2574.40575562 1800.68254168 2512.30078125 1800.4375 C2511.33789185 1800.43567719 2510.37500244 1800.43385437 2509.38293457 1800.43197632 C2494.009837 1800.38312586 2478.97905192 1799.7681749 2463.80078125 1797.125 C2462.80852539 1796.95339355 2461.81626953 1796.78178711 2460.79394531 1796.60498047 C2431.63087443 1791.37693236 2403.94554803 1782.06631992 2377.80078125 1768.125 C2377.08470703 1767.74762695 2376.36863281 1767.37025391 2375.63085938 1766.98144531 C2354.45430489 1755.76870766 2335.65069322 1741.89377685 2318.24658203 1725.46923828 C2316.18471717 1723.55221229 2314.05528205 1721.7162435 2311.92578125 1719.875 C2308.52148134 1716.8668368 2305.51802765 1713.69235361 2302.58984375 1710.22265625 C2300.67931987 1707.98258786 2298.68142901 1705.84265968 2296.67578125 1703.6875 C2284.77960212 1690.44723318 2274.8382607 1675.59894033 2264.76318359 1660.96777344 C2261.75480663 1656.60978124 2258.71631048 1652.27309327 2255.67578125 1647.9375 C2254.52731234 1646.29819909 2253.3788747 1644.65887627 2252.23046875 1643.01953125 C2251.66553711 1642.21338379 2251.10060547 1641.40723633 2250.51855469 1640.57666016 C2247.61116035 1636.42713572 2244.70610124 1632.27597694 2241.80078125 1628.125 C2240.6341255 1626.45832569 2239.46745884 1624.79165902 2238.30078125 1623.125 C2161.30078128 1513.12500004 2161.30078128 1513.12500004 2159.55029297 1510.62426758 C2158.38529761 1508.96001172 2157.22025865 1507.29578639 2156.05517578 1505.6315918 C2153.11257714 1501.42829077 2150.17077221 1497.22443819 2147.23046875 1493.01953125 C2141.76901694 1485.21061332 2136.30118193 1477.4065462 2130.80078125 1469.625 C2124.70002686 1460.9941193 2118.63979612 1452.33510946 2112.58300781 1443.67333984 C2109.65701392 1439.4895694 2106.72879815 1435.30735476 2103.80078125 1431.125 C2102.63410366 1429.45834098 2101.467437 1427.79167431 2100.30078125 1426.125 C2099.72328125 1425.3 2099.14578125 1424.475 2098.55078125 1423.625 C1967.30078123 1236.12499997 1967.30078123 1236.12499997 1965.55029297 1233.62426758 C1964.38529761 1231.96001172 1963.22025865 1230.29578639 1962.05517578 1228.6315918 C1959.11257714 1224.42829077 1956.17077221 1220.22443819 1953.23046875 1216.01953125 C1947.76901694 1208.21061332 1942.30118193 1200.4065462 1936.80078125 1192.625 C1930.70002686 1183.9941193 1924.63979612 1175.33510946 1918.58300781 1166.67333984 C1915.65701392 1162.4895694 1912.72879815 1158.30735476 1909.80078125 1154.125 C1908.63410366 1152.45834098 1907.467437 1150.79167431 1906.30078125 1149.125 C1905.72328125 1148.3 1905.14578125 1147.475 1904.55078125 1146.625 C1787.30078124 979.12499999 1787.30078124 979.12499999 1785.55029297 976.62426758 C1784.38529761 974.96001172 1783.22025865 973.29578639 1782.05517578 971.6315918 C1779.11257714 967.42829077 1776.17077221 963.22443819 1773.23046875 959.01953125 C1767.76901694 951.21061332 1762.30118193 943.4065462 1756.80078125 935.625 C1750.70002686 926.9941193 1744.63979612 918.33510946 1738.58300781 909.67333984 C1735.65701392 905.4895694 1732.72879815 901.30735476 1729.80078125 897.125 C1728.63410366 895.45834098 1727.467437 893.79167431 1726.30078125 892.125 C1725.72328125 891.3 1725.14578125 890.475 1724.55078125 889.625 C1663.30078127 802.12500002 1663.30078127 802.12500002 1661.55029297 799.62426758 C1660.38529761 797.96001172 1659.22025865 796.29578639 1658.05517578 794.6315918 C1655.11257714 790.42829077 1652.17077221 786.22443819 1649.23046875 782.01953125 C1646.8849067 778.6651944 1644.53709804 775.31244835 1642.1875 771.9609375 C1639.97462855 768.80438794 1637.76958456 765.64259931 1635.5703125 762.4765625 C1629.95418156 754.41607324 1624.22878673 746.56919752 1617.80078125 739.125 C1616.77984375 737.93777344 1616.77984375 737.93777344 1615.73828125 736.7265625 C1605.595944 725.20456909 1594.86218194 714.54568184 1582.52001953 705.39990234 C1580.85106803 704.1622902 1579.19900572 702.90446181 1577.546875 701.64453125 C1538.53116226 672.37403005 1489.97695806 657.64140888 1441.48828125 657.75 C1440.57002563 657.75054382 1439.65177002 657.75108765 1438.70568848 657.75164795 C1382.97695886 657.90273655 1329.13119126 678.19050004 1288.0234375 716.08984375 C1286.01213434 717.93147634 1283.95258453 719.6858619 1281.86328125 721.4375 C1250.27587996 749.17123833 1229.75094111 790.31010192 1219.42578125 830.375 C1219.19906738 831.24697021 1218.97235352 832.11894043 1218.73876953 833.01733398 C1214.13253498 852.08173815 1213.36471019 870.9655841 1213.41551208 890.49789429 C1213.41316351 893.21630088 1213.40629385 895.93469204 1213.39964634 898.65309107 C1213.38762377 904.52837822 1213.38645433 910.40358609 1213.39270592 916.27888107 C1213.40193905 925.01664469 1213.39380152 933.7543341 1213.38220882 942.49209188 C1213.36313352 957.20377161 1213.35755936 971.91542649 1213.35952568 986.62711716 C1213.3613704 1001.20157374 1213.35611301 1015.77600241 1213.34184456 1030.35045242 C1213.34050974 1031.71402214 1213.34050974 1031.71402214 1213.33914796 1033.10513871 C1213.33457734 1037.72304617 1213.3298603 1042.34095347 1213.32507313 1046.95886071 C1213.3153766 1056.34777465 1213.3066438 1065.73668948 1213.2982111 1075.12560463 C1213.29736684 1076.06533983 1213.29652259 1077.00507504 1213.29565275 1077.97328707 C1213.27582894 1100.31177801 1213.26581846 1122.65027191 1213.25708008 1144.98876953 C1213.25669541 1145.96537157 1213.25631075 1146.9419736 1213.25591442 1147.94816964 C1213.25279885 1155.85965053 1213.24970775 1163.77113144 1213.24665672 1171.68261236 C1213.2378641 1194.44091586 1213.22664003 1217.1992178 1213.21411133 1239.95751953 C1213.2133113 1241.41932937 1213.2133113 1241.41932937 1213.21249511 1242.91067071 C1213.20026156 1265.19260451 1213.18594242 1287.47453519 1213.16655827 1309.756464 C1213.16533598 1311.1642063 1213.16533598 1311.1642063 1213.164089 1312.60038784 C1213.15591854 1321.97439013 1213.14748075 1331.34839212 1213.1385991 1340.72239376 C1213.11967286 1360.79967899 1213.1066263 1380.87694447 1213.10560436 1400.95423909 C1213.10480747 1415.59893277 1213.09735105 1430.24360977 1213.08307462 1444.88829665 C1213.07486297 1453.564634 1213.07215838 1462.2409314 1213.0776248 1470.91727112 C1213.08074757 1476.73950256 1213.07648263 1482.56170071 1213.06665283 1488.38392455 C1213.06128959 1491.68355875 1213.05991001 1494.98304819 1213.0654661 1498.28269129 C1213.08683131 1512.10388467 1212.77123535 1525.85448579 1211.89010715 1539.64563942 C1211.81001486 1540.91059469 1211.72992257 1542.17554996 1211.64740324 1543.47883721 C1206.99714724 1610.81733048 1175.34602415 1672.48114901 1128.23828125 1719.9375 C1127.375979 1720.80914795 1126.51367676 1721.6807959 1125.62524414 1722.57885742 C1119.66010688 1728.51462368 1113.40811894 1733.91728047 1106.80078125 1739.125 C1106.12072021 1739.66439209 1105.44065918 1740.20378418 1104.73999023 1740.75952148 C1067.32791517 1770.10416933 1023.57612072 1788.99845244 976.80078125 1797.125 C975.86202148 1797.29016113 974.92326172 1797.45532227 973.95605469 1797.62548828 C945.41198184 1802.40590367 914.28862604 1802.03592412 885.80078125 1797.125 C884.70507812 1796.93695801 883.609375 1796.74891602 882.48046875 1796.55517578 C857.42882973 1792.0719881 832.63299374 1784.44821288 809.80078125 1773.125 C808.92969727 1772.70025391 808.05861328 1772.27550781 807.16113281 1771.83789062 C787.70625968 1762.28890824 769.61338718 1750.81019507 752.80078125 1737.125 C752.28676758 1736.70718262 751.77275391 1736.28936523 751.24316406 1735.85888672 C732.43022095 1720.4817021 715.39633822 1703.56814412 700.80078125 1684.125 C700.25276855 1683.39619629 699.70475586 1682.66739258 699.14013672 1681.91650391 C692.09099203 1672.51043057 685.24624338 1662.98619662 678.6328125 1653.26953125 C675.45884015 1648.60934269 672.2254427 1643.9914311 668.98828125 1639.375 C668.39917969 1638.53461182 667.81007813 1637.69422363 667.203125 1636.82836914 C666.00197785 1635.11526566 664.8006422 1633.40229434 663.59912109 1631.68945312 C660.66353141 1627.50326875 657.73234516 1623.31400408 654.80078125 1619.125 C653.63413644 1617.45831803 652.46746975 1615.79165138 651.30078125 1614.125 C490.30078126 1384.12500001 490.30078126 1384.12500001 488.55029297 1381.62426758 C487.38529761 1379.96001172 486.22025865 1378.29578639 485.05517578 1376.6315918 C482.11257714 1372.42829077 479.17077221 1368.22443819 476.23046875 1364.01953125 C470.76901694 1356.21061332 465.30118193 1348.4065462 459.80078125 1340.625 C453.70002686 1331.9941193 447.63979612 1323.33510946 441.58300781 1314.67333984 C438.65701392 1310.4895694 435.72879815 1306.30735476 432.80078125 1302.125 C431.63410366 1300.45834098 430.467437 1298.79167431 429.30078125 1297.125 C428.43453125 1295.8875 428.43453125 1295.8875 427.55078125 1294.625 C369.80078125 1212.125 312.05078125 1129.625 210.55029297 984.62426758 C209.38529761 982.96001172 208.22025865 981.29578639 207.05517578 979.6315918 C204.11257714 975.42829077 201.17077221 971.22443819 198.23046875 967.01953125 C192.76901694 959.21061332 187.30118193 951.4065462 181.80078125 943.625 C175.70002686 934.9941193 169.63979612 926.33510946 163.58300781 917.67333984 C160.65701392 913.4895694 157.72879815 909.30735476 154.80078125 905.125 C153.63410366 903.45834098 152.467437 901.79167431 151.30078125 900.125 C150.72328125 899.3 150.14578125 898.475 149.55078125 897.625 C101.13411458 828.45833333 52.71744792 759.29166667 4.30078125 690.125 C3.72295898 689.2997583 3.14513672 688.4745166 2.54980469 687.62426758 C1.38556251 685.96062336 0.22214822 684.29639945 -0.94042969 682.6315918 C-3.88760675 678.41349622 -6.84933648 674.20704103 -9.83984375 670.01953125 C-29.95581144 641.77866193 -43.39308216 613.40773862 -43.33343983 578.08581638 C-43.33696817 576.6400228 -43.33696817 576.6400228 -43.3405678 575.16502127 C-43.34720663 571.94631144 -43.34680113 568.72764246 -43.34638977 565.50892639 C-43.34969154 563.17349783 -43.35341776 560.83806984 -43.35753125 558.50264257 C-43.36647633 552.76453392 -43.37077303 547.02643503 -43.37305022 541.28832016 C-43.37602175 534.4119021 -43.38472443 527.53549417 -43.3934645 520.65908145 C-43.41426663 504.04545716 -43.42477038 487.43183114 -43.4335941 470.81819687 C-43.43780499 462.95710465 -43.44302625 455.0960132 -43.44827863 447.23492162 C-43.46616145 420.31725339 -43.48115852 393.39958494 -43.48859882 366.48191166 C-43.48907358 364.79347774 -43.48954947 363.10504383 -43.49002649 361.41660991 C-43.49026286 360.57932206 -43.49049924 359.7420342 -43.49074278 358.87937399 C-43.49194395 354.63743747 -43.49315941 350.39550096 -43.49438477 346.15356445 C-43.49462492 345.3117507 -43.49486507 344.46993695 -43.49511249 343.60261369 C-43.50300965 316.29428684 -43.52645385 288.98600337 -43.55894071 261.67769547 C-43.59323921 232.79376965 -43.61294974 203.90986923 -43.61624306 175.02592272 C-43.6166606 171.85537524 -43.61714016 168.68482778 -43.61766624 165.51428032 C-43.61778944 164.7336238 -43.61791263 163.95296729 -43.61803955 163.14865452 C-43.62037097 150.58930812 -43.63602704 138.0300122 -43.65650809 125.47068379 C-43.67676419 112.84920053 -43.68224431 100.22777786 -43.67273746 87.60628135 C-43.66798133 80.769517 -43.66960667 73.93290212 -43.6894989 67.09616089 C-43.70707392 60.83714346 -43.70617862 54.57841009 -43.69060161 48.31938987 C-43.68821703 46.05570918 -43.69259293 43.79200911 -43.70443026 41.52835811 C-43.81824758 18.32525083 -43.81824758 18.32525083 -37.07421875 7.8125 C-27.45296348 -1.1812821 -12.6019959 -6.04464043 0 0 Z " fill="#0B100F" transform="translate(543.19921875,1148.875)"/>
</svg>
