<?xml version="1.0" encoding="UTF-8"?>
<svg version="1.1" xmlns="http://www.w3.org/2000/svg" width="1024" height="1024">
<path d="M0 0 C0.67870148 0.00054382 1.35740295 0.00108765 2.05667114 0.00164795 C13.39818191 0.04328162 24.06282567 0.99929829 34.9375 4.375 C35.62263672 4.58398926 36.30777344 4.79297852 37.01367188 5.00830078 C51.76061557 9.66467964 65.32788626 17.15220019 76.9375 27.375 C78.16339844 28.40367188 78.16339844 28.40367188 79.4140625 29.453125 C101.33169176 48.31721458 115.84532873 75.56289949 118.9375 104.375 C119.56945527 117.61095211 119.93045585 131.14515228 117.3125 144.1875 C117.10234253 145.24747192 117.10234253 145.24747192 116.88793945 146.32885742 C115.67182879 151.61605774 113.76684835 156.62067005 111.84619141 161.68237305 C111.56661087 162.42330956 111.28703033 163.16424606 110.99897766 163.92763519 C110.31335057 165.74400254 109.62563484 167.55958124 108.9375 169.375 C109.84110055 169.37858253 109.84110055 169.37858253 110.76295567 169.38223743 C125.53379281 169.44180372 140.30448269 169.51761145 155.07514286 169.61071491 C162.21861848 169.65536485 169.36204765 169.69484692 176.50561523 169.72143555 C182.74399293 169.74466894 188.98221971 169.77833893 195.22047704 169.82370156 C198.51268298 169.84729918 201.80471613 169.86468334 205.09700203 169.87261391 C225.32030691 169.92618972 245.41208861 170.86241891 265.0625 176.0625 C266.04347656 176.31596191 267.02445313 176.56942383 268.03515625 176.83056641 C284.10957931 181.14138739 299.31592476 187.47039341 313.9375 195.375 C314.8354126 195.85404785 314.8354126 195.85404785 315.75146484 196.34277344 C337.41717432 207.97576545 358.44494644 224.19216007 373.9375 243.375 C374.83561251 244.44949048 375.73408507 245.52368005 376.6328125 246.59765625 C403.8206873 279.44082141 419.39692117 318.2415926 424.9375 360.375 C425.05625992 361.24902969 425.17501984 362.12305939 425.29737854 363.02357483 C426.07475756 370.03113623 425.57996283 376.35942498 424.59501648 383.32400513 C415.01851332 452.25965009 447.65370208 506.34107514 480.1320343 564.40402222 C480.78323966 565.57260751 481.43440128 566.74121717 482.08551598 567.90985298 C483.28202512 570.05060132 484.4867842 572.18676992 485.70165443 574.31715202 C490.15544817 582.27588771 492.21975022 588.88712164 492.3125 598.125 C492.34085938 599.39859375 492.36921875 600.6721875 492.3984375 601.984375 C491.7585148 612.6861411 486.10105931 622.59614195 481.3125 631.9375 C480.74660156 633.05962891 480.18070313 634.18175781 479.59765625 635.33789062 C477.06895759 640.33080892 474.51322011 645.30698404 471.87988281 650.24560547 C466.20818387 660.89268323 460.76162026 671.64422452 455.375 682.4375 C454.99423939 683.20043303 454.61347878 683.96336605 454.22117996 684.74941826 C451.45711279 690.28986472 448.69698643 695.83227098 445.9375 701.375 C443.14843638 706.97683072 440.35800036 712.57796995 437.5642395 718.17745972 C436.45580957 720.40077424 435.34979957 722.62528129 434.24389648 724.84985352 C433.56896495 726.20334626 432.89392232 727.55678361 432.21875 728.91015625 C431.63158203 730.089729 431.04441406 731.26930176 430.43945312 732.48461914 C428.9375 735.375 428.9375 735.375 426.9375 738.375 C426.73992067 740.95658112 426.65727703 743.43188507 426.66625977 746.01391602 C426.66103302 746.79189041 426.65580627 747.56986481 426.65042114 748.37141418 C426.6401691 750.06557255 426.63439864 751.75976252 426.63253975 753.45395088 C426.62886065 756.16247531 426.61207842 758.87063844 426.59178162 761.5790863 C426.53661076 769.28255354 426.50615269 776.98607958 426.48120117 784.68969727 C426.23484397 853.74618841 411.68316065 912.10529219 362.9375 963.375 C362.32648437 964.02726563 361.71546875 964.67953125 361.0859375 965.3515625 C327.09379391 1000.63250775 274.39075465 1023.35119517 225.56953444 1024.71890747 C221.34231473 1024.78240428 217.11677818 1024.77797555 212.88922119 1024.76268005 C210.96675424 1024.76686632 209.04428976 1024.77235083 207.12182975 1024.77899987 C201.90435755 1024.79330387 196.68704532 1024.78925749 191.46956491 1024.78183305 C185.81703668 1024.77706593 180.16454131 1024.78964232 174.51202393 1024.79985046 C163.46337089 1024.81697512 152.41477488 1024.81789164 141.36611202 1024.81263756 C132.37797743 1024.80858262 123.38985958 1024.81005507 114.40172577 1024.81538582 C113.11847079 1024.81613424 111.83521582 1024.81688266 110.51307432 1024.81765376 C107.90544782 1024.81918537 105.29782131 1024.82072372 102.69019482 1024.82226873 C85.20395345 1024.83208473 67.71772207 1024.83627477 50.23147964 1024.82864285 C49.54918356 1024.82834567 48.86688748 1024.8280485 48.16391575 1024.82774232 C42.62490764 1024.82529394 37.08589961 1024.82268207 31.54689158 1024.82005819 C9.95343202 1024.80996039 -11.63994973 1024.81830893 -33.23339844 1024.84155273 C-57.55394864 1024.86769038 -81.87444083 1024.88040641 -106.19500756 1024.87336498 C-119.0499693 1024.86988299 -131.9048672 1024.87203711 -144.75981903 1024.88961601 C-155.70320476 1024.90439646 -166.64648169 1024.90489752 -177.58986542 1024.8875451 C-183.16265988 1024.87908049 -188.7352605 1024.87677337 -194.30804443 1024.89219666 C-237.76814194 1025.00384904 -237.76814194 1025.00384904 -258.0625 1020.375 C-258.93220287 1020.18071155 -259.80190574 1019.98642311 -260.69796324 1019.78624713 C-279.38176387 1015.55353815 -297.26409418 1008.5579056 -314.0625 999.375 C-315.082229 998.82271729 -315.082229 998.82271729 -316.12255859 998.25927734 C-332.3696329 989.36610232 -346.77245201 978.24160139 -360.0625 965.375 C-360.5879541 964.87532715 -361.1134082 964.3756543 -361.65478516 963.86083984 C-396.66047272 930.51665036 -417.75533586 885.0402246 -424.0625 837.375 C-424.15473846 836.75310287 -424.24697693 836.13120575 -424.3420105 835.49046326 C-425.37470168 827.34548528 -425.01472298 819.21509926 -424.83381653 811.02911186 C-424.72313264 805.30079906 -424.69492127 799.57132964 -424.65497589 793.84216213 C-424.61584975 788.86373174 -424.5469474 783.88955306 -424.40771484 778.9128418 C-423.68556374 752.02803809 -426.4009366 732.54338834 -441.00891113 709.66433716 C-443.99373512 704.8833936 -446.52662153 699.90348783 -449.0625 694.875 C-450.00785355 693.06116183 -450.95548859 691.24850939 -451.90625 689.4375 C-456.19405901 681.2191994 -460.42649806 672.97228056 -464.66619873 664.72909546 C-469.31067654 655.69971688 -473.97878727 646.68361161 -478.6875 637.6875 C-480.48184592 634.25139063 -482.27359375 630.81394438 -484.0625 627.375 C-484.44148438 626.64716309 -484.82046875 625.91932617 -485.2109375 625.16943359 C-486.21061365 623.24168219 -487.20108631 621.30956361 -488.1875 619.375 C-488.96480469 617.8590625 -488.96480469 617.8590625 -489.7578125 616.3125 C-492.40093311 610.36152186 -493.35586366 605.06247661 -493.375 598.5625 C-493.39175781 597.25667969 -493.40851563 595.95085938 -493.42578125 594.60546875 C-492.89376541 584.51145004 -488.02206491 575.76211212 -483.5 566.9375 C-482.92958984 565.80634766 -482.35917969 564.67519531 -481.77148438 563.50976562 C-478.35642521 556.76605693 -474.85511744 550.07038034 -471.32421875 543.38671875 C-465.58595446 532.52179524 -460.01011354 521.57555858 -454.4375 510.625 C-452.96878434 507.74000532 -451.49963297 504.85527059 -450.02577209 501.97290039 C-449.01315047 499.97960208 -448.01176246 497.98056198 -447.02098083 495.97631836 C-444.50463431 490.93053362 -441.90549757 486.03739607 -438.88201618 481.27370834 C-424.88834551 459.15436196 -423.94768393 439.54964445 -424.6751709 413.7935791 C-424.87347429 406.05909993 -424.91269919 398.3206609 -424.98371315 390.58415604 C-425.01141752 387.81139836 -425.04816342 385.03885231 -425.08512878 382.26620483 C-425.22631086 369.42262975 -424.54245283 357.00922773 -422.0625 344.375 C-421.83731689 343.14297852 -421.61213379 341.91095703 -421.38012695 340.64160156 C-420.78840098 337.65168606 -420.11656365 334.70587583 -419.375 331.75 C-418.99480713 330.20699219 -418.99480713 330.20699219 -418.60693359 328.6328125 C-415.93140632 318.20676262 -412.27986745 308.26693887 -408.0625 298.375 C-407.75086914 297.6334668 -407.43923828 296.89193359 -407.11816406 296.12792969 C-393.08446281 263.17472008 -368.7097155 233.67041683 -340.0625 212.375 C-339.50481934 211.9512207 -338.94713867 211.52744141 -338.37255859 211.09082031 C-311.56242825 190.73483573 -279.28463929 177.47272686 -246.0625 172.375 C-244.99208466 172.20886703 -243.92166931 172.04273407 -242.81881714 171.87156677 C-228.88538462 169.97038159 -214.97561473 170.02324571 -200.93359375 169.9609375 C-198.24503126 169.94219302 -195.55648415 169.92270901 -192.86793518 169.9022522 C-186.56095014 169.85585891 -180.25394836 169.81892682 -173.94688231 169.78557932 C-166.75431054 169.74707529 -159.56182501 169.69774146 -152.36932647 169.64759517 C-137.60045126 169.54486374 -122.83151403 169.45541634 -108.0625 169.375 C-108.47908371 168.35078445 -108.89566742 167.32656891 -109.32487488 166.27131653 C-109.87451721 164.91115794 -110.42401413 163.5509406 -110.97338867 162.19067383 C-111.24761406 161.51756416 -111.52183945 160.8444545 -111.80437469 160.15094757 C-113.80056597 155.19640065 -115.34398533 150.3108034 -116.375 145.0625 C-116.53323242 144.2996167 -116.69146484 143.5367334 -116.85449219 142.75073242 C-117.9527466 137.30647865 -118.8648701 131.93441493 -119.0625 126.375 C-119.10246094 125.26253906 -119.14242188 124.15007812 -119.18359375 123.00390625 C-119.77359987 89.65120738 -108.19167033 59.45340059 -85.30249023 35.15307617 C-71.82276117 21.3554578 -55.57755945 11.6713768 -37.375 5.5 C-36.11127563 5.07037964 -36.11127563 5.07037964 -34.82202148 4.63208008 C-23.30968526 0.92543556 -12.05392285 -0.0163928 0 0 Z M-219.0625 429.375 C-220.00738281 430.07496094 -220.95226562 430.77492188 -221.92578125 431.49609375 C-243.24731629 448.04018941 -254.36033996 472.1534301 -258.0625 498.375 C-258.66036496 504.75376968 -258.60320089 511.14141454 -258.56420898 517.54174805 C-258.56800636 519.35946061 -258.57351793 521.17717025 -258.58058167 522.99487305 C-258.59436592 527.86463637 -258.58348961 532.73403965 -258.56687045 537.60378242 C-258.55285937 542.7380387 -258.55949783 547.87227743 -258.56300354 553.00654602 C-258.5656924 561.6194122 -258.55234237 570.23213796 -258.52905273 578.8449707 C-258.50242607 588.75964181 -258.50070902 598.67407879 -258.5124411 608.58877343 C-258.52327024 618.18681967 -258.51699332 627.78478239 -258.50288582 637.38282204 C-258.49717295 641.44098735 -258.49717118 645.49909059 -258.50195122 649.5572567 C-258.50677128 654.34526012 -258.4964143 659.1330115 -258.47499657 663.9209671 C-258.46949723 665.6634594 -258.46889907 667.40597627 -258.47394943 669.14846992 C-258.54291305 696.38524221 -251.78123284 721.89746005 -233.0625 742.375 C-232.31484375 743.21546875 -231.5671875 744.0559375 -230.796875 744.921875 C-213.7721081 763.07410991 -189.46562788 773.25483703 -164.77612305 774.3515625 C-140.54894761 774.93465988 -116.01440616 766.9459903 -98.0625 750.375 C-96.61810547 749.06789063 -96.61810547 749.06789063 -95.14453125 747.734375 C-77.92994966 731.65994083 -65.77950957 708.53280124 -64.93107224 684.68007755 C-64.92303601 683.27518724 -64.92036585 681.87025957 -64.92205811 680.46534729 C-64.91908698 679.68676217 -64.91611586 678.90817706 -64.9130547 678.10599846 C-64.90440789 675.50628288 -64.90286284 672.90661357 -64.90136719 670.30688477 C-64.896736 668.43873497 -64.89171094 666.57058612 -64.88632202 664.70243835 C-64.87322106 659.63170063 -64.86675703 654.56097613 -64.86231136 649.49022412 C-64.85937565 646.31710398 -64.8552698 643.1439874 -64.85080719 639.97086906 C-64.83713552 630.02843702 -64.82746843 620.08601319 -64.8236053 610.14357239 C-64.81913156 598.69439789 -64.80161403 587.24534319 -64.7726047 575.7962051 C-64.75092501 566.92967856 -64.7408976 558.06318555 -64.73956418 549.1966328 C-64.73852023 543.90943378 -64.73270079 538.62234741 -64.71474457 533.33517647 C-64.6981559 528.35370231 -64.69616031 523.37242417 -64.70488358 518.39093208 C-64.70564833 516.57341992 -64.7013864 514.75589674 -64.69142532 512.93841171 C-64.54242666 484.03143156 -73.5814611 458.70313771 -93.72265625 437.5859375 C-113.14009493 419.11220349 -138.59093929 409.62101489 -165.296875 410.1015625 C-184.85513505 410.92122402 -203.4763959 417.61397646 -219.0625 429.375 Z M79.76953125 441.25390625 C76.17851275 445.41152469 73.01517737 449.82901405 69.9375 454.375 C69.40125 455.15488281 68.865 455.93476563 68.3125 456.73828125 C56.8665048 474.47361236 54.47708209 494.22473931 54.53344727 514.78442383 C54.52773111 516.688445 54.52076208 518.59246275 54.51264954 520.49647522 C54.4948392 525.62478138 54.49586367 530.7529153 54.50159192 535.88124299 C54.50470188 540.18241447 54.49857126 544.48355373 54.49255317 548.7847206 C54.47854891 558.94252703 54.48003457 569.10024929 54.49145508 579.25805664 C54.50292818 589.69238444 54.4888647 600.12645496 54.4620586 610.56074888 C54.4398137 619.5608518 54.43328406 628.56087448 54.43913502 637.56100291 C54.44248532 642.91804369 54.44021909 648.2749197 54.42288399 653.63193703 C54.40727634 658.67434837 54.41152163 663.71638235 54.43018913 668.75877953 C54.43383732 670.59438384 54.43087875 672.430017 54.42030334 674.26559448 C54.26682485 703.14091974 63.4204501 728.52941963 83.9375 749.375 C102.46014191 766.86829031 126.23567378 775.82070497 151.5 776.625 C178.74299121 775.74785824 203.90795171 764.60888536 222.75390625 744.8984375 C242.30666391 722.30258518 248.25979981 696.46509321 248.2121582 667.08886719 C248.21651589 665.29336843 248.22170252 663.49787153 248.22764587 661.70237732 C248.24093478 656.86535389 248.24162581 652.02840907 248.23908257 647.19137096 C248.23800577 643.13381785 248.24291434 639.07628018 248.247688 635.0187304 C248.25874866 625.43483824 248.2592403 615.85098528 248.25317383 606.26708984 C248.24713925 596.42528695 248.25943993 586.5836272 248.2807439 576.74184871 C248.29843777 568.25132494 248.30434897 559.76084641 248.30110615 551.27030492 C248.29930522 546.2173213 248.30180908 541.16443977 248.31582069 536.11147308 C248.32852164 531.35394015 248.32634076 526.59662806 248.31340981 521.83909798 C248.31107075 520.10830926 248.31368081 518.37750439 248.32203293 516.64673424 C248.44270039 489.66342516 242.47031992 463.97408629 223.9375 443.375 C223.50840332 442.89675781 223.07930664 442.41851562 222.63720703 441.92578125 C215.26932189 433.83229076 207.41401478 427.81181191 197.9375 422.375 C196.98488281 421.81039063 196.03226563 421.24578125 195.05078125 420.6640625 C157.2026156 399.86604679 108.83278058 410.84456958 79.76953125 441.25390625 Z " fill="#000000" transform="translate(514.0625,-0.375)"/>
</svg>
